%TF.GenerationSoftware,KiCad,Pcbnew,10.0.6*%
%TF.CreationDate,2026-10-08T12:58:02+11:00*%
%TF.ProjectId,aucboard,61756362-6f61-4726-942e-6b696361645f,rev?*%
%TF.SameCoordinates,Original*%
%TF.FileFunction,Soldermask,Bot*%
%TF.FilePolarity,Negative*%
%FSLAX46Y46*%
G04 Gerber Fmt 4.6, Leading zero omitted, Abs format (unit mm)*
G04 Created by KiCad (PCBNEW 10.0.6) date 2026-10-08 12:58:02*
%MOMM*%
%LPD*%
G01*
G04 APERTURE LIST*
G04 Aperture macros list*
%AMRoundRect*
0 Rectangle with rounded corners*
0 $1 Rounding radius*
0 $2 $3 $4 $5 $6 $7 $8 $9 X,Y pos of 4 corners*
0 Add a 4 corners polygon primitive as box body*
4,1,4,$2,$3,$4,$5,$6,$7,$8,$9,$2,$3,0*
0 Add four circle primitives for the rounded corners*
1,1,$1+$1,$2,$3*
1,1,$1+$1,$4,$5*
1,1,$1+$1,$6,$7*
1,1,$1+$1,$8,$9*
0 Add four rect primitives between the rounded corners*
20,1,$1+$1,$2,$3,$4,$5,0*
20,1,$1+$1,$4,$5,$6,$7,0*
20,1,$1+$1,$6,$7,$8,$9,0*
20,1,$1+$1,$8,$9,$2,$3,0*%
G04 Aperture macros list end*
%ADD10RoundRect,0.250000X-0.450000X0.350000X-0.450000X-0.350000X0.450000X-0.350000X0.450000X0.350000X0*%
%ADD11RoundRect,0.250000X-0.350000X-0.450000X0.350000X-0.450000X0.350000X0.450000X-0.350000X0.450000X0*%
%ADD12RoundRect,0.250000X0.450000X-0.350000X0.450000X0.350000X-0.450000X0.350000X-0.450000X-0.350000X0*%
%ADD13RoundRect,0.250000X-0.337500X-0.475000X0.337500X-0.475000X0.337500X0.475000X-0.337500X0.475000X0*%
%ADD14RoundRect,0.250000X-0.475000X0.337500X-0.475000X-0.337500X0.475000X-0.337500X0.475000X0.337500X0*%
%ADD15O,3.000000X1.500000*%
%ADD16O,2.500000X3.500000*%
%ADD17O,3.500000X2.500000*%
%ADD18C,2.000000*%
%ADD19R,1.700000X1.700000*%
%ADD20C,1.700000*%
G04 APERTURE END LIST*
D10*
%TO.C,R6*%
X73000000Y-92250000D03*
X73000000Y-94250000D03*
%TD*%
D11*
%TO.C,R3*%
X79750000Y-108750000D03*
X81750000Y-108750000D03*
%TD*%
D12*
%TO.C,R2*%
X75250000Y-97500000D03*
X75250000Y-95500000D03*
%TD*%
%TO.C,R1*%
X76500000Y-108000000D03*
X76500000Y-106000000D03*
%TD*%
D13*
%TO.C,C9*%
X75175000Y-93250000D03*
X77250000Y-93250000D03*
%TD*%
D14*
%TO.C,C8*%
X76500000Y-110500000D03*
X76500000Y-112575000D03*
%TD*%
%TO.C,C7*%
X79750000Y-111712500D03*
X79750000Y-113787500D03*
%TD*%
D15*
%TO.C,J1*%
X72800000Y-79000000D03*
D16*
X64500000Y-84000000D03*
D17*
X68000000Y-88500000D03*
%TD*%
D18*
%TO.C,REF\u002A\u002A*%
X64500000Y-54000000D03*
%TD*%
%TO.C,REF\u002A\u002A*%
X138500000Y-160500000D03*
%TD*%
%TO.C,REF\u002A\u002A*%
X138500000Y-53500000D03*
%TD*%
D19*
%TO.C,DISP1*%
X99500000Y-63100000D03*
D20*
X102040000Y-63100000D03*
X104580000Y-63100000D03*
X107120000Y-63100000D03*
%TD*%
D18*
%TO.C,REF\u002A\u002A*%
X64000000Y-160500000D03*
%TD*%
D19*
%TO.C,DAC2*%
X87530000Y-139700000D03*
D20*
X84990000Y-139700000D03*
X82450000Y-139700000D03*
X79910000Y-139700000D03*
X77370000Y-139700000D03*
X74830000Y-139700000D03*
X72290000Y-139700000D03*
X69750000Y-139700000D03*
X67210000Y-139700000D03*
%TD*%
D19*
%TO.C,RPIZ2W1*%
X129040000Y-56860000D03*
D20*
X131580000Y-56860000D03*
X129040000Y-59400000D03*
X131580000Y-59400000D03*
X129040000Y-61940000D03*
X131580000Y-61940000D03*
X129040000Y-64480000D03*
X131580000Y-64480000D03*
X129040000Y-67020000D03*
X131580000Y-67020000D03*
X129040000Y-69560000D03*
X131580000Y-69560000D03*
X129040000Y-72100000D03*
X131580000Y-72100000D03*
X129040000Y-74640000D03*
X131580000Y-74640000D03*
X129040000Y-77180000D03*
X131580000Y-77180000D03*
X129040000Y-79720000D03*
X131580000Y-79720000D03*
X129040000Y-82260000D03*
X131580000Y-82260000D03*
X129040000Y-84800000D03*
X131580000Y-84800000D03*
X129040000Y-87340000D03*
X131580000Y-87340000D03*
X129040000Y-89880000D03*
X131580000Y-89880000D03*
X129040000Y-92420000D03*
X131580000Y-92420000D03*
X129040000Y-94960000D03*
X131580000Y-94960000D03*
X129040000Y-97500000D03*
X131580000Y-97500000D03*
X129040000Y-100040000D03*
X131580000Y-100040000D03*
X129040000Y-102580000D03*
X131580000Y-102580000D03*
X129040000Y-105120000D03*
X131580000Y-105120000D03*
%TD*%
D19*
%TO.C,DAC1*%
X96500000Y-156040000D03*
D20*
X96500000Y-153500000D03*
X96500000Y-150960000D03*
X96500000Y-148420000D03*
X96500000Y-145880000D03*
X96500000Y-143340000D03*
%TD*%
M02*
