%TF.GenerationSoftware,KiCad,Pcbnew,10.0.6*%
%TF.CreationDate,2026-10-08T12:58:01+11:00*%
%TF.ProjectId,aucboard,61756362-6f61-4726-942e-6b696361645f,rev?*%
%TF.SameCoordinates,Original*%
%TF.FileFunction,Copper,L2,Bot*%
%TF.FilePolarity,Positive*%
%FSLAX46Y46*%
G04 Gerber Fmt 4.6, Leading zero omitted, Abs format (unit mm)*
G04 Created by KiCad (PCBNEW 10.0.6) date 2026-10-08 12:58:01*
%MOMM*%
%LPD*%
G01*
G04 APERTURE LIST*
G04 Aperture macros list*
%AMRoundRect*
0 Rectangle with rounded corners*
0 $1 Rounding radius*
0 $2 $3 $4 $5 $6 $7 $8 $9 X,Y pos of 4 corners*
0 Add a 4 corners polygon primitive as box body*
4,1,4,$2,$3,$4,$5,$6,$7,$8,$9,$2,$3,0*
0 Add four circle primitives for the rounded corners*
1,1,$1+$1,$2,$3*
1,1,$1+$1,$4,$5*
1,1,$1+$1,$6,$7*
1,1,$1+$1,$8,$9*
0 Add four rect primitives between the rounded corners*
20,1,$1+$1,$2,$3,$4,$5,0*
20,1,$1+$1,$4,$5,$6,$7,0*
20,1,$1+$1,$6,$7,$8,$9,0*
20,1,$1+$1,$8,$9,$2,$3,0*%
G04 Aperture macros list end*
%TA.AperFunction,SMDPad,CuDef*%
%ADD10RoundRect,0.250000X-0.450000X0.350000X-0.450000X-0.350000X0.450000X-0.350000X0.450000X0.350000X0*%
%TD*%
%TA.AperFunction,SMDPad,CuDef*%
%ADD11RoundRect,0.250000X-0.350000X-0.450000X0.350000X-0.450000X0.350000X0.450000X-0.350000X0.450000X0*%
%TD*%
%TA.AperFunction,SMDPad,CuDef*%
%ADD12RoundRect,0.250000X0.450000X-0.350000X0.450000X0.350000X-0.450000X0.350000X-0.450000X-0.350000X0*%
%TD*%
%TA.AperFunction,SMDPad,CuDef*%
%ADD13RoundRect,0.250000X-0.337500X-0.475000X0.337500X-0.475000X0.337500X0.475000X-0.337500X0.475000X0*%
%TD*%
%TA.AperFunction,SMDPad,CuDef*%
%ADD14RoundRect,0.250000X-0.475000X0.337500X-0.475000X-0.337500X0.475000X-0.337500X0.475000X0.337500X0*%
%TD*%
%TA.AperFunction,ComponentPad*%
%ADD15O,3.000000X1.500000*%
%TD*%
%TA.AperFunction,ComponentPad*%
%ADD16O,2.500000X3.500000*%
%TD*%
%TA.AperFunction,ComponentPad*%
%ADD17O,3.500000X2.500000*%
%TD*%
%TA.AperFunction,ComponentPad*%
%ADD18R,1.700000X1.700000*%
%TD*%
%TA.AperFunction,ComponentPad*%
%ADD19C,1.700000*%
%TD*%
%TA.AperFunction,ViaPad*%
%ADD20C,0.600000*%
%TD*%
%TA.AperFunction,Conductor*%
%ADD21C,0.200000*%
%TD*%
G04 APERTURE END LIST*
D10*
%TO.P,R6,1*%
%TO.N,GND*%
X73000000Y-92250000D03*
%TO.P,R6,2*%
%TO.N,/INL+-*%
X73000000Y-94250000D03*
%TD*%
D11*
%TO.P,R3,1*%
%TO.N,Net-(C7-Pad1)*%
X79750000Y-108750000D03*
%TO.P,R3,2*%
%TO.N,/OUTR*%
X81750000Y-108750000D03*
%TD*%
D12*
%TO.P,R2,1*%
%TO.N,/INL+-*%
X75250000Y-97500000D03*
%TO.P,R2,2*%
%TO.N,Net-(C9-Pad2)*%
X75250000Y-95500000D03*
%TD*%
%TO.P,R1,1*%
%TO.N,Net-(C8-Pad1)*%
X76500000Y-108000000D03*
%TO.P,R1,2*%
%TO.N,/INR+-*%
X76500000Y-106000000D03*
%TD*%
D13*
%TO.P,C9,1*%
%TO.N,/INL++*%
X75175000Y-93250000D03*
%TO.P,C9,2*%
%TO.N,Net-(C9-Pad2)*%
X77250000Y-93250000D03*
%TD*%
D14*
%TO.P,C8,1*%
%TO.N,Net-(C8-Pad1)*%
X76500000Y-110500000D03*
%TO.P,C8,2*%
%TO.N,/INR++*%
X76500000Y-112575000D03*
%TD*%
%TO.P,C7,1*%
%TO.N,Net-(C7-Pad1)*%
X79750000Y-111712500D03*
%TO.P,C7,2*%
%TO.N,/INR++*%
X79750000Y-113787500D03*
%TD*%
D15*
%TO.P,J1,R*%
%TO.N,/OUTR*%
X72800000Y-79000000D03*
D16*
%TO.P,J1,S*%
%TO.N,/AGND*%
X64500000Y-84000000D03*
D17*
%TO.P,J1,T*%
%TO.N,/OUTL*%
X68000000Y-88500000D03*
%TD*%
D18*
%TO.P,DISP1,1,Pin_1_1*%
%TO.N,GND*%
X99500000Y-63100000D03*
D19*
%TO.P,DISP1,2,Pin_2_2*%
%TO.N,+3V3*%
X102040000Y-63100000D03*
%TO.P,DISP1,3,Pin_3_3*%
%TO.N,/SCL*%
X104580000Y-63100000D03*
%TO.P,DISP1,4,Pin_4_4*%
%TO.N,/SDA*%
X107120000Y-63100000D03*
%TD*%
D18*
%TO.P,DAC2,1,FLT_1*%
%TO.N,/GPIO27*%
X87530000Y-139700000D03*
D19*
%TO.P,DAC2,2,DEMP_2*%
%TO.N,/GPIO22*%
X84990000Y-139700000D03*
%TO.P,DAC2,3,XSMT_3*%
%TO.N,/GPIO17*%
X82450000Y-139700000D03*
%TO.P,DAC2,4,FMT_4*%
%TO.N,/GPIO23*%
X79910000Y-139700000D03*
%TO.P,DAC2,5,A3V3_5*%
%TO.N,unconnected-(DAC2-A3V3-Pad5)*%
X77370000Y-139700000D03*
%TO.P,DAC2,6,AGND_6*%
%TO.N,/AGND*%
X74830000Y-139700000D03*
%TO.P,DAC2,7,ROUT_7*%
%TO.N,/INR++*%
X72290000Y-139700000D03*
%TO.P,DAC2,8,AGND_8*%
%TO.N,unconnected-(DAC2-AGND-Pad8)*%
X69750000Y-139700000D03*
%TO.P,DAC2,9,LROUT_9*%
%TO.N,/INL++*%
X67210000Y-139700000D03*
%TD*%
D18*
%TO.P,RPIZ2W1,1,Pin_1_1*%
%TO.N,+3V3*%
X129040000Y-56860000D03*
D19*
%TO.P,RPIZ2W1,2,Pin_2_2*%
%TO.N,+5V1*%
X131580000Y-56860000D03*
%TO.P,RPIZ2W1,3,Pin_3_3*%
%TO.N,/SDA*%
X129040000Y-59400000D03*
%TO.P,RPIZ2W1,4,Pin_4_4*%
%TO.N,unconnected-(RPIZ2W1-Pin_4-Pad4)*%
X131580000Y-59400000D03*
%TO.P,RPIZ2W1,5,Pin_5_5*%
%TO.N,/SCL*%
X129040000Y-61940000D03*
%TO.P,RPIZ2W1,6,Pin_6_6*%
%TO.N,GND*%
X131580000Y-61940000D03*
%TO.P,RPIZ2W1,7,Pin_7_7*%
%TO.N,unconnected-(RPIZ2W1-Pin_7-Pad7)*%
X129040000Y-64480000D03*
%TO.P,RPIZ2W1,8,Pin_8_8*%
%TO.N,unconnected-(RPIZ2W1-Pin_8-Pad8)*%
X131580000Y-64480000D03*
%TO.P,RPIZ2W1,9,Pin_9_9*%
%TO.N,unconnected-(RPIZ2W1-Pin_9-Pad9)*%
X129040000Y-67020000D03*
%TO.P,RPIZ2W1,10,Pin_10_10*%
%TO.N,unconnected-(RPIZ2W1-Pin_10-Pad10)*%
X131580000Y-67020000D03*
%TO.P,RPIZ2W1,11,Pin_11_11*%
%TO.N,/GPIO17*%
X129040000Y-69560000D03*
%TO.P,RPIZ2W1,12,Pin_12_12*%
%TO.N,/BCK*%
X131580000Y-69560000D03*
%TO.P,RPIZ2W1,13,Pin_13_13*%
%TO.N,/GPIO27*%
X129040000Y-72100000D03*
%TO.P,RPIZ2W1,14,Pin_14_14*%
%TO.N,/SCK*%
X131580000Y-72100000D03*
%TO.P,RPIZ2W1,15,Pin_15_15*%
%TO.N,/GPIO22*%
X129040000Y-74640000D03*
%TO.P,RPIZ2W1,16,Pin_16_16*%
%TO.N,/GPIO23*%
X131580000Y-74640000D03*
%TO.P,RPIZ2W1,17,Pin_17_17*%
%TO.N,unconnected-(RPIZ2W1-Pin_17-Pad17)*%
X129040000Y-77180000D03*
%TO.P,RPIZ2W1,18,Pin_18_18*%
%TO.N,unconnected-(RPIZ2W1-Pin_18-Pad18)*%
X131580000Y-77180000D03*
%TO.P,RPIZ2W1,19,Pin_19_19*%
%TO.N,unconnected-(RPIZ2W1-Pin_19-Pad19)*%
X129040000Y-79720000D03*
%TO.P,RPIZ2W1,20,Pin_20_20*%
%TO.N,unconnected-(RPIZ2W1-Pin_20-Pad20)*%
X131580000Y-79720000D03*
%TO.P,RPIZ2W1,21,Pin_21_21*%
%TO.N,unconnected-(RPIZ2W1-Pin_21-Pad21)*%
X129040000Y-82260000D03*
%TO.P,RPIZ2W1,22,Pin_22_22*%
%TO.N,unconnected-(RPIZ2W1-Pin_22-Pad22)*%
X131580000Y-82260000D03*
%TO.P,RPIZ2W1,23,Pin_23_23*%
%TO.N,unconnected-(RPIZ2W1-Pin_23-Pad23)*%
X129040000Y-84800000D03*
%TO.P,RPIZ2W1,24,Pin_24_24*%
%TO.N,unconnected-(RPIZ2W1-Pin_24-Pad24)*%
X131580000Y-84800000D03*
%TO.P,RPIZ2W1,25,Pin_25_25*%
%TO.N,unconnected-(RPIZ2W1-Pin_25-Pad25)*%
X129040000Y-87340000D03*
%TO.P,RPIZ2W1,26,Pin_26_26*%
%TO.N,unconnected-(RPIZ2W1-Pin_26-Pad26)*%
X131580000Y-87340000D03*
%TO.P,RPIZ2W1,27,Pin_27_27*%
%TO.N,unconnected-(RPIZ2W1-Pin_27-Pad27)*%
X129040000Y-89880000D03*
%TO.P,RPIZ2W1,28,Pin_28_28*%
%TO.N,unconnected-(RPIZ2W1-Pin_28-Pad28)*%
X131580000Y-89880000D03*
%TO.P,RPIZ2W1,29,Pin_29_29*%
%TO.N,/GPIO5*%
X129040000Y-92420000D03*
%TO.P,RPIZ2W1,30,Pin_30_30*%
%TO.N,unconnected-(RPIZ2W1-Pin_30-Pad30)*%
X131580000Y-92420000D03*
%TO.P,RPIZ2W1,31,Pin_31_31*%
%TO.N,/GPIO6*%
X129040000Y-94960000D03*
%TO.P,RPIZ2W1,32,Pin_32_32*%
%TO.N,unconnected-(RPIZ2W1-Pin_32-Pad32)*%
X131580000Y-94960000D03*
%TO.P,RPIZ2W1,33,Pin_33_33*%
%TO.N,/GPIO13*%
X129040000Y-97500000D03*
%TO.P,RPIZ2W1,34,Pin_34_34*%
%TO.N,unconnected-(RPIZ2W1-Pin_34-Pad34)*%
X131580000Y-97500000D03*
%TO.P,RPIZ2W1,35,Pin_35_35*%
%TO.N,/LCK*%
X129040000Y-100040000D03*
%TO.P,RPIZ2W1,36,Pin_36_36*%
%TO.N,unconnected-(RPIZ2W1-Pin_36-Pad36)*%
X131580000Y-100040000D03*
%TO.P,RPIZ2W1,37,Pin_37_37*%
%TO.N,/GPIO26*%
X129040000Y-102580000D03*
%TO.P,RPIZ2W1,38,Pin_38_38*%
%TO.N,unconnected-(RPIZ2W1-Pin_38-Pad38)*%
X131580000Y-102580000D03*
%TO.P,RPIZ2W1,39,Pin_39_39*%
%TO.N,unconnected-(RPIZ2W1-Pin_39-Pad39)*%
X129040000Y-105120000D03*
%TO.P,RPIZ2W1,40,Pin_40_40*%
%TO.N,/DIN*%
X131580000Y-105120000D03*
%TD*%
D18*
%TO.P,DAC1,1,VIN_1*%
%TO.N,+5V1*%
X96500000Y-156040000D03*
D19*
%TO.P,DAC1,2,GND_2*%
%TO.N,GND*%
X96500000Y-153500000D03*
%TO.P,DAC1,3,LCK_3*%
%TO.N,/LCK*%
X96500000Y-150960000D03*
%TO.P,DAC1,4,DIN_4*%
%TO.N,/DIN*%
X96500000Y-148420000D03*
%TO.P,DAC1,5,BCK_5*%
%TO.N,/BCK*%
X96500000Y-145880000D03*
%TO.P,DAC1,6,SCK_6*%
%TO.N,/SCK*%
X96500000Y-143340000D03*
%TD*%
D20*
%TO.N,+3V3*%
X79750000Y-97500000D03*
%TO.N,/INL++*%
X68500000Y-98500000D03*
%TO.N,/INL+-*%
X75977200Y-98227200D03*
%TO.N,/INR+-*%
X76500000Y-104000000D03*
%TO.N,/OUTR*%
X83000000Y-105750000D03*
%TO.N,/INR+-*%
X75500000Y-107000000D03*
%TO.N,/AGND*%
X74250000Y-105750000D03*
%TO.N,/GPIO27*%
X123750000Y-81000000D03*
%TO.N,/GPIO17*%
X121750000Y-80750000D03*
%TO.N,GND*%
X74750000Y-67000000D03*
X119000000Y-93250000D03*
X128000000Y-131000000D03*
X65750000Y-96250000D03*
X69500000Y-115250000D03*
X101500000Y-75500000D03*
X135750000Y-65750000D03*
%TD*%
%TO.N,Net-(C7-Pad1)*%
D21*
X79750000Y-108750000D02*
X79750000Y-111712500D01*
%TO.N,+3V3*%
X79750000Y-97500000D02*
X79750000Y-85390000D01*
X79750000Y-85390000D02*
X102040000Y-63100000D01*
%TO.N,/INR++*%
X79750000Y-113787500D02*
X72290000Y-121247500D01*
X72290000Y-121247500D02*
X72290000Y-139700000D01*
X76500000Y-112575000D02*
X78537500Y-112575000D01*
X78537500Y-112575000D02*
X79750000Y-113787500D01*
%TO.N,Net-(C9-Pad2)*%
X77250000Y-93500000D02*
X77250000Y-93250000D01*
X75250000Y-95500000D02*
X77250000Y-93500000D01*
%TO.N,/INL++*%
X68500000Y-97000000D02*
X68500000Y-98500000D01*
X72250000Y-93250000D02*
X68500000Y-97000000D01*
X75175000Y-93250000D02*
X72250000Y-93250000D01*
%TO.N,/INL+-*%
X73000000Y-95250000D02*
X73000000Y-94250000D01*
X75250000Y-97500000D02*
X73000000Y-95250000D01*
%TO.N,/OUTR*%
X81750000Y-107000000D02*
X83000000Y-105750000D01*
X81750000Y-108750000D02*
X81750000Y-107000000D01*
%TO.N,/INL+-*%
X75977200Y-98227200D02*
X75250000Y-97500000D01*
%TO.N,/INR+-*%
X76500000Y-106000000D02*
X75500000Y-107000000D01*
%TO.N,Net-(C8-Pad1)*%
X76500000Y-110500000D02*
X76500000Y-108000000D01*
%TO.N,/INR+-*%
X76500000Y-106000000D02*
X76500000Y-104000000D01*
%TO.N,/AGND*%
X67750000Y-107500000D02*
X64500000Y-104250000D01*
X64500000Y-104250000D02*
X64500000Y-84000000D01*
X72500000Y-107500000D02*
X67750000Y-107500000D01*
X74250000Y-105750000D02*
X72500000Y-107500000D01*
%TO.N,/GPIO27*%
X87530000Y-117220000D02*
X123750000Y-81000000D01*
X87530000Y-139700000D02*
X87530000Y-117220000D01*
%TO.N,/GPIO22*%
X81750000Y-136460000D02*
X81750000Y-121750000D01*
X128860000Y-74640000D02*
X129040000Y-74640000D01*
X84990000Y-139700000D02*
X81750000Y-136460000D01*
X81750000Y-121750000D02*
X128860000Y-74640000D01*
%TO.N,/GPIO17*%
X80750000Y-138000000D02*
X82450000Y-139700000D01*
X80750000Y-121750000D02*
X80750000Y-138000000D01*
X121750000Y-80750000D02*
X80750000Y-121750000D01*
%TO.N,/GPIO23*%
X79910000Y-120840000D02*
X127500000Y-73250000D01*
X79910000Y-139700000D02*
X79910000Y-120840000D01*
X127500000Y-73250000D02*
X130190000Y-73250000D01*
X130190000Y-73250000D02*
X131580000Y-74640000D01*
%TO.N,+5V1*%
X139000000Y-129750000D02*
X139000000Y-64280000D01*
X139000000Y-64280000D02*
X131580000Y-56860000D01*
X96500000Y-156040000D02*
X112710000Y-156040000D01*
X112710000Y-156040000D02*
X139000000Y-129750000D01*
%TO.N,/LCK*%
X96500000Y-150960000D02*
X93250000Y-147710000D01*
X93250000Y-135830000D02*
X129040000Y-100040000D01*
X93250000Y-147710000D02*
X93250000Y-135830000D01*
%TO.N,/DIN*%
X96500000Y-148420000D02*
X94250000Y-146170000D01*
X124750000Y-107500000D02*
X130250000Y-107500000D01*
X94250000Y-138000000D02*
X124750000Y-107500000D01*
X131580000Y-106170000D02*
X131580000Y-105120000D01*
X130250000Y-107500000D02*
X131580000Y-106170000D01*
X94250000Y-146170000D02*
X94250000Y-138000000D01*
%TO.N,/BCK*%
X102620000Y-145880000D02*
X138500000Y-110000000D01*
X138500000Y-76480000D02*
X131580000Y-69560000D01*
X138500000Y-110000000D02*
X138500000Y-76480000D01*
X96500000Y-145880000D02*
X102620000Y-145880000D01*
%TO.N,/SCK*%
X96500000Y-143340000D02*
X137850000Y-101990000D01*
X137850000Y-78370000D02*
X131580000Y-72100000D01*
X137850000Y-101990000D02*
X137850000Y-78370000D01*
%TO.N,/SCL*%
X129953654Y-61940000D02*
X129040000Y-61940000D01*
%TO.N,unconnected-(RPIZ2W1-Pin_38-Pad38)*%
X131500000Y-103000000D02*
X131080000Y-102580000D01*
%TD*%
%TA.AperFunction,Conductor*%
%TO.N,GND*%
G36*
X127628567Y-76823180D02*
G01*
X127684500Y-76865052D01*
X127708917Y-76930516D01*
X127707706Y-76958759D01*
X127689500Y-77073712D01*
X127689500Y-77073713D01*
X127689500Y-77286287D01*
X127722754Y-77496243D01*
X127746805Y-77570265D01*
X127788444Y-77698414D01*
X127884951Y-77887820D01*
X128009890Y-78059786D01*
X128160213Y-78210109D01*
X128332182Y-78335050D01*
X128340946Y-78339516D01*
X128391742Y-78387491D01*
X128408536Y-78455312D01*
X128385998Y-78521447D01*
X128340946Y-78560484D01*
X128332182Y-78564949D01*
X128160213Y-78689890D01*
X128009890Y-78840213D01*
X127884951Y-79012179D01*
X127788444Y-79201585D01*
X127722753Y-79403760D01*
X127689500Y-79613713D01*
X127689500Y-79826286D01*
X127713887Y-79980263D01*
X127722754Y-80036243D01*
X127777634Y-80205146D01*
X127788444Y-80238414D01*
X127884951Y-80427820D01*
X128009890Y-80599786D01*
X128160213Y-80750109D01*
X128332182Y-80875050D01*
X128340946Y-80879516D01*
X128391742Y-80927491D01*
X128408536Y-80995312D01*
X128385998Y-81061447D01*
X128340946Y-81100484D01*
X128332182Y-81104949D01*
X128160213Y-81229890D01*
X128009890Y-81380213D01*
X127884951Y-81552179D01*
X127788444Y-81741585D01*
X127722753Y-81943760D01*
X127707290Y-82041392D01*
X127689500Y-82153713D01*
X127689500Y-82366287D01*
X127722754Y-82576243D01*
X127770803Y-82724123D01*
X127788444Y-82778414D01*
X127884951Y-82967820D01*
X128009890Y-83139786D01*
X128160213Y-83290109D01*
X128332182Y-83415050D01*
X128340946Y-83419516D01*
X128391742Y-83467491D01*
X128408536Y-83535312D01*
X128385998Y-83601447D01*
X128340946Y-83640484D01*
X128332182Y-83644949D01*
X128160213Y-83769890D01*
X128009890Y-83920213D01*
X127884951Y-84092179D01*
X127788444Y-84281585D01*
X127722753Y-84483760D01*
X127702010Y-84614727D01*
X127689500Y-84693713D01*
X127689500Y-84906287D01*
X127690006Y-84909480D01*
X127714461Y-85063887D01*
X127722754Y-85116243D01*
X127786016Y-85310943D01*
X127788444Y-85318414D01*
X127884951Y-85507820D01*
X128009890Y-85679786D01*
X128160213Y-85830109D01*
X128332182Y-85955050D01*
X128340946Y-85959516D01*
X128391742Y-86007491D01*
X128408536Y-86075312D01*
X128385998Y-86141447D01*
X128340946Y-86180484D01*
X128332182Y-86184949D01*
X128160213Y-86309890D01*
X128009890Y-86460213D01*
X127884951Y-86632179D01*
X127788444Y-86821585D01*
X127722753Y-87023760D01*
X127689500Y-87233713D01*
X127689500Y-87446286D01*
X127722753Y-87656239D01*
X127788444Y-87858414D01*
X127884951Y-88047820D01*
X128009890Y-88219786D01*
X128160213Y-88370109D01*
X128332182Y-88495050D01*
X128340946Y-88499516D01*
X128391742Y-88547491D01*
X128408536Y-88615312D01*
X128385998Y-88681447D01*
X128340946Y-88720484D01*
X128332182Y-88724949D01*
X128160213Y-88849890D01*
X128009890Y-89000213D01*
X127884951Y-89172179D01*
X127788444Y-89361585D01*
X127722753Y-89563760D01*
X127708039Y-89656661D01*
X127689500Y-89773713D01*
X127689500Y-89986287D01*
X127722754Y-90196243D01*
X127740383Y-90250500D01*
X127788444Y-90398414D01*
X127884951Y-90587820D01*
X128009890Y-90759786D01*
X128160213Y-90910109D01*
X128332182Y-91035050D01*
X128340946Y-91039516D01*
X128391742Y-91087491D01*
X128408536Y-91155312D01*
X128385998Y-91221447D01*
X128340946Y-91260484D01*
X128332182Y-91264949D01*
X128160213Y-91389890D01*
X128009890Y-91540213D01*
X127884951Y-91712179D01*
X127788444Y-91901585D01*
X127722753Y-92103760D01*
X127708613Y-92193039D01*
X127689500Y-92313713D01*
X127689500Y-92526287D01*
X127722754Y-92736243D01*
X127769879Y-92881279D01*
X127788444Y-92938414D01*
X127884951Y-93127820D01*
X128009890Y-93299786D01*
X128160213Y-93450109D01*
X128332182Y-93575050D01*
X128340946Y-93579516D01*
X128391742Y-93627491D01*
X128408536Y-93695312D01*
X128385998Y-93761447D01*
X128340946Y-93800484D01*
X128332182Y-93804949D01*
X128160213Y-93929890D01*
X128009890Y-94080213D01*
X127884951Y-94252179D01*
X127788444Y-94441585D01*
X127722753Y-94643760D01*
X127689500Y-94853713D01*
X127689500Y-95066287D01*
X127694838Y-95099991D01*
X127709523Y-95192710D01*
X127722754Y-95276243D01*
X127779297Y-95450265D01*
X127788444Y-95478414D01*
X127884951Y-95667820D01*
X128009890Y-95839786D01*
X128160213Y-95990109D01*
X128332182Y-96115050D01*
X128340946Y-96119516D01*
X128391742Y-96167491D01*
X128408536Y-96235312D01*
X128385998Y-96301447D01*
X128340946Y-96340484D01*
X128332182Y-96344949D01*
X128160213Y-96469890D01*
X128009890Y-96620213D01*
X127884951Y-96792179D01*
X127788444Y-96981585D01*
X127722753Y-97183760D01*
X127689500Y-97393713D01*
X127689500Y-97606286D01*
X127707020Y-97716907D01*
X127722754Y-97816243D01*
X127785803Y-98010288D01*
X127788444Y-98018414D01*
X127884951Y-98207820D01*
X128009890Y-98379786D01*
X128160213Y-98530109D01*
X128332182Y-98655050D01*
X128340946Y-98659516D01*
X128391742Y-98707491D01*
X128408536Y-98775312D01*
X128385998Y-98841447D01*
X128340946Y-98880484D01*
X128332182Y-98884949D01*
X128160213Y-99009890D01*
X128009890Y-99160213D01*
X127884951Y-99332179D01*
X127788444Y-99521585D01*
X127722753Y-99723760D01*
X127689500Y-99933713D01*
X127689500Y-100146286D01*
X127722754Y-100356244D01*
X127722754Y-100356247D01*
X127736491Y-100398523D01*
X127738486Y-100468364D01*
X127706241Y-100524522D01*
X92881286Y-135349478D01*
X92769481Y-135461282D01*
X92769479Y-135461285D01*
X92719361Y-135548094D01*
X92719359Y-135548096D01*
X92690425Y-135598209D01*
X92690424Y-135598210D01*
X92690423Y-135598215D01*
X92649499Y-135750943D01*
X92649499Y-135750945D01*
X92649499Y-135919046D01*
X92649500Y-135919059D01*
X92649500Y-147623330D01*
X92649499Y-147623348D01*
X92649499Y-147789054D01*
X92649498Y-147789054D01*
X92649499Y-147789057D01*
X92690423Y-147941785D01*
X92717803Y-147989208D01*
X92719358Y-147991900D01*
X92719359Y-147991904D01*
X92719360Y-147991904D01*
X92769479Y-148078714D01*
X92769481Y-148078717D01*
X92888349Y-148197585D01*
X92888355Y-148197590D01*
X95166241Y-150475476D01*
X95199726Y-150536799D01*
X95196492Y-150601473D01*
X95182753Y-150643757D01*
X95149500Y-150853713D01*
X95149500Y-151066286D01*
X95182753Y-151276239D01*
X95248444Y-151478414D01*
X95344951Y-151667820D01*
X95469890Y-151839786D01*
X95620213Y-151990109D01*
X95792179Y-152115048D01*
X95792181Y-152115049D01*
X95792184Y-152115051D01*
X95801493Y-152119794D01*
X95852290Y-152167766D01*
X95869087Y-152235587D01*
X95846552Y-152301722D01*
X95801505Y-152340760D01*
X95792446Y-152345376D01*
X95792440Y-152345380D01*
X95738282Y-152384727D01*
X95738282Y-152384728D01*
X96370591Y-153017037D01*
X96307007Y-153034075D01*
X96192993Y-153099901D01*
X96099901Y-153192993D01*
X96034075Y-153307007D01*
X96017037Y-153370591D01*
X95384728Y-152738282D01*
X95384727Y-152738282D01*
X95345380Y-152792439D01*
X95248904Y-152981782D01*
X95183242Y-153183869D01*
X95183242Y-153183872D01*
X95150000Y-153393753D01*
X95150000Y-153606246D01*
X95183242Y-153816127D01*
X95183242Y-153816130D01*
X95248904Y-154018217D01*
X95345375Y-154207550D01*
X95384728Y-154261716D01*
X96017037Y-153629408D01*
X96034075Y-153692993D01*
X96099901Y-153807007D01*
X96192993Y-153900099D01*
X96307007Y-153965925D01*
X96370590Y-153982962D01*
X95700370Y-154653181D01*
X95639047Y-154686666D01*
X95612698Y-154689500D01*
X95602134Y-154689500D01*
X95602123Y-154689501D01*
X95542516Y-154695908D01*
X95407671Y-154746202D01*
X95407664Y-154746206D01*
X95292455Y-154832452D01*
X95292452Y-154832455D01*
X95206206Y-154947664D01*
X95206202Y-154947671D01*
X95155908Y-155082517D01*
X95149501Y-155142116D01*
X95149501Y-155142123D01*
X95149500Y-155142135D01*
X95149500Y-156937870D01*
X95149501Y-156937876D01*
X95155908Y-156997483D01*
X95206202Y-157132328D01*
X95206206Y-157132335D01*
X95292452Y-157247544D01*
X95292455Y-157247547D01*
X95407664Y-157333793D01*
X95407671Y-157333797D01*
X95542517Y-157384091D01*
X95542516Y-157384091D01*
X95549444Y-157384835D01*
X95602127Y-157390500D01*
X97397872Y-157390499D01*
X97457483Y-157384091D01*
X97592331Y-157333796D01*
X97707546Y-157247546D01*
X97793796Y-157132331D01*
X97844091Y-156997483D01*
X97850500Y-156937873D01*
X97850500Y-156764500D01*
X97870185Y-156697461D01*
X97922989Y-156651706D01*
X97974500Y-156640500D01*
X112623331Y-156640500D01*
X112623347Y-156640501D01*
X112630943Y-156640501D01*
X112789054Y-156640501D01*
X112789057Y-156640501D01*
X112941785Y-156599577D01*
X112991904Y-156570639D01*
X113078716Y-156520520D01*
X113190520Y-156408716D01*
X113190520Y-156408714D01*
X113200728Y-156398507D01*
X113200729Y-156398504D01*
X138288323Y-131310912D01*
X138349642Y-131277430D01*
X138419334Y-131282414D01*
X138475267Y-131324286D01*
X138499684Y-131389750D01*
X138500000Y-131398596D01*
X138500000Y-159128005D01*
X138480315Y-159195044D01*
X138427511Y-159240799D01*
X138395399Y-159250478D01*
X138207172Y-159280291D01*
X138019970Y-159341117D01*
X137844594Y-159430476D01*
X137753741Y-159496485D01*
X137685354Y-159546172D01*
X137685352Y-159546174D01*
X137685351Y-159546174D01*
X137546174Y-159685351D01*
X137546174Y-159685352D01*
X137546172Y-159685354D01*
X137496485Y-159753741D01*
X137430476Y-159844594D01*
X137341117Y-160019970D01*
X137280290Y-160207173D01*
X137250479Y-160395398D01*
X137220550Y-160458533D01*
X137161238Y-160495464D01*
X137128006Y-160500000D01*
X65371994Y-160500000D01*
X65304955Y-160480315D01*
X65259200Y-160427511D01*
X65249521Y-160395398D01*
X65219709Y-160207173D01*
X65158882Y-160019970D01*
X65069523Y-159844594D01*
X64953828Y-159685354D01*
X64814646Y-159546172D01*
X64655405Y-159430476D01*
X64480029Y-159341117D01*
X64292826Y-159280290D01*
X64111040Y-159251498D01*
X64047905Y-159221569D01*
X64010974Y-159162257D01*
X64006439Y-159128443D01*
X64006441Y-159128005D01*
X64259822Y-105157830D01*
X64279820Y-105090889D01*
X64332839Y-105045382D01*
X64402043Y-105035763D01*
X64465462Y-105065086D01*
X64471501Y-105070736D01*
X67265139Y-107864374D01*
X67265149Y-107864385D01*
X67269479Y-107868715D01*
X67269480Y-107868716D01*
X67381284Y-107980520D01*
X67468095Y-108030639D01*
X67468097Y-108030641D01*
X67506151Y-108052611D01*
X67518215Y-108059577D01*
X67670943Y-108100500D01*
X72413331Y-108100500D01*
X72413347Y-108100501D01*
X72420943Y-108100501D01*
X72579054Y-108100501D01*
X72579057Y-108100501D01*
X72731785Y-108059577D01*
X72781904Y-108030639D01*
X72868716Y-107980520D01*
X72980520Y-107868716D01*
X72980520Y-107868714D01*
X72990728Y-107858507D01*
X72990729Y-107858504D01*
X74264664Y-106584571D01*
X74325985Y-106551088D01*
X74328152Y-106550637D01*
X74328841Y-106550500D01*
X74328842Y-106550500D01*
X74483497Y-106519737D01*
X74628177Y-106459808D01*
X74697646Y-106452340D01*
X74760125Y-106483615D01*
X74795777Y-106543704D01*
X74793283Y-106613529D01*
X74790190Y-106621822D01*
X74730264Y-106766498D01*
X74730261Y-106766510D01*
X74699500Y-106921153D01*
X74699500Y-107078846D01*
X74730261Y-107233489D01*
X74730264Y-107233501D01*
X74790602Y-107379172D01*
X74790609Y-107379185D01*
X74878210Y-107510288D01*
X74878213Y-107510292D01*
X74989707Y-107621786D01*
X74989711Y-107621789D01*
X75120814Y-107709390D01*
X75120827Y-107709397D01*
X75222952Y-107751698D01*
X75277356Y-107795538D01*
X75299421Y-107861833D01*
X75299500Y-107866259D01*
X75299500Y-108400001D01*
X75299501Y-108400019D01*
X75310000Y-108502796D01*
X75310001Y-108502799D01*
X75365185Y-108669331D01*
X75365186Y-108669334D01*
X75457288Y-108818656D01*
X75581344Y-108942712D01*
X75730666Y-109034814D01*
X75814505Y-109062595D01*
X75871948Y-109102366D01*
X75898772Y-109166882D01*
X75899500Y-109180300D01*
X75899500Y-109323914D01*
X75879815Y-109390953D01*
X75827011Y-109436708D01*
X75814505Y-109441620D01*
X75705666Y-109477686D01*
X75705663Y-109477687D01*
X75556342Y-109569789D01*
X75432289Y-109693842D01*
X75340187Y-109843163D01*
X75340185Y-109843168D01*
X75318827Y-109907623D01*
X75285001Y-110009703D01*
X75285001Y-110009704D01*
X75285000Y-110009704D01*
X75274500Y-110112483D01*
X75274500Y-110887501D01*
X75274501Y-110887519D01*
X75285000Y-110990296D01*
X75285001Y-110990299D01*
X75340185Y-111156831D01*
X75340187Y-111156836D01*
X75432289Y-111306157D01*
X75556346Y-111430214D01*
X75559182Y-111431963D01*
X75560717Y-111433670D01*
X75562011Y-111434693D01*
X75561836Y-111434914D01*
X75605905Y-111483911D01*
X75617126Y-111552874D01*
X75589282Y-111616956D01*
X75559182Y-111643037D01*
X75556346Y-111644785D01*
X75432289Y-111768842D01*
X75340187Y-111918163D01*
X75340186Y-111918166D01*
X75285001Y-112084703D01*
X75285001Y-112084704D01*
X75285000Y-112084704D01*
X75274500Y-112187483D01*
X75274500Y-112962501D01*
X75274501Y-112962519D01*
X75285000Y-113065296D01*
X75285001Y-113065299D01*
X75340185Y-113231831D01*
X75340187Y-113231836D01*
X75375069Y-113288388D01*
X75432288Y-113381156D01*
X75556344Y-113505212D01*
X75705666Y-113597314D01*
X75872203Y-113652499D01*
X75974991Y-113663000D01*
X77025008Y-113662999D01*
X77025016Y-113662998D01*
X77025019Y-113662998D01*
X77081302Y-113657248D01*
X77127797Y-113652499D01*
X77294334Y-113597314D01*
X77443656Y-113505212D01*
X77567712Y-113381156D01*
X77658229Y-113234402D01*
X77710177Y-113187679D01*
X77763768Y-113175500D01*
X78237403Y-113175500D01*
X78304442Y-113195185D01*
X78325084Y-113211819D01*
X78488181Y-113374916D01*
X78521666Y-113436239D01*
X78524500Y-113462597D01*
X78524500Y-114112402D01*
X78504815Y-114179441D01*
X78488181Y-114200083D01*
X71809481Y-120878782D01*
X71809477Y-120878787D01*
X71786230Y-120919055D01*
X71786229Y-120919057D01*
X71730423Y-121015715D01*
X71689499Y-121168443D01*
X71689499Y-121168445D01*
X71689499Y-121336546D01*
X71689500Y-121336559D01*
X71689500Y-138414281D01*
X71669815Y-138481320D01*
X71621795Y-138524765D01*
X71582185Y-138544947D01*
X71582184Y-138544948D01*
X71410213Y-138669890D01*
X71259890Y-138820213D01*
X71134949Y-138992182D01*
X71130484Y-139000946D01*
X71082509Y-139051742D01*
X71014688Y-139068536D01*
X70948553Y-139045998D01*
X70909516Y-139000946D01*
X70905050Y-138992182D01*
X70780109Y-138820213D01*
X70629786Y-138669890D01*
X70457820Y-138544951D01*
X70268414Y-138448444D01*
X70268413Y-138448443D01*
X70268412Y-138448443D01*
X70066243Y-138382754D01*
X70066241Y-138382753D01*
X70066240Y-138382753D01*
X69904957Y-138357208D01*
X69856287Y-138349500D01*
X69643713Y-138349500D01*
X69595042Y-138357208D01*
X69433760Y-138382753D01*
X69231585Y-138448444D01*
X69042179Y-138544951D01*
X68870213Y-138669890D01*
X68719890Y-138820213D01*
X68594949Y-138992182D01*
X68590484Y-139000946D01*
X68542509Y-139051742D01*
X68474688Y-139068536D01*
X68408553Y-139045998D01*
X68369516Y-139000946D01*
X68365050Y-138992182D01*
X68240109Y-138820213D01*
X68089786Y-138669890D01*
X67917820Y-138544951D01*
X67728414Y-138448444D01*
X67728413Y-138448443D01*
X67728412Y-138448443D01*
X67526243Y-138382754D01*
X67526241Y-138382753D01*
X67526240Y-138382753D01*
X67364957Y-138357208D01*
X67316287Y-138349500D01*
X67103713Y-138349500D01*
X67055042Y-138357208D01*
X66893760Y-138382753D01*
X66691585Y-138448444D01*
X66502179Y-138544951D01*
X66330213Y-138669890D01*
X66179890Y-138820213D01*
X66054951Y-138992179D01*
X65958444Y-139181585D01*
X65892753Y-139383760D01*
X65859500Y-139593713D01*
X65859500Y-139806286D01*
X65892753Y-140016239D01*
X65958444Y-140218414D01*
X66054951Y-140407820D01*
X66179890Y-140579786D01*
X66330213Y-140730109D01*
X66502179Y-140855048D01*
X66502181Y-140855049D01*
X66502184Y-140855051D01*
X66691588Y-140951557D01*
X66893757Y-141017246D01*
X67103713Y-141050500D01*
X67103714Y-141050500D01*
X67316286Y-141050500D01*
X67316287Y-141050500D01*
X67526243Y-141017246D01*
X67728412Y-140951557D01*
X67917816Y-140855051D01*
X68004138Y-140792335D01*
X68089786Y-140730109D01*
X68089788Y-140730106D01*
X68089792Y-140730104D01*
X68240104Y-140579792D01*
X68240106Y-140579788D01*
X68240109Y-140579786D01*
X68365048Y-140407820D01*
X68365047Y-140407820D01*
X68365051Y-140407816D01*
X68369514Y-140399054D01*
X68417488Y-140348259D01*
X68485308Y-140331463D01*
X68551444Y-140353999D01*
X68590486Y-140399056D01*
X68594951Y-140407820D01*
X68719890Y-140579786D01*
X68870213Y-140730109D01*
X69042179Y-140855048D01*
X69042181Y-140855049D01*
X69042184Y-140855051D01*
X69231588Y-140951557D01*
X69433757Y-141017246D01*
X69643713Y-141050500D01*
X69643714Y-141050500D01*
X69856286Y-141050500D01*
X69856287Y-141050500D01*
X70066243Y-141017246D01*
X70268412Y-140951557D01*
X70457816Y-140855051D01*
X70544138Y-140792335D01*
X70629786Y-140730109D01*
X70629788Y-140730106D01*
X70629792Y-140730104D01*
X70780104Y-140579792D01*
X70780106Y-140579788D01*
X70780109Y-140579786D01*
X70905048Y-140407820D01*
X70905047Y-140407820D01*
X70905051Y-140407816D01*
X70909514Y-140399054D01*
X70957488Y-140348259D01*
X71025308Y-140331463D01*
X71091444Y-140353999D01*
X71130486Y-140399056D01*
X71134951Y-140407820D01*
X71259890Y-140579786D01*
X71410213Y-140730109D01*
X71582179Y-140855048D01*
X71582181Y-140855049D01*
X71582184Y-140855051D01*
X71771588Y-140951557D01*
X71973757Y-141017246D01*
X72183713Y-141050500D01*
X72183714Y-141050500D01*
X72396286Y-141050500D01*
X72396287Y-141050500D01*
X72606243Y-141017246D01*
X72808412Y-140951557D01*
X72997816Y-140855051D01*
X73084138Y-140792335D01*
X73169786Y-140730109D01*
X73169788Y-140730106D01*
X73169792Y-140730104D01*
X73320104Y-140579792D01*
X73320106Y-140579788D01*
X73320109Y-140579786D01*
X73445048Y-140407820D01*
X73445047Y-140407820D01*
X73445051Y-140407816D01*
X73449514Y-140399054D01*
X73497488Y-140348259D01*
X73565308Y-140331463D01*
X73631444Y-140353999D01*
X73670486Y-140399056D01*
X73674951Y-140407820D01*
X73799890Y-140579786D01*
X73950213Y-140730109D01*
X74122179Y-140855048D01*
X74122181Y-140855049D01*
X74122184Y-140855051D01*
X74311588Y-140951557D01*
X74513757Y-141017246D01*
X74723713Y-141050500D01*
X74723714Y-141050500D01*
X74936286Y-141050500D01*
X74936287Y-141050500D01*
X75146243Y-141017246D01*
X75348412Y-140951557D01*
X75537816Y-140855051D01*
X75624138Y-140792335D01*
X75709786Y-140730109D01*
X75709788Y-140730106D01*
X75709792Y-140730104D01*
X75860104Y-140579792D01*
X75860106Y-140579788D01*
X75860109Y-140579786D01*
X75985048Y-140407820D01*
X75985047Y-140407820D01*
X75985051Y-140407816D01*
X75989514Y-140399054D01*
X76037488Y-140348259D01*
X76105308Y-140331463D01*
X76171444Y-140353999D01*
X76210486Y-140399056D01*
X76214951Y-140407820D01*
X76339890Y-140579786D01*
X76490213Y-140730109D01*
X76662179Y-140855048D01*
X76662181Y-140855049D01*
X76662184Y-140855051D01*
X76851588Y-140951557D01*
X77053757Y-141017246D01*
X77263713Y-141050500D01*
X77263714Y-141050500D01*
X77476286Y-141050500D01*
X77476287Y-141050500D01*
X77686243Y-141017246D01*
X77888412Y-140951557D01*
X78077816Y-140855051D01*
X78164138Y-140792335D01*
X78249786Y-140730109D01*
X78249788Y-140730106D01*
X78249792Y-140730104D01*
X78400104Y-140579792D01*
X78400106Y-140579788D01*
X78400109Y-140579786D01*
X78525048Y-140407820D01*
X78525047Y-140407820D01*
X78525051Y-140407816D01*
X78529514Y-140399054D01*
X78577488Y-140348259D01*
X78645308Y-140331463D01*
X78711444Y-140353999D01*
X78750486Y-140399056D01*
X78754951Y-140407820D01*
X78879890Y-140579786D01*
X79030213Y-140730109D01*
X79202179Y-140855048D01*
X79202181Y-140855049D01*
X79202184Y-140855051D01*
X79391588Y-140951557D01*
X79593757Y-141017246D01*
X79803713Y-141050500D01*
X79803714Y-141050500D01*
X80016286Y-141050500D01*
X80016287Y-141050500D01*
X80226243Y-141017246D01*
X80428412Y-140951557D01*
X80617816Y-140855051D01*
X80704138Y-140792335D01*
X80789786Y-140730109D01*
X80789788Y-140730106D01*
X80789792Y-140730104D01*
X80940104Y-140579792D01*
X80940106Y-140579788D01*
X80940109Y-140579786D01*
X81065048Y-140407820D01*
X81065047Y-140407820D01*
X81065051Y-140407816D01*
X81069514Y-140399054D01*
X81117488Y-140348259D01*
X81185308Y-140331463D01*
X81251444Y-140353999D01*
X81290486Y-140399056D01*
X81294951Y-140407820D01*
X81419890Y-140579786D01*
X81570213Y-140730109D01*
X81742179Y-140855048D01*
X81742181Y-140855049D01*
X81742184Y-140855051D01*
X81931588Y-140951557D01*
X82133757Y-141017246D01*
X82343713Y-141050500D01*
X82343714Y-141050500D01*
X82556286Y-141050500D01*
X82556287Y-141050500D01*
X82766243Y-141017246D01*
X82968412Y-140951557D01*
X83157816Y-140855051D01*
X83244138Y-140792335D01*
X83329786Y-140730109D01*
X83329788Y-140730106D01*
X83329792Y-140730104D01*
X83480104Y-140579792D01*
X83480106Y-140579788D01*
X83480109Y-140579786D01*
X83605048Y-140407820D01*
X83605047Y-140407820D01*
X83605051Y-140407816D01*
X83609514Y-140399054D01*
X83657488Y-140348259D01*
X83725308Y-140331463D01*
X83791444Y-140353999D01*
X83830486Y-140399056D01*
X83834951Y-140407820D01*
X83959890Y-140579786D01*
X84110213Y-140730109D01*
X84282179Y-140855048D01*
X84282181Y-140855049D01*
X84282184Y-140855051D01*
X84471588Y-140951557D01*
X84673757Y-141017246D01*
X84883713Y-141050500D01*
X84883714Y-141050500D01*
X85096286Y-141050500D01*
X85096287Y-141050500D01*
X85306243Y-141017246D01*
X85508412Y-140951557D01*
X85697816Y-140855051D01*
X85869792Y-140730104D01*
X85983329Y-140616566D01*
X86044648Y-140583084D01*
X86114340Y-140588068D01*
X86170274Y-140629939D01*
X86187189Y-140660917D01*
X86236202Y-140792328D01*
X86236206Y-140792335D01*
X86322452Y-140907544D01*
X86322455Y-140907547D01*
X86437664Y-140993793D01*
X86437671Y-140993797D01*
X86572517Y-141044091D01*
X86572516Y-141044091D01*
X86579444Y-141044835D01*
X86632127Y-141050500D01*
X88427872Y-141050499D01*
X88487483Y-141044091D01*
X88622331Y-140993796D01*
X88737546Y-140907546D01*
X88823796Y-140792331D01*
X88874091Y-140657483D01*
X88880500Y-140597873D01*
X88880499Y-138802128D01*
X88874091Y-138742517D01*
X88872810Y-138739083D01*
X88823797Y-138607671D01*
X88823793Y-138607664D01*
X88737547Y-138492455D01*
X88737544Y-138492452D01*
X88622335Y-138406206D01*
X88622328Y-138406202D01*
X88487482Y-138355908D01*
X88487483Y-138355908D01*
X88427883Y-138349501D01*
X88427881Y-138349500D01*
X88427873Y-138349500D01*
X88427865Y-138349500D01*
X88254500Y-138349500D01*
X88187461Y-138329815D01*
X88141706Y-138277011D01*
X88130500Y-138225500D01*
X88130500Y-117520097D01*
X88150185Y-117453058D01*
X88166819Y-117432416D01*
X105875478Y-99723757D01*
X123764662Y-81834572D01*
X123825983Y-81801089D01*
X123828150Y-81800638D01*
X123886085Y-81789113D01*
X123983497Y-81769737D01*
X124129179Y-81709394D01*
X124260289Y-81621789D01*
X124371789Y-81510289D01*
X124459394Y-81379179D01*
X124519737Y-81233497D01*
X124550500Y-81078842D01*
X124550500Y-80921158D01*
X124550500Y-80921155D01*
X124550499Y-80921153D01*
X124519738Y-80766510D01*
X124519737Y-80766503D01*
X124519735Y-80766498D01*
X124459397Y-80620827D01*
X124459390Y-80620814D01*
X124371789Y-80489711D01*
X124371786Y-80489707D01*
X124260292Y-80378213D01*
X124260284Y-80378207D01*
X124212517Y-80346290D01*
X124167711Y-80292678D01*
X124159004Y-80223353D01*
X124189158Y-80160326D01*
X124193707Y-80155526D01*
X127497554Y-76851679D01*
X127558875Y-76818196D01*
X127628567Y-76823180D01*
G37*
%TD.AperFunction*%
%TA.AperFunction,Conductor*%
G36*
X138318834Y-111132914D02*
G01*
X138374767Y-111174786D01*
X138399184Y-111240250D01*
X138399500Y-111249096D01*
X138399500Y-129449902D01*
X138379815Y-129516941D01*
X138363181Y-129537583D01*
X112497584Y-155403181D01*
X112436261Y-155436666D01*
X112409903Y-155439500D01*
X97974499Y-155439500D01*
X97907460Y-155419815D01*
X97861705Y-155367011D01*
X97850499Y-155315500D01*
X97850499Y-155142129D01*
X97850498Y-155142123D01*
X97850497Y-155142116D01*
X97844091Y-155082517D01*
X97793796Y-154947669D01*
X97793795Y-154947668D01*
X97793793Y-154947664D01*
X97707547Y-154832455D01*
X97707544Y-154832452D01*
X97592335Y-154746206D01*
X97592328Y-154746202D01*
X97457482Y-154695908D01*
X97457483Y-154695908D01*
X97397883Y-154689501D01*
X97397881Y-154689500D01*
X97397873Y-154689500D01*
X97397865Y-154689500D01*
X97387309Y-154689500D01*
X97320270Y-154669815D01*
X97299628Y-154653181D01*
X96629408Y-153982962D01*
X96692993Y-153965925D01*
X96807007Y-153900099D01*
X96900099Y-153807007D01*
X96965925Y-153692993D01*
X96982962Y-153629408D01*
X97615270Y-154261717D01*
X97615270Y-154261716D01*
X97654622Y-154207554D01*
X97751095Y-154018217D01*
X97816757Y-153816130D01*
X97816757Y-153816127D01*
X97850000Y-153606246D01*
X97850000Y-153393753D01*
X97816757Y-153183872D01*
X97816757Y-153183869D01*
X97751095Y-152981782D01*
X97654624Y-152792449D01*
X97615270Y-152738282D01*
X97615269Y-152738282D01*
X96982962Y-153370590D01*
X96965925Y-153307007D01*
X96900099Y-153192993D01*
X96807007Y-153099901D01*
X96692993Y-153034075D01*
X96629409Y-153017037D01*
X97261716Y-152384728D01*
X97207547Y-152345373D01*
X97207547Y-152345372D01*
X97198500Y-152340763D01*
X97147706Y-152292788D01*
X97130912Y-152224966D01*
X97153451Y-152158832D01*
X97198508Y-152119793D01*
X97207816Y-152115051D01*
X97287007Y-152057515D01*
X97379786Y-151990109D01*
X97379788Y-151990106D01*
X97379792Y-151990104D01*
X97530104Y-151839792D01*
X97530106Y-151839788D01*
X97530109Y-151839786D01*
X97655048Y-151667820D01*
X97655047Y-151667820D01*
X97655051Y-151667816D01*
X97751557Y-151478412D01*
X97817246Y-151276243D01*
X97850500Y-151066287D01*
X97850500Y-150853713D01*
X97817246Y-150643757D01*
X97751557Y-150441588D01*
X97655051Y-150252184D01*
X97655049Y-150252181D01*
X97655048Y-150252179D01*
X97530109Y-150080213D01*
X97379786Y-149929890D01*
X97207820Y-149804951D01*
X97207115Y-149804591D01*
X97199054Y-149800485D01*
X97148259Y-149752512D01*
X97131463Y-149684692D01*
X97153999Y-149618556D01*
X97199054Y-149579515D01*
X97207816Y-149575051D01*
X97229789Y-149559086D01*
X97379786Y-149450109D01*
X97379788Y-149450106D01*
X97379792Y-149450104D01*
X97530104Y-149299792D01*
X97530106Y-149299788D01*
X97530109Y-149299786D01*
X97655048Y-149127820D01*
X97655047Y-149127820D01*
X97655051Y-149127816D01*
X97751557Y-148938412D01*
X97817246Y-148736243D01*
X97850500Y-148526287D01*
X97850500Y-148313713D01*
X97817246Y-148103757D01*
X97751557Y-147901588D01*
X97655051Y-147712184D01*
X97655049Y-147712181D01*
X97655048Y-147712179D01*
X97530109Y-147540213D01*
X97379786Y-147389890D01*
X97207820Y-147264951D01*
X97207115Y-147264591D01*
X97199054Y-147260485D01*
X97148259Y-147212512D01*
X97131463Y-147144692D01*
X97153999Y-147078556D01*
X97199054Y-147039515D01*
X97207816Y-147035051D01*
X97229789Y-147019086D01*
X97379786Y-146910109D01*
X97379788Y-146910106D01*
X97379792Y-146910104D01*
X97530104Y-146759792D01*
X97530106Y-146759788D01*
X97530109Y-146759786D01*
X97609494Y-146650520D01*
X97655051Y-146587816D01*
X97655349Y-146587230D01*
X97675235Y-146548205D01*
X97723209Y-146497409D01*
X97785719Y-146480500D01*
X102533331Y-146480500D01*
X102533347Y-146480501D01*
X102540943Y-146480501D01*
X102699054Y-146480501D01*
X102699057Y-146480501D01*
X102851785Y-146439577D01*
X102917244Y-146401784D01*
X102988716Y-146360520D01*
X103100520Y-146248716D01*
X103100520Y-146248714D01*
X103110724Y-146238511D01*
X103110727Y-146238506D01*
X138187821Y-111161413D01*
X138249142Y-111127930D01*
X138318834Y-111132914D01*
G37*
%TD.AperFunction*%
%TA.AperFunction,Conductor*%
G36*
X137195805Y-53528496D02*
G01*
X137241916Y-53580990D01*
X137251945Y-53613863D01*
X137280291Y-53792827D01*
X137341117Y-53980029D01*
X137399863Y-54095323D01*
X137430476Y-54155405D01*
X137546172Y-54314646D01*
X137685354Y-54453828D01*
X137844595Y-54569524D01*
X137927455Y-54611743D01*
X138019970Y-54658882D01*
X138019972Y-54658882D01*
X138019975Y-54658884D01*
X138120317Y-54691487D01*
X138207173Y-54719709D01*
X138395398Y-54749521D01*
X138458533Y-54779450D01*
X138495464Y-54838762D01*
X138500000Y-54871994D01*
X138500000Y-62631402D01*
X138480315Y-62698441D01*
X138427511Y-62744196D01*
X138358353Y-62754140D01*
X138294797Y-62725115D01*
X138288319Y-62719083D01*
X132913757Y-57344522D01*
X132880272Y-57283199D01*
X132883507Y-57218523D01*
X132897246Y-57176243D01*
X132930500Y-56966287D01*
X132930500Y-56753713D01*
X132897246Y-56543757D01*
X132831557Y-56341588D01*
X132735051Y-56152184D01*
X132735049Y-56152181D01*
X132735048Y-56152179D01*
X132610109Y-55980213D01*
X132459786Y-55829890D01*
X132287820Y-55704951D01*
X132098414Y-55608444D01*
X132098413Y-55608443D01*
X132098412Y-55608443D01*
X131896243Y-55542754D01*
X131896241Y-55542753D01*
X131896240Y-55542753D01*
X131734957Y-55517208D01*
X131686287Y-55509500D01*
X131473713Y-55509500D01*
X131425042Y-55517208D01*
X131263760Y-55542753D01*
X131061585Y-55608444D01*
X130872179Y-55704951D01*
X130700215Y-55829889D01*
X130586673Y-55943431D01*
X130525350Y-55976915D01*
X130455658Y-55971931D01*
X130399725Y-55930059D01*
X130382810Y-55899082D01*
X130333797Y-55767671D01*
X130333793Y-55767664D01*
X130247547Y-55652455D01*
X130247544Y-55652452D01*
X130132335Y-55566206D01*
X130132328Y-55566202D01*
X129997482Y-55515908D01*
X129997483Y-55515908D01*
X129937883Y-55509501D01*
X129937881Y-55509500D01*
X129937873Y-55509500D01*
X129937864Y-55509500D01*
X128142129Y-55509500D01*
X128142123Y-55509501D01*
X128082516Y-55515908D01*
X127947671Y-55566202D01*
X127947664Y-55566206D01*
X127832455Y-55652452D01*
X127832452Y-55652455D01*
X127746206Y-55767664D01*
X127746202Y-55767671D01*
X127695908Y-55902517D01*
X127689501Y-55962116D01*
X127689500Y-55962135D01*
X127689500Y-57757870D01*
X127689501Y-57757876D01*
X127695908Y-57817483D01*
X127746202Y-57952328D01*
X127746206Y-57952335D01*
X127832452Y-58067544D01*
X127832455Y-58067547D01*
X127947664Y-58153793D01*
X127947671Y-58153797D01*
X128079082Y-58202810D01*
X128135016Y-58244681D01*
X128159433Y-58310145D01*
X128144582Y-58378418D01*
X128123431Y-58406673D01*
X128009889Y-58520215D01*
X127884951Y-58692179D01*
X127788444Y-58881585D01*
X127722753Y-59083760D01*
X127689500Y-59293713D01*
X127689500Y-59506286D01*
X127722753Y-59716239D01*
X127788444Y-59918414D01*
X127884951Y-60107820D01*
X128009890Y-60279786D01*
X128160213Y-60430109D01*
X128332182Y-60555050D01*
X128340946Y-60559516D01*
X128391742Y-60607491D01*
X128408536Y-60675312D01*
X128385998Y-60741447D01*
X128340946Y-60780484D01*
X128332182Y-60784949D01*
X128160213Y-60909890D01*
X128009890Y-61060213D01*
X127884951Y-61232179D01*
X127788444Y-61421585D01*
X127722753Y-61623760D01*
X127689500Y-61833713D01*
X127689500Y-62046286D01*
X127722735Y-62256127D01*
X127722754Y-62256243D01*
X127784409Y-62445998D01*
X127788444Y-62458414D01*
X127884951Y-62647820D01*
X128009890Y-62819786D01*
X128160213Y-62970109D01*
X128332182Y-63095050D01*
X128340946Y-63099516D01*
X128391742Y-63147491D01*
X128408536Y-63215312D01*
X128385998Y-63281447D01*
X128340946Y-63320484D01*
X128332182Y-63324949D01*
X128160213Y-63449890D01*
X128009890Y-63600213D01*
X127884951Y-63772179D01*
X127788444Y-63961585D01*
X127722753Y-64163760D01*
X127689500Y-64373713D01*
X127689500Y-64586286D01*
X127722753Y-64796239D01*
X127788444Y-64998414D01*
X127884951Y-65187820D01*
X128009890Y-65359786D01*
X128160213Y-65510109D01*
X128332182Y-65635050D01*
X128340946Y-65639516D01*
X128391742Y-65687491D01*
X128408536Y-65755312D01*
X128385998Y-65821447D01*
X128340946Y-65860484D01*
X128332182Y-65864949D01*
X128160213Y-65989890D01*
X128009890Y-66140213D01*
X127884951Y-66312179D01*
X127788444Y-66501585D01*
X127722753Y-66703760D01*
X127689500Y-66913713D01*
X127689500Y-67126286D01*
X127722753Y-67336239D01*
X127788444Y-67538414D01*
X127884951Y-67727820D01*
X128009890Y-67899786D01*
X128160213Y-68050109D01*
X128332182Y-68175050D01*
X128340946Y-68179516D01*
X128391742Y-68227491D01*
X128408536Y-68295312D01*
X128385998Y-68361447D01*
X128340946Y-68400484D01*
X128332182Y-68404949D01*
X128160213Y-68529890D01*
X128009890Y-68680213D01*
X127884951Y-68852179D01*
X127788444Y-69041585D01*
X127722753Y-69243760D01*
X127689500Y-69453713D01*
X127689500Y-69666286D01*
X127722753Y-69876239D01*
X127722753Y-69876241D01*
X127722754Y-69876243D01*
X127777431Y-70044522D01*
X127788444Y-70078414D01*
X127884951Y-70267820D01*
X128009890Y-70439786D01*
X128160213Y-70590109D01*
X128332182Y-70715050D01*
X128340946Y-70719516D01*
X128391742Y-70767491D01*
X128408536Y-70835312D01*
X128385998Y-70901447D01*
X128340946Y-70940484D01*
X128332182Y-70944949D01*
X128160213Y-71069890D01*
X128009890Y-71220213D01*
X127884951Y-71392179D01*
X127788444Y-71581585D01*
X127722753Y-71783760D01*
X127689500Y-71993713D01*
X127689500Y-72206286D01*
X127722753Y-72416239D01*
X127745804Y-72487182D01*
X127747799Y-72557023D01*
X127711719Y-72616856D01*
X127649018Y-72647684D01*
X127627873Y-72649500D01*
X127420940Y-72649500D01*
X127380019Y-72660464D01*
X127380019Y-72660465D01*
X127342751Y-72670451D01*
X127268214Y-72690423D01*
X127268209Y-72690426D01*
X127131290Y-72769475D01*
X127131282Y-72769481D01*
X79429481Y-120471282D01*
X79429479Y-120471285D01*
X79379361Y-120558094D01*
X79379359Y-120558096D01*
X79350425Y-120608209D01*
X79350424Y-120608210D01*
X79350423Y-120608215D01*
X79309499Y-120760943D01*
X79309499Y-120760945D01*
X79309499Y-120929046D01*
X79309500Y-120929059D01*
X79309500Y-138414281D01*
X79289815Y-138481320D01*
X79241795Y-138524765D01*
X79202185Y-138544947D01*
X79202184Y-138544948D01*
X79030213Y-138669890D01*
X78879890Y-138820213D01*
X78754949Y-138992182D01*
X78750484Y-139000946D01*
X78702509Y-139051742D01*
X78634688Y-139068536D01*
X78568553Y-139045998D01*
X78529516Y-139000946D01*
X78525050Y-138992182D01*
X78400109Y-138820213D01*
X78249786Y-138669890D01*
X78077820Y-138544951D01*
X77888414Y-138448444D01*
X77888413Y-138448443D01*
X77888412Y-138448443D01*
X77686243Y-138382754D01*
X77686241Y-138382753D01*
X77686240Y-138382753D01*
X77524957Y-138357208D01*
X77476287Y-138349500D01*
X77263713Y-138349500D01*
X77215042Y-138357208D01*
X77053760Y-138382753D01*
X76851585Y-138448444D01*
X76662179Y-138544951D01*
X76490213Y-138669890D01*
X76339890Y-138820213D01*
X76214949Y-138992182D01*
X76210484Y-139000946D01*
X76162509Y-139051742D01*
X76094688Y-139068536D01*
X76028553Y-139045998D01*
X75989516Y-139000946D01*
X75985050Y-138992182D01*
X75860109Y-138820213D01*
X75709786Y-138669890D01*
X75537820Y-138544951D01*
X75348414Y-138448444D01*
X75348413Y-138448443D01*
X75348412Y-138448443D01*
X75146243Y-138382754D01*
X75146241Y-138382753D01*
X75146240Y-138382753D01*
X74984957Y-138357208D01*
X74936287Y-138349500D01*
X74723713Y-138349500D01*
X74675042Y-138357208D01*
X74513760Y-138382753D01*
X74311585Y-138448444D01*
X74122179Y-138544951D01*
X73950213Y-138669890D01*
X73799890Y-138820213D01*
X73674949Y-138992182D01*
X73670484Y-139000946D01*
X73622509Y-139051742D01*
X73554688Y-139068536D01*
X73488553Y-139045998D01*
X73449516Y-139000946D01*
X73445050Y-138992182D01*
X73320109Y-138820213D01*
X73169786Y-138669890D01*
X72997815Y-138544948D01*
X72997814Y-138544947D01*
X72958205Y-138524765D01*
X72907409Y-138476791D01*
X72890500Y-138414281D01*
X72890500Y-121547596D01*
X72910185Y-121480557D01*
X72926814Y-121459920D01*
X79474916Y-114911817D01*
X79536239Y-114878333D01*
X79562597Y-114875499D01*
X80275002Y-114875499D01*
X80275008Y-114875499D01*
X80377797Y-114864999D01*
X80544334Y-114809814D01*
X80693656Y-114717712D01*
X80817712Y-114593656D01*
X80909814Y-114444334D01*
X80964999Y-114277797D01*
X80975500Y-114175009D01*
X80975499Y-113399992D01*
X80972937Y-113374916D01*
X80964999Y-113297203D01*
X80964998Y-113297200D01*
X80936705Y-113211819D01*
X80909814Y-113130666D01*
X80817712Y-112981344D01*
X80693656Y-112857288D01*
X80690819Y-112855538D01*
X80689283Y-112853830D01*
X80687989Y-112852807D01*
X80688163Y-112852585D01*
X80644096Y-112803594D01*
X80632872Y-112734632D01*
X80660713Y-112670549D01*
X80690817Y-112644462D01*
X80693656Y-112642712D01*
X80817712Y-112518656D01*
X80909814Y-112369334D01*
X80964999Y-112202797D01*
X80975500Y-112100009D01*
X80975499Y-111324992D01*
X80964999Y-111222203D01*
X80909814Y-111055666D01*
X80817712Y-110906344D01*
X80693656Y-110782288D01*
X80544334Y-110690186D01*
X80483301Y-110669961D01*
X80435495Y-110654120D01*
X80378050Y-110614347D01*
X80351228Y-110549831D01*
X80350500Y-110536414D01*
X80350500Y-109995908D01*
X80370185Y-109928869D01*
X80414271Y-109890363D01*
X80413187Y-109888605D01*
X80419332Y-109884814D01*
X80419334Y-109884814D01*
X80568656Y-109792712D01*
X80662319Y-109699049D01*
X80723642Y-109665564D01*
X80793334Y-109670548D01*
X80837681Y-109699049D01*
X80931344Y-109792712D01*
X81080666Y-109884814D01*
X81247203Y-109939999D01*
X81349991Y-109950500D01*
X82150008Y-109950499D01*
X82150016Y-109950498D01*
X82150019Y-109950498D01*
X82206302Y-109944748D01*
X82252797Y-109939999D01*
X82419334Y-109884814D01*
X82568656Y-109792712D01*
X82692712Y-109668656D01*
X82784814Y-109519334D01*
X82839999Y-109352797D01*
X82850500Y-109250009D01*
X82850499Y-108249992D01*
X82839999Y-108147203D01*
X82784814Y-107980666D01*
X82692712Y-107831344D01*
X82568656Y-107707288D01*
X82419334Y-107615186D01*
X82419332Y-107615185D01*
X82413187Y-107611395D01*
X82414290Y-107609605D01*
X82369649Y-107570290D01*
X82350500Y-107504091D01*
X82350500Y-107300097D01*
X82370185Y-107233058D01*
X82386819Y-107212416D01*
X82699736Y-106899499D01*
X83014662Y-106584572D01*
X83075983Y-106551089D01*
X83078150Y-106550638D01*
X83138104Y-106538712D01*
X83233497Y-106519737D01*
X83379179Y-106459394D01*
X83510289Y-106371789D01*
X83621789Y-106260289D01*
X83709394Y-106129179D01*
X83709810Y-106128176D01*
X83762990Y-105999786D01*
X83769737Y-105983497D01*
X83800500Y-105828842D01*
X83800500Y-105671158D01*
X83800500Y-105671155D01*
X83800499Y-105671153D01*
X83786342Y-105599980D01*
X83769737Y-105516503D01*
X83761743Y-105497203D01*
X83709397Y-105370827D01*
X83709390Y-105370814D01*
X83621789Y-105239711D01*
X83621786Y-105239707D01*
X83510292Y-105128213D01*
X83510288Y-105128210D01*
X83379185Y-105040609D01*
X83379172Y-105040602D01*
X83233501Y-104980264D01*
X83233489Y-104980261D01*
X83078845Y-104949500D01*
X83078842Y-104949500D01*
X82921158Y-104949500D01*
X82921155Y-104949500D01*
X82766510Y-104980261D01*
X82766498Y-104980264D01*
X82620827Y-105040602D01*
X82620814Y-105040609D01*
X82489711Y-105128210D01*
X82489707Y-105128213D01*
X82378213Y-105239707D01*
X82378210Y-105239711D01*
X82290609Y-105370814D01*
X82290602Y-105370827D01*
X82230264Y-105516498D01*
X82230261Y-105516508D01*
X82199361Y-105671850D01*
X82166976Y-105733761D01*
X82165425Y-105735339D01*
X81269481Y-106631282D01*
X81269479Y-106631285D01*
X81219361Y-106718094D01*
X81219359Y-106718096D01*
X81190425Y-106768209D01*
X81190424Y-106768210D01*
X81190423Y-106768215D01*
X81149499Y-106920943D01*
X81149499Y-106920945D01*
X81149499Y-107089046D01*
X81149500Y-107089059D01*
X81149500Y-107504091D01*
X81129815Y-107571130D01*
X81085731Y-107609641D01*
X81086813Y-107611395D01*
X81080667Y-107615185D01*
X81080666Y-107615186D01*
X81069966Y-107621786D01*
X80931342Y-107707289D01*
X80837681Y-107800951D01*
X80776358Y-107834436D01*
X80706666Y-107829452D01*
X80662319Y-107800951D01*
X80568657Y-107707289D01*
X80568656Y-107707288D01*
X80475888Y-107650069D01*
X80419336Y-107615187D01*
X80419331Y-107615185D01*
X80417862Y-107614698D01*
X80252797Y-107560001D01*
X80252795Y-107560000D01*
X80150010Y-107549500D01*
X79349998Y-107549500D01*
X79349980Y-107549501D01*
X79247203Y-107560000D01*
X79247200Y-107560001D01*
X79080668Y-107615185D01*
X79080663Y-107615187D01*
X78931342Y-107707289D01*
X78807289Y-107831342D01*
X78715187Y-107980663D01*
X78715185Y-107980668D01*
X78689038Y-108059575D01*
X78660001Y-108147203D01*
X78660001Y-108147204D01*
X78660000Y-108147204D01*
X78649500Y-108249983D01*
X78649500Y-109250001D01*
X78649501Y-109250019D01*
X78660000Y-109352796D01*
X78660001Y-109352799D01*
X78715185Y-109519331D01*
X78715186Y-109519334D01*
X78807288Y-109668656D01*
X78931344Y-109792712D01*
X79080666Y-109884814D01*
X79080667Y-109884814D01*
X79086813Y-109888605D01*
X79085706Y-109890399D01*
X79130337Y-109929687D01*
X79149500Y-109995908D01*
X79149500Y-110536414D01*
X79129815Y-110603453D01*
X79077011Y-110649208D01*
X79064505Y-110654120D01*
X78955666Y-110690186D01*
X78955663Y-110690187D01*
X78806342Y-110782289D01*
X78682289Y-110906342D01*
X78590187Y-111055663D01*
X78590186Y-111055666D01*
X78535001Y-111222203D01*
X78535001Y-111222204D01*
X78535000Y-111222204D01*
X78524500Y-111324983D01*
X78524500Y-111324991D01*
X78524500Y-111644790D01*
X78524501Y-111850500D01*
X78504817Y-111917539D01*
X78452013Y-111963294D01*
X78400501Y-111974500D01*
X77763768Y-111974500D01*
X77696729Y-111954815D01*
X77658229Y-111915597D01*
X77567712Y-111768844D01*
X77443656Y-111644788D01*
X77440819Y-111643038D01*
X77439283Y-111641330D01*
X77437989Y-111640307D01*
X77438163Y-111640085D01*
X77394096Y-111591094D01*
X77382872Y-111522132D01*
X77410713Y-111458049D01*
X77440817Y-111431962D01*
X77443656Y-111430212D01*
X77567712Y-111306156D01*
X77659814Y-111156834D01*
X77714999Y-110990297D01*
X77725500Y-110887509D01*
X77725499Y-110112492D01*
X77714999Y-110009703D01*
X77659814Y-109843166D01*
X77567712Y-109693844D01*
X77443656Y-109569788D01*
X77294334Y-109477686D01*
X77233301Y-109457461D01*
X77185495Y-109441620D01*
X77128050Y-109401847D01*
X77101228Y-109337331D01*
X77100500Y-109323914D01*
X77100500Y-109180300D01*
X77120185Y-109113261D01*
X77172989Y-109067506D01*
X77185482Y-109062599D01*
X77269334Y-109034814D01*
X77418656Y-108942712D01*
X77542712Y-108818656D01*
X77634814Y-108669334D01*
X77689999Y-108502797D01*
X77700500Y-108400009D01*
X77700499Y-107599992D01*
X77689999Y-107497203D01*
X77634814Y-107330666D01*
X77542712Y-107181344D01*
X77449049Y-107087681D01*
X77415564Y-107026358D01*
X77420548Y-106956666D01*
X77449049Y-106912319D01*
X77481553Y-106879815D01*
X77542712Y-106818656D01*
X77634814Y-106669334D01*
X77689999Y-106502797D01*
X77700500Y-106400009D01*
X77700499Y-105599992D01*
X77698625Y-105581650D01*
X77689999Y-105497203D01*
X77689998Y-105497200D01*
X77648120Y-105370821D01*
X77634814Y-105330666D01*
X77542712Y-105181344D01*
X77418656Y-105057288D01*
X77325888Y-105000069D01*
X77269336Y-104965187D01*
X77269331Y-104965185D01*
X77221997Y-104949500D01*
X77185495Y-104937404D01*
X77128051Y-104897632D01*
X77101228Y-104833116D01*
X77100500Y-104819699D01*
X77100500Y-104579765D01*
X77120185Y-104512726D01*
X77121398Y-104510874D01*
X77125139Y-104505276D01*
X77209394Y-104379179D01*
X77269737Y-104233497D01*
X77300500Y-104078842D01*
X77300500Y-103921158D01*
X77300500Y-103921155D01*
X77300499Y-103921153D01*
X77282677Y-103831557D01*
X77269737Y-103766503D01*
X77256708Y-103735048D01*
X77209397Y-103620827D01*
X77209390Y-103620814D01*
X77121789Y-103489711D01*
X77121786Y-103489707D01*
X77010292Y-103378213D01*
X77010288Y-103378210D01*
X76879185Y-103290609D01*
X76879172Y-103290602D01*
X76733501Y-103230264D01*
X76733489Y-103230261D01*
X76578845Y-103199500D01*
X76578842Y-103199500D01*
X76421158Y-103199500D01*
X76421155Y-103199500D01*
X76266510Y-103230261D01*
X76266498Y-103230264D01*
X76120827Y-103290602D01*
X76120814Y-103290609D01*
X75989711Y-103378210D01*
X75989707Y-103378213D01*
X75878213Y-103489707D01*
X75878210Y-103489711D01*
X75790609Y-103620814D01*
X75790602Y-103620827D01*
X75730264Y-103766498D01*
X75730261Y-103766510D01*
X75699500Y-103921153D01*
X75699500Y-104078846D01*
X75730261Y-104233489D01*
X75730264Y-104233501D01*
X75790602Y-104379172D01*
X75790609Y-104379185D01*
X75878602Y-104510874D01*
X75899480Y-104577551D01*
X75899500Y-104579765D01*
X75899500Y-104819699D01*
X75879815Y-104886738D01*
X75827011Y-104932493D01*
X75814507Y-104937403D01*
X75781962Y-104948188D01*
X75730668Y-104965185D01*
X75730663Y-104965187D01*
X75581342Y-105057289D01*
X75457289Y-105181342D01*
X75365187Y-105330663D01*
X75365186Y-105330666D01*
X75310001Y-105497203D01*
X75310001Y-105497204D01*
X75310000Y-105497204D01*
X75299500Y-105599983D01*
X75299500Y-106133740D01*
X75279815Y-106200779D01*
X75227011Y-106246534D01*
X75222952Y-106248301D01*
X75121822Y-106290190D01*
X75052353Y-106297659D01*
X74989874Y-106266384D01*
X74954222Y-106206295D01*
X74956716Y-106136469D01*
X74959809Y-106128176D01*
X75012987Y-105999792D01*
X75019737Y-105983497D01*
X75050500Y-105828842D01*
X75050500Y-105671158D01*
X75050500Y-105671155D01*
X75050499Y-105671153D01*
X75036342Y-105599980D01*
X75019737Y-105516503D01*
X75011743Y-105497203D01*
X74959397Y-105370827D01*
X74959390Y-105370814D01*
X74871789Y-105239711D01*
X74871786Y-105239707D01*
X74760292Y-105128213D01*
X74760288Y-105128210D01*
X74629185Y-105040609D01*
X74629172Y-105040602D01*
X74483501Y-104980264D01*
X74483489Y-104980261D01*
X74328845Y-104949500D01*
X74328842Y-104949500D01*
X74171158Y-104949500D01*
X74171155Y-104949500D01*
X74016510Y-104980261D01*
X74016498Y-104980264D01*
X73870827Y-105040602D01*
X73870814Y-105040609D01*
X73739711Y-105128210D01*
X73739707Y-105128213D01*
X73628213Y-105239707D01*
X73628210Y-105239711D01*
X73540609Y-105370814D01*
X73540602Y-105370827D01*
X73480264Y-105516498D01*
X73480261Y-105516508D01*
X73449362Y-105671848D01*
X73416977Y-105733759D01*
X73415426Y-105735337D01*
X72287584Y-106863181D01*
X72226261Y-106896666D01*
X72199903Y-106899500D01*
X68050097Y-106899500D01*
X67983058Y-106879815D01*
X67962416Y-106863181D01*
X65136819Y-104037584D01*
X65103334Y-103976261D01*
X65100500Y-103949903D01*
X65100500Y-98421153D01*
X67699500Y-98421153D01*
X67699500Y-98578846D01*
X67730261Y-98733489D01*
X67730264Y-98733501D01*
X67790602Y-98879172D01*
X67790609Y-98879185D01*
X67878210Y-99010288D01*
X67878213Y-99010292D01*
X67989707Y-99121786D01*
X67989711Y-99121789D01*
X68120814Y-99209390D01*
X68120827Y-99209397D01*
X68266498Y-99269735D01*
X68266503Y-99269737D01*
X68421153Y-99300499D01*
X68421156Y-99300500D01*
X68421158Y-99300500D01*
X68578844Y-99300500D01*
X68578845Y-99300499D01*
X68733497Y-99269737D01*
X68879179Y-99209394D01*
X69010289Y-99121789D01*
X69121789Y-99010289D01*
X69209394Y-98879179D01*
X69269737Y-98733497D01*
X69300500Y-98578842D01*
X69300500Y-98421158D01*
X69300500Y-98421155D01*
X69300499Y-98421153D01*
X69292272Y-98379792D01*
X69269737Y-98266503D01*
X69241800Y-98199056D01*
X69209397Y-98120827D01*
X69209390Y-98120814D01*
X69121398Y-97989125D01*
X69100520Y-97922447D01*
X69100500Y-97920234D01*
X69100500Y-97300096D01*
X69120185Y-97233057D01*
X69136814Y-97212420D01*
X71614694Y-94734539D01*
X71676017Y-94701055D01*
X71745709Y-94706039D01*
X71801642Y-94747911D01*
X71820081Y-94783217D01*
X71865186Y-94919334D01*
X71957288Y-95068656D01*
X72081344Y-95192712D01*
X72230666Y-95284814D01*
X72339475Y-95320869D01*
X72396919Y-95360642D01*
X72420245Y-95406481D01*
X72440423Y-95481785D01*
X72469358Y-95531900D01*
X72469359Y-95531904D01*
X72469360Y-95531904D01*
X72519479Y-95618714D01*
X72519481Y-95618717D01*
X72638349Y-95737585D01*
X72638355Y-95737590D01*
X74013181Y-97112416D01*
X74046666Y-97173739D01*
X74049500Y-97200097D01*
X74049500Y-97900001D01*
X74049501Y-97900019D01*
X74060000Y-98002796D01*
X74060001Y-98002799D01*
X74115185Y-98169331D01*
X74115187Y-98169336D01*
X74138922Y-98207816D01*
X74207288Y-98318656D01*
X74331344Y-98442712D01*
X74480666Y-98534814D01*
X74647203Y-98589999D01*
X74749991Y-98600500D01*
X75197597Y-98600499D01*
X75264636Y-98620183D01*
X75300699Y-98655608D01*
X75355410Y-98737488D01*
X75355413Y-98737492D01*
X75466907Y-98848986D01*
X75466911Y-98848989D01*
X75598014Y-98936590D01*
X75598027Y-98936597D01*
X75743698Y-98996935D01*
X75743703Y-98996937D01*
X75898353Y-99027699D01*
X75898356Y-99027700D01*
X75898358Y-99027700D01*
X76056044Y-99027700D01*
X76056045Y-99027699D01*
X76210697Y-98996937D01*
X76356379Y-98936594D01*
X76487489Y-98848989D01*
X76598989Y-98737489D01*
X76686594Y-98606379D01*
X76746937Y-98460697D01*
X76777700Y-98306042D01*
X76777700Y-98148358D01*
X76777700Y-98148355D01*
X76777699Y-98148353D01*
X76772224Y-98120827D01*
X76746937Y-97993703D01*
X76746935Y-97993698D01*
X76686597Y-97848027D01*
X76686590Y-97848014D01*
X76598989Y-97716911D01*
X76598986Y-97716907D01*
X76486818Y-97604739D01*
X76472114Y-97577811D01*
X76455522Y-97551993D01*
X76454630Y-97545792D01*
X76453333Y-97543416D01*
X76450499Y-97517058D01*
X76450499Y-97421153D01*
X78949500Y-97421153D01*
X78949500Y-97578846D01*
X78980261Y-97733489D01*
X78980264Y-97733501D01*
X79040602Y-97879172D01*
X79040609Y-97879185D01*
X79128210Y-98010288D01*
X79128213Y-98010292D01*
X79239707Y-98121786D01*
X79239711Y-98121789D01*
X79370814Y-98209390D01*
X79370827Y-98209397D01*
X79508683Y-98266498D01*
X79516503Y-98269737D01*
X79671153Y-98300499D01*
X79671156Y-98300500D01*
X79671158Y-98300500D01*
X79828844Y-98300500D01*
X79828845Y-98300499D01*
X79983497Y-98269737D01*
X80129179Y-98209394D01*
X80260289Y-98121789D01*
X80371789Y-98010289D01*
X80459394Y-97879179D01*
X80519737Y-97733497D01*
X80550500Y-97578842D01*
X80550500Y-97421158D01*
X80550500Y-97421155D01*
X80550499Y-97421153D01*
X80519738Y-97266510D01*
X80519737Y-97266503D01*
X80485463Y-97183757D01*
X80459397Y-97120827D01*
X80459390Y-97120814D01*
X80371398Y-96989125D01*
X80350520Y-96922447D01*
X80350500Y-96920234D01*
X80350500Y-85690096D01*
X80370185Y-85623057D01*
X80386814Y-85602420D01*
X101555478Y-64433755D01*
X101616799Y-64400272D01*
X101681473Y-64403506D01*
X101723757Y-64417246D01*
X101933713Y-64450500D01*
X101933714Y-64450500D01*
X102146286Y-64450500D01*
X102146287Y-64450500D01*
X102356243Y-64417246D01*
X102558412Y-64351557D01*
X102747816Y-64255051D01*
X102834471Y-64192093D01*
X102919786Y-64130109D01*
X102919788Y-64130106D01*
X102919792Y-64130104D01*
X103070104Y-63979792D01*
X103070106Y-63979788D01*
X103070109Y-63979786D01*
X103195048Y-63807820D01*
X103195047Y-63807820D01*
X103195051Y-63807816D01*
X103199514Y-63799054D01*
X103247488Y-63748259D01*
X103315308Y-63731463D01*
X103381444Y-63753999D01*
X103420486Y-63799056D01*
X103424951Y-63807820D01*
X103549890Y-63979786D01*
X103700213Y-64130109D01*
X103872179Y-64255048D01*
X103872181Y-64255049D01*
X103872184Y-64255051D01*
X104061588Y-64351557D01*
X104263757Y-64417246D01*
X104473713Y-64450500D01*
X104473714Y-64450500D01*
X104686286Y-64450500D01*
X104686287Y-64450500D01*
X104896243Y-64417246D01*
X105098412Y-64351557D01*
X105287816Y-64255051D01*
X105374471Y-64192093D01*
X105459786Y-64130109D01*
X105459788Y-64130106D01*
X105459792Y-64130104D01*
X105610104Y-63979792D01*
X105610106Y-63979788D01*
X105610109Y-63979786D01*
X105735048Y-63807820D01*
X105735047Y-63807820D01*
X105735051Y-63807816D01*
X105739514Y-63799054D01*
X105787488Y-63748259D01*
X105855308Y-63731463D01*
X105921444Y-63753999D01*
X105960486Y-63799056D01*
X105964951Y-63807820D01*
X106089890Y-63979786D01*
X106240213Y-64130109D01*
X106412179Y-64255048D01*
X106412181Y-64255049D01*
X106412184Y-64255051D01*
X106601588Y-64351557D01*
X106803757Y-64417246D01*
X107013713Y-64450500D01*
X107013714Y-64450500D01*
X107226286Y-64450500D01*
X107226287Y-64450500D01*
X107436243Y-64417246D01*
X107638412Y-64351557D01*
X107827816Y-64255051D01*
X107914471Y-64192093D01*
X107999786Y-64130109D01*
X107999788Y-64130106D01*
X107999792Y-64130104D01*
X108150104Y-63979792D01*
X108150106Y-63979788D01*
X108150109Y-63979786D01*
X108275048Y-63807820D01*
X108275047Y-63807820D01*
X108275051Y-63807816D01*
X108371557Y-63618412D01*
X108437246Y-63416243D01*
X108470500Y-63206287D01*
X108470500Y-62993713D01*
X108437246Y-62783757D01*
X108371557Y-62581588D01*
X108275051Y-62392184D01*
X108275049Y-62392181D01*
X108275048Y-62392179D01*
X108150109Y-62220213D01*
X107999786Y-62069890D01*
X107827820Y-61944951D01*
X107638414Y-61848444D01*
X107638413Y-61848443D01*
X107638412Y-61848443D01*
X107436243Y-61782754D01*
X107436241Y-61782753D01*
X107436240Y-61782753D01*
X107274957Y-61757208D01*
X107226287Y-61749500D01*
X107013713Y-61749500D01*
X106965042Y-61757208D01*
X106803760Y-61782753D01*
X106601585Y-61848444D01*
X106412179Y-61944951D01*
X106240213Y-62069890D01*
X106089890Y-62220213D01*
X105964949Y-62392182D01*
X105960484Y-62400946D01*
X105912509Y-62451742D01*
X105844688Y-62468536D01*
X105778553Y-62445998D01*
X105739516Y-62400946D01*
X105735050Y-62392182D01*
X105610109Y-62220213D01*
X105459786Y-62069890D01*
X105287820Y-61944951D01*
X105098414Y-61848444D01*
X105098413Y-61848443D01*
X105098412Y-61848443D01*
X104896243Y-61782754D01*
X104896241Y-61782753D01*
X104896240Y-61782753D01*
X104734957Y-61757208D01*
X104686287Y-61749500D01*
X104473713Y-61749500D01*
X104425042Y-61757208D01*
X104263760Y-61782753D01*
X104061585Y-61848444D01*
X103872179Y-61944951D01*
X103700213Y-62069890D01*
X103549890Y-62220213D01*
X103424949Y-62392182D01*
X103420484Y-62400946D01*
X103372509Y-62451742D01*
X103304688Y-62468536D01*
X103238553Y-62445998D01*
X103199516Y-62400946D01*
X103195050Y-62392182D01*
X103070109Y-62220213D01*
X102919786Y-62069890D01*
X102747820Y-61944951D01*
X102558414Y-61848444D01*
X102558413Y-61848443D01*
X102558412Y-61848443D01*
X102356243Y-61782754D01*
X102356241Y-61782753D01*
X102356240Y-61782753D01*
X102194957Y-61757208D01*
X102146287Y-61749500D01*
X101933713Y-61749500D01*
X101885042Y-61757208D01*
X101723760Y-61782753D01*
X101521585Y-61848444D01*
X101332179Y-61944951D01*
X101160215Y-62069889D01*
X101046285Y-62183819D01*
X100984962Y-62217303D01*
X100915270Y-62212319D01*
X100859337Y-62170447D01*
X100842422Y-62139470D01*
X100793354Y-62007913D01*
X100793350Y-62007906D01*
X100707190Y-61892812D01*
X100707187Y-61892809D01*
X100592093Y-61806649D01*
X100592086Y-61806645D01*
X100457379Y-61756403D01*
X100457372Y-61756401D01*
X100397844Y-61750000D01*
X99750000Y-61750000D01*
X99750000Y-62666988D01*
X99692993Y-62634075D01*
X99565826Y-62600000D01*
X99434174Y-62600000D01*
X99307007Y-62634075D01*
X99250000Y-62666988D01*
X99250000Y-61750000D01*
X98602155Y-61750000D01*
X98542627Y-61756401D01*
X98542620Y-61756403D01*
X98407913Y-61806645D01*
X98407906Y-61806649D01*
X98292812Y-61892809D01*
X98292809Y-61892812D01*
X98206649Y-62007906D01*
X98206645Y-62007913D01*
X98156403Y-62142620D01*
X98156401Y-62142627D01*
X98150000Y-62202155D01*
X98150000Y-62850000D01*
X99066988Y-62850000D01*
X99034075Y-62907007D01*
X99000000Y-63034174D01*
X99000000Y-63165826D01*
X99034075Y-63292993D01*
X99066988Y-63350000D01*
X98150000Y-63350000D01*
X98150000Y-63997844D01*
X98156401Y-64057372D01*
X98156403Y-64057379D01*
X98206645Y-64192086D01*
X98206649Y-64192093D01*
X98292809Y-64307187D01*
X98292812Y-64307190D01*
X98407906Y-64393350D01*
X98407913Y-64393354D01*
X98542620Y-64443596D01*
X98542627Y-64443598D01*
X98602155Y-64449999D01*
X98602172Y-64450000D01*
X99250000Y-64450000D01*
X99250000Y-63533012D01*
X99307007Y-63565925D01*
X99434174Y-63600000D01*
X99565826Y-63600000D01*
X99692993Y-63565925D01*
X99750000Y-63533012D01*
X99750000Y-64489402D01*
X99730315Y-64556441D01*
X99713681Y-64577083D01*
X79269481Y-85021282D01*
X79269477Y-85021287D01*
X79228748Y-85091834D01*
X79228748Y-85091835D01*
X79190423Y-85158214D01*
X79190423Y-85158215D01*
X79149499Y-85310943D01*
X79149499Y-85310945D01*
X79149499Y-85479046D01*
X79149500Y-85479059D01*
X79149500Y-96920234D01*
X79129815Y-96987273D01*
X79128602Y-96989125D01*
X79040609Y-97120814D01*
X79040602Y-97120827D01*
X78980264Y-97266498D01*
X78980261Y-97266510D01*
X78949500Y-97421153D01*
X76450499Y-97421153D01*
X76450499Y-97099998D01*
X76450498Y-97099981D01*
X76439999Y-96997203D01*
X76439998Y-96997200D01*
X76437322Y-96989125D01*
X76384814Y-96830666D01*
X76292712Y-96681344D01*
X76199049Y-96587681D01*
X76165564Y-96526358D01*
X76170548Y-96456666D01*
X76199049Y-96412319D01*
X76292712Y-96318656D01*
X76384814Y-96169334D01*
X76439999Y-96002797D01*
X76450500Y-95900009D01*
X76450499Y-95200095D01*
X76470183Y-95133057D01*
X76486813Y-95112420D01*
X77087416Y-94511818D01*
X77148739Y-94478333D01*
X77175097Y-94475499D01*
X77637502Y-94475499D01*
X77637508Y-94475499D01*
X77740297Y-94464999D01*
X77906834Y-94409814D01*
X78056156Y-94317712D01*
X78180212Y-94193656D01*
X78272314Y-94044334D01*
X78327499Y-93877797D01*
X78338000Y-93775009D01*
X78337999Y-92724992D01*
X78327499Y-92622203D01*
X78272314Y-92455666D01*
X78180212Y-92306344D01*
X78056156Y-92182288D01*
X77906834Y-92090186D01*
X77740297Y-92035001D01*
X77740295Y-92035000D01*
X77637510Y-92024500D01*
X76862498Y-92024500D01*
X76862480Y-92024501D01*
X76759703Y-92035000D01*
X76759700Y-92035001D01*
X76593168Y-92090185D01*
X76593163Y-92090187D01*
X76443842Y-92182289D01*
X76319785Y-92306346D01*
X76318037Y-92309182D01*
X76316329Y-92310717D01*
X76315307Y-92312011D01*
X76315085Y-92311836D01*
X76266089Y-92355905D01*
X76197126Y-92367126D01*
X76133044Y-92339282D01*
X76106963Y-92309182D01*
X76105214Y-92306346D01*
X75981157Y-92182289D01*
X75981156Y-92182288D01*
X75831834Y-92090186D01*
X75665297Y-92035001D01*
X75665295Y-92035000D01*
X75562510Y-92024500D01*
X74787498Y-92024500D01*
X74787480Y-92024501D01*
X74684703Y-92035000D01*
X74684700Y-92035001D01*
X74518168Y-92090185D01*
X74518159Y-92090189D01*
X74389095Y-92169797D01*
X74321703Y-92188237D01*
X74255040Y-92167314D01*
X74210270Y-92113672D01*
X74199999Y-92064258D01*
X74199999Y-91850028D01*
X74199998Y-91850013D01*
X74189505Y-91747302D01*
X74134358Y-91580880D01*
X74134356Y-91580875D01*
X74042315Y-91431654D01*
X73918345Y-91307684D01*
X73769124Y-91215643D01*
X73769119Y-91215641D01*
X73602697Y-91160494D01*
X73602690Y-91160493D01*
X73499986Y-91150000D01*
X73250000Y-91150000D01*
X73250000Y-92126000D01*
X73230315Y-92193039D01*
X73177511Y-92238794D01*
X73126000Y-92250000D01*
X73000000Y-92250000D01*
X73000000Y-92376000D01*
X72980315Y-92443039D01*
X72927511Y-92488794D01*
X72876000Y-92500000D01*
X71800001Y-92500000D01*
X71800001Y-92649986D01*
X71810494Y-92752702D01*
X71811818Y-92758886D01*
X71806599Y-92828561D01*
X71778250Y-92872512D01*
X71769484Y-92881279D01*
X71769483Y-92881278D01*
X71769478Y-92881286D01*
X68019481Y-96631282D01*
X68019479Y-96631284D01*
X67991797Y-96679232D01*
X67980096Y-96699500D01*
X67940423Y-96768215D01*
X67899499Y-96920943D01*
X67899499Y-96920945D01*
X67899499Y-97089046D01*
X67899500Y-97089059D01*
X67899500Y-97920234D01*
X67879815Y-97987273D01*
X67878602Y-97989125D01*
X67790609Y-98120814D01*
X67790602Y-98120827D01*
X67730264Y-98266498D01*
X67730261Y-98266510D01*
X67699500Y-98421153D01*
X65100500Y-98421153D01*
X65100500Y-91850013D01*
X71800000Y-91850013D01*
X71800000Y-92000000D01*
X72750000Y-92000000D01*
X72750000Y-91150000D01*
X72500029Y-91150000D01*
X72500012Y-91150001D01*
X72397302Y-91160494D01*
X72230880Y-91215641D01*
X72230875Y-91215643D01*
X72081654Y-91307684D01*
X71957684Y-91431654D01*
X71865643Y-91580875D01*
X71865641Y-91580880D01*
X71810494Y-91747302D01*
X71810493Y-91747309D01*
X71800000Y-91850013D01*
X65100500Y-91850013D01*
X65100500Y-88385258D01*
X65749500Y-88385258D01*
X65749500Y-88614741D01*
X65774446Y-88804215D01*
X65779452Y-88842238D01*
X65821781Y-89000213D01*
X65838842Y-89063887D01*
X65926650Y-89275876D01*
X65926657Y-89275890D01*
X66041392Y-89474617D01*
X66181081Y-89656661D01*
X66181089Y-89656670D01*
X66343330Y-89818911D01*
X66343338Y-89818918D01*
X66525382Y-89958607D01*
X66525385Y-89958608D01*
X66525388Y-89958611D01*
X66724112Y-90073344D01*
X66724117Y-90073346D01*
X66724123Y-90073349D01*
X66815480Y-90111190D01*
X66936113Y-90161158D01*
X67157762Y-90220548D01*
X67385266Y-90250500D01*
X67385273Y-90250500D01*
X68614727Y-90250500D01*
X68614734Y-90250500D01*
X68842238Y-90220548D01*
X69063887Y-90161158D01*
X69275888Y-90073344D01*
X69474612Y-89958611D01*
X69656661Y-89818919D01*
X69656665Y-89818914D01*
X69656670Y-89818911D01*
X69818911Y-89656670D01*
X69818914Y-89656665D01*
X69818919Y-89656661D01*
X69958611Y-89474612D01*
X70073344Y-89275888D01*
X70161158Y-89063887D01*
X70220548Y-88842238D01*
X70250500Y-88614734D01*
X70250500Y-88385266D01*
X70220548Y-88157762D01*
X70161158Y-87936113D01*
X70073344Y-87724112D01*
X69958611Y-87525388D01*
X69958608Y-87525385D01*
X69958607Y-87525382D01*
X69818918Y-87343338D01*
X69818911Y-87343330D01*
X69656670Y-87181089D01*
X69656661Y-87181081D01*
X69474617Y-87041392D01*
X69444077Y-87023760D01*
X69275888Y-86926656D01*
X69275876Y-86926650D01*
X69063887Y-86838842D01*
X68999482Y-86821585D01*
X68842238Y-86779452D01*
X68804215Y-86774446D01*
X68614741Y-86749500D01*
X68614734Y-86749500D01*
X67385266Y-86749500D01*
X67385258Y-86749500D01*
X67168715Y-86778009D01*
X67157762Y-86779452D01*
X67064076Y-86804554D01*
X66936112Y-86838842D01*
X66724123Y-86926650D01*
X66724109Y-86926657D01*
X66525382Y-87041392D01*
X66343338Y-87181081D01*
X66181081Y-87343338D01*
X66041392Y-87525382D01*
X65926657Y-87724109D01*
X65926650Y-87724123D01*
X65838842Y-87936112D01*
X65779453Y-88157759D01*
X65779451Y-88157770D01*
X65749500Y-88385258D01*
X65100500Y-88385258D01*
X65100500Y-86228846D01*
X65120185Y-86161807D01*
X65172989Y-86116052D01*
X65177048Y-86114285D01*
X65275876Y-86073349D01*
X65275876Y-86073348D01*
X65275888Y-86073344D01*
X65474612Y-85958611D01*
X65656661Y-85818919D01*
X65656665Y-85818914D01*
X65656670Y-85818911D01*
X65818911Y-85656670D01*
X65818914Y-85656665D01*
X65818919Y-85656661D01*
X65958611Y-85474612D01*
X66073344Y-85275888D01*
X66161158Y-85063887D01*
X66220548Y-84842238D01*
X66250500Y-84614734D01*
X66250500Y-83385266D01*
X66220548Y-83157762D01*
X66161158Y-82936113D01*
X66073344Y-82724112D01*
X65958611Y-82525388D01*
X65958608Y-82525385D01*
X65958607Y-82525382D01*
X65818918Y-82343338D01*
X65818911Y-82343330D01*
X65656670Y-82181089D01*
X65656661Y-82181081D01*
X65474617Y-82041392D01*
X65275890Y-81926657D01*
X65275876Y-81926650D01*
X65063887Y-81838842D01*
X65047958Y-81834574D01*
X64842238Y-81779452D01*
X64804215Y-81774446D01*
X64614741Y-81749500D01*
X64614734Y-81749500D01*
X64494305Y-81749500D01*
X64427266Y-81729815D01*
X64381511Y-81677011D01*
X64370306Y-81624918D01*
X64383091Y-78901577D01*
X70799500Y-78901577D01*
X70799500Y-79098422D01*
X70830290Y-79292826D01*
X70891117Y-79480029D01*
X70959233Y-79613713D01*
X70980476Y-79655405D01*
X71096172Y-79814646D01*
X71235354Y-79953828D01*
X71394595Y-80069524D01*
X71477455Y-80111743D01*
X71569970Y-80158882D01*
X71569972Y-80158882D01*
X71569975Y-80158884D01*
X71640041Y-80181650D01*
X71757173Y-80219709D01*
X71951578Y-80250500D01*
X71951583Y-80250500D01*
X73648422Y-80250500D01*
X73842826Y-80219709D01*
X73887646Y-80205146D01*
X74030025Y-80158884D01*
X74205405Y-80069524D01*
X74364646Y-79953828D01*
X74503828Y-79814646D01*
X74619524Y-79655405D01*
X74708884Y-79480025D01*
X74769709Y-79292826D01*
X74784160Y-79201585D01*
X74800500Y-79098422D01*
X74800500Y-78901577D01*
X74769709Y-78707173D01*
X74729172Y-78582416D01*
X74708884Y-78519975D01*
X74708882Y-78519972D01*
X74708882Y-78519970D01*
X74619523Y-78344594D01*
X74615832Y-78339514D01*
X74503828Y-78185354D01*
X74364646Y-78046172D01*
X74205405Y-77930476D01*
X74030029Y-77841117D01*
X73842826Y-77780290D01*
X73648422Y-77749500D01*
X73648417Y-77749500D01*
X71951583Y-77749500D01*
X71951578Y-77749500D01*
X71757173Y-77780290D01*
X71569970Y-77841117D01*
X71394594Y-77930476D01*
X71303741Y-77996485D01*
X71235354Y-78046172D01*
X71235352Y-78046174D01*
X71235351Y-78046174D01*
X71096174Y-78185351D01*
X71096174Y-78185352D01*
X71096172Y-78185354D01*
X71046485Y-78253741D01*
X70980476Y-78344594D01*
X70891117Y-78519970D01*
X70830290Y-78707173D01*
X70799500Y-78901577D01*
X64383091Y-78901577D01*
X64383117Y-78896129D01*
X64433246Y-68218556D01*
X64493556Y-55372429D01*
X64513555Y-55305486D01*
X64566574Y-55259979D01*
X64598158Y-55250541D01*
X64598417Y-55250500D01*
X64792826Y-55219709D01*
X64980025Y-55158884D01*
X65155405Y-55069524D01*
X65314646Y-54953828D01*
X65453828Y-54814646D01*
X65569524Y-54655405D01*
X65658884Y-54480025D01*
X65719709Y-54292826D01*
X65750500Y-54098417D01*
X65750500Y-54098416D01*
X65750990Y-54095323D01*
X65780919Y-54032189D01*
X65840230Y-53995257D01*
X65872613Y-53990725D01*
X137128637Y-53509265D01*
X137195805Y-53528496D01*
G37*
%TD.AperFunction*%
%TA.AperFunction,Conductor*%
G36*
X133135703Y-59265384D02*
G01*
X133142181Y-59271416D01*
X138363181Y-64492416D01*
X138396666Y-64553739D01*
X138399500Y-64580097D01*
X138399500Y-75230903D01*
X138379815Y-75297942D01*
X138327011Y-75343697D01*
X138257853Y-75353641D01*
X138194297Y-75324616D01*
X138187819Y-75318584D01*
X132913757Y-70044522D01*
X132880272Y-69983199D01*
X132883507Y-69918523D01*
X132897246Y-69876243D01*
X132930500Y-69666287D01*
X132930500Y-69453713D01*
X132897246Y-69243757D01*
X132831557Y-69041588D01*
X132735051Y-68852184D01*
X132735049Y-68852181D01*
X132735048Y-68852179D01*
X132610109Y-68680213D01*
X132459786Y-68529890D01*
X132287820Y-68404951D01*
X132287115Y-68404591D01*
X132279054Y-68400485D01*
X132228259Y-68352512D01*
X132211463Y-68284692D01*
X132233999Y-68218556D01*
X132279054Y-68179515D01*
X132287816Y-68175051D01*
X132309789Y-68159086D01*
X132459786Y-68050109D01*
X132459788Y-68050106D01*
X132459792Y-68050104D01*
X132610104Y-67899792D01*
X132610106Y-67899788D01*
X132610109Y-67899786D01*
X132735048Y-67727820D01*
X132735047Y-67727820D01*
X132735051Y-67727816D01*
X132831557Y-67538412D01*
X132897246Y-67336243D01*
X132930500Y-67126287D01*
X132930500Y-66913713D01*
X132897246Y-66703757D01*
X132831557Y-66501588D01*
X132735051Y-66312184D01*
X132735049Y-66312181D01*
X132735048Y-66312179D01*
X132610109Y-66140213D01*
X132459786Y-65989890D01*
X132287820Y-65864951D01*
X132287115Y-65864591D01*
X132279054Y-65860485D01*
X132228259Y-65812512D01*
X132211463Y-65744692D01*
X132233999Y-65678556D01*
X132279054Y-65639515D01*
X132287816Y-65635051D01*
X132309789Y-65619086D01*
X132459786Y-65510109D01*
X132459788Y-65510106D01*
X132459792Y-65510104D01*
X132610104Y-65359792D01*
X132610106Y-65359788D01*
X132610109Y-65359786D01*
X132735048Y-65187820D01*
X132735047Y-65187820D01*
X132735051Y-65187816D01*
X132831557Y-64998412D01*
X132897246Y-64796243D01*
X132930500Y-64586287D01*
X132930500Y-64373713D01*
X132897246Y-64163757D01*
X132831557Y-63961588D01*
X132735051Y-63772184D01*
X132735049Y-63772181D01*
X132735048Y-63772179D01*
X132610109Y-63600213D01*
X132459786Y-63449890D01*
X132287817Y-63324949D01*
X132278504Y-63320204D01*
X132227707Y-63272230D01*
X132210912Y-63204409D01*
X132233449Y-63138274D01*
X132278507Y-63099232D01*
X132287555Y-63094622D01*
X132341716Y-63055270D01*
X132341717Y-63055270D01*
X131709408Y-62422962D01*
X131772993Y-62405925D01*
X131887007Y-62340099D01*
X131980099Y-62247007D01*
X132045925Y-62132993D01*
X132062962Y-62069408D01*
X132695270Y-62701717D01*
X132695270Y-62701716D01*
X132734622Y-62647554D01*
X132831095Y-62458217D01*
X132896757Y-62256130D01*
X132896757Y-62256127D01*
X132930000Y-62046246D01*
X132930000Y-61833753D01*
X132896757Y-61623872D01*
X132896757Y-61623869D01*
X132831095Y-61421782D01*
X132734624Y-61232449D01*
X132695270Y-61178282D01*
X132695269Y-61178282D01*
X132062962Y-61810590D01*
X132045925Y-61747007D01*
X131980099Y-61632993D01*
X131887007Y-61539901D01*
X131772993Y-61474075D01*
X131709409Y-61457037D01*
X132341716Y-60824728D01*
X132287547Y-60785373D01*
X132287547Y-60785372D01*
X132278500Y-60780763D01*
X132227706Y-60732788D01*
X132210912Y-60664966D01*
X132233451Y-60598832D01*
X132278508Y-60559793D01*
X132287816Y-60555051D01*
X132367007Y-60497515D01*
X132459786Y-60430109D01*
X132459788Y-60430106D01*
X132459792Y-60430104D01*
X132610104Y-60279792D01*
X132610106Y-60279788D01*
X132610109Y-60279786D01*
X132735048Y-60107820D01*
X132735047Y-60107820D01*
X132735051Y-60107816D01*
X132831557Y-59918412D01*
X132897246Y-59716243D01*
X132930500Y-59506287D01*
X132930500Y-59359097D01*
X132950185Y-59292058D01*
X133002989Y-59246303D01*
X133072147Y-59236359D01*
X133135703Y-59265384D01*
G37*
%TD.AperFunction*%
%TA.AperFunction,Conductor*%
G36*
X131114075Y-62132993D02*
G01*
X131179901Y-62247007D01*
X131272993Y-62340099D01*
X131387007Y-62405925D01*
X131450590Y-62422962D01*
X130818282Y-63055269D01*
X130818282Y-63055270D01*
X130872452Y-63094626D01*
X130872451Y-63094626D01*
X130881495Y-63099234D01*
X130932292Y-63147208D01*
X130949087Y-63215029D01*
X130926550Y-63281164D01*
X130881499Y-63320202D01*
X130872182Y-63324949D01*
X130700213Y-63449890D01*
X130549890Y-63600213D01*
X130424949Y-63772182D01*
X130420484Y-63780946D01*
X130372509Y-63831742D01*
X130304688Y-63848536D01*
X130238553Y-63825998D01*
X130199516Y-63780946D01*
X130195050Y-63772182D01*
X130070109Y-63600213D01*
X129919786Y-63449890D01*
X129747820Y-63324951D01*
X129747115Y-63324591D01*
X129739054Y-63320485D01*
X129688259Y-63272512D01*
X129671463Y-63204692D01*
X129693999Y-63138556D01*
X129739054Y-63099515D01*
X129747816Y-63095051D01*
X129887297Y-62993713D01*
X129919786Y-62970109D01*
X129919788Y-62970106D01*
X129919792Y-62970104D01*
X130070104Y-62819792D01*
X130070106Y-62819788D01*
X130070109Y-62819786D01*
X130155890Y-62701717D01*
X130195051Y-62647816D01*
X130199793Y-62638508D01*
X130247763Y-62587711D01*
X130315583Y-62570911D01*
X130381719Y-62593445D01*
X130420763Y-62638500D01*
X130425373Y-62647547D01*
X130464728Y-62701716D01*
X131097037Y-62069408D01*
X131114075Y-62132993D01*
G37*
%TD.AperFunction*%
%TA.AperFunction,Conductor*%
G36*
X130381444Y-60053999D02*
G01*
X130420486Y-60099056D01*
X130424951Y-60107820D01*
X130549890Y-60279786D01*
X130700213Y-60430109D01*
X130872179Y-60555048D01*
X130872181Y-60555049D01*
X130872184Y-60555051D01*
X130881493Y-60559794D01*
X130932290Y-60607766D01*
X130949087Y-60675587D01*
X130926552Y-60741722D01*
X130881505Y-60780760D01*
X130872446Y-60785376D01*
X130872440Y-60785380D01*
X130818282Y-60824727D01*
X130818282Y-60824728D01*
X131450591Y-61457037D01*
X131387007Y-61474075D01*
X131272993Y-61539901D01*
X131179901Y-61632993D01*
X131114075Y-61747007D01*
X131097037Y-61810591D01*
X130464728Y-61178282D01*
X130464727Y-61178282D01*
X130425380Y-61232440D01*
X130425376Y-61232446D01*
X130420760Y-61241505D01*
X130372781Y-61292297D01*
X130304959Y-61309087D01*
X130238826Y-61286543D01*
X130199794Y-61241493D01*
X130195051Y-61232184D01*
X130195049Y-61232181D01*
X130195048Y-61232179D01*
X130070109Y-61060213D01*
X129919786Y-60909890D01*
X129747820Y-60784951D01*
X129739600Y-60780763D01*
X129739054Y-60780485D01*
X129688259Y-60732512D01*
X129671463Y-60664692D01*
X129693999Y-60598556D01*
X129739054Y-60559515D01*
X129747816Y-60555051D01*
X129769789Y-60539086D01*
X129919786Y-60430109D01*
X129919788Y-60430106D01*
X129919792Y-60430104D01*
X130070104Y-60279792D01*
X130070106Y-60279788D01*
X130070109Y-60279786D01*
X130195048Y-60107820D01*
X130195047Y-60107820D01*
X130195051Y-60107816D01*
X130199514Y-60099054D01*
X130247488Y-60048259D01*
X130315308Y-60031463D01*
X130381444Y-60053999D01*
G37*
%TD.AperFunction*%
%TD*%
M02*
