%TF.GenerationSoftware,KiCad,Pcbnew,10.0.6*%
%TF.CreationDate,2026-10-08T12:58:02+11:00*%
%TF.ProjectId,aucboard,61756362-6f61-4726-942e-6b696361645f,rev?*%
%TF.SameCoordinates,Original*%
%TF.FileFunction,Legend,Bot*%
%TF.FilePolarity,Positive*%
%FSLAX46Y46*%
G04 Gerber Fmt 4.6, Leading zero omitted, Abs format (unit mm)*
G04 Created by KiCad (PCBNEW 10.0.6) date 2026-10-08 12:58:02*
%MOMM*%
%LPD*%
G01*
G04 APERTURE LIST*
%ADD10C,0.000000*%
%ADD11C,0.150000*%
%ADD12C,0.120000*%
G04 APERTURE END LIST*
D10*
G36*
X74828850Y-141022657D02*
G01*
X74630413Y-141221094D01*
X74431974Y-141022657D01*
X74630413Y-140824220D01*
X74828850Y-141022657D01*
G37*
G36*
X92026766Y-127132033D02*
G01*
X91828329Y-127330470D01*
X91629892Y-127132033D01*
X91828329Y-126933595D01*
X92026766Y-127132033D01*
G37*
G36*
X100030413Y-145057552D02*
G01*
X99765829Y-145322136D01*
X99501245Y-145057552D01*
X99765829Y-144792969D01*
X100030413Y-145057552D01*
G37*
G36*
X116566870Y-152333593D02*
G01*
X116302286Y-152598177D01*
X116037703Y-152333593D01*
X116302286Y-152069010D01*
X116566870Y-152333593D01*
G37*
G36*
X115905409Y-127462762D02*
G01*
X115640825Y-127727345D01*
X115376245Y-127462762D01*
X115640825Y-127198179D01*
X115905409Y-127462762D01*
G37*
G36*
X127877802Y-145652864D02*
G01*
X127547075Y-145983595D01*
X127216349Y-145652864D01*
X127547075Y-145322136D01*
X127877802Y-145652864D01*
G37*
G36*
X129200724Y-133878907D02*
G01*
X128869989Y-134209636D01*
X128539263Y-133878907D01*
X128869989Y-133548178D01*
X129200724Y-133878907D01*
G37*
G36*
X138527285Y-146380470D02*
G01*
X138130411Y-146777344D01*
X137733538Y-146380470D01*
X138130411Y-145983595D01*
X138527285Y-146380470D01*
G37*
G36*
X138527285Y-137120054D02*
G01*
X138130411Y-137516927D01*
X137733538Y-137120054D01*
X138130411Y-136723179D01*
X138527285Y-137120054D01*
G37*
G36*
X60750000Y-127000000D02*
G01*
X60760078Y-127000766D01*
X60770009Y-127002028D01*
X60779781Y-127003773D01*
X60789381Y-127005989D01*
X60798798Y-127008663D01*
X60808018Y-127011782D01*
X60817029Y-127015335D01*
X60825819Y-127019309D01*
X60834375Y-127023692D01*
X60842685Y-127028470D01*
X60850737Y-127033631D01*
X60858517Y-127039164D01*
X60866013Y-127045055D01*
X60873213Y-127051292D01*
X60880105Y-127057862D01*
X60886675Y-127064754D01*
X60892912Y-127071954D01*
X60898803Y-127079450D01*
X60904336Y-127087230D01*
X60909497Y-127095282D01*
X60914275Y-127103592D01*
X60918658Y-127112148D01*
X60922632Y-127120938D01*
X60926185Y-127129949D01*
X60929304Y-127139169D01*
X60931978Y-127148586D01*
X60934194Y-127158186D01*
X60935939Y-127167958D01*
X60937201Y-127177889D01*
X60937968Y-127187967D01*
X60938226Y-127198179D01*
X60937968Y-127208390D01*
X60937201Y-127218468D01*
X60935939Y-127228399D01*
X60934194Y-127238171D01*
X60931978Y-127247771D01*
X60929304Y-127257188D01*
X60926185Y-127266408D01*
X60922632Y-127275419D01*
X60918658Y-127284209D01*
X60914275Y-127292765D01*
X60909497Y-127301075D01*
X60904336Y-127309127D01*
X60898803Y-127316907D01*
X60892912Y-127324403D01*
X60886675Y-127331603D01*
X60880105Y-127338495D01*
X60873213Y-127345065D01*
X60866013Y-127351302D01*
X60858517Y-127357193D01*
X60850737Y-127362726D01*
X60842685Y-127367887D01*
X60834375Y-127372665D01*
X60825819Y-127377048D01*
X60817029Y-127381022D01*
X60808018Y-127384575D01*
X60798798Y-127387694D01*
X60789381Y-127390368D01*
X60779781Y-127392584D01*
X60770009Y-127394329D01*
X60760078Y-127395591D01*
X60750000Y-127396358D01*
X60739789Y-127396616D01*
X60729577Y-127396358D01*
X60719499Y-127395591D01*
X60709568Y-127394329D01*
X60699796Y-127392584D01*
X60690196Y-127390368D01*
X60680779Y-127387694D01*
X60671559Y-127384575D01*
X60662548Y-127381022D01*
X60653757Y-127377048D01*
X60645201Y-127372665D01*
X60636891Y-127367887D01*
X60628840Y-127362726D01*
X60621060Y-127357193D01*
X60613564Y-127351302D01*
X60606363Y-127345065D01*
X60599472Y-127338495D01*
X60592901Y-127331603D01*
X60586664Y-127324403D01*
X60580773Y-127316907D01*
X60575241Y-127309127D01*
X60570079Y-127301075D01*
X60565301Y-127292765D01*
X60560919Y-127284209D01*
X60556945Y-127275419D01*
X60553392Y-127266408D01*
X60550272Y-127257188D01*
X60547598Y-127247771D01*
X60545382Y-127238171D01*
X60543637Y-127228399D01*
X60542375Y-127218468D01*
X60541609Y-127208390D01*
X60541351Y-127198179D01*
X60541609Y-127187967D01*
X60542375Y-127177889D01*
X60543637Y-127167958D01*
X60545382Y-127158186D01*
X60547598Y-127148586D01*
X60550272Y-127139169D01*
X60553392Y-127129949D01*
X60556945Y-127120938D01*
X60560919Y-127112148D01*
X60565301Y-127103592D01*
X60570079Y-127095282D01*
X60575241Y-127087230D01*
X60580773Y-127079450D01*
X60586664Y-127071954D01*
X60592901Y-127064754D01*
X60599472Y-127057862D01*
X60606363Y-127051292D01*
X60613564Y-127045055D01*
X60621060Y-127039164D01*
X60628840Y-127033631D01*
X60636891Y-127028470D01*
X60645201Y-127023692D01*
X60653757Y-127019309D01*
X60662548Y-127015335D01*
X60671559Y-127011782D01*
X60680779Y-127008663D01*
X60690196Y-127005989D01*
X60699796Y-127003773D01*
X60709568Y-127002028D01*
X60719499Y-127000766D01*
X60729577Y-127000000D01*
X60739789Y-126999741D01*
X60750000Y-127000000D01*
G37*
G36*
X61411458Y-152135415D02*
G01*
X61421536Y-152136181D01*
X61431467Y-152137443D01*
X61441239Y-152139188D01*
X61450839Y-152141404D01*
X61460256Y-152144078D01*
X61469476Y-152147198D01*
X61478487Y-152150751D01*
X61487277Y-152154725D01*
X61495833Y-152159107D01*
X61504143Y-152163885D01*
X61512195Y-152169047D01*
X61519975Y-152174579D01*
X61527471Y-152180470D01*
X61534671Y-152186707D01*
X61541563Y-152193278D01*
X61548133Y-152200169D01*
X61554370Y-152207369D01*
X61560261Y-152214866D01*
X61565794Y-152222646D01*
X61570955Y-152230697D01*
X61575733Y-152239007D01*
X61580116Y-152247563D01*
X61584090Y-152256353D01*
X61587643Y-152265364D01*
X61590762Y-152274585D01*
X61593436Y-152284001D01*
X61595652Y-152293602D01*
X61597397Y-152303373D01*
X61598659Y-152313304D01*
X61599426Y-152323382D01*
X61599684Y-152333593D01*
X61599426Y-152343805D01*
X61598659Y-152353883D01*
X61597397Y-152363814D01*
X61595652Y-152373586D01*
X61593436Y-152383186D01*
X61590762Y-152392603D01*
X61587643Y-152401823D01*
X61584090Y-152410835D01*
X61580116Y-152419625D01*
X61575733Y-152428181D01*
X61570955Y-152436491D01*
X61565794Y-152444542D01*
X61560261Y-152452322D01*
X61554370Y-152459818D01*
X61548133Y-152467019D01*
X61541563Y-152473910D01*
X61534671Y-152480481D01*
X61527471Y-152486717D01*
X61519975Y-152492608D01*
X61512195Y-152498141D01*
X61504143Y-152503302D01*
X61495833Y-152508080D01*
X61487277Y-152512462D01*
X61478487Y-152516436D01*
X61469476Y-152519989D01*
X61460256Y-152523109D01*
X61450839Y-152525783D01*
X61441239Y-152527998D01*
X61431467Y-152529743D01*
X61421536Y-152531005D01*
X61411458Y-152531772D01*
X61401247Y-152532030D01*
X61391035Y-152531772D01*
X61380957Y-152531005D01*
X61371026Y-152529743D01*
X61361254Y-152527998D01*
X61351654Y-152525783D01*
X61342237Y-152523109D01*
X61333017Y-152519989D01*
X61324006Y-152516436D01*
X61315216Y-152512462D01*
X61306660Y-152508080D01*
X61298350Y-152503302D01*
X61290298Y-152498141D01*
X61282518Y-152492608D01*
X61275022Y-152486717D01*
X61267822Y-152480481D01*
X61260930Y-152473910D01*
X61254360Y-152467019D01*
X61248123Y-152459818D01*
X61242232Y-152452322D01*
X61236699Y-152444542D01*
X61231538Y-152436491D01*
X61226760Y-152428181D01*
X61222377Y-152419625D01*
X61218403Y-152410835D01*
X61214850Y-152401823D01*
X61211731Y-152392603D01*
X61209057Y-152383186D01*
X61206841Y-152373586D01*
X61205096Y-152363814D01*
X61203834Y-152353883D01*
X61203068Y-152343805D01*
X61202809Y-152333593D01*
X61203068Y-152323382D01*
X61203834Y-152313304D01*
X61205096Y-152303373D01*
X61206841Y-152293602D01*
X61209057Y-152284001D01*
X61211731Y-152274585D01*
X61214850Y-152265364D01*
X61218403Y-152256353D01*
X61222377Y-152247563D01*
X61226760Y-152239007D01*
X61231538Y-152230697D01*
X61236699Y-152222646D01*
X61242232Y-152214866D01*
X61248123Y-152207369D01*
X61254360Y-152200169D01*
X61260930Y-152193278D01*
X61267822Y-152186707D01*
X61275022Y-152180470D01*
X61282518Y-152174579D01*
X61290298Y-152169047D01*
X61298350Y-152163885D01*
X61306660Y-152159107D01*
X61315216Y-152154725D01*
X61324006Y-152150751D01*
X61333017Y-152147198D01*
X61342237Y-152144078D01*
X61351654Y-152141404D01*
X61361254Y-152139188D01*
X61371026Y-152137443D01*
X61380957Y-152136181D01*
X61391035Y-152135415D01*
X61401247Y-152135156D01*
X61411458Y-152135415D01*
G37*
G36*
X65380208Y-140890624D02*
G01*
X65390285Y-140891390D01*
X65400216Y-140892652D01*
X65409988Y-140894397D01*
X65419589Y-140896613D01*
X65429005Y-140899287D01*
X65438226Y-140902406D01*
X65447237Y-140905959D01*
X65456027Y-140909933D01*
X65464583Y-140914315D01*
X65472893Y-140919094D01*
X65480945Y-140924255D01*
X65488725Y-140929787D01*
X65496221Y-140935678D01*
X65503421Y-140941915D01*
X65510313Y-140948486D01*
X65516883Y-140955377D01*
X65523120Y-140962578D01*
X65529011Y-140970074D01*
X65534544Y-140977854D01*
X65539705Y-140985905D01*
X65544483Y-140994215D01*
X65548866Y-141002771D01*
X65552840Y-141011561D01*
X65556393Y-141020573D01*
X65559512Y-141029793D01*
X65562186Y-141039209D01*
X65564402Y-141048810D01*
X65566147Y-141058582D01*
X65567409Y-141068513D01*
X65568176Y-141078590D01*
X65568434Y-141088802D01*
X65568176Y-141099014D01*
X65567409Y-141109091D01*
X65566147Y-141119022D01*
X65564402Y-141128794D01*
X65562186Y-141138395D01*
X65559512Y-141147812D01*
X65556393Y-141157032D01*
X65552840Y-141166043D01*
X65548866Y-141174833D01*
X65544483Y-141183390D01*
X65539705Y-141191700D01*
X65534544Y-141199751D01*
X65529011Y-141207531D01*
X65523120Y-141215027D01*
X65516883Y-141222228D01*
X65510313Y-141229119D01*
X65503421Y-141235690D01*
X65496221Y-141241927D01*
X65488725Y-141247818D01*
X65480945Y-141253350D01*
X65472893Y-141258512D01*
X65464583Y-141263290D01*
X65456027Y-141267672D01*
X65447237Y-141271646D01*
X65438226Y-141275199D01*
X65429005Y-141278319D01*
X65419589Y-141280993D01*
X65409988Y-141283209D01*
X65400216Y-141284954D01*
X65390285Y-141286216D01*
X65380208Y-141286983D01*
X65369996Y-141287241D01*
X65359784Y-141286983D01*
X65349707Y-141286216D01*
X65339776Y-141284954D01*
X65330004Y-141283209D01*
X65320403Y-141280993D01*
X65310987Y-141278319D01*
X65301767Y-141275199D01*
X65292755Y-141271646D01*
X65283965Y-141267672D01*
X65275409Y-141263290D01*
X65267099Y-141258512D01*
X65259048Y-141253350D01*
X65251268Y-141247818D01*
X65243772Y-141241927D01*
X65236571Y-141235690D01*
X65229680Y-141229119D01*
X65223109Y-141222228D01*
X65216872Y-141215027D01*
X65210981Y-141207531D01*
X65205449Y-141199751D01*
X65200287Y-141191700D01*
X65195509Y-141183390D01*
X65191127Y-141174833D01*
X65187153Y-141166043D01*
X65183600Y-141157032D01*
X65180481Y-141147812D01*
X65177807Y-141138395D01*
X65175591Y-141128794D01*
X65173846Y-141119022D01*
X65172584Y-141109091D01*
X65171818Y-141099014D01*
X65171559Y-141088802D01*
X65171818Y-141078590D01*
X65172584Y-141068513D01*
X65173846Y-141058582D01*
X65175591Y-141048810D01*
X65177807Y-141039209D01*
X65180481Y-141029793D01*
X65183600Y-141020573D01*
X65187153Y-141011561D01*
X65191127Y-141002771D01*
X65195509Y-140994215D01*
X65200287Y-140985905D01*
X65205449Y-140977854D01*
X65210981Y-140970074D01*
X65216872Y-140962578D01*
X65223109Y-140955377D01*
X65229680Y-140948486D01*
X65236571Y-140941915D01*
X65243772Y-140935678D01*
X65251268Y-140929787D01*
X65259048Y-140924255D01*
X65267099Y-140919094D01*
X65275409Y-140914315D01*
X65283965Y-140909933D01*
X65292755Y-140905959D01*
X65301767Y-140902406D01*
X65310987Y-140899287D01*
X65320403Y-140896613D01*
X65330004Y-140894397D01*
X65339776Y-140892652D01*
X65349707Y-140891390D01*
X65359784Y-140890624D01*
X65369996Y-140890365D01*
X65380208Y-140890624D01*
G37*
G36*
X69348958Y-156104165D02*
G01*
X69359035Y-156104931D01*
X69368966Y-156106193D01*
X69378738Y-156107938D01*
X69388339Y-156110154D01*
X69397755Y-156112828D01*
X69406976Y-156115948D01*
X69415987Y-156119501D01*
X69424777Y-156123475D01*
X69433333Y-156127857D01*
X69441643Y-156132635D01*
X69449695Y-156137797D01*
X69457475Y-156143329D01*
X69464971Y-156149220D01*
X69472171Y-156155457D01*
X69479063Y-156162028D01*
X69485633Y-156168919D01*
X69491870Y-156176119D01*
X69497761Y-156183616D01*
X69503294Y-156191396D01*
X69508455Y-156199447D01*
X69513233Y-156207757D01*
X69517616Y-156216313D01*
X69521590Y-156225103D01*
X69525143Y-156234114D01*
X69528262Y-156243335D01*
X69530936Y-156252751D01*
X69533152Y-156262352D01*
X69534897Y-156272123D01*
X69536159Y-156282054D01*
X69536926Y-156292132D01*
X69537184Y-156302343D01*
X69536926Y-156312555D01*
X69536159Y-156322633D01*
X69534897Y-156332564D01*
X69533152Y-156342336D01*
X69530936Y-156351936D01*
X69528262Y-156361353D01*
X69525143Y-156370573D01*
X69521590Y-156379585D01*
X69517616Y-156388375D01*
X69513233Y-156396931D01*
X69508455Y-156405241D01*
X69503294Y-156413292D01*
X69497761Y-156421072D01*
X69491870Y-156428568D01*
X69485633Y-156435769D01*
X69479063Y-156442660D01*
X69472171Y-156449231D01*
X69464971Y-156455467D01*
X69457475Y-156461358D01*
X69449695Y-156466891D01*
X69441643Y-156472052D01*
X69433333Y-156476830D01*
X69424777Y-156481212D01*
X69415987Y-156485186D01*
X69406976Y-156488739D01*
X69397755Y-156491859D01*
X69388339Y-156494533D01*
X69378738Y-156496748D01*
X69368966Y-156498493D01*
X69359035Y-156499755D01*
X69348958Y-156500522D01*
X69338746Y-156500780D01*
X69328534Y-156500522D01*
X69318457Y-156499755D01*
X69308526Y-156498493D01*
X69298754Y-156496748D01*
X69289153Y-156494533D01*
X69279737Y-156491859D01*
X69270516Y-156488739D01*
X69261505Y-156485186D01*
X69252715Y-156481212D01*
X69244159Y-156476830D01*
X69235849Y-156472052D01*
X69227798Y-156466891D01*
X69220018Y-156461358D01*
X69212521Y-156455467D01*
X69205321Y-156449231D01*
X69198429Y-156442660D01*
X69191859Y-156435769D01*
X69185622Y-156428568D01*
X69179731Y-156421072D01*
X69174198Y-156413292D01*
X69169037Y-156405241D01*
X69164259Y-156396931D01*
X69159876Y-156388375D01*
X69155903Y-156379585D01*
X69152349Y-156370573D01*
X69149230Y-156361353D01*
X69146556Y-156351936D01*
X69144340Y-156342336D01*
X69142595Y-156332564D01*
X69141333Y-156322633D01*
X69140567Y-156312555D01*
X69140308Y-156302343D01*
X69140567Y-156292132D01*
X69141333Y-156282054D01*
X69142595Y-156272123D01*
X69144340Y-156262352D01*
X69146556Y-156252751D01*
X69149230Y-156243335D01*
X69152349Y-156234114D01*
X69155903Y-156225103D01*
X69159876Y-156216313D01*
X69164259Y-156207757D01*
X69169037Y-156199447D01*
X69174198Y-156191396D01*
X69179731Y-156183616D01*
X69185622Y-156176119D01*
X69191859Y-156168919D01*
X69198429Y-156162028D01*
X69205321Y-156155457D01*
X69212521Y-156149220D01*
X69220018Y-156143329D01*
X69227798Y-156137797D01*
X69235849Y-156132635D01*
X69244159Y-156127857D01*
X69252715Y-156123475D01*
X69261505Y-156119501D01*
X69270516Y-156115948D01*
X69279737Y-156112828D01*
X69289153Y-156110154D01*
X69298754Y-156107938D01*
X69308526Y-156106193D01*
X69318457Y-156104931D01*
X69328534Y-156104165D01*
X69338746Y-156103906D01*
X69348958Y-156104165D01*
G37*
G36*
X81255207Y-126338541D02*
G01*
X81265284Y-126339307D01*
X81275215Y-126340569D01*
X81284987Y-126342314D01*
X81294588Y-126344530D01*
X81304005Y-126347204D01*
X81313225Y-126350324D01*
X81322236Y-126353877D01*
X81331026Y-126357851D01*
X81339583Y-126362233D01*
X81347893Y-126367011D01*
X81355944Y-126372173D01*
X81363724Y-126377705D01*
X81371220Y-126383596D01*
X81378421Y-126389833D01*
X81385312Y-126396404D01*
X81391883Y-126403295D01*
X81398120Y-126410496D01*
X81404011Y-126417992D01*
X81409543Y-126425772D01*
X81414705Y-126433823D01*
X81419483Y-126442133D01*
X81423865Y-126450689D01*
X81427839Y-126459480D01*
X81431392Y-126468491D01*
X81434512Y-126477711D01*
X81437186Y-126487128D01*
X81439402Y-126496728D01*
X81441147Y-126506500D01*
X81442409Y-126516431D01*
X81443176Y-126526509D01*
X81443434Y-126536721D01*
X81443176Y-126546932D01*
X81442409Y-126557010D01*
X81441147Y-126566941D01*
X81439402Y-126576713D01*
X81437186Y-126586313D01*
X81434512Y-126595730D01*
X81431392Y-126604950D01*
X81427839Y-126613961D01*
X81423865Y-126622751D01*
X81419483Y-126631307D01*
X81414705Y-126639617D01*
X81409543Y-126647669D01*
X81404011Y-126655449D01*
X81398120Y-126662945D01*
X81391883Y-126670145D01*
X81385312Y-126677037D01*
X81378421Y-126683607D01*
X81371220Y-126689844D01*
X81363724Y-126695735D01*
X81355944Y-126701268D01*
X81347893Y-126706429D01*
X81339583Y-126711207D01*
X81331026Y-126715590D01*
X81322236Y-126719564D01*
X81313225Y-126723117D01*
X81304005Y-126726236D01*
X81294588Y-126728910D01*
X81284987Y-126731126D01*
X81275215Y-126732871D01*
X81265284Y-126734133D01*
X81255207Y-126734900D01*
X81244995Y-126735158D01*
X81234783Y-126734900D01*
X81224706Y-126734133D01*
X81214775Y-126732871D01*
X81205003Y-126731126D01*
X81195402Y-126728910D01*
X81185986Y-126726236D01*
X81176766Y-126723117D01*
X81167754Y-126719564D01*
X81158964Y-126715590D01*
X81150408Y-126711207D01*
X81142098Y-126706429D01*
X81134047Y-126701268D01*
X81126267Y-126695735D01*
X81118771Y-126689844D01*
X81111570Y-126683607D01*
X81104679Y-126677037D01*
X81098108Y-126670145D01*
X81091871Y-126662945D01*
X81085980Y-126655449D01*
X81080448Y-126647669D01*
X81075287Y-126639617D01*
X81070508Y-126631307D01*
X81066126Y-126622751D01*
X81062152Y-126613961D01*
X81058599Y-126604950D01*
X81055480Y-126595730D01*
X81052806Y-126586313D01*
X81050590Y-126576713D01*
X81048845Y-126566941D01*
X81047583Y-126557010D01*
X81046817Y-126546932D01*
X81046558Y-126536721D01*
X81046817Y-126526509D01*
X81047583Y-126516431D01*
X81048845Y-126506500D01*
X81050590Y-126496728D01*
X81052806Y-126487128D01*
X81055480Y-126477711D01*
X81058599Y-126468491D01*
X81062152Y-126459480D01*
X81066126Y-126450689D01*
X81070508Y-126442133D01*
X81075287Y-126433823D01*
X81080448Y-126425772D01*
X81085980Y-126417992D01*
X81091871Y-126410496D01*
X81098108Y-126403295D01*
X81104679Y-126396404D01*
X81111570Y-126389833D01*
X81118771Y-126383596D01*
X81126267Y-126377705D01*
X81134047Y-126372173D01*
X81142098Y-126367011D01*
X81150408Y-126362233D01*
X81158964Y-126357851D01*
X81167754Y-126353877D01*
X81176766Y-126350324D01*
X81185986Y-126347204D01*
X81195402Y-126344530D01*
X81205003Y-126342314D01*
X81214775Y-126340569D01*
X81224706Y-126339307D01*
X81234783Y-126338541D01*
X81244995Y-126338283D01*
X81255207Y-126338541D01*
G37*
G36*
X77286457Y-144859374D02*
G01*
X77296534Y-144860140D01*
X77306465Y-144861402D01*
X77316237Y-144863147D01*
X77325838Y-144865363D01*
X77335255Y-144868037D01*
X77344475Y-144871156D01*
X77353486Y-144874709D01*
X77362276Y-144878683D01*
X77370833Y-144883065D01*
X77379143Y-144887844D01*
X77387194Y-144893005D01*
X77394974Y-144898537D01*
X77402470Y-144904428D01*
X77409671Y-144910665D01*
X77416562Y-144917236D01*
X77423133Y-144924127D01*
X77429370Y-144931328D01*
X77435261Y-144938824D01*
X77440793Y-144946604D01*
X77445955Y-144954655D01*
X77450733Y-144962965D01*
X77455115Y-144971521D01*
X77459089Y-144980311D01*
X77462642Y-144989323D01*
X77465762Y-144998543D01*
X77468436Y-145007959D01*
X77470652Y-145017560D01*
X77472397Y-145027332D01*
X77473659Y-145037263D01*
X77474426Y-145047340D01*
X77474684Y-145057552D01*
X77474426Y-145067764D01*
X77473659Y-145077841D01*
X77472397Y-145087772D01*
X77470652Y-145097544D01*
X77468436Y-145107145D01*
X77465762Y-145116562D01*
X77462642Y-145125782D01*
X77459089Y-145134793D01*
X77455115Y-145143583D01*
X77450733Y-145152140D01*
X77445955Y-145160450D01*
X77440793Y-145168501D01*
X77435261Y-145176281D01*
X77429370Y-145183777D01*
X77423133Y-145190978D01*
X77416562Y-145197869D01*
X77409671Y-145204440D01*
X77402470Y-145210677D01*
X77394974Y-145216568D01*
X77387194Y-145222100D01*
X77379143Y-145227262D01*
X77370833Y-145232040D01*
X77362276Y-145236422D01*
X77353486Y-145240396D01*
X77344475Y-145243949D01*
X77335255Y-145247069D01*
X77325838Y-145249743D01*
X77316237Y-145251959D01*
X77306465Y-145253704D01*
X77296534Y-145254966D01*
X77286457Y-145255733D01*
X77276245Y-145255991D01*
X77266033Y-145255733D01*
X77255956Y-145254966D01*
X77246025Y-145253704D01*
X77236253Y-145251959D01*
X77226652Y-145249743D01*
X77217236Y-145247069D01*
X77208016Y-145243949D01*
X77199004Y-145240396D01*
X77190214Y-145236422D01*
X77181658Y-145232040D01*
X77173348Y-145227262D01*
X77165297Y-145222100D01*
X77157517Y-145216568D01*
X77150021Y-145210677D01*
X77142820Y-145204440D01*
X77135929Y-145197869D01*
X77129358Y-145190978D01*
X77123121Y-145183777D01*
X77117230Y-145176281D01*
X77111698Y-145168501D01*
X77106537Y-145160450D01*
X77101758Y-145152140D01*
X77097376Y-145143583D01*
X77093402Y-145134793D01*
X77089849Y-145125782D01*
X77086730Y-145116562D01*
X77084056Y-145107145D01*
X77081840Y-145097544D01*
X77080095Y-145087772D01*
X77078833Y-145077841D01*
X77078067Y-145067764D01*
X77077808Y-145057552D01*
X77078067Y-145047340D01*
X77078833Y-145037263D01*
X77080095Y-145027332D01*
X77081840Y-145017560D01*
X77084056Y-145007959D01*
X77086730Y-144998543D01*
X77089849Y-144989323D01*
X77093402Y-144980311D01*
X77097376Y-144971521D01*
X77101758Y-144962965D01*
X77106537Y-144954655D01*
X77111698Y-144946604D01*
X77117230Y-144938824D01*
X77123121Y-144931328D01*
X77129358Y-144924127D01*
X77135929Y-144917236D01*
X77142820Y-144910665D01*
X77150021Y-144904428D01*
X77157517Y-144898537D01*
X77165297Y-144893005D01*
X77173348Y-144887844D01*
X77181658Y-144883065D01*
X77190214Y-144878683D01*
X77199004Y-144874709D01*
X77208016Y-144871156D01*
X77217236Y-144868037D01*
X77226652Y-144865363D01*
X77236253Y-144863147D01*
X77246025Y-144861402D01*
X77255956Y-144860140D01*
X77266033Y-144859374D01*
X77276245Y-144859115D01*
X77286457Y-144859374D01*
G37*
G36*
X89192708Y-160072915D02*
G01*
X89202786Y-160073681D01*
X89212717Y-160074943D01*
X89222489Y-160076688D01*
X89232089Y-160078904D01*
X89241506Y-160081578D01*
X89250726Y-160084698D01*
X89259737Y-160088251D01*
X89268527Y-160092225D01*
X89277083Y-160096607D01*
X89285393Y-160101385D01*
X89293444Y-160106547D01*
X89301224Y-160112079D01*
X89308721Y-160117970D01*
X89315921Y-160124207D01*
X89322813Y-160130778D01*
X89329383Y-160137669D01*
X89335620Y-160144869D01*
X89341511Y-160152366D01*
X89347044Y-160160146D01*
X89352205Y-160168197D01*
X89356983Y-160176507D01*
X89361366Y-160185063D01*
X89365339Y-160193853D01*
X89368893Y-160202864D01*
X89372012Y-160212085D01*
X89374686Y-160221501D01*
X89376902Y-160231102D01*
X89378647Y-160240873D01*
X89379909Y-160250804D01*
X89380676Y-160260882D01*
X89380934Y-160271093D01*
X89380676Y-160281305D01*
X89379909Y-160291383D01*
X89378647Y-160301314D01*
X89376902Y-160311086D01*
X89374686Y-160320686D01*
X89372012Y-160330103D01*
X89368893Y-160339323D01*
X89365339Y-160348335D01*
X89361366Y-160357125D01*
X89356983Y-160365681D01*
X89352205Y-160373991D01*
X89347044Y-160382042D01*
X89341511Y-160389822D01*
X89335620Y-160397318D01*
X89329383Y-160404519D01*
X89322813Y-160411410D01*
X89315921Y-160417981D01*
X89308721Y-160424217D01*
X89301224Y-160430108D01*
X89293444Y-160435641D01*
X89285393Y-160440802D01*
X89277083Y-160445580D01*
X89268527Y-160449962D01*
X89259737Y-160453936D01*
X89250726Y-160457489D01*
X89241506Y-160460609D01*
X89232089Y-160463283D01*
X89222489Y-160465498D01*
X89212717Y-160467243D01*
X89202786Y-160468505D01*
X89192708Y-160469272D01*
X89182497Y-160469530D01*
X89172285Y-160469272D01*
X89162208Y-160468505D01*
X89152276Y-160467243D01*
X89142504Y-160465498D01*
X89132903Y-160463283D01*
X89123487Y-160460609D01*
X89114266Y-160457489D01*
X89105255Y-160453936D01*
X89096465Y-160449962D01*
X89087908Y-160445580D01*
X89079598Y-160440802D01*
X89071547Y-160435641D01*
X89063767Y-160430108D01*
X89056270Y-160424217D01*
X89049070Y-160417981D01*
X89042178Y-160411410D01*
X89035608Y-160404519D01*
X89029370Y-160397318D01*
X89023479Y-160389822D01*
X89017947Y-160382042D01*
X89012785Y-160373991D01*
X89008007Y-160365681D01*
X89003625Y-160357125D01*
X88999651Y-160348335D01*
X88996098Y-160339323D01*
X88992978Y-160330103D01*
X88990304Y-160320686D01*
X88988088Y-160311086D01*
X88986343Y-160301314D01*
X88985081Y-160291383D01*
X88984315Y-160281305D01*
X88984056Y-160271093D01*
X88984315Y-160260882D01*
X88985081Y-160250804D01*
X88986343Y-160240873D01*
X88988088Y-160231102D01*
X88990304Y-160221501D01*
X88992978Y-160212085D01*
X88996098Y-160202864D01*
X88999651Y-160193853D01*
X89003625Y-160185063D01*
X89008007Y-160176507D01*
X89012785Y-160168197D01*
X89017947Y-160160146D01*
X89023479Y-160152366D01*
X89029370Y-160144869D01*
X89035608Y-160137669D01*
X89042178Y-160130778D01*
X89049070Y-160124207D01*
X89056270Y-160117970D01*
X89063767Y-160112079D01*
X89071547Y-160106547D01*
X89079598Y-160101385D01*
X89087908Y-160096607D01*
X89096465Y-160092225D01*
X89105255Y-160088251D01*
X89114266Y-160084698D01*
X89123487Y-160081578D01*
X89132903Y-160078904D01*
X89142504Y-160076688D01*
X89152276Y-160074943D01*
X89162208Y-160073681D01*
X89172285Y-160072915D01*
X89182497Y-160072656D01*
X89192708Y-160072915D01*
G37*
G36*
X87869790Y-136260415D02*
G01*
X87879868Y-136261181D01*
X87889799Y-136262443D01*
X87899571Y-136264188D01*
X87909171Y-136266404D01*
X87918588Y-136269078D01*
X87927808Y-136272198D01*
X87936819Y-136275751D01*
X87945609Y-136279725D01*
X87954165Y-136284107D01*
X87962475Y-136288885D01*
X87970526Y-136294047D01*
X87978306Y-136299579D01*
X87985803Y-136305470D01*
X87993003Y-136311707D01*
X87999895Y-136318278D01*
X88006465Y-136325169D01*
X88012702Y-136332370D01*
X88018593Y-136339866D01*
X88024126Y-136347646D01*
X88029287Y-136355698D01*
X88034065Y-136364008D01*
X88038448Y-136372564D01*
X88042421Y-136381354D01*
X88045975Y-136390365D01*
X88049094Y-136399586D01*
X88051768Y-136409002D01*
X88053984Y-136418603D01*
X88055729Y-136428375D01*
X88056991Y-136438306D01*
X88057758Y-136448383D01*
X88058016Y-136458595D01*
X88057758Y-136468807D01*
X88056991Y-136478884D01*
X88055729Y-136488815D01*
X88053984Y-136498587D01*
X88051768Y-136508188D01*
X88049094Y-136517604D01*
X88045975Y-136526825D01*
X88042421Y-136535836D01*
X88038448Y-136544626D01*
X88034065Y-136553182D01*
X88029287Y-136561492D01*
X88024126Y-136569543D01*
X88018593Y-136577323D01*
X88012702Y-136584820D01*
X88006465Y-136592020D01*
X87999895Y-136598911D01*
X87993003Y-136605482D01*
X87985803Y-136611719D01*
X87978306Y-136617610D01*
X87970526Y-136623142D01*
X87962475Y-136628304D01*
X87954165Y-136633082D01*
X87945609Y-136637464D01*
X87936819Y-136641438D01*
X87927808Y-136644991D01*
X87918588Y-136648111D01*
X87909171Y-136650785D01*
X87899571Y-136653000D01*
X87889799Y-136654745D01*
X87879868Y-136656007D01*
X87869790Y-136656774D01*
X87859579Y-136657032D01*
X87849367Y-136656774D01*
X87839290Y-136656007D01*
X87829358Y-136654745D01*
X87819586Y-136653000D01*
X87809986Y-136650785D01*
X87800569Y-136648111D01*
X87791349Y-136644991D01*
X87782337Y-136641438D01*
X87773547Y-136637464D01*
X87764991Y-136633082D01*
X87756681Y-136628304D01*
X87748630Y-136623142D01*
X87740850Y-136617610D01*
X87733354Y-136611719D01*
X87726154Y-136605482D01*
X87719262Y-136598911D01*
X87712692Y-136592020D01*
X87706455Y-136584820D01*
X87700564Y-136577323D01*
X87695031Y-136569543D01*
X87689870Y-136561492D01*
X87685092Y-136553182D01*
X87680710Y-136544626D01*
X87676736Y-136535836D01*
X87673183Y-136526825D01*
X87670063Y-136517604D01*
X87667389Y-136508188D01*
X87665174Y-136498587D01*
X87663429Y-136488815D01*
X87662167Y-136478884D01*
X87661401Y-136468807D01*
X87661142Y-136458595D01*
X87661401Y-136448383D01*
X87662167Y-136438306D01*
X87663429Y-136428375D01*
X87665174Y-136418603D01*
X87667389Y-136409002D01*
X87670063Y-136399586D01*
X87673183Y-136390365D01*
X87676736Y-136381354D01*
X87680710Y-136372564D01*
X87685092Y-136364008D01*
X87689870Y-136355698D01*
X87695031Y-136347646D01*
X87700564Y-136339866D01*
X87706455Y-136332370D01*
X87712692Y-136325169D01*
X87719262Y-136318278D01*
X87726154Y-136311707D01*
X87733354Y-136305470D01*
X87740850Y-136299579D01*
X87748630Y-136294047D01*
X87756681Y-136288885D01*
X87764991Y-136284107D01*
X87773547Y-136279725D01*
X87782337Y-136275751D01*
X87791349Y-136272198D01*
X87800569Y-136269078D01*
X87809986Y-136266404D01*
X87819586Y-136264188D01*
X87829358Y-136262443D01*
X87839290Y-136261181D01*
X87849367Y-136260415D01*
X87859579Y-136260156D01*
X87869790Y-136260415D01*
G37*
G36*
X94484373Y-152135415D02*
G01*
X94494451Y-152136181D01*
X94504382Y-152137443D01*
X94514154Y-152139188D01*
X94523754Y-152141404D01*
X94533171Y-152144078D01*
X94542391Y-152147198D01*
X94551403Y-152150751D01*
X94560193Y-152154725D01*
X94568749Y-152159107D01*
X94577059Y-152163885D01*
X94585110Y-152169047D01*
X94592890Y-152174579D01*
X94600386Y-152180470D01*
X94607587Y-152186707D01*
X94614478Y-152193278D01*
X94621049Y-152200169D01*
X94627285Y-152207369D01*
X94633176Y-152214866D01*
X94638709Y-152222646D01*
X94643870Y-152230697D01*
X94648648Y-152239007D01*
X94653030Y-152247563D01*
X94657004Y-152256353D01*
X94660557Y-152265364D01*
X94663677Y-152274585D01*
X94666351Y-152284001D01*
X94668566Y-152293602D01*
X94670311Y-152303373D01*
X94671573Y-152313304D01*
X94672340Y-152323382D01*
X94672598Y-152333593D01*
X94672340Y-152343805D01*
X94671573Y-152353883D01*
X94670311Y-152363814D01*
X94668566Y-152373586D01*
X94666351Y-152383186D01*
X94663677Y-152392603D01*
X94660557Y-152401823D01*
X94657004Y-152410835D01*
X94653030Y-152419625D01*
X94648648Y-152428181D01*
X94643870Y-152436491D01*
X94638709Y-152444542D01*
X94633176Y-152452322D01*
X94627285Y-152459818D01*
X94621049Y-152467019D01*
X94614478Y-152473910D01*
X94607587Y-152480481D01*
X94600386Y-152486717D01*
X94592890Y-152492608D01*
X94585110Y-152498141D01*
X94577059Y-152503302D01*
X94568749Y-152508080D01*
X94560193Y-152512462D01*
X94551403Y-152516436D01*
X94542391Y-152519989D01*
X94533171Y-152523109D01*
X94523754Y-152525783D01*
X94514154Y-152527998D01*
X94504382Y-152529743D01*
X94494451Y-152531005D01*
X94484373Y-152531772D01*
X94474161Y-152532030D01*
X94463950Y-152531772D01*
X94453872Y-152531005D01*
X94443941Y-152529743D01*
X94434170Y-152527998D01*
X94424569Y-152525783D01*
X94415153Y-152523109D01*
X94405932Y-152519989D01*
X94396921Y-152516436D01*
X94388131Y-152512462D01*
X94379575Y-152508080D01*
X94371265Y-152503302D01*
X94363214Y-152498141D01*
X94355434Y-152492608D01*
X94347937Y-152486717D01*
X94340737Y-152480481D01*
X94333846Y-152473910D01*
X94327275Y-152467019D01*
X94321038Y-152459818D01*
X94315147Y-152452322D01*
X94309615Y-152444542D01*
X94304453Y-152436491D01*
X94299675Y-152428181D01*
X94295293Y-152419625D01*
X94291319Y-152410835D01*
X94287766Y-152401823D01*
X94284646Y-152392603D01*
X94281972Y-152383186D01*
X94279756Y-152373586D01*
X94278011Y-152363814D01*
X94276749Y-152353883D01*
X94275983Y-152343805D01*
X94275724Y-152333593D01*
X94275983Y-152323382D01*
X94276749Y-152313304D01*
X94278011Y-152303373D01*
X94279756Y-152293602D01*
X94281972Y-152284001D01*
X94284646Y-152274585D01*
X94287766Y-152265364D01*
X94291319Y-152256353D01*
X94295293Y-152247563D01*
X94299675Y-152239007D01*
X94304453Y-152230697D01*
X94309615Y-152222646D01*
X94315147Y-152214866D01*
X94321038Y-152207369D01*
X94327275Y-152200169D01*
X94333846Y-152193278D01*
X94340737Y-152186707D01*
X94347937Y-152180470D01*
X94355434Y-152174579D01*
X94363214Y-152169047D01*
X94371265Y-152163885D01*
X94379575Y-152159107D01*
X94388131Y-152154725D01*
X94396921Y-152150751D01*
X94405932Y-152147198D01*
X94415153Y-152144078D01*
X94424569Y-152141404D01*
X94434170Y-152139188D01*
X94443941Y-152137443D01*
X94453872Y-152136181D01*
X94463950Y-152135415D01*
X94474161Y-152135156D01*
X94484373Y-152135415D01*
G37*
G36*
X97133609Y-124949565D02*
G01*
X97147046Y-124950586D01*
X97160288Y-124952269D01*
X97173317Y-124954596D01*
X97186118Y-124957550D01*
X97198674Y-124961116D01*
X97210968Y-124965275D01*
X97222983Y-124970013D01*
X97234703Y-124975311D01*
X97246111Y-124981154D01*
X97257191Y-124987525D01*
X97267926Y-124994407D01*
X97278300Y-125001784D01*
X97288295Y-125009638D01*
X97297895Y-125017954D01*
X97307084Y-125026715D01*
X97315844Y-125035904D01*
X97324160Y-125045504D01*
X97332015Y-125055499D01*
X97339391Y-125065873D01*
X97346273Y-125076608D01*
X97352644Y-125087688D01*
X97358487Y-125099096D01*
X97363785Y-125110816D01*
X97368522Y-125122831D01*
X97372682Y-125135125D01*
X97376247Y-125147680D01*
X97379202Y-125160481D01*
X97381528Y-125173510D01*
X97383211Y-125186751D01*
X97384233Y-125200188D01*
X97384577Y-125213804D01*
X97384233Y-125227419D01*
X97383211Y-125240856D01*
X97381528Y-125254097D01*
X97379202Y-125267126D01*
X97376247Y-125279927D01*
X97372682Y-125292483D01*
X97368522Y-125304776D01*
X97363785Y-125316791D01*
X97358487Y-125328511D01*
X97352644Y-125339920D01*
X97346273Y-125351000D01*
X97339391Y-125361735D01*
X97332015Y-125372108D01*
X97324160Y-125382103D01*
X97315844Y-125391703D01*
X97307084Y-125400892D01*
X97297895Y-125409653D01*
X97288295Y-125417969D01*
X97278300Y-125425824D01*
X97267926Y-125433200D01*
X97257191Y-125440082D01*
X97246111Y-125446453D01*
X97234703Y-125452296D01*
X97222983Y-125457595D01*
X97210968Y-125462332D01*
X97198674Y-125466492D01*
X97186118Y-125470057D01*
X97173317Y-125473012D01*
X97160288Y-125475339D01*
X97147046Y-125477021D01*
X97133609Y-125478043D01*
X97119993Y-125478387D01*
X97106378Y-125478043D01*
X97092941Y-125477021D01*
X97079700Y-125475339D01*
X97066670Y-125473012D01*
X97053870Y-125470057D01*
X97041314Y-125466492D01*
X97029020Y-125462332D01*
X97017005Y-125457595D01*
X97005285Y-125452296D01*
X96993877Y-125446453D01*
X96982797Y-125440082D01*
X96972062Y-125433200D01*
X96961688Y-125425824D01*
X96951693Y-125417969D01*
X96942093Y-125409653D01*
X96932904Y-125400892D01*
X96924144Y-125391703D01*
X96915828Y-125382103D01*
X96907973Y-125372108D01*
X96900596Y-125361735D01*
X96893714Y-125351000D01*
X96887343Y-125339920D01*
X96881500Y-125328511D01*
X96876202Y-125316791D01*
X96871464Y-125304776D01*
X96867305Y-125292483D01*
X96863739Y-125279927D01*
X96860785Y-125267126D01*
X96858458Y-125254097D01*
X96856776Y-125240856D01*
X96855754Y-125227419D01*
X96855410Y-125213804D01*
X96855754Y-125200188D01*
X96856776Y-125186751D01*
X96858458Y-125173510D01*
X96860785Y-125160481D01*
X96863739Y-125147680D01*
X96867305Y-125135125D01*
X96871464Y-125122831D01*
X96876202Y-125110816D01*
X96881500Y-125099096D01*
X96887343Y-125087688D01*
X96893714Y-125076608D01*
X96900596Y-125065873D01*
X96907973Y-125055499D01*
X96915828Y-125045504D01*
X96924144Y-125035904D01*
X96932904Y-125026715D01*
X96942093Y-125017954D01*
X96951693Y-125009638D01*
X96961688Y-125001784D01*
X96972062Y-124994407D01*
X96982797Y-124987525D01*
X96993877Y-124981154D01*
X97005285Y-124975311D01*
X97017005Y-124970013D01*
X97029020Y-124965275D01*
X97041314Y-124961116D01*
X97053870Y-124957550D01*
X97066670Y-124954596D01*
X97079700Y-124952269D01*
X97092941Y-124950586D01*
X97106378Y-124949565D01*
X97119993Y-124949220D01*
X97133609Y-124949565D01*
G37*
G36*
X109036455Y-150812499D02*
G01*
X109046533Y-150813265D01*
X109056464Y-150814527D01*
X109066236Y-150816272D01*
X109075837Y-150818488D01*
X109085253Y-150821162D01*
X109094473Y-150824281D01*
X109103485Y-150827834D01*
X109112275Y-150831808D01*
X109120831Y-150836190D01*
X109129141Y-150840969D01*
X109137192Y-150846130D01*
X109144972Y-150851662D01*
X109152468Y-150857553D01*
X109159669Y-150863790D01*
X109166560Y-150870361D01*
X109173131Y-150877252D01*
X109179367Y-150884453D01*
X109185258Y-150891949D01*
X109190791Y-150899729D01*
X109195952Y-150907780D01*
X109200730Y-150916090D01*
X109205112Y-150924646D01*
X109209086Y-150933436D01*
X109212639Y-150942448D01*
X109215759Y-150951668D01*
X109218433Y-150961084D01*
X109220649Y-150970685D01*
X109222394Y-150980457D01*
X109223655Y-150990388D01*
X109224422Y-151000465D01*
X109224680Y-151010677D01*
X109224422Y-151020889D01*
X109223655Y-151030966D01*
X109222394Y-151040897D01*
X109220649Y-151050669D01*
X109218433Y-151060270D01*
X109215759Y-151069687D01*
X109212639Y-151078907D01*
X109209086Y-151087918D01*
X109205112Y-151096708D01*
X109200730Y-151105265D01*
X109195952Y-151113575D01*
X109190791Y-151121626D01*
X109185258Y-151129406D01*
X109179367Y-151136902D01*
X109173131Y-151144103D01*
X109166560Y-151150994D01*
X109159669Y-151157565D01*
X109152468Y-151163802D01*
X109144972Y-151169693D01*
X109137192Y-151175225D01*
X109129141Y-151180387D01*
X109120831Y-151185165D01*
X109112275Y-151189547D01*
X109103485Y-151193521D01*
X109094473Y-151197074D01*
X109085253Y-151200194D01*
X109075837Y-151202868D01*
X109066236Y-151205084D01*
X109056464Y-151206829D01*
X109046533Y-151208091D01*
X109036455Y-151208858D01*
X109026243Y-151209116D01*
X109016032Y-151208858D01*
X109005954Y-151208091D01*
X108996023Y-151206829D01*
X108986252Y-151205084D01*
X108976651Y-151202868D01*
X108967235Y-151200194D01*
X108958014Y-151197074D01*
X108949003Y-151193521D01*
X108940213Y-151189547D01*
X108931657Y-151185165D01*
X108923347Y-151180387D01*
X108915296Y-151175225D01*
X108907516Y-151169693D01*
X108900019Y-151163802D01*
X108892819Y-151157565D01*
X108885928Y-151150994D01*
X108879357Y-151144103D01*
X108873120Y-151136902D01*
X108867229Y-151129406D01*
X108861697Y-151121626D01*
X108856535Y-151113575D01*
X108851757Y-151105265D01*
X108847375Y-151096708D01*
X108843401Y-151087918D01*
X108839848Y-151078907D01*
X108836728Y-151069687D01*
X108834054Y-151060270D01*
X108831838Y-151050669D01*
X108830093Y-151040897D01*
X108828831Y-151030966D01*
X108828065Y-151020889D01*
X108827806Y-151010677D01*
X108828065Y-151000465D01*
X108828831Y-150990388D01*
X108830093Y-150980457D01*
X108831838Y-150970685D01*
X108834054Y-150961084D01*
X108836728Y-150951668D01*
X108839848Y-150942448D01*
X108843401Y-150933436D01*
X108847375Y-150924646D01*
X108851757Y-150916090D01*
X108856535Y-150907780D01*
X108861697Y-150899729D01*
X108867229Y-150891949D01*
X108873120Y-150884453D01*
X108879357Y-150877252D01*
X108885928Y-150870361D01*
X108892819Y-150863790D01*
X108900019Y-150857553D01*
X108907516Y-150851662D01*
X108915296Y-150846130D01*
X108923347Y-150840969D01*
X108931657Y-150836190D01*
X108940213Y-150831808D01*
X108949003Y-150827834D01*
X108958014Y-150824281D01*
X108967235Y-150821162D01*
X108976651Y-150818488D01*
X108986252Y-150816272D01*
X108996023Y-150814527D01*
X109005954Y-150813265D01*
X109016032Y-150812499D01*
X109026243Y-150812240D01*
X109036455Y-150812499D01*
G37*
G36*
X105071109Y-140824565D02*
G01*
X105084546Y-140825586D01*
X105097788Y-140827269D01*
X105110817Y-140829596D01*
X105123618Y-140832550D01*
X105136174Y-140836116D01*
X105148468Y-140840275D01*
X105160483Y-140845013D01*
X105172203Y-140850311D01*
X105183611Y-140856154D01*
X105194691Y-140862525D01*
X105205426Y-140869407D01*
X105215800Y-140876784D01*
X105225795Y-140884638D01*
X105235395Y-140892954D01*
X105244584Y-140901715D01*
X105253344Y-140910904D01*
X105261660Y-140920504D01*
X105269515Y-140930499D01*
X105276891Y-140940872D01*
X105283773Y-140951607D01*
X105290144Y-140962687D01*
X105295987Y-140974095D01*
X105301285Y-140985815D01*
X105306022Y-140997830D01*
X105310182Y-141010124D01*
X105313747Y-141022679D01*
X105316702Y-141035480D01*
X105319028Y-141048509D01*
X105320711Y-141061750D01*
X105321733Y-141075187D01*
X105322077Y-141088802D01*
X105321733Y-141102418D01*
X105320711Y-141115854D01*
X105319028Y-141129096D01*
X105316702Y-141142125D01*
X105313747Y-141154926D01*
X105310182Y-141167481D01*
X105306022Y-141179775D01*
X105301285Y-141191790D01*
X105295987Y-141203510D01*
X105290144Y-141214918D01*
X105283773Y-141225998D01*
X105276891Y-141236733D01*
X105269515Y-141247107D01*
X105261660Y-141257102D01*
X105253344Y-141266702D01*
X105244584Y-141275891D01*
X105235395Y-141284652D01*
X105225795Y-141292968D01*
X105215800Y-141300822D01*
X105205426Y-141308199D01*
X105194691Y-141315081D01*
X105183611Y-141321452D01*
X105172203Y-141327295D01*
X105160483Y-141332593D01*
X105148468Y-141337331D01*
X105136174Y-141341491D01*
X105123618Y-141345056D01*
X105110817Y-141348010D01*
X105097788Y-141350337D01*
X105084546Y-141352020D01*
X105071109Y-141353041D01*
X105057493Y-141353386D01*
X105043878Y-141353041D01*
X105030441Y-141352020D01*
X105017200Y-141350337D01*
X105004170Y-141348010D01*
X104991370Y-141345056D01*
X104978814Y-141341491D01*
X104966520Y-141337331D01*
X104954505Y-141332593D01*
X104942785Y-141327295D01*
X104931377Y-141321452D01*
X104920297Y-141315081D01*
X104909562Y-141308199D01*
X104899188Y-141300822D01*
X104889193Y-141292968D01*
X104879593Y-141284652D01*
X104870404Y-141275891D01*
X104861644Y-141266702D01*
X104853328Y-141257102D01*
X104845473Y-141247107D01*
X104838096Y-141236733D01*
X104831214Y-141225998D01*
X104824843Y-141214918D01*
X104819000Y-141203510D01*
X104813702Y-141191790D01*
X104808964Y-141179775D01*
X104804805Y-141167481D01*
X104801239Y-141154926D01*
X104798285Y-141142125D01*
X104795958Y-141129096D01*
X104794276Y-141115854D01*
X104793254Y-141102418D01*
X104792910Y-141088802D01*
X104793254Y-141075187D01*
X104794276Y-141061750D01*
X104795958Y-141048509D01*
X104798285Y-141035480D01*
X104801239Y-141022679D01*
X104804805Y-141010124D01*
X104808964Y-140997830D01*
X104813702Y-140985815D01*
X104819000Y-140974095D01*
X104824843Y-140962687D01*
X104831214Y-140951607D01*
X104838096Y-140940872D01*
X104845473Y-140930499D01*
X104853328Y-140920504D01*
X104861644Y-140910904D01*
X104870404Y-140901715D01*
X104879593Y-140892954D01*
X104889193Y-140884638D01*
X104899188Y-140876784D01*
X104909562Y-140869407D01*
X104920297Y-140862525D01*
X104931377Y-140856154D01*
X104942785Y-140850311D01*
X104954505Y-140845013D01*
X104966520Y-140840275D01*
X104978814Y-140836116D01*
X104991370Y-140832550D01*
X105004170Y-140829596D01*
X105017200Y-140827269D01*
X105030441Y-140825586D01*
X105043878Y-140824565D01*
X105057493Y-140824220D01*
X105071109Y-140824565D01*
G37*
G36*
X113008609Y-160668311D02*
G01*
X113022046Y-160669333D01*
X113035288Y-160671015D01*
X113048317Y-160673342D01*
X113061118Y-160676296D01*
X113073674Y-160679862D01*
X113085968Y-160684021D01*
X113097983Y-160688759D01*
X113109703Y-160694057D01*
X113121111Y-160699900D01*
X113132191Y-160706271D01*
X113142926Y-160713153D01*
X113153300Y-160720530D01*
X113163295Y-160728385D01*
X113172895Y-160736701D01*
X113182084Y-160745461D01*
X113190844Y-160754650D01*
X113199160Y-160764250D01*
X113207015Y-160774245D01*
X113214391Y-160784619D01*
X113221273Y-160795354D01*
X113227644Y-160806434D01*
X113233487Y-160817842D01*
X113238785Y-160829562D01*
X113243522Y-160841577D01*
X113247682Y-160853871D01*
X113251247Y-160866427D01*
X113254202Y-160879227D01*
X113256528Y-160892257D01*
X113258211Y-160905498D01*
X113259233Y-160918935D01*
X113259577Y-160932550D01*
X113259233Y-160946166D01*
X113258211Y-160959603D01*
X113256528Y-160972845D01*
X113254202Y-160985874D01*
X113251247Y-160998675D01*
X113247682Y-161011231D01*
X113243522Y-161023525D01*
X113238785Y-161035540D01*
X113233487Y-161047260D01*
X113227644Y-161058668D01*
X113221273Y-161069748D01*
X113214391Y-161080483D01*
X113207015Y-161090857D01*
X113199160Y-161100852D01*
X113190844Y-161110452D01*
X113182084Y-161119641D01*
X113172895Y-161128401D01*
X113163295Y-161136717D01*
X113153300Y-161144572D01*
X113142926Y-161151948D01*
X113132191Y-161158830D01*
X113121111Y-161165201D01*
X113109703Y-161171044D01*
X113097983Y-161176342D01*
X113085968Y-161181079D01*
X113073674Y-161185239D01*
X113061118Y-161188804D01*
X113048317Y-161191759D01*
X113035288Y-161194085D01*
X113022046Y-161195768D01*
X113008609Y-161196790D01*
X112994993Y-161197134D01*
X112981378Y-161196790D01*
X112967941Y-161195768D01*
X112954700Y-161194085D01*
X112941670Y-161191759D01*
X112928870Y-161188804D01*
X112916314Y-161185239D01*
X112904020Y-161181079D01*
X112892005Y-161176342D01*
X112880285Y-161171044D01*
X112868877Y-161165201D01*
X112857797Y-161158830D01*
X112847062Y-161151948D01*
X112836688Y-161144572D01*
X112826693Y-161136717D01*
X112817093Y-161128401D01*
X112807904Y-161119641D01*
X112799144Y-161110452D01*
X112790828Y-161100852D01*
X112782973Y-161090857D01*
X112775596Y-161080483D01*
X112768714Y-161069748D01*
X112762343Y-161058668D01*
X112756500Y-161047260D01*
X112751202Y-161035540D01*
X112746464Y-161023525D01*
X112742305Y-161011231D01*
X112738739Y-160998675D01*
X112735785Y-160985874D01*
X112733458Y-160972845D01*
X112731776Y-160959603D01*
X112730754Y-160946166D01*
X112730410Y-160932550D01*
X112730754Y-160918935D01*
X112731776Y-160905498D01*
X112733458Y-160892257D01*
X112735785Y-160879227D01*
X112738739Y-160866427D01*
X112742305Y-160853871D01*
X112746464Y-160841577D01*
X112751202Y-160829562D01*
X112756500Y-160817842D01*
X112762343Y-160806434D01*
X112768714Y-160795354D01*
X112775596Y-160784619D01*
X112782973Y-160774245D01*
X112790828Y-160764250D01*
X112799144Y-160754650D01*
X112807904Y-160745461D01*
X112817093Y-160736701D01*
X112826693Y-160728385D01*
X112836688Y-160720530D01*
X112847062Y-160713153D01*
X112857797Y-160706271D01*
X112868877Y-160699900D01*
X112880285Y-160694057D01*
X112892005Y-160688759D01*
X112904020Y-160684021D01*
X112916314Y-160679862D01*
X112928870Y-160676296D01*
X112941670Y-160673342D01*
X112954700Y-160671015D01*
X112967941Y-160669333D01*
X112981378Y-160668311D01*
X112994993Y-160667967D01*
X113008609Y-160668311D01*
G37*
G36*
X111682290Y-125677083D02*
G01*
X111692368Y-125677849D01*
X111702299Y-125679111D01*
X111712071Y-125680856D01*
X111721671Y-125683072D01*
X111731088Y-125685746D01*
X111740308Y-125688865D01*
X111749319Y-125692419D01*
X111758109Y-125696392D01*
X111766665Y-125700775D01*
X111774975Y-125705553D01*
X111783026Y-125710714D01*
X111790806Y-125716247D01*
X111798303Y-125722138D01*
X111805503Y-125728375D01*
X111812395Y-125734945D01*
X111818965Y-125741837D01*
X111825202Y-125749037D01*
X111831093Y-125756534D01*
X111836626Y-125764314D01*
X111841787Y-125772365D01*
X111846565Y-125780675D01*
X111850948Y-125789231D01*
X111854921Y-125798021D01*
X111858475Y-125807033D01*
X111861594Y-125816253D01*
X111864268Y-125825669D01*
X111866484Y-125835270D01*
X111868229Y-125845042D01*
X111869491Y-125854973D01*
X111870258Y-125865050D01*
X111870516Y-125875262D01*
X111870258Y-125885474D01*
X111869491Y-125895551D01*
X111868229Y-125905482D01*
X111866484Y-125915254D01*
X111864268Y-125924855D01*
X111861594Y-125934271D01*
X111858475Y-125943491D01*
X111854921Y-125952503D01*
X111850948Y-125961293D01*
X111846565Y-125969849D01*
X111841787Y-125978159D01*
X111836626Y-125986210D01*
X111831093Y-125993990D01*
X111825202Y-126001487D01*
X111818965Y-126008687D01*
X111812395Y-126015579D01*
X111805503Y-126022149D01*
X111798303Y-126028386D01*
X111790806Y-126034277D01*
X111783026Y-126039810D01*
X111774975Y-126044971D01*
X111766665Y-126049749D01*
X111758109Y-126054132D01*
X111749319Y-126058105D01*
X111740308Y-126061659D01*
X111731088Y-126064778D01*
X111721671Y-126067452D01*
X111712071Y-126069668D01*
X111702299Y-126071413D01*
X111692368Y-126072675D01*
X111682290Y-126073441D01*
X111672079Y-126073700D01*
X111661867Y-126073441D01*
X111651790Y-126072675D01*
X111641858Y-126071413D01*
X111632086Y-126069668D01*
X111622485Y-126067452D01*
X111613069Y-126064778D01*
X111603848Y-126061659D01*
X111594837Y-126058105D01*
X111586047Y-126054132D01*
X111577490Y-126049749D01*
X111569180Y-126044971D01*
X111561129Y-126039810D01*
X111553349Y-126034277D01*
X111545852Y-126028386D01*
X111538652Y-126022149D01*
X111531760Y-126015579D01*
X111525190Y-126008687D01*
X111518953Y-126001487D01*
X111513061Y-125993990D01*
X111507529Y-125986210D01*
X111502367Y-125978159D01*
X111497589Y-125969849D01*
X111493207Y-125961293D01*
X111489233Y-125952503D01*
X111485680Y-125943491D01*
X111482560Y-125934271D01*
X111479886Y-125924855D01*
X111477670Y-125915254D01*
X111475925Y-125905482D01*
X111474663Y-125895551D01*
X111473897Y-125885474D01*
X111473639Y-125875262D01*
X111473897Y-125865050D01*
X111474663Y-125854973D01*
X111475925Y-125845042D01*
X111477670Y-125835270D01*
X111479886Y-125825669D01*
X111482560Y-125816253D01*
X111485680Y-125807033D01*
X111489233Y-125798021D01*
X111493207Y-125789231D01*
X111497589Y-125780675D01*
X111502367Y-125772365D01*
X111507529Y-125764314D01*
X111513061Y-125756534D01*
X111518953Y-125749037D01*
X111525190Y-125741837D01*
X111531760Y-125734945D01*
X111538652Y-125728375D01*
X111545852Y-125722138D01*
X111553349Y-125716247D01*
X111561129Y-125710714D01*
X111569180Y-125705553D01*
X111577490Y-125700775D01*
X111586047Y-125696392D01*
X111594837Y-125692419D01*
X111603848Y-125688865D01*
X111613069Y-125685746D01*
X111622485Y-125683072D01*
X111632086Y-125680856D01*
X111641858Y-125679111D01*
X111651790Y-125677849D01*
X111661867Y-125677083D01*
X111672079Y-125676824D01*
X111682290Y-125677083D01*
G37*
G36*
X122265623Y-159411458D02*
G01*
X122275701Y-159412224D01*
X122285632Y-159413486D01*
X122295404Y-159415231D01*
X122305004Y-159417446D01*
X122314421Y-159420120D01*
X122323641Y-159423240D01*
X122332652Y-159426793D01*
X122341442Y-159430767D01*
X122349998Y-159435149D01*
X122358308Y-159439927D01*
X122366359Y-159445088D01*
X122374139Y-159450621D01*
X122381635Y-159456512D01*
X122388835Y-159462749D01*
X122395726Y-159469319D01*
X122402296Y-159476211D01*
X122408533Y-159483411D01*
X122414424Y-159490907D01*
X122419956Y-159498687D01*
X122425117Y-159506738D01*
X122429895Y-159515048D01*
X122434277Y-159523604D01*
X122438251Y-159532394D01*
X122441804Y-159541406D01*
X122444923Y-159550626D01*
X122447597Y-159560043D01*
X122449813Y-159569643D01*
X122451558Y-159579415D01*
X122452820Y-159589347D01*
X122453586Y-159599424D01*
X122453844Y-159609636D01*
X122453586Y-159619847D01*
X122452820Y-159629925D01*
X122451558Y-159639856D01*
X122449813Y-159649628D01*
X122447597Y-159659228D01*
X122444923Y-159668645D01*
X122441804Y-159677865D01*
X122438251Y-159686876D01*
X122434277Y-159695666D01*
X122429895Y-159704222D01*
X122425117Y-159712532D01*
X122419956Y-159720583D01*
X122414424Y-159728363D01*
X122408533Y-159735860D01*
X122402296Y-159743060D01*
X122395726Y-159749952D01*
X122388835Y-159756522D01*
X122381635Y-159762759D01*
X122374139Y-159768650D01*
X122366359Y-159774183D01*
X122358308Y-159779344D01*
X122349998Y-159784122D01*
X122341442Y-159788505D01*
X122332652Y-159792478D01*
X122323641Y-159796032D01*
X122314421Y-159799151D01*
X122305004Y-159801825D01*
X122295404Y-159804041D01*
X122285632Y-159805786D01*
X122275701Y-159807048D01*
X122265623Y-159807815D01*
X122255411Y-159808073D01*
X122245199Y-159807815D01*
X122235122Y-159807048D01*
X122225190Y-159805786D01*
X122215418Y-159804041D01*
X122205818Y-159801825D01*
X122196401Y-159799151D01*
X122187180Y-159796032D01*
X122178169Y-159792478D01*
X122169379Y-159788505D01*
X122160822Y-159784122D01*
X122152512Y-159779344D01*
X122144461Y-159774183D01*
X122136681Y-159768650D01*
X122129184Y-159762759D01*
X122121984Y-159756522D01*
X122115092Y-159749952D01*
X122108522Y-159743060D01*
X122102285Y-159735860D01*
X122096394Y-159728363D01*
X122090861Y-159720583D01*
X122085699Y-159712532D01*
X122080921Y-159704222D01*
X122076539Y-159695666D01*
X122072565Y-159686876D01*
X122069012Y-159677865D01*
X122065892Y-159668645D01*
X122063218Y-159659228D01*
X122061002Y-159649628D01*
X122059257Y-159639856D01*
X122057995Y-159629925D01*
X122057229Y-159619847D01*
X122056971Y-159609636D01*
X122057229Y-159599424D01*
X122057995Y-159589347D01*
X122059257Y-159579415D01*
X122061002Y-159569643D01*
X122063218Y-159560043D01*
X122065892Y-159550626D01*
X122069012Y-159541406D01*
X122072565Y-159532394D01*
X122076539Y-159523604D01*
X122080921Y-159515048D01*
X122085699Y-159506738D01*
X122090861Y-159498687D01*
X122096394Y-159490907D01*
X122102285Y-159483411D01*
X122108522Y-159476211D01*
X122115092Y-159469319D01*
X122121984Y-159462749D01*
X122129184Y-159456512D01*
X122136681Y-159450621D01*
X122144461Y-159445088D01*
X122152512Y-159439927D01*
X122160822Y-159435149D01*
X122169379Y-159430767D01*
X122178169Y-159426793D01*
X122187180Y-159423240D01*
X122196401Y-159420120D01*
X122205818Y-159417446D01*
X122215418Y-159415231D01*
X122225190Y-159413486D01*
X122235122Y-159412224D01*
X122245199Y-159411458D01*
X122255411Y-159411199D01*
X122265623Y-159411458D01*
G37*
G36*
X119623191Y-126272481D02*
G01*
X119636627Y-126273503D01*
X119649869Y-126275186D01*
X119662898Y-126277512D01*
X119675699Y-126280467D01*
X119688255Y-126284032D01*
X119700549Y-126288192D01*
X119712564Y-126292929D01*
X119724284Y-126298228D01*
X119735693Y-126304071D01*
X119746773Y-126310442D01*
X119757508Y-126317324D01*
X119767881Y-126324700D01*
X119777877Y-126332555D01*
X119787477Y-126340871D01*
X119796666Y-126349632D01*
X119805427Y-126358821D01*
X119813743Y-126368421D01*
X119821598Y-126378416D01*
X119828975Y-126388789D01*
X119835857Y-126399524D01*
X119842228Y-126410604D01*
X119848071Y-126422013D01*
X119853370Y-126433733D01*
X119858107Y-126445748D01*
X119862267Y-126458042D01*
X119865833Y-126470597D01*
X119868787Y-126483398D01*
X119871114Y-126496427D01*
X119872797Y-126509668D01*
X119873818Y-126523105D01*
X119874163Y-126536721D01*
X119873818Y-126550336D01*
X119872797Y-126563773D01*
X119871114Y-126577014D01*
X119868787Y-126590043D01*
X119865833Y-126602844D01*
X119862267Y-126615399D01*
X119858107Y-126627693D01*
X119853370Y-126639708D01*
X119848071Y-126651428D01*
X119842228Y-126662836D01*
X119835857Y-126673916D01*
X119828975Y-126684651D01*
X119821598Y-126695025D01*
X119813743Y-126705020D01*
X119805427Y-126714620D01*
X119796666Y-126723809D01*
X119787477Y-126732570D01*
X119777877Y-126740886D01*
X119767881Y-126748740D01*
X119757508Y-126756117D01*
X119746773Y-126762999D01*
X119735693Y-126769370D01*
X119724284Y-126775213D01*
X119712564Y-126780511D01*
X119700549Y-126785249D01*
X119688255Y-126789408D01*
X119675699Y-126792974D01*
X119662898Y-126795928D01*
X119649869Y-126798255D01*
X119636627Y-126799938D01*
X119623191Y-126800959D01*
X119609575Y-126801304D01*
X119595960Y-126800959D01*
X119582523Y-126799938D01*
X119569282Y-126798255D01*
X119556252Y-126795928D01*
X119543452Y-126792974D01*
X119530896Y-126789408D01*
X119518603Y-126785249D01*
X119506588Y-126780511D01*
X119494868Y-126775213D01*
X119483460Y-126769370D01*
X119472380Y-126762999D01*
X119461645Y-126756117D01*
X119451272Y-126748740D01*
X119441277Y-126740886D01*
X119431677Y-126732570D01*
X119422488Y-126723809D01*
X119413728Y-126714620D01*
X119405412Y-126705020D01*
X119397557Y-126695025D01*
X119390181Y-126684651D01*
X119383299Y-126673916D01*
X119376928Y-126662836D01*
X119371085Y-126651428D01*
X119365787Y-126639708D01*
X119361050Y-126627693D01*
X119356890Y-126615399D01*
X119353325Y-126602844D01*
X119350371Y-126590043D01*
X119348044Y-126577014D01*
X119346361Y-126563773D01*
X119345340Y-126550336D01*
X119344995Y-126536721D01*
X119345340Y-126523105D01*
X119346361Y-126509668D01*
X119348044Y-126496427D01*
X119350371Y-126483398D01*
X119353325Y-126470597D01*
X119356890Y-126458042D01*
X119361050Y-126445748D01*
X119365787Y-126433733D01*
X119371085Y-126422013D01*
X119376928Y-126410604D01*
X119383299Y-126399524D01*
X119390181Y-126388789D01*
X119397557Y-126378416D01*
X119405412Y-126368421D01*
X119413728Y-126358821D01*
X119422488Y-126349632D01*
X119431677Y-126340871D01*
X119441277Y-126332555D01*
X119451272Y-126324700D01*
X119461645Y-126317324D01*
X119472380Y-126310442D01*
X119483460Y-126304071D01*
X119494868Y-126298228D01*
X119506588Y-126292929D01*
X119518603Y-126288192D01*
X119530896Y-126284032D01*
X119543452Y-126280467D01*
X119556252Y-126277512D01*
X119569282Y-126275186D01*
X119582523Y-126273503D01*
X119595960Y-126272481D01*
X119609575Y-126272137D01*
X119623191Y-126272481D01*
G37*
G36*
X127560691Y-156699565D02*
G01*
X127574127Y-156700586D01*
X127587369Y-156702269D01*
X127600398Y-156704596D01*
X127613199Y-156707550D01*
X127625755Y-156711115D01*
X127638049Y-156715275D01*
X127650064Y-156720012D01*
X127661784Y-156725310D01*
X127673193Y-156731153D01*
X127684273Y-156737524D01*
X127695008Y-156744406D01*
X127705381Y-156751782D01*
X127715377Y-156759637D01*
X127724977Y-156767953D01*
X127734166Y-156776713D01*
X127742927Y-156785902D01*
X127751243Y-156795502D01*
X127759098Y-156805497D01*
X127766475Y-156815870D01*
X127773357Y-156826605D01*
X127779728Y-156837685D01*
X127785571Y-156849093D01*
X127790870Y-156860813D01*
X127795607Y-156872828D01*
X127799767Y-156885121D01*
X127803333Y-156897677D01*
X127806287Y-156910477D01*
X127808614Y-156923507D01*
X127810297Y-156936748D01*
X127811318Y-156950185D01*
X127811663Y-156963800D01*
X127811318Y-156977416D01*
X127810297Y-156990853D01*
X127808614Y-157004095D01*
X127806287Y-157017124D01*
X127803333Y-157029925D01*
X127799767Y-157042481D01*
X127795607Y-157054775D01*
X127790870Y-157066790D01*
X127785571Y-157078510D01*
X127779728Y-157089918D01*
X127773357Y-157100998D01*
X127766475Y-157111733D01*
X127759098Y-157122107D01*
X127751243Y-157132102D01*
X127742927Y-157141702D01*
X127734166Y-157150891D01*
X127724977Y-157159651D01*
X127715377Y-157167967D01*
X127705381Y-157175822D01*
X127695008Y-157183198D01*
X127684273Y-157190080D01*
X127673193Y-157196451D01*
X127661784Y-157202294D01*
X127650064Y-157207592D01*
X127638049Y-157212329D01*
X127625755Y-157216489D01*
X127613199Y-157220054D01*
X127600398Y-157223009D01*
X127587369Y-157225335D01*
X127574127Y-157227018D01*
X127560691Y-157228040D01*
X127547075Y-157228384D01*
X127533460Y-157228040D01*
X127520023Y-157227018D01*
X127506782Y-157225335D01*
X127493752Y-157223009D01*
X127480952Y-157220054D01*
X127468396Y-157216489D01*
X127456103Y-157212329D01*
X127444088Y-157207592D01*
X127432368Y-157202294D01*
X127420960Y-157196451D01*
X127409880Y-157190080D01*
X127399145Y-157183198D01*
X127388772Y-157175822D01*
X127378777Y-157167967D01*
X127369177Y-157159651D01*
X127359988Y-157150891D01*
X127351228Y-157141702D01*
X127342912Y-157132102D01*
X127335057Y-157122107D01*
X127327681Y-157111733D01*
X127320799Y-157100998D01*
X127314428Y-157089918D01*
X127308585Y-157078510D01*
X127303287Y-157066790D01*
X127298550Y-157054775D01*
X127294390Y-157042481D01*
X127290825Y-157029925D01*
X127287871Y-157017124D01*
X127285544Y-157004095D01*
X127283861Y-156990853D01*
X127282840Y-156977416D01*
X127282495Y-156963800D01*
X127282840Y-156950185D01*
X127283861Y-156936748D01*
X127285544Y-156923507D01*
X127287871Y-156910477D01*
X127290825Y-156897677D01*
X127294390Y-156885121D01*
X127298550Y-156872828D01*
X127303287Y-156860813D01*
X127308585Y-156849093D01*
X127314428Y-156837685D01*
X127320799Y-156826605D01*
X127327681Y-156815870D01*
X127335057Y-156805497D01*
X127342912Y-156795502D01*
X127351228Y-156785902D01*
X127359988Y-156776713D01*
X127369177Y-156767953D01*
X127378777Y-156759637D01*
X127388772Y-156751782D01*
X127399145Y-156744406D01*
X127409880Y-156737524D01*
X127420960Y-156731153D01*
X127432368Y-156725310D01*
X127444088Y-156720012D01*
X127456103Y-156715275D01*
X127468396Y-156711115D01*
X127480952Y-156707550D01*
X127493752Y-156704596D01*
X127506782Y-156702269D01*
X127520023Y-156700586D01*
X127533460Y-156699565D01*
X127547075Y-156699220D01*
X127560691Y-156699565D01*
G37*
G36*
X128883605Y-125611023D02*
G01*
X128897042Y-125612044D01*
X128910283Y-125613727D01*
X128923312Y-125616054D01*
X128936113Y-125619008D01*
X128948669Y-125622574D01*
X128960963Y-125626733D01*
X128972978Y-125631471D01*
X128984698Y-125636769D01*
X128996107Y-125642612D01*
X129007187Y-125648983D01*
X129017922Y-125655865D01*
X129028295Y-125663242D01*
X129038291Y-125671097D01*
X129047891Y-125679413D01*
X129057080Y-125688173D01*
X129065841Y-125697362D01*
X129074157Y-125706962D01*
X129082012Y-125716958D01*
X129089389Y-125727331D01*
X129096271Y-125738066D01*
X129102642Y-125749146D01*
X129108485Y-125760554D01*
X129113784Y-125772274D01*
X129118521Y-125784289D01*
X129122681Y-125796583D01*
X129126247Y-125809139D01*
X129129201Y-125821939D01*
X129131528Y-125834969D01*
X129133211Y-125848210D01*
X129134232Y-125861647D01*
X129134577Y-125875262D01*
X129134232Y-125888877D01*
X129133211Y-125902314D01*
X129131528Y-125915555D01*
X129129201Y-125928585D01*
X129126247Y-125941385D01*
X129122681Y-125953941D01*
X129118521Y-125966235D01*
X129113784Y-125978250D01*
X129108485Y-125989970D01*
X129102642Y-126001378D01*
X129096271Y-126012458D01*
X129089389Y-126023193D01*
X129082012Y-126033566D01*
X129074157Y-126043561D01*
X129065841Y-126053162D01*
X129057080Y-126062351D01*
X129047891Y-126071111D01*
X129038291Y-126079427D01*
X129028295Y-126087282D01*
X129017922Y-126094659D01*
X129007187Y-126101541D01*
X128996107Y-126107911D01*
X128984698Y-126113754D01*
X128972978Y-126119053D01*
X128960963Y-126123790D01*
X128948669Y-126127950D01*
X128936113Y-126131515D01*
X128923312Y-126134470D01*
X128910283Y-126136797D01*
X128897042Y-126138479D01*
X128883605Y-126139501D01*
X128869989Y-126139845D01*
X128856375Y-126139501D01*
X128842938Y-126138479D01*
X128829698Y-126136797D01*
X128816669Y-126134470D01*
X128803869Y-126131515D01*
X128791313Y-126127950D01*
X128779020Y-126123790D01*
X128767005Y-126119053D01*
X128755285Y-126113754D01*
X128743877Y-126107911D01*
X128732797Y-126101541D01*
X128722063Y-126094659D01*
X128711689Y-126087282D01*
X128701694Y-126079427D01*
X128692094Y-126071111D01*
X128682905Y-126062351D01*
X128674144Y-126053162D01*
X128665828Y-126043561D01*
X128657974Y-126033566D01*
X128650597Y-126023193D01*
X128643715Y-126012458D01*
X128637344Y-126001378D01*
X128631501Y-125989970D01*
X128626202Y-125978250D01*
X128621465Y-125966235D01*
X128617305Y-125953941D01*
X128613740Y-125941385D01*
X128610785Y-125928585D01*
X128608458Y-125915555D01*
X128606776Y-125902314D01*
X128605754Y-125888877D01*
X128605410Y-125875262D01*
X128605754Y-125861647D01*
X128606776Y-125848210D01*
X128608458Y-125834969D01*
X128610785Y-125821939D01*
X128613740Y-125809139D01*
X128617305Y-125796583D01*
X128621465Y-125784289D01*
X128626202Y-125772274D01*
X128631501Y-125760554D01*
X128637344Y-125749146D01*
X128643715Y-125738066D01*
X128650597Y-125727331D01*
X128657974Y-125716958D01*
X128665828Y-125706962D01*
X128674144Y-125697362D01*
X128682905Y-125688173D01*
X128692094Y-125679413D01*
X128701694Y-125671097D01*
X128711689Y-125663242D01*
X128722063Y-125655865D01*
X128732797Y-125648983D01*
X128743877Y-125642612D01*
X128755285Y-125636769D01*
X128767005Y-125631471D01*
X128779020Y-125626733D01*
X128791313Y-125622574D01*
X128803869Y-125619008D01*
X128816669Y-125616054D01*
X128829698Y-125613727D01*
X128842938Y-125612044D01*
X128856375Y-125611023D01*
X128869989Y-125610678D01*
X128883605Y-125611023D01*
G37*
G36*
X140131805Y-153061627D02*
G01*
X140148601Y-153062905D01*
X140165153Y-153065008D01*
X140181439Y-153067916D01*
X140197440Y-153071609D01*
X140213134Y-153076066D01*
X140228501Y-153081266D01*
X140243520Y-153087188D01*
X140258170Y-153093811D01*
X140272430Y-153101115D01*
X140286280Y-153109078D01*
X140299699Y-153117681D01*
X140312665Y-153126902D01*
X140325159Y-153136720D01*
X140337159Y-153147116D01*
X140348645Y-153158067D01*
X140359596Y-153169553D01*
X140369991Y-153181553D01*
X140379809Y-153194047D01*
X140389030Y-153207014D01*
X140397632Y-153220433D01*
X140405596Y-153234283D01*
X140412900Y-153248543D01*
X140419523Y-153263193D01*
X140425444Y-153278212D01*
X140430644Y-153293579D01*
X140435101Y-153309273D01*
X140438794Y-153325274D01*
X140441702Y-153341561D01*
X140443805Y-153358113D01*
X140445082Y-153374908D01*
X140445513Y-153391927D01*
X140445082Y-153408947D01*
X140443805Y-153425742D01*
X140441702Y-153442294D01*
X140438794Y-153458581D01*
X140435101Y-153474581D01*
X140430644Y-153490276D01*
X140425444Y-153505643D01*
X140419523Y-153520662D01*
X140412900Y-153535312D01*
X140405596Y-153549572D01*
X140397632Y-153563422D01*
X140389030Y-153576841D01*
X140379809Y-153589808D01*
X140369991Y-153602302D01*
X140359596Y-153614302D01*
X140348645Y-153625788D01*
X140337159Y-153636739D01*
X140325159Y-153647134D01*
X140312665Y-153656953D01*
X140299699Y-153666174D01*
X140286280Y-153674776D01*
X140272430Y-153682740D01*
X140258170Y-153690044D01*
X140243520Y-153696667D01*
X140228501Y-153702589D01*
X140213134Y-153707789D01*
X140197440Y-153712246D01*
X140181439Y-153715939D01*
X140165153Y-153718847D01*
X140148601Y-153720950D01*
X140131805Y-153722228D01*
X140114786Y-153722658D01*
X140097766Y-153722228D01*
X140080970Y-153720950D01*
X140064418Y-153718847D01*
X140048131Y-153715939D01*
X140032129Y-153712246D01*
X140016435Y-153707789D01*
X140001067Y-153702589D01*
X139986048Y-153696667D01*
X139971398Y-153690044D01*
X139957137Y-153682740D01*
X139943287Y-153674776D01*
X139929868Y-153666174D01*
X139916901Y-153656953D01*
X139904407Y-153647134D01*
X139892407Y-153636739D01*
X139880920Y-153625788D01*
X139869969Y-153614302D01*
X139859574Y-153602302D01*
X139849756Y-153589808D01*
X139840535Y-153576841D01*
X139831933Y-153563422D01*
X139823969Y-153549572D01*
X139816665Y-153535312D01*
X139810042Y-153520662D01*
X139804120Y-153505643D01*
X139798921Y-153490276D01*
X139794464Y-153474581D01*
X139790771Y-153458581D01*
X139787863Y-153442294D01*
X139785759Y-153425742D01*
X139784482Y-153408947D01*
X139784052Y-153391927D01*
X139784482Y-153374908D01*
X139785759Y-153358113D01*
X139787863Y-153341561D01*
X139790771Y-153325274D01*
X139794464Y-153309273D01*
X139798921Y-153293579D01*
X139804120Y-153278212D01*
X139810042Y-153263193D01*
X139816665Y-153248543D01*
X139823969Y-153234283D01*
X139831933Y-153220433D01*
X139840535Y-153207014D01*
X139849756Y-153194047D01*
X139859574Y-153181553D01*
X139869969Y-153169553D01*
X139880920Y-153158067D01*
X139892407Y-153147116D01*
X139904407Y-153136720D01*
X139916901Y-153126902D01*
X139929868Y-153117681D01*
X139943287Y-153109078D01*
X139957137Y-153101115D01*
X139971398Y-153093811D01*
X139986048Y-153087188D01*
X140001067Y-153081266D01*
X140016435Y-153076066D01*
X140032129Y-153071609D01*
X140048131Y-153067916D01*
X140064418Y-153065008D01*
X140080970Y-153062905D01*
X140097766Y-153061627D01*
X140114786Y-153061197D01*
X140131805Y-153061627D01*
G37*
G36*
X140789855Y-139501647D02*
G01*
X140803292Y-139502668D01*
X140816533Y-139504351D01*
X140829562Y-139506678D01*
X140842363Y-139509632D01*
X140854919Y-139513198D01*
X140867213Y-139517357D01*
X140879228Y-139522095D01*
X140890948Y-139527393D01*
X140902357Y-139533236D01*
X140913437Y-139539607D01*
X140924172Y-139546489D01*
X140934545Y-139553866D01*
X140944541Y-139561720D01*
X140954141Y-139570036D01*
X140963330Y-139578797D01*
X140972091Y-139587986D01*
X140980407Y-139597586D01*
X140988262Y-139607581D01*
X140995639Y-139617955D01*
X141002521Y-139628690D01*
X141008892Y-139639770D01*
X141014735Y-139651178D01*
X141020034Y-139662898D01*
X141024771Y-139674913D01*
X141028931Y-139687207D01*
X141032497Y-139699762D01*
X141035451Y-139712563D01*
X141037778Y-139725593D01*
X141039461Y-139738834D01*
X141040482Y-139752271D01*
X141040827Y-139765886D01*
X141040482Y-139779502D01*
X141039461Y-139792938D01*
X141037778Y-139806180D01*
X141035451Y-139819209D01*
X141032497Y-139832010D01*
X141028931Y-139844565D01*
X141024771Y-139856859D01*
X141020034Y-139868874D01*
X141014735Y-139880594D01*
X141008892Y-139892002D01*
X141002521Y-139903082D01*
X140995639Y-139913817D01*
X140988262Y-139924191D01*
X140980407Y-139934186D01*
X140972091Y-139943786D01*
X140963330Y-139952975D01*
X140954141Y-139961736D01*
X140944541Y-139970052D01*
X140934545Y-139977906D01*
X140924172Y-139985283D01*
X140913437Y-139992165D01*
X140902357Y-139998536D01*
X140890948Y-140004379D01*
X140879228Y-140009677D01*
X140867213Y-140014415D01*
X140854919Y-140018575D01*
X140842363Y-140022140D01*
X140829562Y-140025094D01*
X140816533Y-140027421D01*
X140803292Y-140029104D01*
X140789855Y-140030125D01*
X140776239Y-140030470D01*
X140762625Y-140030125D01*
X140749188Y-140029104D01*
X140735948Y-140027421D01*
X140722919Y-140025094D01*
X140710119Y-140022140D01*
X140697563Y-140018575D01*
X140685270Y-140014415D01*
X140673255Y-140009677D01*
X140661535Y-140004379D01*
X140650127Y-139998536D01*
X140639047Y-139992165D01*
X140628313Y-139985283D01*
X140617939Y-139977906D01*
X140607944Y-139970052D01*
X140598344Y-139961736D01*
X140589155Y-139952975D01*
X140580394Y-139943786D01*
X140572078Y-139934186D01*
X140564224Y-139924191D01*
X140556847Y-139913817D01*
X140549965Y-139903082D01*
X140543594Y-139892002D01*
X140537751Y-139880594D01*
X140532452Y-139868874D01*
X140527715Y-139856859D01*
X140523555Y-139844565D01*
X140519990Y-139832010D01*
X140517035Y-139819209D01*
X140514708Y-139806180D01*
X140513026Y-139792938D01*
X140512004Y-139779502D01*
X140511660Y-139765886D01*
X140512004Y-139752271D01*
X140513026Y-139738834D01*
X140514708Y-139725593D01*
X140517035Y-139712563D01*
X140519990Y-139699762D01*
X140523555Y-139687207D01*
X140527715Y-139674913D01*
X140532452Y-139662898D01*
X140537751Y-139651178D01*
X140543594Y-139639770D01*
X140549965Y-139628690D01*
X140556847Y-139617955D01*
X140564224Y-139607581D01*
X140572078Y-139597586D01*
X140580394Y-139587986D01*
X140589155Y-139578797D01*
X140598344Y-139570036D01*
X140607944Y-139561720D01*
X140617939Y-139553866D01*
X140628313Y-139546489D01*
X140639047Y-139539607D01*
X140650127Y-139533236D01*
X140661535Y-139527393D01*
X140673255Y-139522095D01*
X140685270Y-139517357D01*
X140697563Y-139513198D01*
X140710119Y-139509632D01*
X140722919Y-139506678D01*
X140735948Y-139504351D01*
X140749188Y-139502668D01*
X140762625Y-139501647D01*
X140776239Y-139501302D01*
X140789855Y-139501647D01*
G37*
G36*
X138408606Y-131564148D02*
G01*
X138422043Y-131565169D01*
X138435285Y-131566852D01*
X138448314Y-131569179D01*
X138461115Y-131572133D01*
X138473670Y-131575699D01*
X138485964Y-131579858D01*
X138497979Y-131584596D01*
X138509700Y-131589894D01*
X138521108Y-131595737D01*
X138532188Y-131602108D01*
X138542923Y-131608990D01*
X138553297Y-131616367D01*
X138563292Y-131624221D01*
X138572893Y-131632537D01*
X138582082Y-131641298D01*
X138590843Y-131650487D01*
X138599159Y-131660087D01*
X138607014Y-131670082D01*
X138614390Y-131680456D01*
X138621273Y-131691191D01*
X138627644Y-131702271D01*
X138633487Y-131713679D01*
X138638785Y-131725399D01*
X138643523Y-131737414D01*
X138647683Y-131749708D01*
X138651248Y-131762263D01*
X138654203Y-131775064D01*
X138656530Y-131788093D01*
X138658212Y-131801335D01*
X138659234Y-131814772D01*
X138659578Y-131828387D01*
X138659234Y-131842002D01*
X138658212Y-131855439D01*
X138656530Y-131868680D01*
X138654203Y-131881710D01*
X138651248Y-131894510D01*
X138647683Y-131907066D01*
X138643523Y-131919359D01*
X138638785Y-131931374D01*
X138633487Y-131943094D01*
X138627644Y-131954503D01*
X138621273Y-131965583D01*
X138614390Y-131976318D01*
X138607014Y-131986691D01*
X138599159Y-131996686D01*
X138590843Y-132006286D01*
X138582082Y-132015475D01*
X138572893Y-132024236D01*
X138563292Y-132032552D01*
X138553297Y-132040406D01*
X138542923Y-132047783D01*
X138532188Y-132054665D01*
X138521108Y-132061036D01*
X138509700Y-132066879D01*
X138497979Y-132072177D01*
X138485964Y-132076915D01*
X138473670Y-132081075D01*
X138461115Y-132084640D01*
X138448314Y-132087594D01*
X138435285Y-132089921D01*
X138422043Y-132091604D01*
X138408606Y-132092625D01*
X138394991Y-132092970D01*
X138381376Y-132092625D01*
X138367940Y-132091604D01*
X138354699Y-132089921D01*
X138341670Y-132087594D01*
X138328870Y-132084640D01*
X138316315Y-132081075D01*
X138304022Y-132076915D01*
X138292007Y-132072177D01*
X138280287Y-132066879D01*
X138268879Y-132061036D01*
X138257799Y-132054665D01*
X138247064Y-132047783D01*
X138236691Y-132040406D01*
X138226696Y-132032552D01*
X138217095Y-132024236D01*
X138207907Y-132015475D01*
X138199146Y-132006286D01*
X138190830Y-131996686D01*
X138182975Y-131986691D01*
X138175599Y-131976318D01*
X138168716Y-131965583D01*
X138162346Y-131954503D01*
X138156502Y-131943094D01*
X138151204Y-131931374D01*
X138146466Y-131919359D01*
X138142307Y-131907066D01*
X138138741Y-131894510D01*
X138135787Y-131881710D01*
X138133460Y-131868680D01*
X138131777Y-131855439D01*
X138130755Y-131842002D01*
X138130411Y-131828387D01*
X138130755Y-131814772D01*
X138131777Y-131801335D01*
X138133460Y-131788093D01*
X138135787Y-131775064D01*
X138138741Y-131762263D01*
X138142307Y-131749708D01*
X138146466Y-131737414D01*
X138151204Y-131725399D01*
X138156502Y-131713679D01*
X138162346Y-131702271D01*
X138168716Y-131691191D01*
X138175599Y-131680456D01*
X138182975Y-131670082D01*
X138190830Y-131660087D01*
X138199146Y-131650487D01*
X138207907Y-131641298D01*
X138217095Y-131632537D01*
X138226696Y-131624221D01*
X138236691Y-131616367D01*
X138247064Y-131608990D01*
X138257799Y-131602108D01*
X138268879Y-131595737D01*
X138280287Y-131589894D01*
X138292007Y-131584596D01*
X138304022Y-131579858D01*
X138316315Y-131575699D01*
X138328870Y-131572133D01*
X138341670Y-131569179D01*
X138354699Y-131566852D01*
X138367940Y-131565169D01*
X138381376Y-131564148D01*
X138394991Y-131563803D01*
X138408606Y-131564148D01*
G37*
G36*
X64086768Y-154939741D02*
G01*
X64576246Y-154979429D01*
X64086768Y-155019113D01*
X64047080Y-155508592D01*
X64007392Y-155019113D01*
X63517913Y-154979429D01*
X64007392Y-154939741D01*
X64047080Y-154450262D01*
X64086768Y-154939741D01*
G37*
G36*
X62770140Y-135103486D02*
G01*
X63245291Y-135227566D01*
X62756357Y-135181654D01*
X62632274Y-135656805D01*
X62678187Y-135167871D01*
X62203035Y-135043789D01*
X62691971Y-135089700D01*
X62816052Y-134614549D01*
X62770140Y-135103486D01*
G37*
G36*
X66732601Y-145679323D02*
G01*
X67222079Y-145719011D01*
X66732601Y-145758699D01*
X66692913Y-146248178D01*
X66653225Y-145758699D01*
X66163746Y-145719011D01*
X66653225Y-145679323D01*
X66692913Y-145189844D01*
X66732601Y-145679323D01*
G37*
G36*
X73347183Y-158908491D02*
G01*
X73836662Y-158948175D01*
X73347183Y-158987863D01*
X73307495Y-159477342D01*
X73267809Y-158987863D01*
X72778330Y-158948175D01*
X73267809Y-158908491D01*
X73307495Y-158419012D01*
X73347183Y-158908491D01*
G37*
G36*
X76006245Y-150957762D02*
G01*
X76614788Y-151010677D01*
X76006245Y-151063593D01*
X75953329Y-151672136D01*
X75900413Y-151063593D01*
X75291870Y-151010677D01*
X75900413Y-150957762D01*
X75953329Y-150349218D01*
X76006245Y-150957762D01*
G37*
G36*
X70729485Y-137749885D02*
G01*
X71283230Y-138007744D01*
X70693289Y-137849334D01*
X70435431Y-138403080D01*
X70593840Y-137813137D01*
X70040094Y-137555280D01*
X70630035Y-137713688D01*
X70887894Y-137159944D01*
X70729485Y-137749885D01*
G37*
G36*
X79974995Y-143020262D02*
G01*
X80583538Y-143073177D01*
X79974995Y-143126093D01*
X79922079Y-143734636D01*
X79869163Y-143126093D01*
X79260620Y-143073177D01*
X79869163Y-143020262D01*
X79922079Y-142411720D01*
X79974995Y-143020262D01*
G37*
G36*
X87912493Y-125822345D02*
G01*
X88521036Y-125875262D01*
X87912493Y-125928179D01*
X87859579Y-126536721D01*
X87806662Y-125928179D01*
X87198122Y-125875262D01*
X87806662Y-125822345D01*
X87859579Y-125213804D01*
X87912493Y-125822345D01*
G37*
G36*
X78665308Y-129777866D02*
G01*
X79392912Y-129844012D01*
X78665308Y-129910158D01*
X78599163Y-130637762D01*
X78533016Y-129910158D01*
X77805412Y-129844012D01*
X78533016Y-129777866D01*
X78599163Y-129050262D01*
X78665308Y-129777866D01*
G37*
G36*
X82646366Y-157574316D02*
G01*
X83344318Y-157790289D01*
X82618862Y-157703714D01*
X82402884Y-158401666D01*
X82489460Y-157676210D01*
X81791510Y-157460230D01*
X82516964Y-157546808D01*
X82732943Y-156848856D01*
X82646366Y-157574316D01*
G37*
G36*
X85293121Y-139686510D02*
G01*
X86139788Y-139765886D01*
X85293121Y-139845262D01*
X85213745Y-140691929D01*
X85134369Y-139845262D01*
X84287704Y-139765886D01*
X85134369Y-139686510D01*
X85213745Y-138839845D01*
X85293121Y-139686510D01*
G37*
G36*
X90584787Y-148285469D02*
G01*
X91431452Y-148364845D01*
X90584787Y-148444219D01*
X90505411Y-149290886D01*
X90426035Y-148444219D01*
X89579370Y-148364845D01*
X90426035Y-148285469D01*
X90505411Y-147438802D01*
X90584787Y-148285469D01*
G37*
G36*
X101197172Y-125846210D02*
G01*
X101890722Y-126338283D01*
X101117800Y-125983690D01*
X100625723Y-126677238D01*
X100980318Y-125904314D01*
X100286772Y-125412241D01*
X101059690Y-125766834D01*
X101551764Y-125073286D01*
X101197172Y-125846210D01*
G37*
G36*
X94566767Y-132397241D02*
G01*
X95532495Y-132489845D01*
X94566767Y-132582449D01*
X94474161Y-133548178D01*
X94381556Y-132582449D01*
X93415827Y-132489845D01*
X94381556Y-132397241D01*
X94474161Y-131431512D01*
X94566767Y-132397241D01*
G37*
G36*
X98561605Y-156247003D02*
G01*
X99437422Y-156664316D01*
X98498262Y-156421041D01*
X98080942Y-157296858D01*
X98324217Y-156357694D01*
X97448404Y-155940374D01*
X98387567Y-156183653D01*
X98804880Y-155307840D01*
X98561605Y-156247003D01*
G37*
G36*
X102517492Y-137675678D02*
G01*
X103602285Y-137781511D01*
X102517492Y-137887346D01*
X102411661Y-138972137D01*
X102305830Y-137887346D01*
X101221037Y-137781511D01*
X102305830Y-137675678D01*
X102411661Y-136590887D01*
X102517492Y-137675678D01*
G37*
G36*
X106522806Y-144986143D02*
G01*
X107658247Y-145399950D01*
X106464601Y-145203373D01*
X106038019Y-146335394D01*
X106234594Y-145141741D01*
X105102571Y-144715156D01*
X106292799Y-144924511D01*
X106722807Y-143779712D01*
X106522806Y-144986143D01*
G37*
G36*
X117082804Y-160165262D02*
G01*
X118286661Y-160271093D01*
X117082804Y-160390154D01*
X116963743Y-161594011D01*
X116844683Y-160390154D01*
X115640825Y-160271093D01*
X116844683Y-160165262D01*
X116963743Y-158948175D01*
X117082804Y-160165262D01*
G37*
G36*
X110468222Y-129724949D02*
G01*
X111804369Y-129844012D01*
X110468222Y-129963074D01*
X110349161Y-131299220D01*
X110230101Y-129963074D01*
X108893953Y-129844012D01*
X110230101Y-129724949D01*
X110349161Y-128388803D01*
X110468222Y-129724949D01*
G37*
G36*
X114493711Y-154915441D02*
G01*
X115756670Y-155650331D01*
X114381895Y-155155237D01*
X113647001Y-156418192D01*
X114142103Y-155043413D01*
X112879145Y-154308519D01*
X114253920Y-154803617D01*
X114988817Y-153540663D01*
X114493711Y-154915441D01*
G37*
G36*
X118451014Y-136334741D02*
G01*
X119989710Y-136697941D01*
X118410509Y-136622949D01*
X118047312Y-138161648D01*
X118122301Y-136582445D01*
X116583605Y-136219244D01*
X118162806Y-136294235D01*
X118526010Y-134755538D01*
X118451014Y-136334741D01*
G37*
G36*
X121078012Y-141604740D02*
G01*
X122652285Y-141750261D01*
X121078012Y-141895782D01*
X120932497Y-143470052D01*
X120786974Y-141895782D01*
X119212702Y-141750261D01*
X120786974Y-141604740D01*
X120932497Y-140030470D01*
X121078012Y-141604740D01*
G37*
G36*
X126424189Y-150908754D02*
G01*
X127985590Y-151583002D01*
X126326075Y-151210714D01*
X125651827Y-152772112D01*
X126024118Y-151112600D01*
X124462717Y-150438352D01*
X126122225Y-150810642D01*
X126796488Y-149249243D01*
X126424189Y-150908754D01*
G37*
G36*
X123750307Y-130994949D02*
G01*
X125562700Y-131166928D01*
X123750307Y-131338908D01*
X123578325Y-133151303D01*
X123406351Y-131338908D01*
X121593950Y-131166928D01*
X123406351Y-130994949D01*
X123578325Y-129182553D01*
X123750307Y-130994949D01*
G37*
G36*
X139706331Y-149619968D02*
G01*
X141286409Y-150746094D01*
X139521120Y-149940758D01*
X138394991Y-151520845D01*
X139200319Y-149755546D01*
X137620241Y-148629427D01*
X139385530Y-149434757D01*
X140511660Y-147854673D01*
X139706331Y-149619968D01*
G37*
G36*
X132412645Y-129029711D02*
G01*
X134506494Y-129677642D01*
X132330126Y-129417911D01*
X131682192Y-131511767D01*
X131941919Y-129335397D01*
X129848070Y-128687463D01*
X132024446Y-128947196D01*
X132672380Y-126853339D01*
X132412645Y-129029711D01*
G37*
G36*
X130417810Y-140202450D02*
G01*
X132838739Y-140427345D01*
X130417810Y-140652241D01*
X130192911Y-143073177D01*
X129968012Y-140652241D01*
X127547075Y-140427345D01*
X129968012Y-140202450D01*
X130192911Y-137781511D01*
X130417810Y-140202450D01*
G37*
G36*
X136490465Y-144249895D02*
G01*
X139089838Y-145585472D01*
X136292231Y-144740530D01*
X134956652Y-147339903D01*
X135801592Y-144542299D01*
X133202219Y-143206716D01*
X135999834Y-144051662D01*
X137335405Y-141452286D01*
X136490465Y-144249895D01*
G37*
G36*
X134426241Y-135135678D02*
G01*
X136410616Y-137384636D01*
X134161661Y-135400261D01*
X131912699Y-137384636D01*
X133897074Y-135135678D01*
X131912699Y-132886720D01*
X134161661Y-134871094D01*
X136410616Y-132886720D01*
X134426241Y-135135678D01*
G37*
G36*
X134505617Y-134791720D02*
G01*
X138130411Y-135135678D01*
X134505617Y-135479637D01*
X134161661Y-139104427D01*
X133817705Y-135479637D01*
X130192911Y-135135678D01*
X133817705Y-134791720D01*
X134161661Y-131166928D01*
X134505617Y-134791720D01*
G37*
D11*
X71804819Y-93083333D02*
X71328628Y-92750000D01*
X71804819Y-92511905D02*
X70804819Y-92511905D01*
X70804819Y-92511905D02*
X70804819Y-92892857D01*
X70804819Y-92892857D02*
X70852438Y-92988095D01*
X70852438Y-92988095D02*
X70900057Y-93035714D01*
X70900057Y-93035714D02*
X70995295Y-93083333D01*
X70995295Y-93083333D02*
X71138152Y-93083333D01*
X71138152Y-93083333D02*
X71233390Y-93035714D01*
X71233390Y-93035714D02*
X71281009Y-92988095D01*
X71281009Y-92988095D02*
X71328628Y-92892857D01*
X71328628Y-92892857D02*
X71328628Y-92511905D01*
X70804819Y-93940476D02*
X70804819Y-93750000D01*
X70804819Y-93750000D02*
X70852438Y-93654762D01*
X70852438Y-93654762D02*
X70900057Y-93607143D01*
X70900057Y-93607143D02*
X71042914Y-93511905D01*
X71042914Y-93511905D02*
X71233390Y-93464286D01*
X71233390Y-93464286D02*
X71614342Y-93464286D01*
X71614342Y-93464286D02*
X71709580Y-93511905D01*
X71709580Y-93511905D02*
X71757200Y-93559524D01*
X71757200Y-93559524D02*
X71804819Y-93654762D01*
X71804819Y-93654762D02*
X71804819Y-93845238D01*
X71804819Y-93845238D02*
X71757200Y-93940476D01*
X71757200Y-93940476D02*
X71709580Y-93988095D01*
X71709580Y-93988095D02*
X71614342Y-94035714D01*
X71614342Y-94035714D02*
X71376247Y-94035714D01*
X71376247Y-94035714D02*
X71281009Y-93988095D01*
X71281009Y-93988095D02*
X71233390Y-93940476D01*
X71233390Y-93940476D02*
X71185771Y-93845238D01*
X71185771Y-93845238D02*
X71185771Y-93654762D01*
X71185771Y-93654762D02*
X71233390Y-93559524D01*
X71233390Y-93559524D02*
X71281009Y-93511905D01*
X71281009Y-93511905D02*
X71376247Y-93464286D01*
X80916666Y-110854819D02*
X81249999Y-110378628D01*
X81488094Y-110854819D02*
X81488094Y-109854819D01*
X81488094Y-109854819D02*
X81107142Y-109854819D01*
X81107142Y-109854819D02*
X81011904Y-109902438D01*
X81011904Y-109902438D02*
X80964285Y-109950057D01*
X80964285Y-109950057D02*
X80916666Y-110045295D01*
X80916666Y-110045295D02*
X80916666Y-110188152D01*
X80916666Y-110188152D02*
X80964285Y-110283390D01*
X80964285Y-110283390D02*
X81011904Y-110331009D01*
X81011904Y-110331009D02*
X81107142Y-110378628D01*
X81107142Y-110378628D02*
X81488094Y-110378628D01*
X80583332Y-109854819D02*
X79964285Y-109854819D01*
X79964285Y-109854819D02*
X80297618Y-110235771D01*
X80297618Y-110235771D02*
X80154761Y-110235771D01*
X80154761Y-110235771D02*
X80059523Y-110283390D01*
X80059523Y-110283390D02*
X80011904Y-110331009D01*
X80011904Y-110331009D02*
X79964285Y-110426247D01*
X79964285Y-110426247D02*
X79964285Y-110664342D01*
X79964285Y-110664342D02*
X80011904Y-110759580D01*
X80011904Y-110759580D02*
X80059523Y-110807200D01*
X80059523Y-110807200D02*
X80154761Y-110854819D01*
X80154761Y-110854819D02*
X80440475Y-110854819D01*
X80440475Y-110854819D02*
X80535713Y-110807200D01*
X80535713Y-110807200D02*
X80583332Y-110759580D01*
X73704819Y-96333333D02*
X73228628Y-96000000D01*
X73704819Y-95761905D02*
X72704819Y-95761905D01*
X72704819Y-95761905D02*
X72704819Y-96142857D01*
X72704819Y-96142857D02*
X72752438Y-96238095D01*
X72752438Y-96238095D02*
X72800057Y-96285714D01*
X72800057Y-96285714D02*
X72895295Y-96333333D01*
X72895295Y-96333333D02*
X73038152Y-96333333D01*
X73038152Y-96333333D02*
X73133390Y-96285714D01*
X73133390Y-96285714D02*
X73181009Y-96238095D01*
X73181009Y-96238095D02*
X73228628Y-96142857D01*
X73228628Y-96142857D02*
X73228628Y-95761905D01*
X72800057Y-96714286D02*
X72752438Y-96761905D01*
X72752438Y-96761905D02*
X72704819Y-96857143D01*
X72704819Y-96857143D02*
X72704819Y-97095238D01*
X72704819Y-97095238D02*
X72752438Y-97190476D01*
X72752438Y-97190476D02*
X72800057Y-97238095D01*
X72800057Y-97238095D02*
X72895295Y-97285714D01*
X72895295Y-97285714D02*
X72990533Y-97285714D01*
X72990533Y-97285714D02*
X73133390Y-97238095D01*
X73133390Y-97238095D02*
X73704819Y-96666667D01*
X73704819Y-96666667D02*
X73704819Y-97285714D01*
X78704819Y-107083333D02*
X78228628Y-106750000D01*
X78704819Y-106511905D02*
X77704819Y-106511905D01*
X77704819Y-106511905D02*
X77704819Y-106892857D01*
X77704819Y-106892857D02*
X77752438Y-106988095D01*
X77752438Y-106988095D02*
X77800057Y-107035714D01*
X77800057Y-107035714D02*
X77895295Y-107083333D01*
X77895295Y-107083333D02*
X78038152Y-107083333D01*
X78038152Y-107083333D02*
X78133390Y-107035714D01*
X78133390Y-107035714D02*
X78181009Y-106988095D01*
X78181009Y-106988095D02*
X78228628Y-106892857D01*
X78228628Y-106892857D02*
X78228628Y-106511905D01*
X78704819Y-108035714D02*
X78704819Y-107464286D01*
X78704819Y-107750000D02*
X77704819Y-107750000D01*
X77704819Y-107750000D02*
X77847676Y-107654762D01*
X77847676Y-107654762D02*
X77942914Y-107559524D01*
X77942914Y-107559524D02*
X77990533Y-107464286D01*
X77666666Y-95859580D02*
X77714285Y-95907200D01*
X77714285Y-95907200D02*
X77857142Y-95954819D01*
X77857142Y-95954819D02*
X77952380Y-95954819D01*
X77952380Y-95954819D02*
X78095237Y-95907200D01*
X78095237Y-95907200D02*
X78190475Y-95811961D01*
X78190475Y-95811961D02*
X78238094Y-95716723D01*
X78238094Y-95716723D02*
X78285713Y-95526247D01*
X78285713Y-95526247D02*
X78285713Y-95383390D01*
X78285713Y-95383390D02*
X78238094Y-95192914D01*
X78238094Y-95192914D02*
X78190475Y-95097676D01*
X78190475Y-95097676D02*
X78095237Y-95002438D01*
X78095237Y-95002438D02*
X77952380Y-94954819D01*
X77952380Y-94954819D02*
X77857142Y-94954819D01*
X77857142Y-94954819D02*
X77714285Y-95002438D01*
X77714285Y-95002438D02*
X77666666Y-95050057D01*
X77190475Y-95954819D02*
X76999999Y-95954819D01*
X76999999Y-95954819D02*
X76904761Y-95907200D01*
X76904761Y-95907200D02*
X76857142Y-95859580D01*
X76857142Y-95859580D02*
X76761904Y-95716723D01*
X76761904Y-95716723D02*
X76714285Y-95526247D01*
X76714285Y-95526247D02*
X76714285Y-95145295D01*
X76714285Y-95145295D02*
X76761904Y-95050057D01*
X76761904Y-95050057D02*
X76809523Y-95002438D01*
X76809523Y-95002438D02*
X76904761Y-94954819D01*
X76904761Y-94954819D02*
X77095237Y-94954819D01*
X77095237Y-94954819D02*
X77190475Y-95002438D01*
X77190475Y-95002438D02*
X77238094Y-95050057D01*
X77238094Y-95050057D02*
X77285713Y-95145295D01*
X77285713Y-95145295D02*
X77285713Y-95383390D01*
X77285713Y-95383390D02*
X77238094Y-95478628D01*
X77238094Y-95478628D02*
X77190475Y-95526247D01*
X77190475Y-95526247D02*
X77095237Y-95573866D01*
X77095237Y-95573866D02*
X76904761Y-95573866D01*
X76904761Y-95573866D02*
X76809523Y-95526247D01*
X76809523Y-95526247D02*
X76761904Y-95478628D01*
X76761904Y-95478628D02*
X76714285Y-95383390D01*
X75179580Y-111370833D02*
X75227200Y-111323214D01*
X75227200Y-111323214D02*
X75274819Y-111180357D01*
X75274819Y-111180357D02*
X75274819Y-111085119D01*
X75274819Y-111085119D02*
X75227200Y-110942262D01*
X75227200Y-110942262D02*
X75131961Y-110847024D01*
X75131961Y-110847024D02*
X75036723Y-110799405D01*
X75036723Y-110799405D02*
X74846247Y-110751786D01*
X74846247Y-110751786D02*
X74703390Y-110751786D01*
X74703390Y-110751786D02*
X74512914Y-110799405D01*
X74512914Y-110799405D02*
X74417676Y-110847024D01*
X74417676Y-110847024D02*
X74322438Y-110942262D01*
X74322438Y-110942262D02*
X74274819Y-111085119D01*
X74274819Y-111085119D02*
X74274819Y-111180357D01*
X74274819Y-111180357D02*
X74322438Y-111323214D01*
X74322438Y-111323214D02*
X74370057Y-111370833D01*
X74703390Y-111942262D02*
X74655771Y-111847024D01*
X74655771Y-111847024D02*
X74608152Y-111799405D01*
X74608152Y-111799405D02*
X74512914Y-111751786D01*
X74512914Y-111751786D02*
X74465295Y-111751786D01*
X74465295Y-111751786D02*
X74370057Y-111799405D01*
X74370057Y-111799405D02*
X74322438Y-111847024D01*
X74322438Y-111847024D02*
X74274819Y-111942262D01*
X74274819Y-111942262D02*
X74274819Y-112132738D01*
X74274819Y-112132738D02*
X74322438Y-112227976D01*
X74322438Y-112227976D02*
X74370057Y-112275595D01*
X74370057Y-112275595D02*
X74465295Y-112323214D01*
X74465295Y-112323214D02*
X74512914Y-112323214D01*
X74512914Y-112323214D02*
X74608152Y-112275595D01*
X74608152Y-112275595D02*
X74655771Y-112227976D01*
X74655771Y-112227976D02*
X74703390Y-112132738D01*
X74703390Y-112132738D02*
X74703390Y-111942262D01*
X74703390Y-111942262D02*
X74751009Y-111847024D01*
X74751009Y-111847024D02*
X74798628Y-111799405D01*
X74798628Y-111799405D02*
X74893866Y-111751786D01*
X74893866Y-111751786D02*
X75084342Y-111751786D01*
X75084342Y-111751786D02*
X75179580Y-111799405D01*
X75179580Y-111799405D02*
X75227200Y-111847024D01*
X75227200Y-111847024D02*
X75274819Y-111942262D01*
X75274819Y-111942262D02*
X75274819Y-112132738D01*
X75274819Y-112132738D02*
X75227200Y-112227976D01*
X75227200Y-112227976D02*
X75179580Y-112275595D01*
X75179580Y-112275595D02*
X75084342Y-112323214D01*
X75084342Y-112323214D02*
X74893866Y-112323214D01*
X74893866Y-112323214D02*
X74798628Y-112275595D01*
X74798628Y-112275595D02*
X74751009Y-112227976D01*
X74751009Y-112227976D02*
X74703390Y-112132738D01*
X78429580Y-112583333D02*
X78477200Y-112535714D01*
X78477200Y-112535714D02*
X78524819Y-112392857D01*
X78524819Y-112392857D02*
X78524819Y-112297619D01*
X78524819Y-112297619D02*
X78477200Y-112154762D01*
X78477200Y-112154762D02*
X78381961Y-112059524D01*
X78381961Y-112059524D02*
X78286723Y-112011905D01*
X78286723Y-112011905D02*
X78096247Y-111964286D01*
X78096247Y-111964286D02*
X77953390Y-111964286D01*
X77953390Y-111964286D02*
X77762914Y-112011905D01*
X77762914Y-112011905D02*
X77667676Y-112059524D01*
X77667676Y-112059524D02*
X77572438Y-112154762D01*
X77572438Y-112154762D02*
X77524819Y-112297619D01*
X77524819Y-112297619D02*
X77524819Y-112392857D01*
X77524819Y-112392857D02*
X77572438Y-112535714D01*
X77572438Y-112535714D02*
X77620057Y-112583333D01*
X77524819Y-112916667D02*
X77524819Y-113583333D01*
X77524819Y-113583333D02*
X78524819Y-113154762D01*
X90754819Y-138033333D02*
X89754819Y-138033333D01*
X89754819Y-138033333D02*
X89754819Y-138271428D01*
X89754819Y-138271428D02*
X89802438Y-138414285D01*
X89802438Y-138414285D02*
X89897676Y-138509523D01*
X89897676Y-138509523D02*
X89992914Y-138557142D01*
X89992914Y-138557142D02*
X90183390Y-138604761D01*
X90183390Y-138604761D02*
X90326247Y-138604761D01*
X90326247Y-138604761D02*
X90516723Y-138557142D01*
X90516723Y-138557142D02*
X90611961Y-138509523D01*
X90611961Y-138509523D02*
X90707200Y-138414285D01*
X90707200Y-138414285D02*
X90754819Y-138271428D01*
X90754819Y-138271428D02*
X90754819Y-138033333D01*
X90469104Y-138985714D02*
X90469104Y-139461904D01*
X90754819Y-138890476D02*
X89754819Y-139223809D01*
X89754819Y-139223809D02*
X90754819Y-139557142D01*
X90659580Y-140461904D02*
X90707200Y-140414285D01*
X90707200Y-140414285D02*
X90754819Y-140271428D01*
X90754819Y-140271428D02*
X90754819Y-140176190D01*
X90754819Y-140176190D02*
X90707200Y-140033333D01*
X90707200Y-140033333D02*
X90611961Y-139938095D01*
X90611961Y-139938095D02*
X90516723Y-139890476D01*
X90516723Y-139890476D02*
X90326247Y-139842857D01*
X90326247Y-139842857D02*
X90183390Y-139842857D01*
X90183390Y-139842857D02*
X89992914Y-139890476D01*
X89992914Y-139890476D02*
X89897676Y-139938095D01*
X89897676Y-139938095D02*
X89802438Y-140033333D01*
X89802438Y-140033333D02*
X89754819Y-140176190D01*
X89754819Y-140176190D02*
X89754819Y-140271428D01*
X89754819Y-140271428D02*
X89802438Y-140414285D01*
X89802438Y-140414285D02*
X89850057Y-140461904D01*
X89850057Y-140842857D02*
X89802438Y-140890476D01*
X89802438Y-140890476D02*
X89754819Y-140985714D01*
X89754819Y-140985714D02*
X89754819Y-141223809D01*
X89754819Y-141223809D02*
X89802438Y-141319047D01*
X89802438Y-141319047D02*
X89850057Y-141366666D01*
X89850057Y-141366666D02*
X89945295Y-141414285D01*
X89945295Y-141414285D02*
X90040533Y-141414285D01*
X90040533Y-141414285D02*
X90183390Y-141366666D01*
X90183390Y-141366666D02*
X90754819Y-140795238D01*
X90754819Y-140795238D02*
X90754819Y-141414285D01*
X132738571Y-54544819D02*
X133071904Y-54068628D01*
X133309999Y-54544819D02*
X133309999Y-53544819D01*
X133309999Y-53544819D02*
X132929047Y-53544819D01*
X132929047Y-53544819D02*
X132833809Y-53592438D01*
X132833809Y-53592438D02*
X132786190Y-53640057D01*
X132786190Y-53640057D02*
X132738571Y-53735295D01*
X132738571Y-53735295D02*
X132738571Y-53878152D01*
X132738571Y-53878152D02*
X132786190Y-53973390D01*
X132786190Y-53973390D02*
X132833809Y-54021009D01*
X132833809Y-54021009D02*
X132929047Y-54068628D01*
X132929047Y-54068628D02*
X133309999Y-54068628D01*
X132309999Y-54544819D02*
X132309999Y-53544819D01*
X132309999Y-53544819D02*
X131929047Y-53544819D01*
X131929047Y-53544819D02*
X131833809Y-53592438D01*
X131833809Y-53592438D02*
X131786190Y-53640057D01*
X131786190Y-53640057D02*
X131738571Y-53735295D01*
X131738571Y-53735295D02*
X131738571Y-53878152D01*
X131738571Y-53878152D02*
X131786190Y-53973390D01*
X131786190Y-53973390D02*
X131833809Y-54021009D01*
X131833809Y-54021009D02*
X131929047Y-54068628D01*
X131929047Y-54068628D02*
X132309999Y-54068628D01*
X131309999Y-54544819D02*
X131309999Y-53544819D01*
X130929047Y-53544819D02*
X130262381Y-53544819D01*
X130262381Y-53544819D02*
X130929047Y-54544819D01*
X130929047Y-54544819D02*
X130262381Y-54544819D01*
X129929047Y-53640057D02*
X129881428Y-53592438D01*
X129881428Y-53592438D02*
X129786190Y-53544819D01*
X129786190Y-53544819D02*
X129548095Y-53544819D01*
X129548095Y-53544819D02*
X129452857Y-53592438D01*
X129452857Y-53592438D02*
X129405238Y-53640057D01*
X129405238Y-53640057D02*
X129357619Y-53735295D01*
X129357619Y-53735295D02*
X129357619Y-53830533D01*
X129357619Y-53830533D02*
X129405238Y-53973390D01*
X129405238Y-53973390D02*
X129976666Y-54544819D01*
X129976666Y-54544819D02*
X129357619Y-54544819D01*
X129024285Y-53544819D02*
X128786190Y-54544819D01*
X128786190Y-54544819D02*
X128595714Y-53830533D01*
X128595714Y-53830533D02*
X128405238Y-54544819D01*
X128405238Y-54544819D02*
X128167143Y-53544819D01*
X127262381Y-54544819D02*
X127833809Y-54544819D01*
X127548095Y-54544819D02*
X127548095Y-53544819D01*
X127548095Y-53544819D02*
X127643333Y-53687676D01*
X127643333Y-53687676D02*
X127738571Y-53782914D01*
X127738571Y-53782914D02*
X127833809Y-53830533D01*
X98166666Y-159264819D02*
X98166666Y-158264819D01*
X98166666Y-158264819D02*
X97928571Y-158264819D01*
X97928571Y-158264819D02*
X97785714Y-158312438D01*
X97785714Y-158312438D02*
X97690476Y-158407676D01*
X97690476Y-158407676D02*
X97642857Y-158502914D01*
X97642857Y-158502914D02*
X97595238Y-158693390D01*
X97595238Y-158693390D02*
X97595238Y-158836247D01*
X97595238Y-158836247D02*
X97642857Y-159026723D01*
X97642857Y-159026723D02*
X97690476Y-159121961D01*
X97690476Y-159121961D02*
X97785714Y-159217200D01*
X97785714Y-159217200D02*
X97928571Y-159264819D01*
X97928571Y-159264819D02*
X98166666Y-159264819D01*
X97214285Y-158979104D02*
X96738095Y-158979104D01*
X97309523Y-159264819D02*
X96976190Y-158264819D01*
X96976190Y-158264819D02*
X96642857Y-159264819D01*
X95738095Y-159169580D02*
X95785714Y-159217200D01*
X95785714Y-159217200D02*
X95928571Y-159264819D01*
X95928571Y-159264819D02*
X96023809Y-159264819D01*
X96023809Y-159264819D02*
X96166666Y-159217200D01*
X96166666Y-159217200D02*
X96261904Y-159121961D01*
X96261904Y-159121961D02*
X96309523Y-159026723D01*
X96309523Y-159026723D02*
X96357142Y-158836247D01*
X96357142Y-158836247D02*
X96357142Y-158693390D01*
X96357142Y-158693390D02*
X96309523Y-158502914D01*
X96309523Y-158502914D02*
X96261904Y-158407676D01*
X96261904Y-158407676D02*
X96166666Y-158312438D01*
X96166666Y-158312438D02*
X96023809Y-158264819D01*
X96023809Y-158264819D02*
X95928571Y-158264819D01*
X95928571Y-158264819D02*
X95785714Y-158312438D01*
X95785714Y-158312438D02*
X95738095Y-158360057D01*
X94785714Y-159264819D02*
X95357142Y-159264819D01*
X95071428Y-159264819D02*
X95071428Y-158264819D01*
X95071428Y-158264819D02*
X95166666Y-158407676D01*
X95166666Y-158407676D02*
X95261904Y-158502914D01*
X95261904Y-158502914D02*
X95357142Y-158550533D01*
%TO.C,R6*%
D12*
X72265000Y-93022936D02*
X72265000Y-93477064D01*
X73735000Y-93022936D02*
X73735000Y-93477064D01*
%TO.C,R3*%
X80522936Y-109485000D02*
X80977064Y-109485000D01*
X80522936Y-108015000D02*
X80977064Y-108015000D01*
%TO.C,R2*%
X75985000Y-96727064D02*
X75985000Y-96272936D01*
X74515000Y-96727064D02*
X74515000Y-96272936D01*
%TO.C,R1*%
X77235000Y-107227064D02*
X77235000Y-106772936D01*
X75765000Y-107227064D02*
X75765000Y-106772936D01*
%TO.C,C9*%
X75951248Y-93985000D02*
X76473752Y-93985000D01*
X75951248Y-92515000D02*
X76473752Y-92515000D01*
%TO.C,C8*%
X75765000Y-111276248D02*
X75765000Y-111798752D01*
X77235000Y-111276248D02*
X77235000Y-111798752D01*
%TO.C,C7*%
X79015000Y-112488748D02*
X79015000Y-113011252D01*
X80485000Y-112488748D02*
X80485000Y-113011252D01*
%TO.C,DAC2*%
X65880000Y-141030000D02*
X65880000Y-138370000D01*
X86260000Y-138370000D02*
X65880000Y-138370000D01*
X86260000Y-141030000D02*
X65880000Y-141030000D01*
X86260000Y-141030000D02*
X86260000Y-138370000D01*
X88860000Y-138370000D02*
X87530000Y-138370000D01*
X88860000Y-139700000D02*
X88860000Y-138370000D01*
%TO.C,RPIZ2W1*%
X127710000Y-55530000D02*
X127710000Y-56860000D01*
X127710000Y-58130000D02*
X127710000Y-106450000D01*
X129040000Y-55530000D02*
X127710000Y-55530000D01*
X130310000Y-55530000D02*
X130310000Y-58130000D01*
X130310000Y-58130000D02*
X127710000Y-58130000D01*
X132910000Y-55530000D02*
X130310000Y-55530000D01*
X132910000Y-55530000D02*
X132910000Y-106450000D01*
X132910000Y-106450000D02*
X127710000Y-106450000D01*
%TO.C,DAC1*%
X95170000Y-142010000D02*
X97830000Y-142010000D01*
X95170000Y-154770000D02*
X95170000Y-142010000D01*
X95170000Y-154770000D02*
X97830000Y-154770000D01*
X96500000Y-157370000D02*
X97830000Y-157370000D01*
X97830000Y-154770000D02*
X97830000Y-142010000D01*
X97830000Y-157370000D02*
X97830000Y-156040000D01*
%TD*%
M02*
