%TF.GenerationSoftware,KiCad,Pcbnew,10.0.6*%
%TF.CreationDate,2026-10-08T12:58:01+11:00*%
%TF.ProjectId,aucboard,61756362-6f61-4726-942e-6b696361645f,rev?*%
%TF.SameCoordinates,Original*%
%TF.FileFunction,Legend,Top*%
%TF.FilePolarity,Positive*%
%FSLAX46Y46*%
G04 Gerber Fmt 4.6, Leading zero omitted, Abs format (unit mm)*
G04 Created by KiCad (PCBNEW 10.0.6) date 2026-10-08 12:58:01*
%MOMM*%
%LPD*%
G01*
G04 APERTURE LIST*
%ADD10C,0.000000*%
%ADD11C,0.300000*%
%ADD12C,0.150000*%
%ADD13C,0.120000*%
%ADD14C,0.152400*%
G04 APERTURE END LIST*
D10*
G36*
X114537067Y-146540727D02*
G01*
X114807626Y-147025736D01*
X114778423Y-147128124D01*
X114293350Y-147398671D01*
X114191023Y-147369413D01*
X113920473Y-146884408D01*
X113949676Y-146782016D01*
X114434741Y-146511468D01*
X114537067Y-146540727D01*
G37*
G36*
X120116179Y-147028169D02*
G01*
X120147872Y-147130564D01*
X119894421Y-147622940D01*
X119792030Y-147654564D01*
X119297229Y-147401113D01*
X119265591Y-147298721D01*
X119521481Y-146806414D01*
X119623870Y-146772281D01*
X120116179Y-147028169D01*
G37*
G36*
X117301044Y-145361068D02*
G01*
X117332737Y-145392697D01*
X117269339Y-148366196D01*
X116418761Y-149060668D01*
X115629009Y-148573346D01*
X116391925Y-147998054D01*
X116964730Y-148044853D01*
X116667342Y-145395130D01*
X116699042Y-145361000D01*
X117301044Y-145361068D01*
G37*
G36*
X117771446Y-141466154D02*
G01*
X118059100Y-141941430D01*
X118032264Y-142046261D01*
X118032264Y-142046192D01*
X117556993Y-142331403D01*
X117452172Y-142307013D01*
X117167016Y-141829307D01*
X117193847Y-141726913D01*
X117669113Y-141439332D01*
X117771446Y-141466154D01*
G37*
G36*
X116655177Y-142718954D02*
G01*
X116723378Y-142867642D01*
X115821568Y-145027117D01*
X115455982Y-145509692D01*
X114529773Y-145348833D01*
X115151299Y-144566442D01*
X115592442Y-144846729D01*
X116216408Y-143203960D01*
X114663860Y-142706718D01*
X114164189Y-144476282D01*
X113735215Y-145187976D01*
X113181949Y-144147204D01*
X113864374Y-144371455D01*
X114427442Y-142133981D01*
X114568776Y-142055997D01*
X116655177Y-142718954D01*
G37*
G36*
X120825503Y-142304579D02*
G01*
X121318052Y-144483579D01*
X121278748Y-144946688D01*
X120245400Y-145226974D01*
X120518394Y-144359286D01*
X120927830Y-144351987D01*
X120701144Y-143238087D01*
X118934080Y-144030207D01*
X119243627Y-145178239D01*
X119048636Y-145848504D01*
X118102961Y-145729082D01*
X118860950Y-144975957D01*
X118421710Y-143452612D01*
X118778085Y-143452612D01*
X118858522Y-143747494D01*
X120637809Y-142943200D01*
X120562251Y-142606823D01*
X118778085Y-143452612D01*
X118421710Y-143452612D01*
X118407643Y-143403815D01*
X118470978Y-143264920D01*
X120662149Y-142226580D01*
X120825503Y-142304579D01*
G37*
D11*
X111545582Y-153800828D02*
X111733082Y-152300828D01*
X111733082Y-152300828D02*
X112099153Y-153372257D01*
X112099153Y-153372257D02*
X112733082Y-152300828D01*
X112733082Y-152300828D02*
X112545582Y-153800828D01*
X113902725Y-153800828D02*
X114000939Y-153015114D01*
X114000939Y-153015114D02*
X113947368Y-152872257D01*
X113947368Y-152872257D02*
X113813439Y-152800828D01*
X113813439Y-152800828D02*
X113527725Y-152800828D01*
X113527725Y-152800828D02*
X113375939Y-152872257D01*
X113911654Y-153729400D02*
X113759868Y-153800828D01*
X113759868Y-153800828D02*
X113402725Y-153800828D01*
X113402725Y-153800828D02*
X113268796Y-153729400D01*
X113268796Y-153729400D02*
X113215225Y-153586542D01*
X113215225Y-153586542D02*
X113233082Y-153443685D01*
X113233082Y-153443685D02*
X113322368Y-153300828D01*
X113322368Y-153300828D02*
X113474154Y-153229400D01*
X113474154Y-153229400D02*
X113831296Y-153229400D01*
X113831296Y-153229400D02*
X113983082Y-153157971D01*
X115259868Y-153800828D02*
X115447368Y-152300828D01*
X115268797Y-153729400D02*
X115117011Y-153800828D01*
X115117011Y-153800828D02*
X114831297Y-153800828D01*
X114831297Y-153800828D02*
X114697368Y-153729400D01*
X114697368Y-153729400D02*
X114634868Y-153657971D01*
X114634868Y-153657971D02*
X114581297Y-153515114D01*
X114581297Y-153515114D02*
X114634868Y-153086542D01*
X114634868Y-153086542D02*
X114724154Y-152943685D01*
X114724154Y-152943685D02*
X114804511Y-152872257D01*
X114804511Y-152872257D02*
X114956297Y-152800828D01*
X114956297Y-152800828D02*
X115242011Y-152800828D01*
X115242011Y-152800828D02*
X115375939Y-152872257D01*
X116554511Y-153729400D02*
X116402725Y-153800828D01*
X116402725Y-153800828D02*
X116117011Y-153800828D01*
X116117011Y-153800828D02*
X115983082Y-153729400D01*
X115983082Y-153729400D02*
X115929511Y-153586542D01*
X115929511Y-153586542D02*
X116000940Y-153015114D01*
X116000940Y-153015114D02*
X116090225Y-152872257D01*
X116090225Y-152872257D02*
X116242011Y-152800828D01*
X116242011Y-152800828D02*
X116527725Y-152800828D01*
X116527725Y-152800828D02*
X116661654Y-152872257D01*
X116661654Y-152872257D02*
X116715225Y-153015114D01*
X116715225Y-153015114D02*
X116697368Y-153157971D01*
X116697368Y-153157971D02*
X115965225Y-153300828D01*
X118384868Y-152800828D02*
X118545582Y-153800828D01*
X118545582Y-153800828D02*
X118920582Y-153086542D01*
X118920582Y-153086542D02*
X119117011Y-153800828D01*
X119117011Y-153800828D02*
X119527725Y-152800828D01*
X119974154Y-153800828D02*
X120099154Y-152800828D01*
X120161654Y-152300828D02*
X120081297Y-152372257D01*
X120081297Y-152372257D02*
X120143797Y-152443685D01*
X120143797Y-152443685D02*
X120224154Y-152372257D01*
X120224154Y-152372257D02*
X120161654Y-152300828D01*
X120161654Y-152300828D02*
X120143797Y-152443685D01*
X120599154Y-152800828D02*
X121170583Y-152800828D01*
X120875940Y-152300828D02*
X120715226Y-153586542D01*
X120715226Y-153586542D02*
X120768797Y-153729400D01*
X120768797Y-153729400D02*
X120902726Y-153800828D01*
X120902726Y-153800828D02*
X121045583Y-153800828D01*
X121545583Y-153800828D02*
X121733083Y-152300828D01*
X122188440Y-153800828D02*
X122286654Y-153015114D01*
X122286654Y-153015114D02*
X122233083Y-152872257D01*
X122233083Y-152872257D02*
X122099154Y-152800828D01*
X122099154Y-152800828D02*
X121884869Y-152800828D01*
X121884869Y-152800828D02*
X121733083Y-152872257D01*
X121733083Y-152872257D02*
X121652726Y-152943685D01*
X125313440Y-152800828D02*
X124117011Y-153229400D01*
X124117011Y-153229400D02*
X125206297Y-153657971D01*
X125947369Y-152300828D02*
X126875940Y-152300828D01*
X126875940Y-152300828D02*
X126304512Y-152872257D01*
X126304512Y-152872257D02*
X126518797Y-152872257D01*
X126518797Y-152872257D02*
X126652726Y-152943685D01*
X126652726Y-152943685D02*
X126715226Y-153015114D01*
X126715226Y-153015114D02*
X126768797Y-153157971D01*
X126768797Y-153157971D02*
X126724154Y-153515114D01*
X126724154Y-153515114D02*
X126634869Y-153657971D01*
X126634869Y-153657971D02*
X126554512Y-153729400D01*
X126554512Y-153729400D02*
X126402726Y-153800828D01*
X126402726Y-153800828D02*
X125974154Y-153800828D01*
X125974154Y-153800828D02*
X125840226Y-153729400D01*
X125840226Y-153729400D02*
X125777726Y-153657971D01*
X128474154Y-153800828D02*
X128661654Y-152300828D01*
X128590225Y-152872257D02*
X128742011Y-152800828D01*
X128742011Y-152800828D02*
X129027725Y-152800828D01*
X129027725Y-152800828D02*
X129161654Y-152872257D01*
X129161654Y-152872257D02*
X129224154Y-152943685D01*
X129224154Y-152943685D02*
X129277725Y-153086542D01*
X129277725Y-153086542D02*
X129224154Y-153515114D01*
X129224154Y-153515114D02*
X129134868Y-153657971D01*
X129134868Y-153657971D02*
X129054511Y-153729400D01*
X129054511Y-153729400D02*
X128902725Y-153800828D01*
X128902725Y-153800828D02*
X128617011Y-153800828D01*
X128617011Y-153800828D02*
X128483082Y-153729400D01*
X129813440Y-152800828D02*
X130045583Y-153800828D01*
X130527725Y-152800828D02*
X130045583Y-153800828D01*
X130045583Y-153800828D02*
X129858083Y-154157971D01*
X129858083Y-154157971D02*
X129777725Y-154229400D01*
X129777725Y-154229400D02*
X129625940Y-154300828D01*
X132215225Y-153015114D02*
X132715225Y-153015114D01*
X132831297Y-153800828D02*
X132117011Y-153800828D01*
X132117011Y-153800828D02*
X132304511Y-152300828D01*
X132304511Y-152300828D02*
X133018797Y-152300828D01*
X133474154Y-153800828D02*
X133599154Y-152800828D01*
X133563440Y-153086542D02*
X133652725Y-152943685D01*
X133652725Y-152943685D02*
X133733082Y-152872257D01*
X133733082Y-152872257D02*
X133884868Y-152800828D01*
X133884868Y-152800828D02*
X134027725Y-152800828D01*
X134402725Y-153800828D02*
X134527725Y-152800828D01*
X134590225Y-152300828D02*
X134509868Y-152372257D01*
X134509868Y-152372257D02*
X134572368Y-152443685D01*
X134572368Y-152443685D02*
X134652725Y-152372257D01*
X134652725Y-152372257D02*
X134590225Y-152300828D01*
X134590225Y-152300828D02*
X134572368Y-152443685D01*
X135768797Y-153729400D02*
X135617011Y-153800828D01*
X135617011Y-153800828D02*
X135331297Y-153800828D01*
X135331297Y-153800828D02*
X135197368Y-153729400D01*
X135197368Y-153729400D02*
X135134868Y-153657971D01*
X135134868Y-153657971D02*
X135081297Y-153515114D01*
X135081297Y-153515114D02*
X135134868Y-153086542D01*
X135134868Y-153086542D02*
X135224154Y-152943685D01*
X135224154Y-152943685D02*
X135304511Y-152872257D01*
X135304511Y-152872257D02*
X135456297Y-152800828D01*
X135456297Y-152800828D02*
X135742011Y-152800828D01*
X135742011Y-152800828D02*
X135875939Y-152872257D01*
X110483082Y-156372257D02*
X111197368Y-156372257D01*
X110340225Y-156800828D02*
X110840225Y-155300828D01*
X110840225Y-155300828D02*
X111340225Y-156800828D01*
X112483082Y-155800828D02*
X112483082Y-156800828D01*
X111840224Y-155800828D02*
X111840224Y-156586542D01*
X111840224Y-156586542D02*
X111911653Y-156729400D01*
X111911653Y-156729400D02*
X112054510Y-156800828D01*
X112054510Y-156800828D02*
X112268796Y-156800828D01*
X112268796Y-156800828D02*
X112411653Y-156729400D01*
X112411653Y-156729400D02*
X112483082Y-156657971D01*
X113840225Y-156729400D02*
X113697367Y-156800828D01*
X113697367Y-156800828D02*
X113411653Y-156800828D01*
X113411653Y-156800828D02*
X113268796Y-156729400D01*
X113268796Y-156729400D02*
X113197367Y-156657971D01*
X113197367Y-156657971D02*
X113125939Y-156515114D01*
X113125939Y-156515114D02*
X113125939Y-156086542D01*
X113125939Y-156086542D02*
X113197367Y-155943685D01*
X113197367Y-155943685D02*
X113268796Y-155872257D01*
X113268796Y-155872257D02*
X113411653Y-155800828D01*
X113411653Y-155800828D02*
X113697367Y-155800828D01*
X113697367Y-155800828D02*
X113840225Y-155872257D01*
X114483081Y-156800828D02*
X114483081Y-155300828D01*
X114483081Y-155872257D02*
X114625939Y-155800828D01*
X114625939Y-155800828D02*
X114911653Y-155800828D01*
X114911653Y-155800828D02*
X115054510Y-155872257D01*
X115054510Y-155872257D02*
X115125939Y-155943685D01*
X115125939Y-155943685D02*
X115197367Y-156086542D01*
X115197367Y-156086542D02*
X115197367Y-156515114D01*
X115197367Y-156515114D02*
X115125939Y-156657971D01*
X115125939Y-156657971D02*
X115054510Y-156729400D01*
X115054510Y-156729400D02*
X114911653Y-156800828D01*
X114911653Y-156800828D02*
X114625939Y-156800828D01*
X114625939Y-156800828D02*
X114483081Y-156729400D01*
X116054510Y-156800828D02*
X115911653Y-156729400D01*
X115911653Y-156729400D02*
X115840224Y-156657971D01*
X115840224Y-156657971D02*
X115768796Y-156515114D01*
X115768796Y-156515114D02*
X115768796Y-156086542D01*
X115768796Y-156086542D02*
X115840224Y-155943685D01*
X115840224Y-155943685D02*
X115911653Y-155872257D01*
X115911653Y-155872257D02*
X116054510Y-155800828D01*
X116054510Y-155800828D02*
X116268796Y-155800828D01*
X116268796Y-155800828D02*
X116411653Y-155872257D01*
X116411653Y-155872257D02*
X116483082Y-155943685D01*
X116483082Y-155943685D02*
X116554510Y-156086542D01*
X116554510Y-156086542D02*
X116554510Y-156515114D01*
X116554510Y-156515114D02*
X116483082Y-156657971D01*
X116483082Y-156657971D02*
X116411653Y-156729400D01*
X116411653Y-156729400D02*
X116268796Y-156800828D01*
X116268796Y-156800828D02*
X116054510Y-156800828D01*
X117840225Y-156800828D02*
X117840225Y-156015114D01*
X117840225Y-156015114D02*
X117768796Y-155872257D01*
X117768796Y-155872257D02*
X117625939Y-155800828D01*
X117625939Y-155800828D02*
X117340225Y-155800828D01*
X117340225Y-155800828D02*
X117197367Y-155872257D01*
X117840225Y-156729400D02*
X117697367Y-156800828D01*
X117697367Y-156800828D02*
X117340225Y-156800828D01*
X117340225Y-156800828D02*
X117197367Y-156729400D01*
X117197367Y-156729400D02*
X117125939Y-156586542D01*
X117125939Y-156586542D02*
X117125939Y-156443685D01*
X117125939Y-156443685D02*
X117197367Y-156300828D01*
X117197367Y-156300828D02*
X117340225Y-156229400D01*
X117340225Y-156229400D02*
X117697367Y-156229400D01*
X117697367Y-156229400D02*
X117840225Y-156157971D01*
X118554510Y-156800828D02*
X118554510Y-155800828D01*
X118554510Y-156086542D02*
X118625939Y-155943685D01*
X118625939Y-155943685D02*
X118697368Y-155872257D01*
X118697368Y-155872257D02*
X118840225Y-155800828D01*
X118840225Y-155800828D02*
X118983082Y-155800828D01*
X120125939Y-156800828D02*
X120125939Y-155300828D01*
X120125939Y-156729400D02*
X119983081Y-156800828D01*
X119983081Y-156800828D02*
X119697367Y-156800828D01*
X119697367Y-156800828D02*
X119554510Y-156729400D01*
X119554510Y-156729400D02*
X119483081Y-156657971D01*
X119483081Y-156657971D02*
X119411653Y-156515114D01*
X119411653Y-156515114D02*
X119411653Y-156086542D01*
X119411653Y-156086542D02*
X119483081Y-155943685D01*
X119483081Y-155943685D02*
X119554510Y-155872257D01*
X119554510Y-155872257D02*
X119697367Y-155800828D01*
X119697367Y-155800828D02*
X119983081Y-155800828D01*
X119983081Y-155800828D02*
X120125939Y-155872257D01*
X123411653Y-156800828D02*
X122911653Y-156086542D01*
X122554510Y-156800828D02*
X122554510Y-155300828D01*
X122554510Y-155300828D02*
X123125939Y-155300828D01*
X123125939Y-155300828D02*
X123268796Y-155372257D01*
X123268796Y-155372257D02*
X123340225Y-155443685D01*
X123340225Y-155443685D02*
X123411653Y-155586542D01*
X123411653Y-155586542D02*
X123411653Y-155800828D01*
X123411653Y-155800828D02*
X123340225Y-155943685D01*
X123340225Y-155943685D02*
X123268796Y-156015114D01*
X123268796Y-156015114D02*
X123125939Y-156086542D01*
X123125939Y-156086542D02*
X122554510Y-156086542D01*
X124625939Y-156729400D02*
X124483082Y-156800828D01*
X124483082Y-156800828D02*
X124197368Y-156800828D01*
X124197368Y-156800828D02*
X124054510Y-156729400D01*
X124054510Y-156729400D02*
X123983082Y-156586542D01*
X123983082Y-156586542D02*
X123983082Y-156015114D01*
X123983082Y-156015114D02*
X124054510Y-155872257D01*
X124054510Y-155872257D02*
X124197368Y-155800828D01*
X124197368Y-155800828D02*
X124483082Y-155800828D01*
X124483082Y-155800828D02*
X124625939Y-155872257D01*
X124625939Y-155872257D02*
X124697368Y-156015114D01*
X124697368Y-156015114D02*
X124697368Y-156157971D01*
X124697368Y-156157971D02*
X123983082Y-156300828D01*
X125197367Y-155800828D02*
X125554510Y-156800828D01*
X125554510Y-156800828D02*
X125911653Y-155800828D01*
X126483081Y-156800828D02*
X126483081Y-155800828D01*
X126483081Y-155300828D02*
X126411653Y-155372257D01*
X126411653Y-155372257D02*
X126483081Y-155443685D01*
X126483081Y-155443685D02*
X126554510Y-155372257D01*
X126554510Y-155372257D02*
X126483081Y-155300828D01*
X126483081Y-155300828D02*
X126483081Y-155443685D01*
X127125939Y-156729400D02*
X127268796Y-156800828D01*
X127268796Y-156800828D02*
X127554510Y-156800828D01*
X127554510Y-156800828D02*
X127697367Y-156729400D01*
X127697367Y-156729400D02*
X127768796Y-156586542D01*
X127768796Y-156586542D02*
X127768796Y-156515114D01*
X127768796Y-156515114D02*
X127697367Y-156372257D01*
X127697367Y-156372257D02*
X127554510Y-156300828D01*
X127554510Y-156300828D02*
X127340225Y-156300828D01*
X127340225Y-156300828D02*
X127197367Y-156229400D01*
X127197367Y-156229400D02*
X127125939Y-156086542D01*
X127125939Y-156086542D02*
X127125939Y-156015114D01*
X127125939Y-156015114D02*
X127197367Y-155872257D01*
X127197367Y-155872257D02*
X127340225Y-155800828D01*
X127340225Y-155800828D02*
X127554510Y-155800828D01*
X127554510Y-155800828D02*
X127697367Y-155872257D01*
X128411653Y-156800828D02*
X128411653Y-155800828D01*
X128411653Y-155300828D02*
X128340225Y-155372257D01*
X128340225Y-155372257D02*
X128411653Y-155443685D01*
X128411653Y-155443685D02*
X128483082Y-155372257D01*
X128483082Y-155372257D02*
X128411653Y-155300828D01*
X128411653Y-155300828D02*
X128411653Y-155443685D01*
X129340225Y-156800828D02*
X129197368Y-156729400D01*
X129197368Y-156729400D02*
X129125939Y-156657971D01*
X129125939Y-156657971D02*
X129054511Y-156515114D01*
X129054511Y-156515114D02*
X129054511Y-156086542D01*
X129054511Y-156086542D02*
X129125939Y-155943685D01*
X129125939Y-155943685D02*
X129197368Y-155872257D01*
X129197368Y-155872257D02*
X129340225Y-155800828D01*
X129340225Y-155800828D02*
X129554511Y-155800828D01*
X129554511Y-155800828D02*
X129697368Y-155872257D01*
X129697368Y-155872257D02*
X129768797Y-155943685D01*
X129768797Y-155943685D02*
X129840225Y-156086542D01*
X129840225Y-156086542D02*
X129840225Y-156515114D01*
X129840225Y-156515114D02*
X129768797Y-156657971D01*
X129768797Y-156657971D02*
X129697368Y-156729400D01*
X129697368Y-156729400D02*
X129554511Y-156800828D01*
X129554511Y-156800828D02*
X129340225Y-156800828D01*
X130483082Y-155800828D02*
X130483082Y-156800828D01*
X130483082Y-155943685D02*
X130554511Y-155872257D01*
X130554511Y-155872257D02*
X130697368Y-155800828D01*
X130697368Y-155800828D02*
X130911654Y-155800828D01*
X130911654Y-155800828D02*
X131054511Y-155872257D01*
X131054511Y-155872257D02*
X131125940Y-156015114D01*
X131125940Y-156015114D02*
X131125940Y-156800828D01*
X132911654Y-155443685D02*
X132983082Y-155372257D01*
X132983082Y-155372257D02*
X133125940Y-155300828D01*
X133125940Y-155300828D02*
X133483082Y-155300828D01*
X133483082Y-155300828D02*
X133625940Y-155372257D01*
X133625940Y-155372257D02*
X133697368Y-155443685D01*
X133697368Y-155443685D02*
X133768797Y-155586542D01*
X133768797Y-155586542D02*
X133768797Y-155729400D01*
X133768797Y-155729400D02*
X133697368Y-155943685D01*
X133697368Y-155943685D02*
X132840225Y-156800828D01*
X132840225Y-156800828D02*
X133768797Y-156800828D01*
X134411653Y-156657971D02*
X134483082Y-156729400D01*
X134483082Y-156729400D02*
X134411653Y-156800828D01*
X134411653Y-156800828D02*
X134340225Y-156729400D01*
X134340225Y-156729400D02*
X134411653Y-156657971D01*
X134411653Y-156657971D02*
X134411653Y-156800828D01*
X135411654Y-155300828D02*
X135554511Y-155300828D01*
X135554511Y-155300828D02*
X135697368Y-155372257D01*
X135697368Y-155372257D02*
X135768797Y-155443685D01*
X135768797Y-155443685D02*
X135840225Y-155586542D01*
X135840225Y-155586542D02*
X135911654Y-155872257D01*
X135911654Y-155872257D02*
X135911654Y-156229400D01*
X135911654Y-156229400D02*
X135840225Y-156515114D01*
X135840225Y-156515114D02*
X135768797Y-156657971D01*
X135768797Y-156657971D02*
X135697368Y-156729400D01*
X135697368Y-156729400D02*
X135554511Y-156800828D01*
X135554511Y-156800828D02*
X135411654Y-156800828D01*
X135411654Y-156800828D02*
X135268797Y-156729400D01*
X135268797Y-156729400D02*
X135197368Y-156657971D01*
X135197368Y-156657971D02*
X135125939Y-156515114D01*
X135125939Y-156515114D02*
X135054511Y-156229400D01*
X135054511Y-156229400D02*
X135054511Y-155872257D01*
X135054511Y-155872257D02*
X135125939Y-155586542D01*
X135125939Y-155586542D02*
X135197368Y-155443685D01*
X135197368Y-155443685D02*
X135268797Y-155372257D01*
X135268797Y-155372257D02*
X135411654Y-155300828D01*
D10*
G36*
X128000000Y-149200000D02*
G01*
X126800000Y-149200000D01*
X126800000Y-148000000D01*
X128000000Y-148000000D01*
X128000000Y-149200000D01*
G37*
G36*
X128800000Y-147600000D02*
G01*
X128800000Y-149600000D01*
X128800000Y-150000000D01*
X126000000Y-150000000D01*
X126000000Y-149600000D01*
X126400000Y-149600000D01*
X128400000Y-149600000D01*
X128400000Y-147600000D01*
X126400000Y-147600000D01*
X126400000Y-149600000D01*
X126000000Y-149600000D01*
X126000000Y-147600000D01*
X126000000Y-147200000D01*
X128800000Y-147200000D01*
X128800000Y-147600000D01*
G37*
G36*
X130400000Y-149200000D02*
G01*
X130000000Y-149200000D01*
X130000000Y-149600000D01*
X129600000Y-149600000D01*
X129600000Y-150000000D01*
X129200000Y-150000000D01*
X129200000Y-149600000D01*
X129200000Y-149200000D01*
X129600000Y-149200000D01*
X129600000Y-148800000D01*
X130400000Y-148800000D01*
X130400000Y-149200000D01*
G37*
G36*
X130800000Y-150000000D02*
G01*
X130000000Y-150000000D01*
X130000000Y-149600000D01*
X130800000Y-149600000D01*
X130800000Y-150000000D01*
G37*
G36*
X132000000Y-148800000D02*
G01*
X132000000Y-149200000D01*
X132400000Y-149200000D01*
X132400000Y-148800000D01*
X133200000Y-148800000D01*
X133200000Y-149200000D01*
X133200000Y-149600000D01*
X132800000Y-149600000D01*
X132800000Y-150000000D01*
X131600000Y-150000000D01*
X131600000Y-149600000D01*
X131200000Y-149600000D01*
X131200000Y-149200000D01*
X130800000Y-149200000D01*
X130800000Y-148800000D01*
X131200000Y-148800000D01*
X131200000Y-148400000D01*
X132000000Y-148400000D01*
X132000000Y-148800000D01*
G37*
G36*
X134800000Y-150000000D02*
G01*
X134000000Y-150000000D01*
X134000000Y-149600000D01*
X134800000Y-149600000D01*
X134800000Y-150000000D01*
G37*
G36*
X136000000Y-150000000D02*
G01*
X135200000Y-150000000D01*
X135200000Y-149600000D01*
X136000000Y-149600000D01*
X136000000Y-150000000D01*
G37*
G36*
X134000000Y-149600000D02*
G01*
X133600000Y-149600000D01*
X133600000Y-149200000D01*
X134000000Y-149200000D01*
X134000000Y-149600000D01*
G37*
G36*
X133600000Y-147600000D02*
G01*
X133200000Y-147600000D01*
X133200000Y-147200000D01*
X133600000Y-147200000D01*
X133600000Y-147600000D01*
G37*
G36*
X132000000Y-146800000D02*
G01*
X132400000Y-146800000D01*
X132400000Y-146400000D01*
X134400000Y-146400000D01*
X134400000Y-146800000D01*
X134400000Y-147200000D01*
X134800000Y-147200000D01*
X134800000Y-147600000D01*
X134400000Y-147600000D01*
X134400000Y-148000000D01*
X134400000Y-148400000D01*
X134800000Y-148400000D01*
X134800000Y-148800000D01*
X134800000Y-149200000D01*
X134000000Y-149200000D01*
X134000000Y-148800000D01*
X133600000Y-148800000D01*
X133600000Y-148400000D01*
X132400000Y-148400000D01*
X132400000Y-148000000D01*
X132400000Y-147600000D01*
X131600000Y-147600000D01*
X131600000Y-147200000D01*
X132800000Y-147200000D01*
X132800000Y-147600000D01*
X132800000Y-148000000D01*
X134000000Y-148000000D01*
X134000000Y-147600000D01*
X134000000Y-147200000D01*
X134000000Y-146800000D01*
X132800000Y-146800000D01*
X132800000Y-147200000D01*
X131600000Y-147200000D01*
X131200000Y-147200000D01*
X131200000Y-146800000D01*
X131600000Y-146800000D01*
X131600000Y-146400000D01*
X132000000Y-146400000D01*
X132000000Y-146800000D01*
G37*
G36*
X136000000Y-149200000D02*
G01*
X135600000Y-149200000D01*
X135600000Y-148800000D01*
X136000000Y-148800000D01*
X136000000Y-149200000D01*
G37*
G36*
X129600000Y-148800000D02*
G01*
X129200000Y-148800000D01*
X129200000Y-148400000D01*
X129600000Y-148400000D01*
X129600000Y-148800000D01*
G37*
G36*
X130800000Y-148000000D02*
G01*
X131200000Y-148000000D01*
X131200000Y-148400000D01*
X130800000Y-148400000D01*
X130800000Y-148800000D01*
X130400000Y-148800000D01*
X130400000Y-148400000D01*
X129600000Y-148400000D01*
X129600000Y-148000000D01*
X130400000Y-148000000D01*
X130400000Y-147600000D01*
X130800000Y-147600000D01*
X130800000Y-148000000D01*
G37*
G36*
X136000000Y-147600000D02*
G01*
X136000000Y-148000000D01*
X136000000Y-148400000D01*
X135600000Y-148400000D01*
X135600000Y-148000000D01*
X134800000Y-148000000D01*
X134800000Y-147600000D01*
X135200000Y-147600000D01*
X135200000Y-147200000D01*
X136000000Y-147200000D01*
X136000000Y-147600000D01*
G37*
G36*
X129600000Y-147600000D02*
G01*
X129200000Y-147600000D01*
X129200000Y-146800000D01*
X129600000Y-146800000D01*
X129600000Y-147600000D01*
G37*
G36*
X131200000Y-147600000D02*
G01*
X130800000Y-147600000D01*
X130800000Y-147200000D01*
X131200000Y-147200000D01*
X131200000Y-147600000D01*
G37*
G36*
X135600000Y-143600000D02*
G01*
X136000000Y-143600000D01*
X136000000Y-144000000D01*
X136000000Y-144400000D01*
X135600000Y-144400000D01*
X135600000Y-144800000D01*
X136000000Y-144800000D01*
X136000000Y-145200000D01*
X136000000Y-146000000D01*
X135600000Y-146000000D01*
X135600000Y-145200000D01*
X135200000Y-145200000D01*
X135200000Y-144800000D01*
X135200000Y-144400000D01*
X134400000Y-144400000D01*
X134400000Y-144800000D01*
X133600000Y-144800000D01*
X133600000Y-144400000D01*
X132800000Y-144400000D01*
X132800000Y-144800000D01*
X133600000Y-144800000D01*
X133600000Y-145200000D01*
X133600000Y-145600000D01*
X133600000Y-146000000D01*
X133200000Y-146000000D01*
X133200000Y-145600000D01*
X132800000Y-145600000D01*
X132800000Y-145200000D01*
X132400000Y-145200000D01*
X132400000Y-144800000D01*
X132000000Y-144800000D01*
X132000000Y-145200000D01*
X132000000Y-145600000D01*
X131600000Y-145600000D01*
X131600000Y-146000000D01*
X131600000Y-146400000D01*
X131200000Y-146400000D01*
X131200000Y-146000000D01*
X130800000Y-146000000D01*
X130800000Y-146400000D01*
X130400000Y-146400000D01*
X130400000Y-146800000D01*
X130400000Y-147200000D01*
X130000000Y-147200000D01*
X130000000Y-146800000D01*
X129600000Y-146800000D01*
X129600000Y-146400000D01*
X129200000Y-146400000D01*
X129200000Y-146000000D01*
X130000000Y-146000000D01*
X130400000Y-146000000D01*
X130400000Y-145600000D01*
X130000000Y-145600000D01*
X130000000Y-146000000D01*
X129200000Y-146000000D01*
X128400000Y-146000000D01*
X128400000Y-146400000D01*
X128800000Y-146400000D01*
X128800000Y-146800000D01*
X127600000Y-146800000D01*
X127600000Y-146400000D01*
X128000000Y-146400000D01*
X128000000Y-146000000D01*
X127200000Y-146000000D01*
X127200000Y-146400000D01*
X126800000Y-146400000D01*
X126800000Y-146800000D01*
X126000000Y-146800000D01*
X126000000Y-146400000D01*
X126400000Y-146400000D01*
X126400000Y-146000000D01*
X126800000Y-146000000D01*
X126800000Y-145600000D01*
X127600000Y-145600000D01*
X128000000Y-145600000D01*
X128000000Y-145200000D01*
X127600000Y-145200000D01*
X127600000Y-145600000D01*
X126800000Y-145600000D01*
X126400000Y-145600000D01*
X126400000Y-145200000D01*
X126400000Y-144800000D01*
X126800000Y-144800000D01*
X126800000Y-145200000D01*
X127200000Y-145200000D01*
X127200000Y-144800000D01*
X126800000Y-144800000D01*
X126800000Y-144400000D01*
X126400000Y-144400000D01*
X126400000Y-144000000D01*
X126800000Y-144000000D01*
X126800000Y-143600000D01*
X127200000Y-143600000D01*
X127200000Y-144000000D01*
X127200000Y-144400000D01*
X128000000Y-144400000D01*
X128000000Y-144800000D01*
X128800000Y-144800000D01*
X128800000Y-145200000D01*
X128400000Y-145200000D01*
X128400000Y-145600000D01*
X128800000Y-145600000D01*
X128800000Y-145200000D01*
X129200000Y-145200000D01*
X129200000Y-145600000D01*
X130000000Y-145600000D01*
X130000000Y-145200000D01*
X130800000Y-145200000D01*
X130800000Y-145600000D01*
X131200000Y-145600000D01*
X131200000Y-145200000D01*
X130800000Y-145200000D01*
X130800000Y-144800000D01*
X131200000Y-144800000D01*
X131200000Y-144400000D01*
X130800000Y-144400000D01*
X130800000Y-144000000D01*
X131200000Y-144000000D01*
X131200000Y-143600000D01*
X131600000Y-143600000D01*
X131600000Y-144000000D01*
X131600000Y-144400000D01*
X132400000Y-144400000D01*
X132400000Y-144000000D01*
X132800000Y-144000000D01*
X132800000Y-143600000D01*
X133200000Y-143600000D01*
X133200000Y-144000000D01*
X134400000Y-144000000D01*
X134400000Y-143600000D01*
X134800000Y-143600000D01*
X134800000Y-144000000D01*
X135200000Y-144000000D01*
X135200000Y-143600000D01*
X134800000Y-143600000D01*
X134800000Y-143200000D01*
X135600000Y-143200000D01*
X135600000Y-143600000D01*
G37*
G36*
X135200000Y-147200000D02*
G01*
X134800000Y-147200000D01*
X134800000Y-146400000D01*
X135200000Y-146400000D01*
X135200000Y-147200000D01*
G37*
G36*
X131200000Y-146800000D02*
G01*
X130800000Y-146800000D01*
X130800000Y-146400000D01*
X131200000Y-146400000D01*
X131200000Y-146800000D01*
G37*
G36*
X136000000Y-146800000D02*
G01*
X135600000Y-146800000D01*
X135600000Y-146400000D01*
X136000000Y-146400000D01*
X136000000Y-146800000D01*
G37*
G36*
X126400000Y-146000000D02*
G01*
X126000000Y-146000000D01*
X126000000Y-145600000D01*
X126400000Y-145600000D01*
X126400000Y-146000000D01*
G37*
G36*
X135200000Y-145600000D02*
G01*
X134400000Y-145600000D01*
X134400000Y-145200000D01*
X135200000Y-145200000D01*
X135200000Y-145600000D01*
G37*
G36*
X129200000Y-144800000D02*
G01*
X128800000Y-144800000D01*
X128800000Y-144400000D01*
X129200000Y-144400000D01*
X129200000Y-144800000D01*
G37*
G36*
X128800000Y-144400000D02*
G01*
X128400000Y-144400000D01*
X128400000Y-144000000D01*
X128800000Y-144000000D01*
X128800000Y-144400000D01*
G37*
G36*
X130400000Y-143600000D02*
G01*
X130800000Y-143600000D01*
X130800000Y-144000000D01*
X130400000Y-144000000D01*
X130400000Y-144400000D01*
X129600000Y-144400000D01*
X129600000Y-144000000D01*
X130000000Y-144000000D01*
X130000000Y-143600000D01*
X130000000Y-143200000D01*
X130400000Y-143200000D01*
X130400000Y-143600000D01*
G37*
G36*
X128400000Y-144000000D02*
G01*
X128000000Y-144000000D01*
X128000000Y-143600000D01*
X128400000Y-143600000D01*
X128400000Y-144000000D01*
G37*
G36*
X129600000Y-144000000D02*
G01*
X129200000Y-144000000D01*
X129200000Y-143600000D01*
X129600000Y-143600000D01*
X129600000Y-144000000D01*
G37*
G36*
X126800000Y-143600000D02*
G01*
X126000000Y-143600000D01*
X126000000Y-143200000D01*
X126800000Y-143200000D01*
X126800000Y-143600000D01*
G37*
G36*
X127600000Y-143600000D02*
G01*
X127200000Y-143600000D01*
X127200000Y-143200000D01*
X127600000Y-143200000D01*
X127600000Y-143600000D01*
G37*
G36*
X129200000Y-143600000D02*
G01*
X128400000Y-143600000D01*
X128400000Y-143200000D01*
X129200000Y-143200000D01*
X129200000Y-143600000D01*
G37*
G36*
X131200000Y-143600000D02*
G01*
X130800000Y-143600000D01*
X130800000Y-142400000D01*
X131200000Y-142400000D01*
X131200000Y-143600000D01*
G37*
G36*
X132000000Y-141600000D02*
G01*
X132400000Y-141600000D01*
X132400000Y-141200000D01*
X132800000Y-141200000D01*
X132800000Y-141600000D01*
X132800000Y-142000000D01*
X132400000Y-142000000D01*
X132400000Y-142400000D01*
X132000000Y-142400000D01*
X132000000Y-142800000D01*
X132400000Y-142800000D01*
X132400000Y-142400000D01*
X132800000Y-142400000D01*
X132800000Y-142800000D01*
X132800000Y-143200000D01*
X132800000Y-143600000D01*
X132400000Y-143600000D01*
X132400000Y-143200000D01*
X132000000Y-143200000D01*
X132000000Y-143600000D01*
X131600000Y-143600000D01*
X131600000Y-143200000D01*
X131600000Y-142800000D01*
X131600000Y-142400000D01*
X131200000Y-142400000D01*
X131200000Y-142000000D01*
X131600000Y-142000000D01*
X131600000Y-141600000D01*
X131200000Y-141600000D01*
X131200000Y-141200000D01*
X132000000Y-141200000D01*
X132000000Y-141600000D01*
G37*
G36*
X134400000Y-143600000D02*
G01*
X133200000Y-143600000D01*
X133200000Y-143200000D01*
X134400000Y-143200000D01*
X134400000Y-143600000D01*
G37*
G36*
X129600000Y-142000000D02*
G01*
X130000000Y-142000000D01*
X130000000Y-142400000D01*
X129600000Y-142400000D01*
X129600000Y-142800000D01*
X130000000Y-142800000D01*
X130000000Y-143200000D01*
X129200000Y-143200000D01*
X129200000Y-142800000D01*
X129200000Y-142400000D01*
X129200000Y-142000000D01*
X129200000Y-141600000D01*
X129600000Y-141600000D01*
X129600000Y-142000000D01*
G37*
G36*
X128000000Y-142000000D02*
G01*
X126800000Y-142000000D01*
X126800000Y-140800000D01*
X128000000Y-140800000D01*
X128000000Y-142000000D01*
G37*
G36*
X128800000Y-140400000D02*
G01*
X128800000Y-142400000D01*
X128800000Y-142800000D01*
X126000000Y-142800000D01*
X126000000Y-142400000D01*
X126400000Y-142400000D01*
X128400000Y-142400000D01*
X128400000Y-140400000D01*
X126400000Y-140400000D01*
X126400000Y-142400000D01*
X126000000Y-142400000D01*
X126000000Y-140400000D01*
X126000000Y-140000000D01*
X128800000Y-140000000D01*
X128800000Y-140400000D01*
G37*
G36*
X130400000Y-142800000D02*
G01*
X130000000Y-142800000D01*
X130000000Y-142400000D01*
X130400000Y-142400000D01*
X130400000Y-142800000D01*
G37*
G36*
X135200000Y-142000000D02*
G01*
X134000000Y-142000000D01*
X134000000Y-140800000D01*
X135200000Y-140800000D01*
X135200000Y-142000000D01*
G37*
G36*
X136000000Y-140400000D02*
G01*
X136000000Y-142400000D01*
X136000000Y-142800000D01*
X133200000Y-142800000D01*
X133200000Y-142400000D01*
X133600000Y-142400000D01*
X135600000Y-142400000D01*
X135600000Y-140400000D01*
X133600000Y-140400000D01*
X133600000Y-142400000D01*
X133200000Y-142400000D01*
X133200000Y-140400000D01*
X133200000Y-140000000D01*
X136000000Y-140000000D01*
X136000000Y-140400000D01*
G37*
G36*
X130800000Y-142400000D02*
G01*
X130400000Y-142400000D01*
X130400000Y-142000000D01*
X130800000Y-142000000D01*
X130800000Y-142400000D01*
G37*
G36*
X131200000Y-140400000D02*
G01*
X131200000Y-140800000D01*
X131200000Y-141200000D01*
X130800000Y-141200000D01*
X130800000Y-141600000D01*
X129600000Y-141600000D01*
X129600000Y-141200000D01*
X129200000Y-141200000D01*
X129200000Y-140800000D01*
X129200000Y-140400000D01*
X129600000Y-140400000D01*
X129600000Y-140800000D01*
X130400000Y-140800000D01*
X130400000Y-140400000D01*
X130800000Y-140400000D01*
X130800000Y-140000000D01*
X131200000Y-140000000D01*
X131200000Y-140400000D01*
G37*
G36*
X132800000Y-140400000D02*
G01*
X132800000Y-140800000D01*
X132000000Y-140800000D01*
X132000000Y-140400000D01*
X131600000Y-140400000D01*
X131600000Y-140000000D01*
X132800000Y-140000000D01*
X132800000Y-140400000D01*
G37*
G36*
X130000000Y-140400000D02*
G01*
X129600000Y-140400000D01*
X129600000Y-140000000D01*
X130000000Y-140000000D01*
X130000000Y-140400000D01*
G37*
D12*
X75104819Y-108166666D02*
X74628628Y-108499999D01*
X75104819Y-108738094D02*
X74104819Y-108738094D01*
X74104819Y-108738094D02*
X74104819Y-108357142D01*
X74104819Y-108357142D02*
X74152438Y-108261904D01*
X74152438Y-108261904D02*
X74200057Y-108214285D01*
X74200057Y-108214285D02*
X74295295Y-108166666D01*
X74295295Y-108166666D02*
X74438152Y-108166666D01*
X74438152Y-108166666D02*
X74533390Y-108214285D01*
X74533390Y-108214285D02*
X74581009Y-108261904D01*
X74581009Y-108261904D02*
X74628628Y-108357142D01*
X74628628Y-108357142D02*
X74628628Y-108738094D01*
X74104819Y-107261904D02*
X74104819Y-107738094D01*
X74104819Y-107738094D02*
X74581009Y-107785713D01*
X74581009Y-107785713D02*
X74533390Y-107738094D01*
X74533390Y-107738094D02*
X74485771Y-107642856D01*
X74485771Y-107642856D02*
X74485771Y-107404761D01*
X74485771Y-107404761D02*
X74533390Y-107309523D01*
X74533390Y-107309523D02*
X74581009Y-107261904D01*
X74581009Y-107261904D02*
X74676247Y-107214285D01*
X74676247Y-107214285D02*
X74914342Y-107214285D01*
X74914342Y-107214285D02*
X75009580Y-107261904D01*
X75009580Y-107261904D02*
X75057200Y-107309523D01*
X75057200Y-107309523D02*
X75104819Y-107404761D01*
X75104819Y-107404761D02*
X75104819Y-107642856D01*
X75104819Y-107642856D02*
X75057200Y-107738094D01*
X75057200Y-107738094D02*
X75009580Y-107785713D01*
X64342319Y-93666666D02*
X63866128Y-93999999D01*
X64342319Y-94238094D02*
X63342319Y-94238094D01*
X63342319Y-94238094D02*
X63342319Y-93857142D01*
X63342319Y-93857142D02*
X63389938Y-93761904D01*
X63389938Y-93761904D02*
X63437557Y-93714285D01*
X63437557Y-93714285D02*
X63532795Y-93666666D01*
X63532795Y-93666666D02*
X63675652Y-93666666D01*
X63675652Y-93666666D02*
X63770890Y-93714285D01*
X63770890Y-93714285D02*
X63818509Y-93761904D01*
X63818509Y-93761904D02*
X63866128Y-93857142D01*
X63866128Y-93857142D02*
X63866128Y-94238094D01*
X63675652Y-92809523D02*
X64342319Y-92809523D01*
X63294700Y-93047618D02*
X64008985Y-93285713D01*
X64008985Y-93285713D02*
X64008985Y-92666666D01*
X65429580Y-99392857D02*
X65477200Y-99440476D01*
X65477200Y-99440476D02*
X65524819Y-99583333D01*
X65524819Y-99583333D02*
X65524819Y-99678571D01*
X65524819Y-99678571D02*
X65477200Y-99821428D01*
X65477200Y-99821428D02*
X65381961Y-99916666D01*
X65381961Y-99916666D02*
X65286723Y-99964285D01*
X65286723Y-99964285D02*
X65096247Y-100011904D01*
X65096247Y-100011904D02*
X64953390Y-100011904D01*
X64953390Y-100011904D02*
X64762914Y-99964285D01*
X64762914Y-99964285D02*
X64667676Y-99916666D01*
X64667676Y-99916666D02*
X64572438Y-99821428D01*
X64572438Y-99821428D02*
X64524819Y-99678571D01*
X64524819Y-99678571D02*
X64524819Y-99583333D01*
X64524819Y-99583333D02*
X64572438Y-99440476D01*
X64572438Y-99440476D02*
X64620057Y-99392857D01*
X65524819Y-98440476D02*
X65524819Y-99011904D01*
X65524819Y-98726190D02*
X64524819Y-98726190D01*
X64524819Y-98726190D02*
X64667676Y-98821428D01*
X64667676Y-98821428D02*
X64762914Y-98916666D01*
X64762914Y-98916666D02*
X64810533Y-99011904D01*
X64524819Y-97821428D02*
X64524819Y-97726190D01*
X64524819Y-97726190D02*
X64572438Y-97630952D01*
X64572438Y-97630952D02*
X64620057Y-97583333D01*
X64620057Y-97583333D02*
X64715295Y-97535714D01*
X64715295Y-97535714D02*
X64905771Y-97488095D01*
X64905771Y-97488095D02*
X65143866Y-97488095D01*
X65143866Y-97488095D02*
X65334342Y-97535714D01*
X65334342Y-97535714D02*
X65429580Y-97583333D01*
X65429580Y-97583333D02*
X65477200Y-97630952D01*
X65477200Y-97630952D02*
X65524819Y-97726190D01*
X65524819Y-97726190D02*
X65524819Y-97821428D01*
X65524819Y-97821428D02*
X65477200Y-97916666D01*
X65477200Y-97916666D02*
X65429580Y-97964285D01*
X65429580Y-97964285D02*
X65334342Y-98011904D01*
X65334342Y-98011904D02*
X65143866Y-98059523D01*
X65143866Y-98059523D02*
X64905771Y-98059523D01*
X64905771Y-98059523D02*
X64715295Y-98011904D01*
X64715295Y-98011904D02*
X64620057Y-97964285D01*
X64620057Y-97964285D02*
X64572438Y-97916666D01*
X64572438Y-97916666D02*
X64524819Y-97821428D01*
X81179580Y-94416666D02*
X81227200Y-94464285D01*
X81227200Y-94464285D02*
X81274819Y-94607142D01*
X81274819Y-94607142D02*
X81274819Y-94702380D01*
X81274819Y-94702380D02*
X81227200Y-94845237D01*
X81227200Y-94845237D02*
X81131961Y-94940475D01*
X81131961Y-94940475D02*
X81036723Y-94988094D01*
X81036723Y-94988094D02*
X80846247Y-95035713D01*
X80846247Y-95035713D02*
X80703390Y-95035713D01*
X80703390Y-95035713D02*
X80512914Y-94988094D01*
X80512914Y-94988094D02*
X80417676Y-94940475D01*
X80417676Y-94940475D02*
X80322438Y-94845237D01*
X80322438Y-94845237D02*
X80274819Y-94702380D01*
X80274819Y-94702380D02*
X80274819Y-94607142D01*
X80274819Y-94607142D02*
X80322438Y-94464285D01*
X80322438Y-94464285D02*
X80370057Y-94416666D01*
X80274819Y-93559523D02*
X80274819Y-93749999D01*
X80274819Y-93749999D02*
X80322438Y-93845237D01*
X80322438Y-93845237D02*
X80370057Y-93892856D01*
X80370057Y-93892856D02*
X80512914Y-93988094D01*
X80512914Y-93988094D02*
X80703390Y-94035713D01*
X80703390Y-94035713D02*
X81084342Y-94035713D01*
X81084342Y-94035713D02*
X81179580Y-93988094D01*
X81179580Y-93988094D02*
X81227200Y-93940475D01*
X81227200Y-93940475D02*
X81274819Y-93845237D01*
X81274819Y-93845237D02*
X81274819Y-93654761D01*
X81274819Y-93654761D02*
X81227200Y-93559523D01*
X81227200Y-93559523D02*
X81179580Y-93511904D01*
X81179580Y-93511904D02*
X81084342Y-93464285D01*
X81084342Y-93464285D02*
X80846247Y-93464285D01*
X80846247Y-93464285D02*
X80751009Y-93511904D01*
X80751009Y-93511904D02*
X80703390Y-93559523D01*
X80703390Y-93559523D02*
X80655771Y-93654761D01*
X80655771Y-93654761D02*
X80655771Y-93845237D01*
X80655771Y-93845237D02*
X80703390Y-93940475D01*
X80703390Y-93940475D02*
X80751009Y-93988094D01*
X80751009Y-93988094D02*
X80846247Y-94035713D01*
X68333333Y-104859580D02*
X68285714Y-104907200D01*
X68285714Y-104907200D02*
X68142857Y-104954819D01*
X68142857Y-104954819D02*
X68047619Y-104954819D01*
X68047619Y-104954819D02*
X67904762Y-104907200D01*
X67904762Y-104907200D02*
X67809524Y-104811961D01*
X67809524Y-104811961D02*
X67761905Y-104716723D01*
X67761905Y-104716723D02*
X67714286Y-104526247D01*
X67714286Y-104526247D02*
X67714286Y-104383390D01*
X67714286Y-104383390D02*
X67761905Y-104192914D01*
X67761905Y-104192914D02*
X67809524Y-104097676D01*
X67809524Y-104097676D02*
X67904762Y-104002438D01*
X67904762Y-104002438D02*
X68047619Y-103954819D01*
X68047619Y-103954819D02*
X68142857Y-103954819D01*
X68142857Y-103954819D02*
X68285714Y-104002438D01*
X68285714Y-104002438D02*
X68333333Y-104050057D01*
X68714286Y-104050057D02*
X68761905Y-104002438D01*
X68761905Y-104002438D02*
X68857143Y-103954819D01*
X68857143Y-103954819D02*
X69095238Y-103954819D01*
X69095238Y-103954819D02*
X69190476Y-104002438D01*
X69190476Y-104002438D02*
X69238095Y-104050057D01*
X69238095Y-104050057D02*
X69285714Y-104145295D01*
X69285714Y-104145295D02*
X69285714Y-104240533D01*
X69285714Y-104240533D02*
X69238095Y-104383390D01*
X69238095Y-104383390D02*
X68666667Y-104954819D01*
X68666667Y-104954819D02*
X69285714Y-104954819D01*
X69366666Y-76454819D02*
X69366666Y-77169104D01*
X69366666Y-77169104D02*
X69319047Y-77311961D01*
X69319047Y-77311961D02*
X69223809Y-77407200D01*
X69223809Y-77407200D02*
X69080952Y-77454819D01*
X69080952Y-77454819D02*
X68985714Y-77454819D01*
X70366666Y-77454819D02*
X69795238Y-77454819D01*
X70080952Y-77454819D02*
X70080952Y-76454819D01*
X70080952Y-76454819D02*
X69985714Y-76597676D01*
X69985714Y-76597676D02*
X69890476Y-76692914D01*
X69890476Y-76692914D02*
X69795238Y-76740533D01*
X69609580Y-95166666D02*
X69657200Y-95214285D01*
X69657200Y-95214285D02*
X69704819Y-95357142D01*
X69704819Y-95357142D02*
X69704819Y-95452380D01*
X69704819Y-95452380D02*
X69657200Y-95595237D01*
X69657200Y-95595237D02*
X69561961Y-95690475D01*
X69561961Y-95690475D02*
X69466723Y-95738094D01*
X69466723Y-95738094D02*
X69276247Y-95785713D01*
X69276247Y-95785713D02*
X69133390Y-95785713D01*
X69133390Y-95785713D02*
X68942914Y-95738094D01*
X68942914Y-95738094D02*
X68847676Y-95690475D01*
X68847676Y-95690475D02*
X68752438Y-95595237D01*
X68752438Y-95595237D02*
X68704819Y-95452380D01*
X68704819Y-95452380D02*
X68704819Y-95357142D01*
X68704819Y-95357142D02*
X68752438Y-95214285D01*
X68752438Y-95214285D02*
X68800057Y-95166666D01*
X68704819Y-94833332D02*
X68704819Y-94214285D01*
X68704819Y-94214285D02*
X69085771Y-94547618D01*
X69085771Y-94547618D02*
X69085771Y-94404761D01*
X69085771Y-94404761D02*
X69133390Y-94309523D01*
X69133390Y-94309523D02*
X69181009Y-94261904D01*
X69181009Y-94261904D02*
X69276247Y-94214285D01*
X69276247Y-94214285D02*
X69514342Y-94214285D01*
X69514342Y-94214285D02*
X69609580Y-94261904D01*
X69609580Y-94261904D02*
X69657200Y-94309523D01*
X69657200Y-94309523D02*
X69704819Y-94404761D01*
X69704819Y-94404761D02*
X69704819Y-94690475D01*
X69704819Y-94690475D02*
X69657200Y-94785713D01*
X69657200Y-94785713D02*
X69609580Y-94833332D01*
X75465295Y-100929818D02*
X75465295Y-101739341D01*
X75465295Y-101739341D02*
X75512914Y-101834579D01*
X75512914Y-101834579D02*
X75560533Y-101882199D01*
X75560533Y-101882199D02*
X75655771Y-101929818D01*
X75655771Y-101929818D02*
X75846247Y-101929818D01*
X75846247Y-101929818D02*
X75941485Y-101882199D01*
X75941485Y-101882199D02*
X75989104Y-101834579D01*
X75989104Y-101834579D02*
X76036723Y-101739341D01*
X76036723Y-101739341D02*
X76036723Y-100929818D01*
X77036723Y-101929818D02*
X76465295Y-101929818D01*
X76751009Y-101929818D02*
X76751009Y-100929818D01*
X76751009Y-100929818D02*
X76655771Y-101072675D01*
X76655771Y-101072675D02*
X76560533Y-101167913D01*
X76560533Y-101167913D02*
X76465295Y-101215532D01*
X73738000Y-99929818D02*
X73738000Y-100167913D01*
X73499905Y-100072675D02*
X73738000Y-100167913D01*
X73738000Y-100167913D02*
X73976095Y-100072675D01*
X73595143Y-100358389D02*
X73738000Y-100167913D01*
X73738000Y-100167913D02*
X73880857Y-100358389D01*
X73738000Y-99929818D02*
X73738000Y-100167913D01*
X73499905Y-100072675D02*
X73738000Y-100167913D01*
X73738000Y-100167913D02*
X73976095Y-100072675D01*
X73595143Y-100358389D02*
X73738000Y-100167913D01*
X73738000Y-100167913D02*
X73880857Y-100358389D01*
X87686667Y-108857200D02*
X87829524Y-108904819D01*
X87829524Y-108904819D02*
X88067619Y-108904819D01*
X88067619Y-108904819D02*
X88162857Y-108857200D01*
X88162857Y-108857200D02*
X88210476Y-108809580D01*
X88210476Y-108809580D02*
X88258095Y-108714342D01*
X88258095Y-108714342D02*
X88258095Y-108619104D01*
X88258095Y-108619104D02*
X88210476Y-108523866D01*
X88210476Y-108523866D02*
X88162857Y-108476247D01*
X88162857Y-108476247D02*
X88067619Y-108428628D01*
X88067619Y-108428628D02*
X87877143Y-108381009D01*
X87877143Y-108381009D02*
X87781905Y-108333390D01*
X87781905Y-108333390D02*
X87734286Y-108285771D01*
X87734286Y-108285771D02*
X87686667Y-108190533D01*
X87686667Y-108190533D02*
X87686667Y-108095295D01*
X87686667Y-108095295D02*
X87734286Y-108000057D01*
X87734286Y-108000057D02*
X87781905Y-107952438D01*
X87781905Y-107952438D02*
X87877143Y-107904819D01*
X87877143Y-107904819D02*
X88115238Y-107904819D01*
X88115238Y-107904819D02*
X88258095Y-107952438D01*
X88591429Y-107904819D02*
X88829524Y-108904819D01*
X88829524Y-108904819D02*
X89020000Y-108190533D01*
X89020000Y-108190533D02*
X89210476Y-108904819D01*
X89210476Y-108904819D02*
X89448572Y-107904819D01*
X89734286Y-107904819D02*
X90353333Y-107904819D01*
X90353333Y-107904819D02*
X90020000Y-108285771D01*
X90020000Y-108285771D02*
X90162857Y-108285771D01*
X90162857Y-108285771D02*
X90258095Y-108333390D01*
X90258095Y-108333390D02*
X90305714Y-108381009D01*
X90305714Y-108381009D02*
X90353333Y-108476247D01*
X90353333Y-108476247D02*
X90353333Y-108714342D01*
X90353333Y-108714342D02*
X90305714Y-108809580D01*
X90305714Y-108809580D02*
X90258095Y-108857200D01*
X90258095Y-108857200D02*
X90162857Y-108904819D01*
X90162857Y-108904819D02*
X89877143Y-108904819D01*
X89877143Y-108904819D02*
X89781905Y-108857200D01*
X89781905Y-108857200D02*
X89734286Y-108809580D01*
X69534580Y-101391666D02*
X69582200Y-101439285D01*
X69582200Y-101439285D02*
X69629819Y-101582142D01*
X69629819Y-101582142D02*
X69629819Y-101677380D01*
X69629819Y-101677380D02*
X69582200Y-101820237D01*
X69582200Y-101820237D02*
X69486961Y-101915475D01*
X69486961Y-101915475D02*
X69391723Y-101963094D01*
X69391723Y-101963094D02*
X69201247Y-102010713D01*
X69201247Y-102010713D02*
X69058390Y-102010713D01*
X69058390Y-102010713D02*
X68867914Y-101963094D01*
X68867914Y-101963094D02*
X68772676Y-101915475D01*
X68772676Y-101915475D02*
X68677438Y-101820237D01*
X68677438Y-101820237D02*
X68629819Y-101677380D01*
X68629819Y-101677380D02*
X68629819Y-101582142D01*
X68629819Y-101582142D02*
X68677438Y-101439285D01*
X68677438Y-101439285D02*
X68725057Y-101391666D01*
X69629819Y-100439285D02*
X69629819Y-101010713D01*
X69629819Y-100724999D02*
X68629819Y-100724999D01*
X68629819Y-100724999D02*
X68772676Y-100820237D01*
X68772676Y-100820237D02*
X68867914Y-100915475D01*
X68867914Y-100915475D02*
X68915533Y-101010713D01*
X98186667Y-118107200D02*
X98329524Y-118154819D01*
X98329524Y-118154819D02*
X98567619Y-118154819D01*
X98567619Y-118154819D02*
X98662857Y-118107200D01*
X98662857Y-118107200D02*
X98710476Y-118059580D01*
X98710476Y-118059580D02*
X98758095Y-117964342D01*
X98758095Y-117964342D02*
X98758095Y-117869104D01*
X98758095Y-117869104D02*
X98710476Y-117773866D01*
X98710476Y-117773866D02*
X98662857Y-117726247D01*
X98662857Y-117726247D02*
X98567619Y-117678628D01*
X98567619Y-117678628D02*
X98377143Y-117631009D01*
X98377143Y-117631009D02*
X98281905Y-117583390D01*
X98281905Y-117583390D02*
X98234286Y-117535771D01*
X98234286Y-117535771D02*
X98186667Y-117440533D01*
X98186667Y-117440533D02*
X98186667Y-117345295D01*
X98186667Y-117345295D02*
X98234286Y-117250057D01*
X98234286Y-117250057D02*
X98281905Y-117202438D01*
X98281905Y-117202438D02*
X98377143Y-117154819D01*
X98377143Y-117154819D02*
X98615238Y-117154819D01*
X98615238Y-117154819D02*
X98758095Y-117202438D01*
X99091429Y-117154819D02*
X99329524Y-118154819D01*
X99329524Y-118154819D02*
X99520000Y-117440533D01*
X99520000Y-117440533D02*
X99710476Y-118154819D01*
X99710476Y-118154819D02*
X99948572Y-117154819D01*
X100758095Y-117488152D02*
X100758095Y-118154819D01*
X100520000Y-117107200D02*
X100281905Y-117821485D01*
X100281905Y-117821485D02*
X100900952Y-117821485D01*
X98186667Y-100107200D02*
X98329524Y-100154819D01*
X98329524Y-100154819D02*
X98567619Y-100154819D01*
X98567619Y-100154819D02*
X98662857Y-100107200D01*
X98662857Y-100107200D02*
X98710476Y-100059580D01*
X98710476Y-100059580D02*
X98758095Y-99964342D01*
X98758095Y-99964342D02*
X98758095Y-99869104D01*
X98758095Y-99869104D02*
X98710476Y-99773866D01*
X98710476Y-99773866D02*
X98662857Y-99726247D01*
X98662857Y-99726247D02*
X98567619Y-99678628D01*
X98567619Y-99678628D02*
X98377143Y-99631009D01*
X98377143Y-99631009D02*
X98281905Y-99583390D01*
X98281905Y-99583390D02*
X98234286Y-99535771D01*
X98234286Y-99535771D02*
X98186667Y-99440533D01*
X98186667Y-99440533D02*
X98186667Y-99345295D01*
X98186667Y-99345295D02*
X98234286Y-99250057D01*
X98234286Y-99250057D02*
X98281905Y-99202438D01*
X98281905Y-99202438D02*
X98377143Y-99154819D01*
X98377143Y-99154819D02*
X98615238Y-99154819D01*
X98615238Y-99154819D02*
X98758095Y-99202438D01*
X99091429Y-99154819D02*
X99329524Y-100154819D01*
X99329524Y-100154819D02*
X99520000Y-99440533D01*
X99520000Y-99440533D02*
X99710476Y-100154819D01*
X99710476Y-100154819D02*
X99948572Y-99154819D01*
X100853333Y-100154819D02*
X100281905Y-100154819D01*
X100567619Y-100154819D02*
X100567619Y-99154819D01*
X100567619Y-99154819D02*
X100472381Y-99297676D01*
X100472381Y-99297676D02*
X100377143Y-99392914D01*
X100377143Y-99392914D02*
X100281905Y-99440533D01*
X108436667Y-108857200D02*
X108579524Y-108904819D01*
X108579524Y-108904819D02*
X108817619Y-108904819D01*
X108817619Y-108904819D02*
X108912857Y-108857200D01*
X108912857Y-108857200D02*
X108960476Y-108809580D01*
X108960476Y-108809580D02*
X109008095Y-108714342D01*
X109008095Y-108714342D02*
X109008095Y-108619104D01*
X109008095Y-108619104D02*
X108960476Y-108523866D01*
X108960476Y-108523866D02*
X108912857Y-108476247D01*
X108912857Y-108476247D02*
X108817619Y-108428628D01*
X108817619Y-108428628D02*
X108627143Y-108381009D01*
X108627143Y-108381009D02*
X108531905Y-108333390D01*
X108531905Y-108333390D02*
X108484286Y-108285771D01*
X108484286Y-108285771D02*
X108436667Y-108190533D01*
X108436667Y-108190533D02*
X108436667Y-108095295D01*
X108436667Y-108095295D02*
X108484286Y-108000057D01*
X108484286Y-108000057D02*
X108531905Y-107952438D01*
X108531905Y-107952438D02*
X108627143Y-107904819D01*
X108627143Y-107904819D02*
X108865238Y-107904819D01*
X108865238Y-107904819D02*
X109008095Y-107952438D01*
X109341429Y-107904819D02*
X109579524Y-108904819D01*
X109579524Y-108904819D02*
X109770000Y-108190533D01*
X109770000Y-108190533D02*
X109960476Y-108904819D01*
X109960476Y-108904819D02*
X110198572Y-107904819D01*
X110531905Y-108000057D02*
X110579524Y-107952438D01*
X110579524Y-107952438D02*
X110674762Y-107904819D01*
X110674762Y-107904819D02*
X110912857Y-107904819D01*
X110912857Y-107904819D02*
X111008095Y-107952438D01*
X111008095Y-107952438D02*
X111055714Y-108000057D01*
X111055714Y-108000057D02*
X111103333Y-108095295D01*
X111103333Y-108095295D02*
X111103333Y-108190533D01*
X111103333Y-108190533D02*
X111055714Y-108333390D01*
X111055714Y-108333390D02*
X110484286Y-108904819D01*
X110484286Y-108904819D02*
X111103333Y-108904819D01*
X97184819Y-65052380D02*
X96184819Y-65052380D01*
X96184819Y-65052380D02*
X96184819Y-64814285D01*
X96184819Y-64814285D02*
X96232438Y-64671428D01*
X96232438Y-64671428D02*
X96327676Y-64576190D01*
X96327676Y-64576190D02*
X96422914Y-64528571D01*
X96422914Y-64528571D02*
X96613390Y-64480952D01*
X96613390Y-64480952D02*
X96756247Y-64480952D01*
X96756247Y-64480952D02*
X96946723Y-64528571D01*
X96946723Y-64528571D02*
X97041961Y-64576190D01*
X97041961Y-64576190D02*
X97137200Y-64671428D01*
X97137200Y-64671428D02*
X97184819Y-64814285D01*
X97184819Y-64814285D02*
X97184819Y-65052380D01*
X97184819Y-64052380D02*
X96184819Y-64052380D01*
X97137200Y-63623809D02*
X97184819Y-63480952D01*
X97184819Y-63480952D02*
X97184819Y-63242857D01*
X97184819Y-63242857D02*
X97137200Y-63147619D01*
X97137200Y-63147619D02*
X97089580Y-63100000D01*
X97089580Y-63100000D02*
X96994342Y-63052381D01*
X96994342Y-63052381D02*
X96899104Y-63052381D01*
X96899104Y-63052381D02*
X96803866Y-63100000D01*
X96803866Y-63100000D02*
X96756247Y-63147619D01*
X96756247Y-63147619D02*
X96708628Y-63242857D01*
X96708628Y-63242857D02*
X96661009Y-63433333D01*
X96661009Y-63433333D02*
X96613390Y-63528571D01*
X96613390Y-63528571D02*
X96565771Y-63576190D01*
X96565771Y-63576190D02*
X96470533Y-63623809D01*
X96470533Y-63623809D02*
X96375295Y-63623809D01*
X96375295Y-63623809D02*
X96280057Y-63576190D01*
X96280057Y-63576190D02*
X96232438Y-63528571D01*
X96232438Y-63528571D02*
X96184819Y-63433333D01*
X96184819Y-63433333D02*
X96184819Y-63195238D01*
X96184819Y-63195238D02*
X96232438Y-63052381D01*
X97184819Y-62623809D02*
X96184819Y-62623809D01*
X96184819Y-62623809D02*
X96184819Y-62242857D01*
X96184819Y-62242857D02*
X96232438Y-62147619D01*
X96232438Y-62147619D02*
X96280057Y-62100000D01*
X96280057Y-62100000D02*
X96375295Y-62052381D01*
X96375295Y-62052381D02*
X96518152Y-62052381D01*
X96518152Y-62052381D02*
X96613390Y-62100000D01*
X96613390Y-62100000D02*
X96661009Y-62147619D01*
X96661009Y-62147619D02*
X96708628Y-62242857D01*
X96708628Y-62242857D02*
X96708628Y-62623809D01*
X97184819Y-61100000D02*
X97184819Y-61671428D01*
X97184819Y-61385714D02*
X96184819Y-61385714D01*
X96184819Y-61385714D02*
X96327676Y-61480952D01*
X96327676Y-61480952D02*
X96422914Y-61576190D01*
X96422914Y-61576190D02*
X96470533Y-61671428D01*
X79795833Y-103429580D02*
X79748214Y-103477200D01*
X79748214Y-103477200D02*
X79605357Y-103524819D01*
X79605357Y-103524819D02*
X79510119Y-103524819D01*
X79510119Y-103524819D02*
X79367262Y-103477200D01*
X79367262Y-103477200D02*
X79272024Y-103381961D01*
X79272024Y-103381961D02*
X79224405Y-103286723D01*
X79224405Y-103286723D02*
X79176786Y-103096247D01*
X79176786Y-103096247D02*
X79176786Y-102953390D01*
X79176786Y-102953390D02*
X79224405Y-102762914D01*
X79224405Y-102762914D02*
X79272024Y-102667676D01*
X79272024Y-102667676D02*
X79367262Y-102572438D01*
X79367262Y-102572438D02*
X79510119Y-102524819D01*
X79510119Y-102524819D02*
X79605357Y-102524819D01*
X79605357Y-102524819D02*
X79748214Y-102572438D01*
X79748214Y-102572438D02*
X79795833Y-102620057D01*
X80700595Y-102524819D02*
X80224405Y-102524819D01*
X80224405Y-102524819D02*
X80176786Y-103001009D01*
X80176786Y-103001009D02*
X80224405Y-102953390D01*
X80224405Y-102953390D02*
X80319643Y-102905771D01*
X80319643Y-102905771D02*
X80557738Y-102905771D01*
X80557738Y-102905771D02*
X80652976Y-102953390D01*
X80652976Y-102953390D02*
X80700595Y-103001009D01*
X80700595Y-103001009D02*
X80748214Y-103096247D01*
X80748214Y-103096247D02*
X80748214Y-103334342D01*
X80748214Y-103334342D02*
X80700595Y-103429580D01*
X80700595Y-103429580D02*
X80652976Y-103477200D01*
X80652976Y-103477200D02*
X80557738Y-103524819D01*
X80557738Y-103524819D02*
X80319643Y-103524819D01*
X80319643Y-103524819D02*
X80224405Y-103477200D01*
X80224405Y-103477200D02*
X80176786Y-103429580D01*
X77179580Y-97416666D02*
X77227200Y-97464285D01*
X77227200Y-97464285D02*
X77274819Y-97607142D01*
X77274819Y-97607142D02*
X77274819Y-97702380D01*
X77274819Y-97702380D02*
X77227200Y-97845237D01*
X77227200Y-97845237D02*
X77131961Y-97940475D01*
X77131961Y-97940475D02*
X77036723Y-97988094D01*
X77036723Y-97988094D02*
X76846247Y-98035713D01*
X76846247Y-98035713D02*
X76703390Y-98035713D01*
X76703390Y-98035713D02*
X76512914Y-97988094D01*
X76512914Y-97988094D02*
X76417676Y-97940475D01*
X76417676Y-97940475D02*
X76322438Y-97845237D01*
X76322438Y-97845237D02*
X76274819Y-97702380D01*
X76274819Y-97702380D02*
X76274819Y-97607142D01*
X76274819Y-97607142D02*
X76322438Y-97464285D01*
X76322438Y-97464285D02*
X76370057Y-97416666D01*
X76608152Y-96559523D02*
X77274819Y-96559523D01*
X76227200Y-96797618D02*
X76941485Y-97035713D01*
X76941485Y-97035713D02*
X76941485Y-96416666D01*
%TO.C,R5*%
D13*
X73735000Y-107772936D02*
X73735000Y-108227064D01*
X72265000Y-107772936D02*
X72265000Y-108227064D01*
%TO.C,R4*%
X64802500Y-93727064D02*
X64802500Y-93272936D01*
X66272500Y-93727064D02*
X66272500Y-93272936D01*
%TO.C,C10*%
X66015000Y-99011252D02*
X66015000Y-98488748D01*
X67485000Y-99011252D02*
X67485000Y-98488748D01*
%TO.C,C6*%
X81765000Y-94511252D02*
X81765000Y-93988748D01*
X83235000Y-94511252D02*
X83235000Y-93988748D01*
%TO.C,C2*%
X71201248Y-104985000D02*
X71723752Y-104985000D01*
X71201248Y-103515000D02*
X71723752Y-103515000D01*
%TO.C,J1*%
X71300000Y-78140000D02*
X63280800Y-78140000D01*
X74500000Y-89860000D02*
X63280800Y-89860000D01*
X76810000Y-78140000D02*
X74300000Y-78140000D01*
X76810000Y-78140000D02*
X76810000Y-86700000D01*
%TO.C,C3*%
X70515000Y-96951248D02*
X70515000Y-97473752D01*
X71985000Y-96951248D02*
X71985000Y-97473752D01*
%TO.C,U1*%
D14*
X74550800Y-99798599D02*
X74550800Y-100265258D01*
X74550800Y-102684740D02*
X74550800Y-103151399D01*
X74550800Y-103151399D02*
X75017459Y-103151399D01*
X75017459Y-99798599D02*
X74550800Y-99798599D01*
X77436941Y-103151399D02*
X77903600Y-103151399D01*
X77903600Y-99798599D02*
X77436941Y-99798599D01*
X77903600Y-100265258D02*
X77903600Y-99798599D01*
X77903600Y-103151399D02*
X77903600Y-102684740D01*
D10*
G36*
X78589400Y-101915499D02*
G01*
X78335400Y-101915499D01*
X78335400Y-101534498D01*
X78589400Y-101534498D01*
X78589400Y-101915499D01*
G37*
%TO.C,SW3*%
D13*
X85790000Y-109270000D02*
X92250000Y-109270000D01*
X85790000Y-109300000D02*
X85790000Y-109270000D01*
X85790000Y-111200000D02*
X85790000Y-113800000D01*
X85790000Y-115730000D02*
X85790000Y-115700000D01*
X85790000Y-115730000D02*
X92250000Y-115730000D01*
X92250000Y-109270000D02*
X92250000Y-109300000D01*
X92250000Y-111200000D02*
X92250000Y-113800000D01*
X92250000Y-115730000D02*
X92250000Y-115700000D01*
%TO.C,C1*%
X71440000Y-100963748D02*
X71440000Y-101486252D01*
X72910000Y-100963748D02*
X72910000Y-101486252D01*
%TO.C,SW4*%
X96290000Y-118520000D02*
X102750000Y-118520000D01*
X96290000Y-118550000D02*
X96290000Y-118520000D01*
X96290000Y-120450000D02*
X96290000Y-123050000D01*
X96290000Y-124980000D02*
X96290000Y-124950000D01*
X96290000Y-124980000D02*
X102750000Y-124980000D01*
X102750000Y-118520000D02*
X102750000Y-118550000D01*
X102750000Y-120450000D02*
X102750000Y-123050000D01*
X102750000Y-124980000D02*
X102750000Y-124950000D01*
%TO.C,SW1*%
X96290000Y-100520000D02*
X102750000Y-100520000D01*
X96290000Y-100550000D02*
X96290000Y-100520000D01*
X96290000Y-102450000D02*
X96290000Y-105050000D01*
X96290000Y-106980000D02*
X96290000Y-106950000D01*
X96290000Y-106980000D02*
X102750000Y-106980000D01*
X102750000Y-100520000D02*
X102750000Y-100550000D01*
X102750000Y-102450000D02*
X102750000Y-105050000D01*
X102750000Y-106980000D02*
X102750000Y-106950000D01*
%TO.C,SW2*%
X106540000Y-109270000D02*
X113000000Y-109270000D01*
X106540000Y-109300000D02*
X106540000Y-109270000D01*
X106540000Y-111200000D02*
X106540000Y-113800000D01*
X106540000Y-115730000D02*
X106540000Y-115700000D01*
X106540000Y-115730000D02*
X113000000Y-115730000D01*
X113000000Y-109270000D02*
X113000000Y-109300000D01*
X113000000Y-111200000D02*
X113000000Y-113800000D01*
X113000000Y-115730000D02*
X113000000Y-115700000D01*
%TO.C,DISP1*%
X98170000Y-61770000D02*
X99500000Y-61770000D01*
X98170000Y-63100000D02*
X98170000Y-61770000D01*
X100770000Y-61770000D02*
X108450000Y-61770000D01*
X100770000Y-64430000D02*
X100770000Y-61770000D01*
X100770000Y-64430000D02*
X108450000Y-64430000D01*
X108450000Y-64430000D02*
X108450000Y-61770000D01*
%TO.C,C5*%
X79701248Y-104015000D02*
X80223752Y-104015000D01*
X79701248Y-105485000D02*
X80223752Y-105485000D01*
%TO.C,C4*%
X77765000Y-97511252D02*
X77765000Y-96988748D01*
X79235000Y-97511252D02*
X79235000Y-96988748D01*
%TD*%
M02*
