%TF.GenerationSoftware,KiCad,Pcbnew,10.0.6*%
%TF.CreationDate,2026-10-08T12:58:02+11:00*%
%TF.ProjectId,aucboard,61756362-6f61-4726-942e-6b696361645f,rev?*%
%TF.SameCoordinates,Original*%
%TF.FileFunction,Soldermask,Top*%
%TF.FilePolarity,Negative*%
%FSLAX46Y46*%
G04 Gerber Fmt 4.6, Leading zero omitted, Abs format (unit mm)*
G04 Created by KiCad (PCBNEW 10.0.6) date 2026-10-08 12:58:02*
%MOMM*%
%LPD*%
G01*
G04 APERTURE LIST*
G04 Aperture macros list*
%AMRoundRect*
0 Rectangle with rounded corners*
0 $1 Rounding radius*
0 $2 $3 $4 $5 $6 $7 $8 $9 X,Y pos of 4 corners*
0 Add a 4 corners polygon primitive as box body*
4,1,4,$2,$3,$4,$5,$6,$7,$8,$9,$2,$3,0*
0 Add four circle primitives for the rounded corners*
1,1,$1+$1,$2,$3*
1,1,$1+$1,$4,$5*
1,1,$1+$1,$6,$7*
1,1,$1+$1,$8,$9*
0 Add four rect primitives between the rounded corners*
20,1,$1+$1,$2,$3,$4,$5,0*
20,1,$1+$1,$4,$5,$6,$7,0*
20,1,$1+$1,$6,$7,$8,$9,0*
20,1,$1+$1,$8,$9,$2,$3,0*%
G04 Aperture macros list end*
%ADD10RoundRect,0.250000X-0.450000X0.350000X-0.450000X-0.350000X0.450000X-0.350000X0.450000X0.350000X0*%
%ADD11RoundRect,0.250000X0.450000X-0.350000X0.450000X0.350000X-0.450000X0.350000X-0.450000X-0.350000X0*%
%ADD12RoundRect,0.250000X0.475000X-0.337500X0.475000X0.337500X-0.475000X0.337500X-0.475000X-0.337500X0*%
%ADD13RoundRect,0.250000X-0.337500X-0.475000X0.337500X-0.475000X0.337500X0.475000X-0.337500X0.475000X0*%
%ADD14O,3.000000X1.500000*%
%ADD15O,2.500000X3.500000*%
%ADD16O,3.500000X2.500000*%
%ADD17C,2.000000*%
%ADD18RoundRect,0.250000X-0.475000X0.337500X-0.475000X-0.337500X0.475000X-0.337500X0.475000X0.337500X0*%
%ADD19R,0.812800X0.254000*%
%ADD20R,0.254000X0.812800*%
%ADD21R,1.244600X1.244600*%
%ADD22RoundRect,0.250000X-0.525000X-0.400000X0.525000X-0.400000X0.525000X0.400000X-0.525000X0.400000X0*%
%ADD23R,1.700000X1.700000*%
%ADD24C,1.700000*%
G04 APERTURE END LIST*
D10*
%TO.C,R5*%
X73000000Y-107000000D03*
X73000000Y-109000000D03*
%TD*%
D11*
%TO.C,R4*%
X65537500Y-94500000D03*
X65537500Y-92500000D03*
%TD*%
D12*
%TO.C,C10*%
X66750000Y-99787500D03*
X66750000Y-97712500D03*
%TD*%
%TO.C,C6*%
X82500000Y-95287500D03*
X82500000Y-93212500D03*
%TD*%
D13*
%TO.C,C2*%
X72500000Y-104250000D03*
X70425000Y-104250000D03*
%TD*%
D14*
%TO.C,J1*%
X72800000Y-79000000D03*
D15*
X64500000Y-84000000D03*
D16*
X68000000Y-88500000D03*
%TD*%
D17*
%TO.C,REF\u002A\u002A*%
X64500000Y-54000000D03*
%TD*%
D18*
%TO.C,C3*%
X71250000Y-96175000D03*
X71250000Y-98250000D03*
%TD*%
D19*
%TO.C,U1*%
X74779400Y-100724998D03*
X74779400Y-101224999D03*
X74779400Y-101724999D03*
X74779400Y-102225000D03*
D20*
X75477199Y-102922799D03*
X75977200Y-102922799D03*
X76477200Y-102922799D03*
X76977201Y-102922799D03*
D19*
X77675000Y-102225000D03*
X77675000Y-101724999D03*
X77675000Y-101224999D03*
X77675000Y-100724998D03*
D20*
X76977201Y-100027199D03*
X76477200Y-100027199D03*
X75977200Y-100027199D03*
X75477199Y-100027199D03*
D21*
X76227200Y-101474999D03*
%TD*%
D22*
%TO.C,SW3*%
X85040000Y-110250000D03*
X93000000Y-110250000D03*
X85040000Y-114750000D03*
X93000000Y-114750000D03*
%TD*%
D18*
%TO.C,C1*%
X72175000Y-100187500D03*
X72175000Y-102262500D03*
%TD*%
D22*
%TO.C,SW4*%
X95540000Y-119500000D03*
X103500000Y-119500000D03*
X95540000Y-124000000D03*
X103500000Y-124000000D03*
%TD*%
D17*
%TO.C,REF\u002A\u002A*%
X138500000Y-160500000D03*
%TD*%
%TO.C,REF\u002A\u002A*%
X138500000Y-53500000D03*
%TD*%
D22*
%TO.C,SW1*%
X95540000Y-101500000D03*
X103500000Y-101500000D03*
X95540000Y-106000000D03*
X103500000Y-106000000D03*
%TD*%
%TO.C,SW2*%
X105790000Y-110250000D03*
X113750000Y-110250000D03*
X105790000Y-114750000D03*
X113750000Y-114750000D03*
%TD*%
D23*
%TO.C,DISP1*%
X99500000Y-63100000D03*
D24*
X102040000Y-63100000D03*
X104580000Y-63100000D03*
X107120000Y-63100000D03*
%TD*%
D13*
%TO.C,C5*%
X78925000Y-104750000D03*
X81000000Y-104750000D03*
%TD*%
D12*
%TO.C,C4*%
X78500000Y-98287500D03*
X78500000Y-96212500D03*
%TD*%
D17*
%TO.C,REF\u002A\u002A*%
X64000000Y-160500000D03*
%TD*%
D23*
%TO.C,DAC2*%
X87530000Y-139700000D03*
D24*
X84990000Y-139700000D03*
X82450000Y-139700000D03*
X79910000Y-139700000D03*
X77370000Y-139700000D03*
X74830000Y-139700000D03*
X72290000Y-139700000D03*
X69750000Y-139700000D03*
X67210000Y-139700000D03*
%TD*%
D23*
%TO.C,RPIZ2W1*%
X129040000Y-56860000D03*
D24*
X131580000Y-56860000D03*
X129040000Y-59400000D03*
X131580000Y-59400000D03*
X129040000Y-61940000D03*
X131580000Y-61940000D03*
X129040000Y-64480000D03*
X131580000Y-64480000D03*
X129040000Y-67020000D03*
X131580000Y-67020000D03*
X129040000Y-69560000D03*
X131580000Y-69560000D03*
X129040000Y-72100000D03*
X131580000Y-72100000D03*
X129040000Y-74640000D03*
X131580000Y-74640000D03*
X129040000Y-77180000D03*
X131580000Y-77180000D03*
X129040000Y-79720000D03*
X131580000Y-79720000D03*
X129040000Y-82260000D03*
X131580000Y-82260000D03*
X129040000Y-84800000D03*
X131580000Y-84800000D03*
X129040000Y-87340000D03*
X131580000Y-87340000D03*
X129040000Y-89880000D03*
X131580000Y-89880000D03*
X129040000Y-92420000D03*
X131580000Y-92420000D03*
X129040000Y-94960000D03*
X131580000Y-94960000D03*
X129040000Y-97500000D03*
X131580000Y-97500000D03*
X129040000Y-100040000D03*
X131580000Y-100040000D03*
X129040000Y-102580000D03*
X131580000Y-102580000D03*
X129040000Y-105120000D03*
X131580000Y-105120000D03*
%TD*%
D23*
%TO.C,DAC1*%
X96500000Y-156040000D03*
D24*
X96500000Y-153500000D03*
X96500000Y-150960000D03*
X96500000Y-148420000D03*
X96500000Y-145880000D03*
X96500000Y-143340000D03*
%TD*%
M02*
