M48
; DRILL file KiCad 10.0.6 date 2026-10-08T12:58:07
; FORMAT={-:-/ absolute / metric / decimal}
; #@! TF.CreationDate,2026-10-08T12:58:07+11:00
; #@! TF.GenerationSoftware,Kicad,Pcbnew,10.0.6
; #@! TF.FileFunction,Plated,1,2,PTH
FMAT,2
METRIC
; #@! TA.AperFunction,Plated,PTH,ViaDrill
T1C0.300
; #@! TA.AperFunction,Plated,PTH,ComponentDrill
T2C1.000
%
G90
G05
T1
X65.75Y-96.25
X68.5Y-98.5
X69.5Y-115.25
X74.25Y-105.75
X74.75Y-67.0
X75.5Y-107.0
X75.977Y-98.227
X76.5Y-104.0
X79.75Y-97.5
X83.0Y-105.75
X101.5Y-75.5
X119.0Y-93.25
X121.75Y-80.75
X123.75Y-81.0
X128.0Y-131.0
X135.75Y-65.75
T2
X67.21Y-139.7
X69.75Y-139.7
X72.29Y-139.7
X74.83Y-139.7
X77.37Y-139.7
X79.91Y-139.7
X82.45Y-139.7
X84.99Y-139.7
X87.53Y-139.7
X96.5Y-143.34
X96.5Y-145.88
X96.5Y-148.42
X96.5Y-150.96
X96.5Y-153.5
X96.5Y-156.04
X99.5Y-63.1
X102.04Y-63.1
X104.58Y-63.1
X107.12Y-63.1
X129.04Y-56.86
X129.04Y-59.4
X129.04Y-61.94
X129.04Y-64.48
X129.04Y-67.02
X129.04Y-69.56
X129.04Y-72.1
X129.04Y-74.64
X129.04Y-77.18
X129.04Y-79.72
X129.04Y-82.26
X129.04Y-84.8
X129.04Y-87.34
X129.04Y-89.88
X129.04Y-92.42
X129.04Y-94.96
X129.04Y-97.5
X129.04Y-100.04
X129.04Y-102.58
X129.04Y-105.12
X131.58Y-56.86
X131.58Y-59.4
X131.58Y-61.94
X131.58Y-64.48
X131.58Y-67.02
X131.58Y-69.56
X131.58Y-72.1
X131.58Y-74.64
X131.58Y-77.18
X131.58Y-79.72
X131.58Y-82.26
X131.58Y-84.8
X131.58Y-87.34
X131.58Y-89.88
X131.58Y-92.42
X131.58Y-94.96
X131.58Y-97.5
X131.58Y-100.04
X131.58Y-102.58
X131.58Y-105.12
T2
G00X64.5Y-83.5
M15
G01X64.5Y-84.5
M16
G05
G00X67.5Y-88.5
M15
G01X68.5Y-88.5
M16
G05
G00X72.3Y-79.0
M15
G01X73.3Y-79.0
M16
G05
M30
