%TF.GenerationSoftware,KiCad,Pcbnew,10.0.6*%
%TF.CreationDate,2026-10-05T21:21:00+11:00*%
%TF.ProjectId,aucboard,61756362-6f61-4726-942e-6b696361645f,rev?*%
%TF.SameCoordinates,Original*%
%TF.FileFunction,Legend,Top*%
%TF.FilePolarity,Positive*%
%FSLAX46Y46*%
G04 Gerber Fmt 4.6, Leading zero omitted, Abs format (unit mm)*
G04 Created by KiCad (PCBNEW 10.0.6) date 2026-10-05 21:21:00*
%MOMM*%
%LPD*%
G01*
G04 APERTURE LIST*
%ADD10C,0.000000*%
%ADD11C,0.300000*%
%ADD12C,0.150000*%
%ADD13C,0.120000*%
G04 APERTURE END LIST*
D10*
G36*
X71381890Y-57321773D02*
G01*
X71652449Y-57806782D01*
X71623246Y-57909170D01*
X71138173Y-58179717D01*
X71035846Y-58150459D01*
X70765296Y-57665454D01*
X70794499Y-57563062D01*
X71279564Y-57292514D01*
X71381890Y-57321773D01*
G37*
G36*
X76961002Y-57809215D02*
G01*
X76992695Y-57911610D01*
X76739244Y-58403986D01*
X76636853Y-58435610D01*
X76142052Y-58182159D01*
X76110414Y-58079767D01*
X76366304Y-57587460D01*
X76468693Y-57553327D01*
X76961002Y-57809215D01*
G37*
G36*
X74145867Y-56142114D02*
G01*
X74177560Y-56173743D01*
X74114162Y-59147242D01*
X73263584Y-59841714D01*
X72473832Y-59354392D01*
X73236748Y-58779100D01*
X73809553Y-58825899D01*
X73512165Y-56176176D01*
X73543865Y-56142046D01*
X74145867Y-56142114D01*
G37*
G36*
X74616269Y-52247200D02*
G01*
X74903923Y-52722476D01*
X74877087Y-52827307D01*
X74877087Y-52827238D01*
X74401816Y-53112449D01*
X74296995Y-53088059D01*
X74011839Y-52610353D01*
X74038670Y-52507959D01*
X74513936Y-52220378D01*
X74616269Y-52247200D01*
G37*
G36*
X73500000Y-53500000D02*
G01*
X73568201Y-53648688D01*
X72666391Y-55808163D01*
X72300805Y-56290738D01*
X71374596Y-56129879D01*
X71996122Y-55347488D01*
X72437265Y-55627775D01*
X73061231Y-53985006D01*
X71508683Y-53487764D01*
X71009012Y-55257328D01*
X70580038Y-55969022D01*
X70026772Y-54928250D01*
X70709197Y-55152501D01*
X71272265Y-52915027D01*
X71413599Y-52837043D01*
X73500000Y-53500000D01*
G37*
G36*
X77670326Y-53085625D02*
G01*
X78162875Y-55264625D01*
X78123571Y-55727734D01*
X77090223Y-56008020D01*
X77363217Y-55140332D01*
X77772653Y-55133033D01*
X77545967Y-54019133D01*
X75778903Y-54811253D01*
X76088450Y-55959285D01*
X75893459Y-56629550D01*
X74947784Y-56510128D01*
X75705773Y-55757003D01*
X75266533Y-54233658D01*
X75622908Y-54233658D01*
X75703345Y-54528540D01*
X77482632Y-53724246D01*
X77407074Y-53387869D01*
X75622908Y-54233658D01*
X75266533Y-54233658D01*
X75252466Y-54184861D01*
X75315801Y-54045966D01*
X77506972Y-53007626D01*
X77670326Y-53085625D01*
G37*
D11*
X114045582Y-142800828D02*
X114233082Y-141300828D01*
X114233082Y-141300828D02*
X114599153Y-142372257D01*
X114599153Y-142372257D02*
X115233082Y-141300828D01*
X115233082Y-141300828D02*
X115045582Y-142800828D01*
X116402725Y-142800828D02*
X116500939Y-142015114D01*
X116500939Y-142015114D02*
X116447368Y-141872257D01*
X116447368Y-141872257D02*
X116313439Y-141800828D01*
X116313439Y-141800828D02*
X116027725Y-141800828D01*
X116027725Y-141800828D02*
X115875939Y-141872257D01*
X116411654Y-142729400D02*
X116259868Y-142800828D01*
X116259868Y-142800828D02*
X115902725Y-142800828D01*
X115902725Y-142800828D02*
X115768796Y-142729400D01*
X115768796Y-142729400D02*
X115715225Y-142586542D01*
X115715225Y-142586542D02*
X115733082Y-142443685D01*
X115733082Y-142443685D02*
X115822368Y-142300828D01*
X115822368Y-142300828D02*
X115974154Y-142229400D01*
X115974154Y-142229400D02*
X116331296Y-142229400D01*
X116331296Y-142229400D02*
X116483082Y-142157971D01*
X117759868Y-142800828D02*
X117947368Y-141300828D01*
X117768797Y-142729400D02*
X117617011Y-142800828D01*
X117617011Y-142800828D02*
X117331297Y-142800828D01*
X117331297Y-142800828D02*
X117197368Y-142729400D01*
X117197368Y-142729400D02*
X117134868Y-142657971D01*
X117134868Y-142657971D02*
X117081297Y-142515114D01*
X117081297Y-142515114D02*
X117134868Y-142086542D01*
X117134868Y-142086542D02*
X117224154Y-141943685D01*
X117224154Y-141943685D02*
X117304511Y-141872257D01*
X117304511Y-141872257D02*
X117456297Y-141800828D01*
X117456297Y-141800828D02*
X117742011Y-141800828D01*
X117742011Y-141800828D02*
X117875939Y-141872257D01*
X119054511Y-142729400D02*
X118902725Y-142800828D01*
X118902725Y-142800828D02*
X118617011Y-142800828D01*
X118617011Y-142800828D02*
X118483082Y-142729400D01*
X118483082Y-142729400D02*
X118429511Y-142586542D01*
X118429511Y-142586542D02*
X118500940Y-142015114D01*
X118500940Y-142015114D02*
X118590225Y-141872257D01*
X118590225Y-141872257D02*
X118742011Y-141800828D01*
X118742011Y-141800828D02*
X119027725Y-141800828D01*
X119027725Y-141800828D02*
X119161654Y-141872257D01*
X119161654Y-141872257D02*
X119215225Y-142015114D01*
X119215225Y-142015114D02*
X119197368Y-142157971D01*
X119197368Y-142157971D02*
X118465225Y-142300828D01*
X120884868Y-141800828D02*
X121045582Y-142800828D01*
X121045582Y-142800828D02*
X121420582Y-142086542D01*
X121420582Y-142086542D02*
X121617011Y-142800828D01*
X121617011Y-142800828D02*
X122027725Y-141800828D01*
X122474154Y-142800828D02*
X122599154Y-141800828D01*
X122661654Y-141300828D02*
X122581297Y-141372257D01*
X122581297Y-141372257D02*
X122643797Y-141443685D01*
X122643797Y-141443685D02*
X122724154Y-141372257D01*
X122724154Y-141372257D02*
X122661654Y-141300828D01*
X122661654Y-141300828D02*
X122643797Y-141443685D01*
X123099154Y-141800828D02*
X123670583Y-141800828D01*
X123375940Y-141300828D02*
X123215226Y-142586542D01*
X123215226Y-142586542D02*
X123268797Y-142729400D01*
X123268797Y-142729400D02*
X123402726Y-142800828D01*
X123402726Y-142800828D02*
X123545583Y-142800828D01*
X124045583Y-142800828D02*
X124233083Y-141300828D01*
X124688440Y-142800828D02*
X124786654Y-142015114D01*
X124786654Y-142015114D02*
X124733083Y-141872257D01*
X124733083Y-141872257D02*
X124599154Y-141800828D01*
X124599154Y-141800828D02*
X124384869Y-141800828D01*
X124384869Y-141800828D02*
X124233083Y-141872257D01*
X124233083Y-141872257D02*
X124152726Y-141943685D01*
X127813440Y-141800828D02*
X126617011Y-142229400D01*
X126617011Y-142229400D02*
X127706297Y-142657971D01*
X128447369Y-141300828D02*
X129375940Y-141300828D01*
X129375940Y-141300828D02*
X128804512Y-141872257D01*
X128804512Y-141872257D02*
X129018797Y-141872257D01*
X129018797Y-141872257D02*
X129152726Y-141943685D01*
X129152726Y-141943685D02*
X129215226Y-142015114D01*
X129215226Y-142015114D02*
X129268797Y-142157971D01*
X129268797Y-142157971D02*
X129224154Y-142515114D01*
X129224154Y-142515114D02*
X129134869Y-142657971D01*
X129134869Y-142657971D02*
X129054512Y-142729400D01*
X129054512Y-142729400D02*
X128902726Y-142800828D01*
X128902726Y-142800828D02*
X128474154Y-142800828D01*
X128474154Y-142800828D02*
X128340226Y-142729400D01*
X128340226Y-142729400D02*
X128277726Y-142657971D01*
X130974154Y-142800828D02*
X131161654Y-141300828D01*
X131090225Y-141872257D02*
X131242011Y-141800828D01*
X131242011Y-141800828D02*
X131527725Y-141800828D01*
X131527725Y-141800828D02*
X131661654Y-141872257D01*
X131661654Y-141872257D02*
X131724154Y-141943685D01*
X131724154Y-141943685D02*
X131777725Y-142086542D01*
X131777725Y-142086542D02*
X131724154Y-142515114D01*
X131724154Y-142515114D02*
X131634868Y-142657971D01*
X131634868Y-142657971D02*
X131554511Y-142729400D01*
X131554511Y-142729400D02*
X131402725Y-142800828D01*
X131402725Y-142800828D02*
X131117011Y-142800828D01*
X131117011Y-142800828D02*
X130983082Y-142729400D01*
X132313440Y-141800828D02*
X132545583Y-142800828D01*
X133027725Y-141800828D02*
X132545583Y-142800828D01*
X132545583Y-142800828D02*
X132358083Y-143157971D01*
X132358083Y-143157971D02*
X132277725Y-143229400D01*
X132277725Y-143229400D02*
X132125940Y-143300828D01*
X134715225Y-142015114D02*
X135215225Y-142015114D01*
X135331297Y-142800828D02*
X134617011Y-142800828D01*
X134617011Y-142800828D02*
X134804511Y-141300828D01*
X134804511Y-141300828D02*
X135518797Y-141300828D01*
X135974154Y-142800828D02*
X136099154Y-141800828D01*
X136063440Y-142086542D02*
X136152725Y-141943685D01*
X136152725Y-141943685D02*
X136233082Y-141872257D01*
X136233082Y-141872257D02*
X136384868Y-141800828D01*
X136384868Y-141800828D02*
X136527725Y-141800828D01*
X136902725Y-142800828D02*
X137027725Y-141800828D01*
X137090225Y-141300828D02*
X137009868Y-141372257D01*
X137009868Y-141372257D02*
X137072368Y-141443685D01*
X137072368Y-141443685D02*
X137152725Y-141372257D01*
X137152725Y-141372257D02*
X137090225Y-141300828D01*
X137090225Y-141300828D02*
X137072368Y-141443685D01*
X138268797Y-142729400D02*
X138117011Y-142800828D01*
X138117011Y-142800828D02*
X137831297Y-142800828D01*
X137831297Y-142800828D02*
X137697368Y-142729400D01*
X137697368Y-142729400D02*
X137634868Y-142657971D01*
X137634868Y-142657971D02*
X137581297Y-142515114D01*
X137581297Y-142515114D02*
X137634868Y-142086542D01*
X137634868Y-142086542D02*
X137724154Y-141943685D01*
X137724154Y-141943685D02*
X137804511Y-141872257D01*
X137804511Y-141872257D02*
X137956297Y-141800828D01*
X137956297Y-141800828D02*
X138242011Y-141800828D01*
X138242011Y-141800828D02*
X138375939Y-141872257D01*
X112983082Y-145372257D02*
X113697368Y-145372257D01*
X112840225Y-145800828D02*
X113340225Y-144300828D01*
X113340225Y-144300828D02*
X113840225Y-145800828D01*
X114983082Y-144800828D02*
X114983082Y-145800828D01*
X114340224Y-144800828D02*
X114340224Y-145586542D01*
X114340224Y-145586542D02*
X114411653Y-145729400D01*
X114411653Y-145729400D02*
X114554510Y-145800828D01*
X114554510Y-145800828D02*
X114768796Y-145800828D01*
X114768796Y-145800828D02*
X114911653Y-145729400D01*
X114911653Y-145729400D02*
X114983082Y-145657971D01*
X116340225Y-145729400D02*
X116197367Y-145800828D01*
X116197367Y-145800828D02*
X115911653Y-145800828D01*
X115911653Y-145800828D02*
X115768796Y-145729400D01*
X115768796Y-145729400D02*
X115697367Y-145657971D01*
X115697367Y-145657971D02*
X115625939Y-145515114D01*
X115625939Y-145515114D02*
X115625939Y-145086542D01*
X115625939Y-145086542D02*
X115697367Y-144943685D01*
X115697367Y-144943685D02*
X115768796Y-144872257D01*
X115768796Y-144872257D02*
X115911653Y-144800828D01*
X115911653Y-144800828D02*
X116197367Y-144800828D01*
X116197367Y-144800828D02*
X116340225Y-144872257D01*
X116983081Y-145800828D02*
X116983081Y-144300828D01*
X116983081Y-144872257D02*
X117125939Y-144800828D01*
X117125939Y-144800828D02*
X117411653Y-144800828D01*
X117411653Y-144800828D02*
X117554510Y-144872257D01*
X117554510Y-144872257D02*
X117625939Y-144943685D01*
X117625939Y-144943685D02*
X117697367Y-145086542D01*
X117697367Y-145086542D02*
X117697367Y-145515114D01*
X117697367Y-145515114D02*
X117625939Y-145657971D01*
X117625939Y-145657971D02*
X117554510Y-145729400D01*
X117554510Y-145729400D02*
X117411653Y-145800828D01*
X117411653Y-145800828D02*
X117125939Y-145800828D01*
X117125939Y-145800828D02*
X116983081Y-145729400D01*
X118554510Y-145800828D02*
X118411653Y-145729400D01*
X118411653Y-145729400D02*
X118340224Y-145657971D01*
X118340224Y-145657971D02*
X118268796Y-145515114D01*
X118268796Y-145515114D02*
X118268796Y-145086542D01*
X118268796Y-145086542D02*
X118340224Y-144943685D01*
X118340224Y-144943685D02*
X118411653Y-144872257D01*
X118411653Y-144872257D02*
X118554510Y-144800828D01*
X118554510Y-144800828D02*
X118768796Y-144800828D01*
X118768796Y-144800828D02*
X118911653Y-144872257D01*
X118911653Y-144872257D02*
X118983082Y-144943685D01*
X118983082Y-144943685D02*
X119054510Y-145086542D01*
X119054510Y-145086542D02*
X119054510Y-145515114D01*
X119054510Y-145515114D02*
X118983082Y-145657971D01*
X118983082Y-145657971D02*
X118911653Y-145729400D01*
X118911653Y-145729400D02*
X118768796Y-145800828D01*
X118768796Y-145800828D02*
X118554510Y-145800828D01*
X120340225Y-145800828D02*
X120340225Y-145015114D01*
X120340225Y-145015114D02*
X120268796Y-144872257D01*
X120268796Y-144872257D02*
X120125939Y-144800828D01*
X120125939Y-144800828D02*
X119840225Y-144800828D01*
X119840225Y-144800828D02*
X119697367Y-144872257D01*
X120340225Y-145729400D02*
X120197367Y-145800828D01*
X120197367Y-145800828D02*
X119840225Y-145800828D01*
X119840225Y-145800828D02*
X119697367Y-145729400D01*
X119697367Y-145729400D02*
X119625939Y-145586542D01*
X119625939Y-145586542D02*
X119625939Y-145443685D01*
X119625939Y-145443685D02*
X119697367Y-145300828D01*
X119697367Y-145300828D02*
X119840225Y-145229400D01*
X119840225Y-145229400D02*
X120197367Y-145229400D01*
X120197367Y-145229400D02*
X120340225Y-145157971D01*
X121054510Y-145800828D02*
X121054510Y-144800828D01*
X121054510Y-145086542D02*
X121125939Y-144943685D01*
X121125939Y-144943685D02*
X121197368Y-144872257D01*
X121197368Y-144872257D02*
X121340225Y-144800828D01*
X121340225Y-144800828D02*
X121483082Y-144800828D01*
X122625939Y-145800828D02*
X122625939Y-144300828D01*
X122625939Y-145729400D02*
X122483081Y-145800828D01*
X122483081Y-145800828D02*
X122197367Y-145800828D01*
X122197367Y-145800828D02*
X122054510Y-145729400D01*
X122054510Y-145729400D02*
X121983081Y-145657971D01*
X121983081Y-145657971D02*
X121911653Y-145515114D01*
X121911653Y-145515114D02*
X121911653Y-145086542D01*
X121911653Y-145086542D02*
X121983081Y-144943685D01*
X121983081Y-144943685D02*
X122054510Y-144872257D01*
X122054510Y-144872257D02*
X122197367Y-144800828D01*
X122197367Y-144800828D02*
X122483081Y-144800828D01*
X122483081Y-144800828D02*
X122625939Y-144872257D01*
X125911653Y-145800828D02*
X125411653Y-145086542D01*
X125054510Y-145800828D02*
X125054510Y-144300828D01*
X125054510Y-144300828D02*
X125625939Y-144300828D01*
X125625939Y-144300828D02*
X125768796Y-144372257D01*
X125768796Y-144372257D02*
X125840225Y-144443685D01*
X125840225Y-144443685D02*
X125911653Y-144586542D01*
X125911653Y-144586542D02*
X125911653Y-144800828D01*
X125911653Y-144800828D02*
X125840225Y-144943685D01*
X125840225Y-144943685D02*
X125768796Y-145015114D01*
X125768796Y-145015114D02*
X125625939Y-145086542D01*
X125625939Y-145086542D02*
X125054510Y-145086542D01*
X127125939Y-145729400D02*
X126983082Y-145800828D01*
X126983082Y-145800828D02*
X126697368Y-145800828D01*
X126697368Y-145800828D02*
X126554510Y-145729400D01*
X126554510Y-145729400D02*
X126483082Y-145586542D01*
X126483082Y-145586542D02*
X126483082Y-145015114D01*
X126483082Y-145015114D02*
X126554510Y-144872257D01*
X126554510Y-144872257D02*
X126697368Y-144800828D01*
X126697368Y-144800828D02*
X126983082Y-144800828D01*
X126983082Y-144800828D02*
X127125939Y-144872257D01*
X127125939Y-144872257D02*
X127197368Y-145015114D01*
X127197368Y-145015114D02*
X127197368Y-145157971D01*
X127197368Y-145157971D02*
X126483082Y-145300828D01*
X127697367Y-144800828D02*
X128054510Y-145800828D01*
X128054510Y-145800828D02*
X128411653Y-144800828D01*
X128983081Y-145800828D02*
X128983081Y-144800828D01*
X128983081Y-144300828D02*
X128911653Y-144372257D01*
X128911653Y-144372257D02*
X128983081Y-144443685D01*
X128983081Y-144443685D02*
X129054510Y-144372257D01*
X129054510Y-144372257D02*
X128983081Y-144300828D01*
X128983081Y-144300828D02*
X128983081Y-144443685D01*
X129625939Y-145729400D02*
X129768796Y-145800828D01*
X129768796Y-145800828D02*
X130054510Y-145800828D01*
X130054510Y-145800828D02*
X130197367Y-145729400D01*
X130197367Y-145729400D02*
X130268796Y-145586542D01*
X130268796Y-145586542D02*
X130268796Y-145515114D01*
X130268796Y-145515114D02*
X130197367Y-145372257D01*
X130197367Y-145372257D02*
X130054510Y-145300828D01*
X130054510Y-145300828D02*
X129840225Y-145300828D01*
X129840225Y-145300828D02*
X129697367Y-145229400D01*
X129697367Y-145229400D02*
X129625939Y-145086542D01*
X129625939Y-145086542D02*
X129625939Y-145015114D01*
X129625939Y-145015114D02*
X129697367Y-144872257D01*
X129697367Y-144872257D02*
X129840225Y-144800828D01*
X129840225Y-144800828D02*
X130054510Y-144800828D01*
X130054510Y-144800828D02*
X130197367Y-144872257D01*
X130911653Y-145800828D02*
X130911653Y-144800828D01*
X130911653Y-144300828D02*
X130840225Y-144372257D01*
X130840225Y-144372257D02*
X130911653Y-144443685D01*
X130911653Y-144443685D02*
X130983082Y-144372257D01*
X130983082Y-144372257D02*
X130911653Y-144300828D01*
X130911653Y-144300828D02*
X130911653Y-144443685D01*
X131840225Y-145800828D02*
X131697368Y-145729400D01*
X131697368Y-145729400D02*
X131625939Y-145657971D01*
X131625939Y-145657971D02*
X131554511Y-145515114D01*
X131554511Y-145515114D02*
X131554511Y-145086542D01*
X131554511Y-145086542D02*
X131625939Y-144943685D01*
X131625939Y-144943685D02*
X131697368Y-144872257D01*
X131697368Y-144872257D02*
X131840225Y-144800828D01*
X131840225Y-144800828D02*
X132054511Y-144800828D01*
X132054511Y-144800828D02*
X132197368Y-144872257D01*
X132197368Y-144872257D02*
X132268797Y-144943685D01*
X132268797Y-144943685D02*
X132340225Y-145086542D01*
X132340225Y-145086542D02*
X132340225Y-145515114D01*
X132340225Y-145515114D02*
X132268797Y-145657971D01*
X132268797Y-145657971D02*
X132197368Y-145729400D01*
X132197368Y-145729400D02*
X132054511Y-145800828D01*
X132054511Y-145800828D02*
X131840225Y-145800828D01*
X132983082Y-144800828D02*
X132983082Y-145800828D01*
X132983082Y-144943685D02*
X133054511Y-144872257D01*
X133054511Y-144872257D02*
X133197368Y-144800828D01*
X133197368Y-144800828D02*
X133411654Y-144800828D01*
X133411654Y-144800828D02*
X133554511Y-144872257D01*
X133554511Y-144872257D02*
X133625940Y-145015114D01*
X133625940Y-145015114D02*
X133625940Y-145800828D01*
X136268797Y-145800828D02*
X135411654Y-145800828D01*
X135840225Y-145800828D02*
X135840225Y-144300828D01*
X135840225Y-144300828D02*
X135697368Y-144515114D01*
X135697368Y-144515114D02*
X135554511Y-144657971D01*
X135554511Y-144657971D02*
X135411654Y-144729400D01*
X136911653Y-145657971D02*
X136983082Y-145729400D01*
X136983082Y-145729400D02*
X136911653Y-145800828D01*
X136911653Y-145800828D02*
X136840225Y-145729400D01*
X136840225Y-145729400D02*
X136911653Y-145657971D01*
X136911653Y-145657971D02*
X136911653Y-145800828D01*
X137911654Y-144300828D02*
X138054511Y-144300828D01*
X138054511Y-144300828D02*
X138197368Y-144372257D01*
X138197368Y-144372257D02*
X138268797Y-144443685D01*
X138268797Y-144443685D02*
X138340225Y-144586542D01*
X138340225Y-144586542D02*
X138411654Y-144872257D01*
X138411654Y-144872257D02*
X138411654Y-145229400D01*
X138411654Y-145229400D02*
X138340225Y-145515114D01*
X138340225Y-145515114D02*
X138268797Y-145657971D01*
X138268797Y-145657971D02*
X138197368Y-145729400D01*
X138197368Y-145729400D02*
X138054511Y-145800828D01*
X138054511Y-145800828D02*
X137911654Y-145800828D01*
X137911654Y-145800828D02*
X137768797Y-145729400D01*
X137768797Y-145729400D02*
X137697368Y-145657971D01*
X137697368Y-145657971D02*
X137625939Y-145515114D01*
X137625939Y-145515114D02*
X137554511Y-145229400D01*
X137554511Y-145229400D02*
X137554511Y-144872257D01*
X137554511Y-144872257D02*
X137625939Y-144586542D01*
X137625939Y-144586542D02*
X137697368Y-144443685D01*
X137697368Y-144443685D02*
X137768797Y-144372257D01*
X137768797Y-144372257D02*
X137911654Y-144300828D01*
D10*
G36*
X130500000Y-138200000D02*
G01*
X129300000Y-138200000D01*
X129300000Y-137000000D01*
X130500000Y-137000000D01*
X130500000Y-138200000D01*
G37*
G36*
X131300000Y-136600000D02*
G01*
X131300000Y-138600000D01*
X131300000Y-139000000D01*
X128500000Y-139000000D01*
X128500000Y-138600000D01*
X128900000Y-138600000D01*
X130900000Y-138600000D01*
X130900000Y-136600000D01*
X128900000Y-136600000D01*
X128900000Y-138600000D01*
X128500000Y-138600000D01*
X128500000Y-136600000D01*
X128500000Y-136200000D01*
X131300000Y-136200000D01*
X131300000Y-136600000D01*
G37*
G36*
X132900000Y-138200000D02*
G01*
X132500000Y-138200000D01*
X132500000Y-138600000D01*
X132100000Y-138600000D01*
X132100000Y-139000000D01*
X131700000Y-139000000D01*
X131700000Y-138600000D01*
X131700000Y-138200000D01*
X132100000Y-138200000D01*
X132100000Y-137800000D01*
X132900000Y-137800000D01*
X132900000Y-138200000D01*
G37*
G36*
X133300000Y-139000000D02*
G01*
X132500000Y-139000000D01*
X132500000Y-138600000D01*
X133300000Y-138600000D01*
X133300000Y-139000000D01*
G37*
G36*
X134500000Y-137800000D02*
G01*
X134500000Y-138200000D01*
X134900000Y-138200000D01*
X134900000Y-137800000D01*
X135700000Y-137800000D01*
X135700000Y-138200000D01*
X135700000Y-138600000D01*
X135300000Y-138600000D01*
X135300000Y-139000000D01*
X134100000Y-139000000D01*
X134100000Y-138600000D01*
X133700000Y-138600000D01*
X133700000Y-138200000D01*
X133300000Y-138200000D01*
X133300000Y-137800000D01*
X133700000Y-137800000D01*
X133700000Y-137400000D01*
X134500000Y-137400000D01*
X134500000Y-137800000D01*
G37*
G36*
X137300000Y-139000000D02*
G01*
X136500000Y-139000000D01*
X136500000Y-138600000D01*
X137300000Y-138600000D01*
X137300000Y-139000000D01*
G37*
G36*
X138500000Y-139000000D02*
G01*
X137700000Y-139000000D01*
X137700000Y-138600000D01*
X138500000Y-138600000D01*
X138500000Y-139000000D01*
G37*
G36*
X136500000Y-138600000D02*
G01*
X136100000Y-138600000D01*
X136100000Y-138200000D01*
X136500000Y-138200000D01*
X136500000Y-138600000D01*
G37*
G36*
X136100000Y-136600000D02*
G01*
X135700000Y-136600000D01*
X135700000Y-136200000D01*
X136100000Y-136200000D01*
X136100000Y-136600000D01*
G37*
G36*
X134500000Y-135800000D02*
G01*
X134900000Y-135800000D01*
X134900000Y-135400000D01*
X136900000Y-135400000D01*
X136900000Y-135800000D01*
X136900000Y-136200000D01*
X137300000Y-136200000D01*
X137300000Y-136600000D01*
X136900000Y-136600000D01*
X136900000Y-137000000D01*
X136900000Y-137400000D01*
X137300000Y-137400000D01*
X137300000Y-137800000D01*
X137300000Y-138200000D01*
X136500000Y-138200000D01*
X136500000Y-137800000D01*
X136100000Y-137800000D01*
X136100000Y-137400000D01*
X134900000Y-137400000D01*
X134900000Y-137000000D01*
X134900000Y-136600000D01*
X134100000Y-136600000D01*
X134100000Y-136200000D01*
X135300000Y-136200000D01*
X135300000Y-136600000D01*
X135300000Y-137000000D01*
X136500000Y-137000000D01*
X136500000Y-136600000D01*
X136500000Y-136200000D01*
X136500000Y-135800000D01*
X135300000Y-135800000D01*
X135300000Y-136200000D01*
X134100000Y-136200000D01*
X133700000Y-136200000D01*
X133700000Y-135800000D01*
X134100000Y-135800000D01*
X134100000Y-135400000D01*
X134500000Y-135400000D01*
X134500000Y-135800000D01*
G37*
G36*
X138500000Y-138200000D02*
G01*
X138100000Y-138200000D01*
X138100000Y-137800000D01*
X138500000Y-137800000D01*
X138500000Y-138200000D01*
G37*
G36*
X132100000Y-137800000D02*
G01*
X131700000Y-137800000D01*
X131700000Y-137400000D01*
X132100000Y-137400000D01*
X132100000Y-137800000D01*
G37*
G36*
X133300000Y-137000000D02*
G01*
X133700000Y-137000000D01*
X133700000Y-137400000D01*
X133300000Y-137400000D01*
X133300000Y-137800000D01*
X132900000Y-137800000D01*
X132900000Y-137400000D01*
X132100000Y-137400000D01*
X132100000Y-137000000D01*
X132900000Y-137000000D01*
X132900000Y-136600000D01*
X133300000Y-136600000D01*
X133300000Y-137000000D01*
G37*
G36*
X138500000Y-136600000D02*
G01*
X138500000Y-137000000D01*
X138500000Y-137400000D01*
X138100000Y-137400000D01*
X138100000Y-137000000D01*
X137300000Y-137000000D01*
X137300000Y-136600000D01*
X137700000Y-136600000D01*
X137700000Y-136200000D01*
X138500000Y-136200000D01*
X138500000Y-136600000D01*
G37*
G36*
X132100000Y-136600000D02*
G01*
X131700000Y-136600000D01*
X131700000Y-135800000D01*
X132100000Y-135800000D01*
X132100000Y-136600000D01*
G37*
G36*
X133700000Y-136600000D02*
G01*
X133300000Y-136600000D01*
X133300000Y-136200000D01*
X133700000Y-136200000D01*
X133700000Y-136600000D01*
G37*
G36*
X138100000Y-132600000D02*
G01*
X138500000Y-132600000D01*
X138500000Y-133000000D01*
X138500000Y-133400000D01*
X138100000Y-133400000D01*
X138100000Y-133800000D01*
X138500000Y-133800000D01*
X138500000Y-134200000D01*
X138500000Y-135000000D01*
X138100000Y-135000000D01*
X138100000Y-134200000D01*
X137700000Y-134200000D01*
X137700000Y-133800000D01*
X137700000Y-133400000D01*
X136900000Y-133400000D01*
X136900000Y-133800000D01*
X136100000Y-133800000D01*
X136100000Y-133400000D01*
X135300000Y-133400000D01*
X135300000Y-133800000D01*
X136100000Y-133800000D01*
X136100000Y-134200000D01*
X136100000Y-134600000D01*
X136100000Y-135000000D01*
X135700000Y-135000000D01*
X135700000Y-134600000D01*
X135300000Y-134600000D01*
X135300000Y-134200000D01*
X134900000Y-134200000D01*
X134900000Y-133800000D01*
X134500000Y-133800000D01*
X134500000Y-134200000D01*
X134500000Y-134600000D01*
X134100000Y-134600000D01*
X134100000Y-135000000D01*
X134100000Y-135400000D01*
X133700000Y-135400000D01*
X133700000Y-135000000D01*
X133300000Y-135000000D01*
X133300000Y-135400000D01*
X132900000Y-135400000D01*
X132900000Y-135800000D01*
X132900000Y-136200000D01*
X132500000Y-136200000D01*
X132500000Y-135800000D01*
X132100000Y-135800000D01*
X132100000Y-135400000D01*
X131700000Y-135400000D01*
X131700000Y-135000000D01*
X132500000Y-135000000D01*
X132900000Y-135000000D01*
X132900000Y-134600000D01*
X132500000Y-134600000D01*
X132500000Y-135000000D01*
X131700000Y-135000000D01*
X130900000Y-135000000D01*
X130900000Y-135400000D01*
X131300000Y-135400000D01*
X131300000Y-135800000D01*
X130100000Y-135800000D01*
X130100000Y-135400000D01*
X130500000Y-135400000D01*
X130500000Y-135000000D01*
X129700000Y-135000000D01*
X129700000Y-135400000D01*
X129300000Y-135400000D01*
X129300000Y-135800000D01*
X128500000Y-135800000D01*
X128500000Y-135400000D01*
X128900000Y-135400000D01*
X128900000Y-135000000D01*
X129300000Y-135000000D01*
X129300000Y-134600000D01*
X130100000Y-134600000D01*
X130500000Y-134600000D01*
X130500000Y-134200000D01*
X130100000Y-134200000D01*
X130100000Y-134600000D01*
X129300000Y-134600000D01*
X128900000Y-134600000D01*
X128900000Y-134200000D01*
X128900000Y-133800000D01*
X129300000Y-133800000D01*
X129300000Y-134200000D01*
X129700000Y-134200000D01*
X129700000Y-133800000D01*
X129300000Y-133800000D01*
X129300000Y-133400000D01*
X128900000Y-133400000D01*
X128900000Y-133000000D01*
X129300000Y-133000000D01*
X129300000Y-132600000D01*
X129700000Y-132600000D01*
X129700000Y-133000000D01*
X129700000Y-133400000D01*
X130500000Y-133400000D01*
X130500000Y-133800000D01*
X131300000Y-133800000D01*
X131300000Y-134200000D01*
X130900000Y-134200000D01*
X130900000Y-134600000D01*
X131300000Y-134600000D01*
X131300000Y-134200000D01*
X131700000Y-134200000D01*
X131700000Y-134600000D01*
X132500000Y-134600000D01*
X132500000Y-134200000D01*
X133300000Y-134200000D01*
X133300000Y-134600000D01*
X133700000Y-134600000D01*
X133700000Y-134200000D01*
X133300000Y-134200000D01*
X133300000Y-133800000D01*
X133700000Y-133800000D01*
X133700000Y-133400000D01*
X133300000Y-133400000D01*
X133300000Y-133000000D01*
X133700000Y-133000000D01*
X133700000Y-132600000D01*
X134100000Y-132600000D01*
X134100000Y-133000000D01*
X134100000Y-133400000D01*
X134900000Y-133400000D01*
X134900000Y-133000000D01*
X135300000Y-133000000D01*
X135300000Y-132600000D01*
X135700000Y-132600000D01*
X135700000Y-133000000D01*
X136900000Y-133000000D01*
X136900000Y-132600000D01*
X137300000Y-132600000D01*
X137300000Y-133000000D01*
X137700000Y-133000000D01*
X137700000Y-132600000D01*
X137300000Y-132600000D01*
X137300000Y-132200000D01*
X138100000Y-132200000D01*
X138100000Y-132600000D01*
G37*
G36*
X137700000Y-136200000D02*
G01*
X137300000Y-136200000D01*
X137300000Y-135400000D01*
X137700000Y-135400000D01*
X137700000Y-136200000D01*
G37*
G36*
X133700000Y-135800000D02*
G01*
X133300000Y-135800000D01*
X133300000Y-135400000D01*
X133700000Y-135400000D01*
X133700000Y-135800000D01*
G37*
G36*
X138500000Y-135800000D02*
G01*
X138100000Y-135800000D01*
X138100000Y-135400000D01*
X138500000Y-135400000D01*
X138500000Y-135800000D01*
G37*
G36*
X128900000Y-135000000D02*
G01*
X128500000Y-135000000D01*
X128500000Y-134600000D01*
X128900000Y-134600000D01*
X128900000Y-135000000D01*
G37*
G36*
X137700000Y-134600000D02*
G01*
X136900000Y-134600000D01*
X136900000Y-134200000D01*
X137700000Y-134200000D01*
X137700000Y-134600000D01*
G37*
G36*
X131700000Y-133800000D02*
G01*
X131300000Y-133800000D01*
X131300000Y-133400000D01*
X131700000Y-133400000D01*
X131700000Y-133800000D01*
G37*
G36*
X131300000Y-133400000D02*
G01*
X130900000Y-133400000D01*
X130900000Y-133000000D01*
X131300000Y-133000000D01*
X131300000Y-133400000D01*
G37*
G36*
X132900000Y-132600000D02*
G01*
X133300000Y-132600000D01*
X133300000Y-133000000D01*
X132900000Y-133000000D01*
X132900000Y-133400000D01*
X132100000Y-133400000D01*
X132100000Y-133000000D01*
X132500000Y-133000000D01*
X132500000Y-132600000D01*
X132500000Y-132200000D01*
X132900000Y-132200000D01*
X132900000Y-132600000D01*
G37*
G36*
X130900000Y-133000000D02*
G01*
X130500000Y-133000000D01*
X130500000Y-132600000D01*
X130900000Y-132600000D01*
X130900000Y-133000000D01*
G37*
G36*
X132100000Y-133000000D02*
G01*
X131700000Y-133000000D01*
X131700000Y-132600000D01*
X132100000Y-132600000D01*
X132100000Y-133000000D01*
G37*
G36*
X129300000Y-132600000D02*
G01*
X128500000Y-132600000D01*
X128500000Y-132200000D01*
X129300000Y-132200000D01*
X129300000Y-132600000D01*
G37*
G36*
X130100000Y-132600000D02*
G01*
X129700000Y-132600000D01*
X129700000Y-132200000D01*
X130100000Y-132200000D01*
X130100000Y-132600000D01*
G37*
G36*
X131700000Y-132600000D02*
G01*
X130900000Y-132600000D01*
X130900000Y-132200000D01*
X131700000Y-132200000D01*
X131700000Y-132600000D01*
G37*
G36*
X133700000Y-132600000D02*
G01*
X133300000Y-132600000D01*
X133300000Y-131400000D01*
X133700000Y-131400000D01*
X133700000Y-132600000D01*
G37*
G36*
X134500000Y-130600000D02*
G01*
X134900000Y-130600000D01*
X134900000Y-130200000D01*
X135300000Y-130200000D01*
X135300000Y-130600000D01*
X135300000Y-131000000D01*
X134900000Y-131000000D01*
X134900000Y-131400000D01*
X134500000Y-131400000D01*
X134500000Y-131800000D01*
X134900000Y-131800000D01*
X134900000Y-131400000D01*
X135300000Y-131400000D01*
X135300000Y-131800000D01*
X135300000Y-132200000D01*
X135300000Y-132600000D01*
X134900000Y-132600000D01*
X134900000Y-132200000D01*
X134500000Y-132200000D01*
X134500000Y-132600000D01*
X134100000Y-132600000D01*
X134100000Y-132200000D01*
X134100000Y-131800000D01*
X134100000Y-131400000D01*
X133700000Y-131400000D01*
X133700000Y-131000000D01*
X134100000Y-131000000D01*
X134100000Y-130600000D01*
X133700000Y-130600000D01*
X133700000Y-130200000D01*
X134500000Y-130200000D01*
X134500000Y-130600000D01*
G37*
G36*
X136900000Y-132600000D02*
G01*
X135700000Y-132600000D01*
X135700000Y-132200000D01*
X136900000Y-132200000D01*
X136900000Y-132600000D01*
G37*
G36*
X132100000Y-131000000D02*
G01*
X132500000Y-131000000D01*
X132500000Y-131400000D01*
X132100000Y-131400000D01*
X132100000Y-131800000D01*
X132500000Y-131800000D01*
X132500000Y-132200000D01*
X131700000Y-132200000D01*
X131700000Y-131800000D01*
X131700000Y-131400000D01*
X131700000Y-131000000D01*
X131700000Y-130600000D01*
X132100000Y-130600000D01*
X132100000Y-131000000D01*
G37*
G36*
X130500000Y-131000000D02*
G01*
X129300000Y-131000000D01*
X129300000Y-129800000D01*
X130500000Y-129800000D01*
X130500000Y-131000000D01*
G37*
G36*
X131300000Y-129400000D02*
G01*
X131300000Y-131400000D01*
X131300000Y-131800000D01*
X128500000Y-131800000D01*
X128500000Y-131400000D01*
X128900000Y-131400000D01*
X130900000Y-131400000D01*
X130900000Y-129400000D01*
X128900000Y-129400000D01*
X128900000Y-131400000D01*
X128500000Y-131400000D01*
X128500000Y-129400000D01*
X128500000Y-129000000D01*
X131300000Y-129000000D01*
X131300000Y-129400000D01*
G37*
G36*
X132900000Y-131800000D02*
G01*
X132500000Y-131800000D01*
X132500000Y-131400000D01*
X132900000Y-131400000D01*
X132900000Y-131800000D01*
G37*
G36*
X137700000Y-131000000D02*
G01*
X136500000Y-131000000D01*
X136500000Y-129800000D01*
X137700000Y-129800000D01*
X137700000Y-131000000D01*
G37*
G36*
X138500000Y-129400000D02*
G01*
X138500000Y-131400000D01*
X138500000Y-131800000D01*
X135700000Y-131800000D01*
X135700000Y-131400000D01*
X136100000Y-131400000D01*
X138100000Y-131400000D01*
X138100000Y-129400000D01*
X136100000Y-129400000D01*
X136100000Y-131400000D01*
X135700000Y-131400000D01*
X135700000Y-129400000D01*
X135700000Y-129000000D01*
X138500000Y-129000000D01*
X138500000Y-129400000D01*
G37*
G36*
X133300000Y-131400000D02*
G01*
X132900000Y-131400000D01*
X132900000Y-131000000D01*
X133300000Y-131000000D01*
X133300000Y-131400000D01*
G37*
G36*
X133700000Y-129400000D02*
G01*
X133700000Y-129800000D01*
X133700000Y-130200000D01*
X133300000Y-130200000D01*
X133300000Y-130600000D01*
X132100000Y-130600000D01*
X132100000Y-130200000D01*
X131700000Y-130200000D01*
X131700000Y-129800000D01*
X131700000Y-129400000D01*
X132100000Y-129400000D01*
X132100000Y-129800000D01*
X132900000Y-129800000D01*
X132900000Y-129400000D01*
X133300000Y-129400000D01*
X133300000Y-129000000D01*
X133700000Y-129000000D01*
X133700000Y-129400000D01*
G37*
G36*
X135300000Y-129400000D02*
G01*
X135300000Y-129800000D01*
X134500000Y-129800000D01*
X134500000Y-129400000D01*
X134100000Y-129400000D01*
X134100000Y-129000000D01*
X135300000Y-129000000D01*
X135300000Y-129400000D01*
G37*
G36*
X132500000Y-129400000D02*
G01*
X132100000Y-129400000D01*
X132100000Y-129000000D01*
X132500000Y-129000000D01*
X132500000Y-129400000D01*
G37*
D12*
X75154819Y-141366666D02*
X74154819Y-141366666D01*
X74154819Y-141366666D02*
X74154819Y-141128571D01*
X74154819Y-141128571D02*
X74202438Y-140985714D01*
X74202438Y-140985714D02*
X74297676Y-140890476D01*
X74297676Y-140890476D02*
X74392914Y-140842857D01*
X74392914Y-140842857D02*
X74583390Y-140795238D01*
X74583390Y-140795238D02*
X74726247Y-140795238D01*
X74726247Y-140795238D02*
X74916723Y-140842857D01*
X74916723Y-140842857D02*
X75011961Y-140890476D01*
X75011961Y-140890476D02*
X75107200Y-140985714D01*
X75107200Y-140985714D02*
X75154819Y-141128571D01*
X75154819Y-141128571D02*
X75154819Y-141366666D01*
X74869104Y-140414285D02*
X74869104Y-139938095D01*
X75154819Y-140509523D02*
X74154819Y-140176190D01*
X74154819Y-140176190D02*
X75154819Y-139842857D01*
X75059580Y-138938095D02*
X75107200Y-138985714D01*
X75107200Y-138985714D02*
X75154819Y-139128571D01*
X75154819Y-139128571D02*
X75154819Y-139223809D01*
X75154819Y-139223809D02*
X75107200Y-139366666D01*
X75107200Y-139366666D02*
X75011961Y-139461904D01*
X75011961Y-139461904D02*
X74916723Y-139509523D01*
X74916723Y-139509523D02*
X74726247Y-139557142D01*
X74726247Y-139557142D02*
X74583390Y-139557142D01*
X74583390Y-139557142D02*
X74392914Y-139509523D01*
X74392914Y-139509523D02*
X74297676Y-139461904D01*
X74297676Y-139461904D02*
X74202438Y-139366666D01*
X74202438Y-139366666D02*
X74154819Y-139223809D01*
X74154819Y-139223809D02*
X74154819Y-139128571D01*
X74154819Y-139128571D02*
X74202438Y-138985714D01*
X74202438Y-138985714D02*
X74250057Y-138938095D01*
X74250057Y-138557142D02*
X74202438Y-138509523D01*
X74202438Y-138509523D02*
X74154819Y-138414285D01*
X74154819Y-138414285D02*
X74154819Y-138176190D01*
X74154819Y-138176190D02*
X74202438Y-138080952D01*
X74202438Y-138080952D02*
X74250057Y-138033333D01*
X74250057Y-138033333D02*
X74345295Y-137985714D01*
X74345295Y-137985714D02*
X74440533Y-137985714D01*
X74440533Y-137985714D02*
X74583390Y-138033333D01*
X74583390Y-138033333D02*
X75154819Y-138604761D01*
X75154819Y-138604761D02*
X75154819Y-137985714D01*
X66833333Y-159264819D02*
X66833333Y-158264819D01*
X66833333Y-158264819D02*
X67071428Y-158264819D01*
X67071428Y-158264819D02*
X67214285Y-158312438D01*
X67214285Y-158312438D02*
X67309523Y-158407676D01*
X67309523Y-158407676D02*
X67357142Y-158502914D01*
X67357142Y-158502914D02*
X67404761Y-158693390D01*
X67404761Y-158693390D02*
X67404761Y-158836247D01*
X67404761Y-158836247D02*
X67357142Y-159026723D01*
X67357142Y-159026723D02*
X67309523Y-159121961D01*
X67309523Y-159121961D02*
X67214285Y-159217200D01*
X67214285Y-159217200D02*
X67071428Y-159264819D01*
X67071428Y-159264819D02*
X66833333Y-159264819D01*
X67785714Y-158979104D02*
X68261904Y-158979104D01*
X67690476Y-159264819D02*
X68023809Y-158264819D01*
X68023809Y-158264819D02*
X68357142Y-159264819D01*
X69261904Y-159169580D02*
X69214285Y-159217200D01*
X69214285Y-159217200D02*
X69071428Y-159264819D01*
X69071428Y-159264819D02*
X68976190Y-159264819D01*
X68976190Y-159264819D02*
X68833333Y-159217200D01*
X68833333Y-159217200D02*
X68738095Y-159121961D01*
X68738095Y-159121961D02*
X68690476Y-159026723D01*
X68690476Y-159026723D02*
X68642857Y-158836247D01*
X68642857Y-158836247D02*
X68642857Y-158693390D01*
X68642857Y-158693390D02*
X68690476Y-158502914D01*
X68690476Y-158502914D02*
X68738095Y-158407676D01*
X68738095Y-158407676D02*
X68833333Y-158312438D01*
X68833333Y-158312438D02*
X68976190Y-158264819D01*
X68976190Y-158264819D02*
X69071428Y-158264819D01*
X69071428Y-158264819D02*
X69214285Y-158312438D01*
X69214285Y-158312438D02*
X69261904Y-158360057D01*
X70214285Y-159264819D02*
X69642857Y-159264819D01*
X69928571Y-159264819D02*
X69928571Y-158264819D01*
X69928571Y-158264819D02*
X69833333Y-158407676D01*
X69833333Y-158407676D02*
X69738095Y-158502914D01*
X69738095Y-158502914D02*
X69642857Y-158550533D01*
X87666667Y-110907200D02*
X87809524Y-110954819D01*
X87809524Y-110954819D02*
X88047619Y-110954819D01*
X88047619Y-110954819D02*
X88142857Y-110907200D01*
X88142857Y-110907200D02*
X88190476Y-110859580D01*
X88190476Y-110859580D02*
X88238095Y-110764342D01*
X88238095Y-110764342D02*
X88238095Y-110669104D01*
X88238095Y-110669104D02*
X88190476Y-110573866D01*
X88190476Y-110573866D02*
X88142857Y-110526247D01*
X88142857Y-110526247D02*
X88047619Y-110478628D01*
X88047619Y-110478628D02*
X87857143Y-110431009D01*
X87857143Y-110431009D02*
X87761905Y-110383390D01*
X87761905Y-110383390D02*
X87714286Y-110335771D01*
X87714286Y-110335771D02*
X87666667Y-110240533D01*
X87666667Y-110240533D02*
X87666667Y-110145295D01*
X87666667Y-110145295D02*
X87714286Y-110050057D01*
X87714286Y-110050057D02*
X87761905Y-110002438D01*
X87761905Y-110002438D02*
X87857143Y-109954819D01*
X87857143Y-109954819D02*
X88095238Y-109954819D01*
X88095238Y-109954819D02*
X88238095Y-110002438D01*
X88571429Y-109954819D02*
X88809524Y-110954819D01*
X88809524Y-110954819D02*
X89000000Y-110240533D01*
X89000000Y-110240533D02*
X89190476Y-110954819D01*
X89190476Y-110954819D02*
X89428572Y-109954819D01*
X89714286Y-109954819D02*
X90333333Y-109954819D01*
X90333333Y-109954819D02*
X90000000Y-110335771D01*
X90000000Y-110335771D02*
X90142857Y-110335771D01*
X90142857Y-110335771D02*
X90238095Y-110383390D01*
X90238095Y-110383390D02*
X90285714Y-110431009D01*
X90285714Y-110431009D02*
X90333333Y-110526247D01*
X90333333Y-110526247D02*
X90333333Y-110764342D01*
X90333333Y-110764342D02*
X90285714Y-110859580D01*
X90285714Y-110859580D02*
X90238095Y-110907200D01*
X90238095Y-110907200D02*
X90142857Y-110954819D01*
X90142857Y-110954819D02*
X89857143Y-110954819D01*
X89857143Y-110954819D02*
X89761905Y-110907200D01*
X89761905Y-110907200D02*
X89714286Y-110859580D01*
X101416667Y-124657200D02*
X101559524Y-124704819D01*
X101559524Y-124704819D02*
X101797619Y-124704819D01*
X101797619Y-124704819D02*
X101892857Y-124657200D01*
X101892857Y-124657200D02*
X101940476Y-124609580D01*
X101940476Y-124609580D02*
X101988095Y-124514342D01*
X101988095Y-124514342D02*
X101988095Y-124419104D01*
X101988095Y-124419104D02*
X101940476Y-124323866D01*
X101940476Y-124323866D02*
X101892857Y-124276247D01*
X101892857Y-124276247D02*
X101797619Y-124228628D01*
X101797619Y-124228628D02*
X101607143Y-124181009D01*
X101607143Y-124181009D02*
X101511905Y-124133390D01*
X101511905Y-124133390D02*
X101464286Y-124085771D01*
X101464286Y-124085771D02*
X101416667Y-123990533D01*
X101416667Y-123990533D02*
X101416667Y-123895295D01*
X101416667Y-123895295D02*
X101464286Y-123800057D01*
X101464286Y-123800057D02*
X101511905Y-123752438D01*
X101511905Y-123752438D02*
X101607143Y-123704819D01*
X101607143Y-123704819D02*
X101845238Y-123704819D01*
X101845238Y-123704819D02*
X101988095Y-123752438D01*
X102321429Y-123704819D02*
X102559524Y-124704819D01*
X102559524Y-124704819D02*
X102750000Y-123990533D01*
X102750000Y-123990533D02*
X102940476Y-124704819D01*
X102940476Y-124704819D02*
X103178572Y-123704819D01*
X103988095Y-124038152D02*
X103988095Y-124704819D01*
X103750000Y-123657200D02*
X103511905Y-124371485D01*
X103511905Y-124371485D02*
X104130952Y-124371485D01*
X101416667Y-97657200D02*
X101559524Y-97704819D01*
X101559524Y-97704819D02*
X101797619Y-97704819D01*
X101797619Y-97704819D02*
X101892857Y-97657200D01*
X101892857Y-97657200D02*
X101940476Y-97609580D01*
X101940476Y-97609580D02*
X101988095Y-97514342D01*
X101988095Y-97514342D02*
X101988095Y-97419104D01*
X101988095Y-97419104D02*
X101940476Y-97323866D01*
X101940476Y-97323866D02*
X101892857Y-97276247D01*
X101892857Y-97276247D02*
X101797619Y-97228628D01*
X101797619Y-97228628D02*
X101607143Y-97181009D01*
X101607143Y-97181009D02*
X101511905Y-97133390D01*
X101511905Y-97133390D02*
X101464286Y-97085771D01*
X101464286Y-97085771D02*
X101416667Y-96990533D01*
X101416667Y-96990533D02*
X101416667Y-96895295D01*
X101416667Y-96895295D02*
X101464286Y-96800057D01*
X101464286Y-96800057D02*
X101511905Y-96752438D01*
X101511905Y-96752438D02*
X101607143Y-96704819D01*
X101607143Y-96704819D02*
X101845238Y-96704819D01*
X101845238Y-96704819D02*
X101988095Y-96752438D01*
X102321429Y-96704819D02*
X102559524Y-97704819D01*
X102559524Y-97704819D02*
X102750000Y-96990533D01*
X102750000Y-96990533D02*
X102940476Y-97704819D01*
X102940476Y-97704819D02*
X103178572Y-96704819D01*
X104083333Y-97704819D02*
X103511905Y-97704819D01*
X103797619Y-97704819D02*
X103797619Y-96704819D01*
X103797619Y-96704819D02*
X103702381Y-96847676D01*
X103702381Y-96847676D02*
X103607143Y-96942914D01*
X103607143Y-96942914D02*
X103511905Y-96990533D01*
X114666667Y-110907200D02*
X114809524Y-110954819D01*
X114809524Y-110954819D02*
X115047619Y-110954819D01*
X115047619Y-110954819D02*
X115142857Y-110907200D01*
X115142857Y-110907200D02*
X115190476Y-110859580D01*
X115190476Y-110859580D02*
X115238095Y-110764342D01*
X115238095Y-110764342D02*
X115238095Y-110669104D01*
X115238095Y-110669104D02*
X115190476Y-110573866D01*
X115190476Y-110573866D02*
X115142857Y-110526247D01*
X115142857Y-110526247D02*
X115047619Y-110478628D01*
X115047619Y-110478628D02*
X114857143Y-110431009D01*
X114857143Y-110431009D02*
X114761905Y-110383390D01*
X114761905Y-110383390D02*
X114714286Y-110335771D01*
X114714286Y-110335771D02*
X114666667Y-110240533D01*
X114666667Y-110240533D02*
X114666667Y-110145295D01*
X114666667Y-110145295D02*
X114714286Y-110050057D01*
X114714286Y-110050057D02*
X114761905Y-110002438D01*
X114761905Y-110002438D02*
X114857143Y-109954819D01*
X114857143Y-109954819D02*
X115095238Y-109954819D01*
X115095238Y-109954819D02*
X115238095Y-110002438D01*
X115571429Y-109954819D02*
X115809524Y-110954819D01*
X115809524Y-110954819D02*
X116000000Y-110240533D01*
X116000000Y-110240533D02*
X116190476Y-110954819D01*
X116190476Y-110954819D02*
X116428572Y-109954819D01*
X116761905Y-110050057D02*
X116809524Y-110002438D01*
X116809524Y-110002438D02*
X116904762Y-109954819D01*
X116904762Y-109954819D02*
X117142857Y-109954819D01*
X117142857Y-109954819D02*
X117238095Y-110002438D01*
X117238095Y-110002438D02*
X117285714Y-110050057D01*
X117285714Y-110050057D02*
X117333333Y-110145295D01*
X117333333Y-110145295D02*
X117333333Y-110240533D01*
X117333333Y-110240533D02*
X117285714Y-110383390D01*
X117285714Y-110383390D02*
X116714286Y-110954819D01*
X116714286Y-110954819D02*
X117333333Y-110954819D01*
X97184819Y-65052380D02*
X96184819Y-65052380D01*
X96184819Y-65052380D02*
X96184819Y-64814285D01*
X96184819Y-64814285D02*
X96232438Y-64671428D01*
X96232438Y-64671428D02*
X96327676Y-64576190D01*
X96327676Y-64576190D02*
X96422914Y-64528571D01*
X96422914Y-64528571D02*
X96613390Y-64480952D01*
X96613390Y-64480952D02*
X96756247Y-64480952D01*
X96756247Y-64480952D02*
X96946723Y-64528571D01*
X96946723Y-64528571D02*
X97041961Y-64576190D01*
X97041961Y-64576190D02*
X97137200Y-64671428D01*
X97137200Y-64671428D02*
X97184819Y-64814285D01*
X97184819Y-64814285D02*
X97184819Y-65052380D01*
X97184819Y-64052380D02*
X96184819Y-64052380D01*
X97137200Y-63623809D02*
X97184819Y-63480952D01*
X97184819Y-63480952D02*
X97184819Y-63242857D01*
X97184819Y-63242857D02*
X97137200Y-63147619D01*
X97137200Y-63147619D02*
X97089580Y-63100000D01*
X97089580Y-63100000D02*
X96994342Y-63052381D01*
X96994342Y-63052381D02*
X96899104Y-63052381D01*
X96899104Y-63052381D02*
X96803866Y-63100000D01*
X96803866Y-63100000D02*
X96756247Y-63147619D01*
X96756247Y-63147619D02*
X96708628Y-63242857D01*
X96708628Y-63242857D02*
X96661009Y-63433333D01*
X96661009Y-63433333D02*
X96613390Y-63528571D01*
X96613390Y-63528571D02*
X96565771Y-63576190D01*
X96565771Y-63576190D02*
X96470533Y-63623809D01*
X96470533Y-63623809D02*
X96375295Y-63623809D01*
X96375295Y-63623809D02*
X96280057Y-63576190D01*
X96280057Y-63576190D02*
X96232438Y-63528571D01*
X96232438Y-63528571D02*
X96184819Y-63433333D01*
X96184819Y-63433333D02*
X96184819Y-63195238D01*
X96184819Y-63195238D02*
X96232438Y-63052381D01*
X97184819Y-62623809D02*
X96184819Y-62623809D01*
X96184819Y-62623809D02*
X96184819Y-62242857D01*
X96184819Y-62242857D02*
X96232438Y-62147619D01*
X96232438Y-62147619D02*
X96280057Y-62100000D01*
X96280057Y-62100000D02*
X96375295Y-62052381D01*
X96375295Y-62052381D02*
X96518152Y-62052381D01*
X96518152Y-62052381D02*
X96613390Y-62100000D01*
X96613390Y-62100000D02*
X96661009Y-62147619D01*
X96661009Y-62147619D02*
X96708628Y-62242857D01*
X96708628Y-62242857D02*
X96708628Y-62623809D01*
X97184819Y-61100000D02*
X97184819Y-61671428D01*
X97184819Y-61385714D02*
X96184819Y-61385714D01*
X96184819Y-61385714D02*
X96327676Y-61480952D01*
X96327676Y-61480952D02*
X96422914Y-61576190D01*
X96422914Y-61576190D02*
X96470533Y-61671428D01*
%TO.C,DAC2*%
D13*
X99120000Y-141030000D02*
X99120000Y-138370000D01*
X78740000Y-141030000D02*
X99120000Y-141030000D01*
X78740000Y-141030000D02*
X78740000Y-138370000D01*
X78740000Y-138370000D02*
X99120000Y-138370000D01*
X76140000Y-139700000D02*
X76140000Y-138370000D01*
X76140000Y-138370000D02*
X77470000Y-138370000D01*
%TO.C,DAC1*%
X67170000Y-154770000D02*
X67170000Y-142010000D01*
X67170000Y-157370000D02*
X67170000Y-156040000D01*
X68500000Y-157370000D02*
X67170000Y-157370000D01*
X69830000Y-142010000D02*
X67170000Y-142010000D01*
X69830000Y-154770000D02*
X67170000Y-154770000D01*
X69830000Y-154770000D02*
X69830000Y-142010000D01*
%TO.C,SW3*%
X85500000Y-114000000D02*
X85500000Y-115500000D01*
X86750000Y-118000000D02*
X91250000Y-118000000D01*
X91250000Y-111500000D02*
X86750000Y-111500000D01*
X92500000Y-115500000D02*
X92500000Y-114000000D01*
%TO.C,SW4*%
X99250000Y-127750000D02*
X99250000Y-129250000D01*
X100500000Y-131750000D02*
X105000000Y-131750000D01*
X105000000Y-125250000D02*
X100500000Y-125250000D01*
X106250000Y-129250000D02*
X106250000Y-127750000D01*
%TO.C,SW1*%
X99250000Y-100750000D02*
X99250000Y-102250000D01*
X100500000Y-104750000D02*
X105000000Y-104750000D01*
X105000000Y-98250000D02*
X100500000Y-98250000D01*
X106250000Y-102250000D02*
X106250000Y-100750000D01*
%TO.C,SW2*%
X112500000Y-114000000D02*
X112500000Y-115500000D01*
X113750000Y-118000000D02*
X118250000Y-118000000D01*
X118250000Y-111500000D02*
X113750000Y-111500000D01*
X119500000Y-115500000D02*
X119500000Y-114000000D01*
%TO.C,DISP1*%
X98170000Y-61770000D02*
X99500000Y-61770000D01*
X98170000Y-63100000D02*
X98170000Y-61770000D01*
X100770000Y-61770000D02*
X108450000Y-61770000D01*
X100770000Y-64430000D02*
X100770000Y-61770000D01*
X100770000Y-64430000D02*
X108450000Y-64430000D01*
X108450000Y-64430000D02*
X108450000Y-61770000D01*
%TD*%
M02*
