M48
; DRILL file KiCad 10.0.6 date 2026-10-05T21:17:00
; FORMAT={-:-/ absolute / metric / decimal}
; #@! TF.CreationDate,2026-10-05T21:17:00+11:00
; #@! TF.GenerationSoftware,Kicad,Pcbnew,10.0.6
; #@! TF.FileFunction,Plated,1,2,PTH
FMAT,2
METRIC
; #@! TA.AperFunction,Plated,PTH,ViaDrill
T1C0.300
; #@! TA.AperFunction,Plated,PTH,ComponentDrill
T2C1.000
; #@! TA.AperFunction,Plated,PTH,ComponentDrill
T3C1.100
%
G90
G05
T1
X66.0Y-121.5
X69.5Y-131.5
X80.5Y-127.0
X104.5Y-85.0
X110.5Y-57.1
X117.0Y-57.1
X119.5Y-106.5
X120.5Y-54.1
X120.5Y-109.5
X122.0Y-54.1
X123.5Y-112.5
X124.0Y-128.0
X124.5Y-109.0
X124.5Y-110.0
X125.0Y-114.0
X128.793Y-52.7
X131.5Y-114.0
X132.1Y-111.693
X132.5Y-107.5
X132.5Y-108.5
X132.5Y-111.0
X132.5Y-112.5
X133.0Y-97.5
X134.5Y-99.0
X135.115Y-99.512
X135.734Y-98.266
X138.0Y-99.5
X138.0Y-107.0
T2
X68.5Y-143.34
X68.5Y-145.88
X68.5Y-148.42
X68.5Y-150.96
X68.5Y-153.5
X68.5Y-156.04
X77.47Y-139.7
X80.01Y-139.7
X82.55Y-139.7
X85.09Y-139.7
X87.63Y-139.7
X90.17Y-139.7
X92.71Y-139.7
X95.25Y-139.7
X97.79Y-139.7
X99.5Y-63.1
X102.04Y-63.1
X104.58Y-63.1
X107.12Y-63.1
X126.5Y-56.86
X126.5Y-59.4
X126.5Y-61.94
X126.5Y-64.48
X126.5Y-67.02
X126.5Y-69.56
X126.5Y-72.1
X126.5Y-74.64
X126.5Y-77.18
X126.5Y-79.72
X126.5Y-82.26
X126.5Y-84.8
X126.5Y-87.34
X126.5Y-89.88
X126.5Y-92.42
X126.5Y-94.96
X126.5Y-97.5
X126.5Y-100.04
X126.5Y-102.58
X126.5Y-105.12
X129.04Y-56.86
X129.04Y-59.4
X129.04Y-61.94
X129.04Y-64.48
X129.04Y-67.02
X129.04Y-69.56
X129.04Y-72.1
X129.04Y-74.64
X129.04Y-77.18
X129.04Y-79.72
X129.04Y-82.26
X129.04Y-84.8
X129.04Y-87.34
X129.04Y-89.88
X129.04Y-92.42
X129.04Y-94.96
X129.04Y-97.5
X129.04Y-100.04
X129.04Y-102.58
X129.04Y-105.12
T3
X85.75Y-112.5
X85.75Y-117.0
X92.25Y-112.5
X92.25Y-117.0
X99.5Y-99.25
X99.5Y-103.75
X99.5Y-126.25
X99.5Y-130.75
X106.0Y-99.25
X106.0Y-103.75
X106.0Y-126.25
X106.0Y-130.75
X112.75Y-112.5
X112.75Y-117.0
X119.25Y-112.5
X119.25Y-117.0
M30
