%TF.GenerationSoftware,KiCad,Pcbnew,10.0.6*%
%TF.CreationDate,2026-10-05T21:21:00+11:00*%
%TF.ProjectId,aucboard,61756362-6f61-4726-942e-6b696361645f,rev?*%
%TF.SameCoordinates,Original*%
%TF.FileFunction,Soldermask,Top*%
%TF.FilePolarity,Negative*%
%FSLAX46Y46*%
G04 Gerber Fmt 4.6, Leading zero omitted, Abs format (unit mm)*
G04 Created by KiCad (PCBNEW 10.0.6) date 2026-10-05 21:21:00*
%MOMM*%
%LPD*%
G01*
G04 APERTURE LIST*
%ADD10C,1.700000*%
%ADD11R,1.700000X1.700000*%
%ADD12C,2.000000*%
G04 APERTURE END LIST*
D10*
%TO.C,DAC2*%
X97790000Y-139700000D03*
X95250000Y-139700000D03*
X92710000Y-139700000D03*
X90170000Y-139700000D03*
X87630000Y-139700000D03*
X85090000Y-139700000D03*
X82550000Y-139700000D03*
X80010000Y-139700000D03*
D11*
X77470000Y-139700000D03*
%TD*%
D12*
%TO.C,REF\u002A\u002A*%
X64500000Y-54000000D03*
%TD*%
D11*
%TO.C,DAC1*%
X68500000Y-156040000D03*
D10*
X68500000Y-153500000D03*
X68500000Y-150960000D03*
X68500000Y-148420000D03*
X68500000Y-145880000D03*
X68500000Y-143340000D03*
%TD*%
D12*
%TO.C,SW3*%
X85750000Y-112500000D03*
X92250000Y-112500000D03*
X85750000Y-117000000D03*
X92250000Y-117000000D03*
%TD*%
%TO.C,SW4*%
X99500000Y-126250000D03*
X106000000Y-126250000D03*
X99500000Y-130750000D03*
X106000000Y-130750000D03*
%TD*%
%TO.C,REF\u002A\u002A*%
X138500000Y-160500000D03*
%TD*%
%TO.C,REF\u002A\u002A*%
X138500000Y-53500000D03*
%TD*%
%TO.C,SW1*%
X99500000Y-99250000D03*
X106000000Y-99250000D03*
X99500000Y-103750000D03*
X106000000Y-103750000D03*
%TD*%
%TO.C,SW2*%
X112750000Y-112500000D03*
X119250000Y-112500000D03*
X112750000Y-117000000D03*
X119250000Y-117000000D03*
%TD*%
D11*
%TO.C,DISP1*%
X99500000Y-63100000D03*
D10*
X102040000Y-63100000D03*
X104580000Y-63100000D03*
X107120000Y-63100000D03*
%TD*%
D12*
%TO.C,REF\u002A\u002A*%
X64000000Y-160500000D03*
%TD*%
D11*
%TO.C,RPIZ2W1*%
X129040000Y-56860000D03*
D10*
X126500000Y-56860000D03*
X129040000Y-59400000D03*
X126500000Y-59400000D03*
X129040000Y-61940000D03*
X126500000Y-61940000D03*
X129040000Y-64480000D03*
X126500000Y-64480000D03*
X129040000Y-67020000D03*
X126500000Y-67020000D03*
X129040000Y-69560000D03*
X126500000Y-69560000D03*
X129040000Y-72100000D03*
X126500000Y-72100000D03*
X129040000Y-74640000D03*
X126500000Y-74640000D03*
X129040000Y-77180000D03*
X126500000Y-77180000D03*
X129040000Y-79720000D03*
X126500000Y-79720000D03*
X129040000Y-82260000D03*
X126500000Y-82260000D03*
X129040000Y-84800000D03*
X126500000Y-84800000D03*
X129040000Y-87340000D03*
X126500000Y-87340000D03*
X129040000Y-89880000D03*
X126500000Y-89880000D03*
X129040000Y-92420000D03*
X126500000Y-92420000D03*
X129040000Y-94960000D03*
X126500000Y-94960000D03*
X129040000Y-97500000D03*
X126500000Y-97500000D03*
X129040000Y-100040000D03*
X126500000Y-100040000D03*
X129040000Y-102580000D03*
X126500000Y-102580000D03*
X129040000Y-105120000D03*
X126500000Y-105120000D03*
%TD*%
M02*
