%TF.GenerationSoftware,KiCad,Pcbnew,10.0.6*%
%TF.CreationDate,2026-10-02T07:49:13+10:00*%
%TF.ProjectId,aucboard,61756362-6f61-4726-942e-6b696361645f,rev?*%
%TF.SameCoordinates,Original*%
%TF.FileFunction,Copper,L1,Top*%
%TF.FilePolarity,Positive*%
%FSLAX46Y46*%
G04 Gerber Fmt 4.6, Leading zero omitted, Abs format (unit mm)*
G04 Created by KiCad (PCBNEW 10.0.6) date 2026-10-02 07:49:13*
%MOMM*%
%LPD*%
G01*
G04 APERTURE LIST*
%TA.AperFunction,ComponentPad*%
%ADD10C,2.000000*%
%TD*%
%TA.AperFunction,ComponentPad*%
%ADD11R,1.700000X1.700000*%
%TD*%
%TA.AperFunction,ComponentPad*%
%ADD12C,1.700000*%
%TD*%
%TA.AperFunction,ViaPad*%
%ADD13C,0.600000*%
%TD*%
%TA.AperFunction,Conductor*%
%ADD14C,0.200000*%
%TD*%
G04 APERTURE END LIST*
D10*
%TO.P,SW3,2,2_2*%
%TO.N,GND*%
X92250000Y-117000000D03*
X85750000Y-117000000D03*
%TO.P,SW3,1,1_1*%
%TO.N,/GPIO13*%
X92250000Y-112500000D03*
X85750000Y-112500000D03*
%TD*%
%TO.P,SW1,2,2_2*%
%TO.N,GND*%
X106000000Y-103750000D03*
X99500000Y-103750000D03*
%TO.P,SW1,1,1_1*%
%TO.N,/GPIO5*%
X106000000Y-99250000D03*
X99500000Y-99250000D03*
%TD*%
%TO.P,SW2,2,2_2*%
%TO.N,GND*%
X119250000Y-117000000D03*
X112750000Y-117000000D03*
%TO.P,SW2,1,1_1*%
%TO.N,/GPIO6*%
X119250000Y-112500000D03*
X112750000Y-112500000D03*
%TD*%
D11*
%TO.P,DISP1,1,Pin_1_1*%
%TO.N,GND*%
X99500000Y-63100000D03*
D12*
%TO.P,DISP1,2,Pin_2_2*%
%TO.N,+3V3*%
X102040000Y-63100000D03*
%TO.P,DISP1,3,Pin_3_3*%
%TO.N,/SCL*%
X104580000Y-63100000D03*
%TO.P,DISP1,4,Pin_4_4*%
%TO.N,/SDA*%
X107120000Y-63100000D03*
%TD*%
D10*
%TO.P,SW4,1,1_1*%
%TO.N,/GPIO26*%
X99500000Y-126250000D03*
X106000000Y-126250000D03*
%TO.P,SW4,2,2_2*%
%TO.N,GND*%
X99500000Y-130750000D03*
X106000000Y-130750000D03*
%TD*%
D11*
%TO.P,J1,1,Pin_1_1*%
%TO.N,+3V3*%
X129040000Y-56860000D03*
D12*
%TO.P,J1,2,Pin_2_2*%
%TO.N,+5V1*%
X126500000Y-56860000D03*
%TO.P,J1,3,Pin_3_3*%
%TO.N,/SDA*%
X129040000Y-59400000D03*
%TO.P,J1,4,Pin_4_4*%
%TO.N,unconnected-(J1-Pin_4-Pad4)*%
X126500000Y-59400000D03*
%TO.P,J1,5,Pin_5_5*%
%TO.N,/SCL*%
X129040000Y-61940000D03*
%TO.P,J1,6,Pin_6_6*%
%TO.N,GND*%
X126500000Y-61940000D03*
%TO.P,J1,7,Pin_7_7*%
%TO.N,unconnected-(J1-Pin_7-Pad7)*%
X129040000Y-64480000D03*
%TO.P,J1,8,Pin_8_8*%
%TO.N,unconnected-(J1-Pin_8-Pad8)*%
X126500000Y-64480000D03*
%TO.P,J1,9,Pin_9_9*%
%TO.N,unconnected-(J1-Pin_9-Pad9)*%
X129040000Y-67020000D03*
%TO.P,J1,10,Pin_10_10*%
%TO.N,unconnected-(J1-Pin_10-Pad10)*%
X126500000Y-67020000D03*
%TO.P,J1,11,Pin_11_11*%
%TO.N,unconnected-(J1-Pin_11-Pad11)*%
X129040000Y-69560000D03*
%TO.P,J1,12,Pin_12_12*%
%TO.N,/BCK*%
X126500000Y-69560000D03*
%TO.P,J1,13,Pin_13_13*%
%TO.N,unconnected-(J1-Pin_13-Pad13)*%
X129040000Y-72100000D03*
%TO.P,J1,14,Pin_14_14*%
%TO.N,/SCK*%
X126500000Y-72100000D03*
%TO.P,J1,15,Pin_15_15*%
%TO.N,unconnected-(J1-Pin_15-Pad15)*%
X129040000Y-74640000D03*
%TO.P,J1,16,Pin_16_16*%
%TO.N,unconnected-(J1-Pin_16-Pad16)*%
X126500000Y-74640000D03*
%TO.P,J1,17,Pin_17_17*%
%TO.N,unconnected-(J1-Pin_17-Pad17)*%
X129040000Y-77180000D03*
%TO.P,J1,18,Pin_18_18*%
%TO.N,unconnected-(J1-Pin_18-Pad18)*%
X126500000Y-77180000D03*
%TO.P,J1,19,Pin_19_19*%
%TO.N,unconnected-(J1-Pin_19-Pad19)*%
X129040000Y-79720000D03*
%TO.P,J1,20,Pin_20_20*%
%TO.N,unconnected-(J1-Pin_20-Pad20)*%
X126500000Y-79720000D03*
%TO.P,J1,21,Pin_21_21*%
%TO.N,unconnected-(J1-Pin_21-Pad21)*%
X129040000Y-82260000D03*
%TO.P,J1,22,Pin_22_22*%
%TO.N,unconnected-(J1-Pin_22-Pad22)*%
X126500000Y-82260000D03*
%TO.P,J1,23,Pin_23_23*%
%TO.N,unconnected-(J1-Pin_23-Pad23)*%
X129040000Y-84800000D03*
%TO.P,J1,24,Pin_24_24*%
%TO.N,unconnected-(J1-Pin_24-Pad24)*%
X126500000Y-84800000D03*
%TO.P,J1,25,Pin_25_25*%
%TO.N,unconnected-(J1-Pin_25-Pad25)*%
X129040000Y-87340000D03*
%TO.P,J1,26,Pin_26_26*%
%TO.N,unconnected-(J1-Pin_26-Pad26)*%
X126500000Y-87340000D03*
%TO.P,J1,27,Pin_27_27*%
%TO.N,unconnected-(J1-Pin_27-Pad27)*%
X129040000Y-89880000D03*
%TO.P,J1,28,Pin_28_28*%
%TO.N,unconnected-(J1-Pin_28-Pad28)*%
X126500000Y-89880000D03*
%TO.P,J1,29,Pin_29_29*%
%TO.N,/GPIO5*%
X129040000Y-92420000D03*
%TO.P,J1,30,Pin_30_30*%
%TO.N,unconnected-(J1-Pin_30-Pad30)*%
X126500000Y-92420000D03*
%TO.P,J1,31,Pin_31_31*%
%TO.N,/GPIO6*%
X129040000Y-94960000D03*
%TO.P,J1,32,Pin_32_32*%
%TO.N,unconnected-(J1-Pin_32-Pad32)*%
X126500000Y-94960000D03*
%TO.P,J1,33,Pin_33_33*%
%TO.N,/GPIO13*%
X129040000Y-97500000D03*
%TO.P,J1,34,Pin_34_34*%
%TO.N,unconnected-(J1-Pin_34-Pad34)*%
X126500000Y-97500000D03*
%TO.P,J1,35,Pin_35_35*%
%TO.N,/LCK*%
X129040000Y-100040000D03*
%TO.P,J1,36,Pin_36_36*%
%TO.N,unconnected-(J1-Pin_36-Pad36)*%
X126500000Y-100040000D03*
%TO.P,J1,37,Pin_37_37*%
%TO.N,/GPIO26*%
X129040000Y-102580000D03*
%TO.P,J1,38,Pin_38_38*%
%TO.N,unconnected-(J1-Pin_38-Pad38)*%
X126500000Y-102580000D03*
%TO.P,J1,39,Pin_39_39*%
%TO.N,unconnected-(J1-Pin_39-Pad39)*%
X129040000Y-105120000D03*
%TO.P,J1,40,Pin_40_40*%
%TO.N,/DIN*%
X126500000Y-105120000D03*
%TD*%
D11*
%TO.P,DAC1,1,VIN_1*%
%TO.N,+5V1*%
X68500000Y-143340000D03*
D12*
%TO.P,DAC1,2,GND_2*%
%TO.N,GND*%
X68500000Y-145880000D03*
%TO.P,DAC1,3,LCK_3*%
%TO.N,/LCK*%
X68500000Y-148420000D03*
%TO.P,DAC1,4,DIN_4*%
%TO.N,/DIN*%
X68500000Y-150960000D03*
%TO.P,DAC1,5,BCK_5*%
%TO.N,/BCK*%
X68500000Y-153500000D03*
%TO.P,DAC1,6,SCK_6*%
%TO.N,/SCK*%
X68500000Y-156040000D03*
%TD*%
D13*
%TO.N,/GPIO13*%
X133000000Y-97500000D03*
X138000000Y-99500000D03*
X132900000Y-113500000D03*
X120500000Y-109500000D03*
%TO.N,/GPIO26*%
X125000000Y-114000000D03*
X131500000Y-114000000D03*
%TO.N,/GPIO6*%
X138000000Y-107000000D03*
X132500000Y-112500000D03*
X123500000Y-112500000D03*
%TO.N,/GPIO5*%
X132500000Y-111000000D03*
X119500000Y-106500000D03*
%TO.N,/SDA*%
X128792892Y-52700000D03*
X122000000Y-54100000D03*
X117000000Y-57100000D03*
%TO.N,/SCL*%
X120500000Y-54100000D03*
X110500000Y-57100000D03*
%TO.N,/BCK*%
X104500000Y-85000000D03*
%TD*%
%TO.N,/GPIO13*%
D14*
X85750000Y-112500000D02*
X92250000Y-112500000D01*
%TO.N,GND*%
X85750000Y-117000000D02*
X92250000Y-117000000D01*
X99500000Y-130750000D02*
X106000000Y-130750000D01*
%TO.N,/GPIO26*%
X106000000Y-126250000D02*
X99500000Y-126250000D01*
%TO.N,GND*%
X112750000Y-117000000D02*
X119250000Y-117000000D01*
%TO.N,/GPIO6*%
X119250000Y-112500000D02*
X112750000Y-112500000D01*
%TO.N,/GPIO5*%
X106000000Y-99250000D02*
X99500000Y-99250000D01*
X106000000Y-99250000D02*
X106000000Y-99000000D01*
%TO.N,/GPIO13*%
X136000000Y-97500000D02*
X133000000Y-97500000D01*
X138000000Y-99500000D02*
X136000000Y-97500000D01*
X133100000Y-113300000D02*
X132900000Y-113500000D01*
X133100000Y-112200000D02*
X133100000Y-113300000D01*
X132500000Y-111600000D02*
X133100000Y-112200000D01*
X120500000Y-109500000D02*
X122600000Y-111600000D01*
X122600000Y-111600000D02*
X132500000Y-111600000D01*
%TO.N,/GPIO26*%
X125000000Y-114000000D02*
X131500000Y-114000000D01*
%TO.N,/GPIO6*%
X138000000Y-103920000D02*
X129040000Y-94960000D01*
X138000000Y-107000000D02*
X138000000Y-103920000D01*
X123500000Y-112500000D02*
X132500000Y-112500000D01*
%TO.N,/GPIO5*%
X124000000Y-111000000D02*
X132500000Y-111000000D01*
X119500000Y-106500000D02*
X124000000Y-111000000D01*
%TO.N,/SDA*%
X132266446Y-56173554D02*
X129040000Y-59400000D01*
X128792892Y-52700000D02*
X132266446Y-56173554D01*
X122000000Y-53900000D02*
X122000000Y-54100000D01*
X117000000Y-57100000D02*
X118800000Y-57100000D01*
X118800000Y-57100000D02*
X122000000Y-53900000D01*
%TO.N,/SCL*%
X113500000Y-54100000D02*
X120500000Y-54100000D01*
X110500000Y-57100000D02*
X113500000Y-54100000D01*
%TO.N,/BCK*%
X111060000Y-85000000D02*
X126500000Y-69560000D01*
X104500000Y-85000000D02*
X111060000Y-85000000D01*
%TO.N,GND*%
X92250000Y-123500000D02*
X92250000Y-117000000D01*
X99500000Y-130750000D02*
X92250000Y-123500000D01*
X112750000Y-124000000D02*
X112750000Y-117000000D01*
X106000000Y-130750000D02*
X112750000Y-124000000D01*
X106000000Y-110250000D02*
X112750000Y-117000000D01*
X106000000Y-103750000D02*
X106000000Y-110250000D01*
X99500000Y-109750000D02*
X99500000Y-103750000D01*
X92250000Y-117000000D02*
X99500000Y-109750000D01*
X71000000Y-145500000D02*
X71000000Y-131750000D01*
X71000000Y-131750000D02*
X85750000Y-117000000D01*
X68500000Y-145880000D02*
X70620000Y-145880000D01*
X70620000Y-145880000D02*
X71000000Y-145500000D01*
%TO.N,+5V1*%
X120140000Y-56860000D02*
X126500000Y-56860000D01*
X120000000Y-57000000D02*
X120140000Y-56860000D01*
X120000000Y-63500000D02*
X120000000Y-57000000D01*
X68500000Y-115000000D02*
X120000000Y-63500000D01*
X68500000Y-143340000D02*
X68500000Y-115000000D01*
%TO.N,+3V3*%
X129040000Y-54040000D02*
X129040000Y-56860000D01*
X111640000Y-53500000D02*
X128500000Y-53500000D01*
X102040000Y-63100000D02*
X111640000Y-53500000D01*
X128500000Y-53500000D02*
X129040000Y-54040000D01*
%TO.N,/LCK*%
X133500000Y-104500000D02*
X129040000Y-100040000D01*
X133500000Y-114000000D02*
X133500000Y-104500000D01*
X99080000Y-148420000D02*
X133500000Y-114000000D01*
X68500000Y-148420000D02*
X99080000Y-148420000D01*
%TO.N,GND*%
X68500000Y-145880000D02*
X68500000Y-145640000D01*
X99500000Y-103750000D02*
X106000000Y-103750000D01*
%TD*%
%TA.AperFunction,Conductor*%
%TO.N,GND*%
G36*
X128608591Y-52019685D02*
G01*
X128654346Y-52072489D01*
X128664290Y-52141647D01*
X128635265Y-52205203D01*
X128603552Y-52231387D01*
X128485581Y-52299497D01*
X128485575Y-52299502D01*
X128392394Y-52392683D01*
X128392392Y-52392686D01*
X128326500Y-52506812D01*
X128292392Y-52634108D01*
X128292392Y-52765892D01*
X128296250Y-52780290D01*
X128326500Y-52893187D01*
X128348029Y-52930476D01*
X128392392Y-53007314D01*
X128392394Y-53007316D01*
X128395964Y-53013499D01*
X128412437Y-53081399D01*
X128389585Y-53147426D01*
X128334664Y-53190617D01*
X128288577Y-53199500D01*
X111600438Y-53199500D01*
X111571803Y-53207173D01*
X111524009Y-53219979D01*
X111524004Y-53219982D01*
X111455495Y-53259535D01*
X111455487Y-53259541D01*
X102602104Y-62112923D01*
X102540781Y-62146408D01*
X102471089Y-62141424D01*
X102466971Y-62139803D01*
X102346424Y-62089871D01*
X102346412Y-62089868D01*
X102143469Y-62049500D01*
X102143465Y-62049500D01*
X101936535Y-62049500D01*
X101936530Y-62049500D01*
X101733587Y-62089868D01*
X101733579Y-62089870D01*
X101542403Y-62169058D01*
X101370342Y-62284024D01*
X101224024Y-62430342D01*
X101109058Y-62602403D01*
X101029870Y-62793579D01*
X101029868Y-62793587D01*
X100989500Y-62996530D01*
X100989500Y-63203469D01*
X101029868Y-63406412D01*
X101029870Y-63406420D01*
X101085019Y-63539562D01*
X101109059Y-63597598D01*
X101153444Y-63664025D01*
X101224024Y-63769657D01*
X101370342Y-63915975D01*
X101370345Y-63915977D01*
X101542402Y-64030941D01*
X101733580Y-64110130D01*
X101936530Y-64150499D01*
X101936534Y-64150500D01*
X101936535Y-64150500D01*
X102143466Y-64150500D01*
X102143467Y-64150499D01*
X102346420Y-64110130D01*
X102537598Y-64030941D01*
X102709655Y-63915977D01*
X102855977Y-63769655D01*
X102970941Y-63597598D01*
X103050130Y-63406420D01*
X103090500Y-63203465D01*
X103090500Y-62996535D01*
X103090499Y-62996530D01*
X103529500Y-62996530D01*
X103529500Y-63203469D01*
X103569868Y-63406412D01*
X103569870Y-63406420D01*
X103625019Y-63539562D01*
X103649059Y-63597598D01*
X103693444Y-63664025D01*
X103764024Y-63769657D01*
X103910342Y-63915975D01*
X103910345Y-63915977D01*
X104082402Y-64030941D01*
X104273580Y-64110130D01*
X104476530Y-64150499D01*
X104476534Y-64150500D01*
X104476535Y-64150500D01*
X104683466Y-64150500D01*
X104683467Y-64150499D01*
X104886420Y-64110130D01*
X105077598Y-64030941D01*
X105249655Y-63915977D01*
X105395977Y-63769655D01*
X105510941Y-63597598D01*
X105590130Y-63406420D01*
X105630500Y-63203465D01*
X105630500Y-62996535D01*
X105630499Y-62996530D01*
X106069500Y-62996530D01*
X106069500Y-63203469D01*
X106109868Y-63406412D01*
X106109870Y-63406420D01*
X106165019Y-63539562D01*
X106189059Y-63597598D01*
X106233444Y-63664025D01*
X106304024Y-63769657D01*
X106450342Y-63915975D01*
X106450345Y-63915977D01*
X106622402Y-64030941D01*
X106813580Y-64110130D01*
X107016530Y-64150499D01*
X107016534Y-64150500D01*
X107016535Y-64150500D01*
X107223466Y-64150500D01*
X107223467Y-64150499D01*
X107426420Y-64110130D01*
X107617598Y-64030941D01*
X107789655Y-63915977D01*
X107935977Y-63769655D01*
X108050941Y-63597598D01*
X108130130Y-63406420D01*
X108170500Y-63203465D01*
X108170500Y-62996535D01*
X108130130Y-62793580D01*
X108050941Y-62602402D01*
X107935977Y-62430345D01*
X107935975Y-62430342D01*
X107789657Y-62284024D01*
X107622616Y-62172412D01*
X107617598Y-62169059D01*
X107426420Y-62089870D01*
X107426412Y-62089868D01*
X107223469Y-62049500D01*
X107223465Y-62049500D01*
X107016535Y-62049500D01*
X107016530Y-62049500D01*
X106813587Y-62089868D01*
X106813579Y-62089870D01*
X106622403Y-62169058D01*
X106450342Y-62284024D01*
X106304024Y-62430342D01*
X106189058Y-62602403D01*
X106109870Y-62793579D01*
X106109868Y-62793587D01*
X106069500Y-62996530D01*
X105630499Y-62996530D01*
X105590130Y-62793580D01*
X105510941Y-62602402D01*
X105395977Y-62430345D01*
X105395975Y-62430342D01*
X105249657Y-62284024D01*
X105082616Y-62172412D01*
X105077598Y-62169059D01*
X104886420Y-62089870D01*
X104886412Y-62089868D01*
X104683469Y-62049500D01*
X104683465Y-62049500D01*
X104476535Y-62049500D01*
X104476530Y-62049500D01*
X104273587Y-62089868D01*
X104273579Y-62089870D01*
X104082403Y-62169058D01*
X103910342Y-62284024D01*
X103764024Y-62430342D01*
X103649058Y-62602403D01*
X103569870Y-62793579D01*
X103569868Y-62793587D01*
X103529500Y-62996530D01*
X103090499Y-62996530D01*
X103050130Y-62793580D01*
X103000194Y-62673026D01*
X102992726Y-62603559D01*
X103024001Y-62541080D01*
X103027047Y-62537922D01*
X111728152Y-53836819D01*
X111789475Y-53803334D01*
X111815833Y-53800500D01*
X113075167Y-53800500D01*
X113142206Y-53820185D01*
X113187961Y-53872989D01*
X113197905Y-53942147D01*
X113168880Y-54005703D01*
X113162848Y-54012180D01*
X111489528Y-55685500D01*
X110611847Y-56563181D01*
X110550524Y-56596666D01*
X110524166Y-56599500D01*
X110434108Y-56599500D01*
X110306812Y-56633608D01*
X110192686Y-56699500D01*
X110192683Y-56699502D01*
X110099502Y-56792683D01*
X110099500Y-56792686D01*
X110033608Y-56906812D01*
X110018428Y-56963466D01*
X109999500Y-57034108D01*
X109999500Y-57165892D01*
X110001058Y-57171706D01*
X110033608Y-57293187D01*
X110060902Y-57340460D01*
X110099500Y-57407314D01*
X110192686Y-57500500D01*
X110306814Y-57566392D01*
X110434108Y-57600500D01*
X110434110Y-57600500D01*
X110565890Y-57600500D01*
X110565892Y-57600500D01*
X110693186Y-57566392D01*
X110807314Y-57500500D01*
X110900500Y-57407314D01*
X110966392Y-57293186D01*
X111000500Y-57165892D01*
X111000500Y-57075832D01*
X111020185Y-57008793D01*
X111036819Y-56988151D01*
X113588152Y-54436819D01*
X113649475Y-54403334D01*
X113675833Y-54400500D01*
X120041324Y-54400500D01*
X120108363Y-54420185D01*
X120129005Y-54436819D01*
X120192686Y-54500500D01*
X120306814Y-54566392D01*
X120434108Y-54600500D01*
X120434110Y-54600500D01*
X120574019Y-54600500D01*
X120574019Y-54603706D01*
X120628183Y-54612149D01*
X120680442Y-54658526D01*
X120699331Y-54725794D01*
X120678855Y-54792595D01*
X120663021Y-54812007D01*
X118711848Y-56763181D01*
X118650525Y-56796666D01*
X118624167Y-56799500D01*
X117458676Y-56799500D01*
X117391637Y-56779815D01*
X117370995Y-56763181D01*
X117307316Y-56699502D01*
X117307314Y-56699500D01*
X117250250Y-56666554D01*
X117193187Y-56633608D01*
X117129539Y-56616554D01*
X117065892Y-56599500D01*
X116934108Y-56599500D01*
X116806812Y-56633608D01*
X116692686Y-56699500D01*
X116692683Y-56699502D01*
X116599502Y-56792683D01*
X116599500Y-56792686D01*
X116533608Y-56906812D01*
X116518428Y-56963466D01*
X116499500Y-57034108D01*
X116499500Y-57165892D01*
X116501058Y-57171706D01*
X116533608Y-57293187D01*
X116560902Y-57340460D01*
X116599500Y-57407314D01*
X116692686Y-57500500D01*
X116806814Y-57566392D01*
X116934108Y-57600500D01*
X116934110Y-57600500D01*
X117065890Y-57600500D01*
X117065892Y-57600500D01*
X117193186Y-57566392D01*
X117307314Y-57500500D01*
X117370995Y-57436819D01*
X117432318Y-57403334D01*
X117458676Y-57400500D01*
X118839560Y-57400500D01*
X118839562Y-57400500D01*
X118915989Y-57380021D01*
X118984511Y-57340460D01*
X119040460Y-57284511D01*
X119494877Y-56830092D01*
X119556199Y-56796609D01*
X119625890Y-56801593D01*
X119681824Y-56843464D01*
X119706241Y-56908929D01*
X119702332Y-56949866D01*
X119699500Y-56960432D01*
X119699500Y-63324167D01*
X119679815Y-63391206D01*
X119663181Y-63411848D01*
X68259541Y-114815487D01*
X68259535Y-114815495D01*
X68219982Y-114884004D01*
X68219979Y-114884009D01*
X68199500Y-114960439D01*
X68199500Y-142165500D01*
X68179815Y-142232539D01*
X68127011Y-142278294D01*
X68075500Y-142289500D01*
X67630247Y-142289500D01*
X67571770Y-142301131D01*
X67571769Y-142301132D01*
X67505447Y-142345447D01*
X67461132Y-142411769D01*
X67461131Y-142411770D01*
X67449500Y-142470247D01*
X67449500Y-144209752D01*
X67461131Y-144268229D01*
X67461132Y-144268230D01*
X67505447Y-144334552D01*
X67571769Y-144378867D01*
X67571770Y-144378868D01*
X67630247Y-144390499D01*
X67630250Y-144390500D01*
X67630252Y-144390500D01*
X69369750Y-144390500D01*
X69369751Y-144390499D01*
X69384568Y-144387552D01*
X69428229Y-144378868D01*
X69428229Y-144378867D01*
X69428231Y-144378867D01*
X69494552Y-144334552D01*
X69538867Y-144268231D01*
X69538867Y-144268229D01*
X69538868Y-144268229D01*
X69550499Y-144209752D01*
X69550500Y-144209750D01*
X69550500Y-142470249D01*
X69550499Y-142470247D01*
X69538868Y-142411770D01*
X69538867Y-142411769D01*
X69494552Y-142345447D01*
X69428230Y-142301132D01*
X69428229Y-142301131D01*
X69369752Y-142289500D01*
X69369748Y-142289500D01*
X68924500Y-142289500D01*
X68857461Y-142269815D01*
X68811706Y-142217011D01*
X68800500Y-142165500D01*
X68800500Y-126155513D01*
X98299500Y-126155513D01*
X98299500Y-126344486D01*
X98329059Y-126531118D01*
X98387454Y-126710836D01*
X98473240Y-126879199D01*
X98584310Y-127032073D01*
X98717927Y-127165690D01*
X98870801Y-127276760D01*
X98950347Y-127317290D01*
X99039163Y-127362545D01*
X99039165Y-127362545D01*
X99039168Y-127362547D01*
X99135497Y-127393846D01*
X99218881Y-127420940D01*
X99405514Y-127450500D01*
X99405519Y-127450500D01*
X99594486Y-127450500D01*
X99781118Y-127420940D01*
X99960832Y-127362547D01*
X100129199Y-127276760D01*
X100282073Y-127165690D01*
X100415690Y-127032073D01*
X100526760Y-126879199D01*
X100612547Y-126710832D01*
X100612548Y-126710829D01*
X100636803Y-126636182D01*
X100676241Y-126578506D01*
X100740599Y-126551308D01*
X100754734Y-126550500D01*
X104745266Y-126550500D01*
X104812305Y-126570185D01*
X104858060Y-126622989D01*
X104863197Y-126636182D01*
X104887451Y-126710829D01*
X104887453Y-126710832D01*
X104973240Y-126879199D01*
X105084310Y-127032073D01*
X105217927Y-127165690D01*
X105370801Y-127276760D01*
X105450347Y-127317290D01*
X105539163Y-127362545D01*
X105539165Y-127362545D01*
X105539168Y-127362547D01*
X105635497Y-127393846D01*
X105718881Y-127420940D01*
X105905514Y-127450500D01*
X105905519Y-127450500D01*
X106094486Y-127450500D01*
X106281118Y-127420940D01*
X106460832Y-127362547D01*
X106629199Y-127276760D01*
X106782073Y-127165690D01*
X106915690Y-127032073D01*
X107026760Y-126879199D01*
X107112547Y-126710832D01*
X107170940Y-126531118D01*
X107200500Y-126344486D01*
X107200500Y-126155513D01*
X107170940Y-125968881D01*
X107136802Y-125863818D01*
X107112547Y-125789168D01*
X107112545Y-125789165D01*
X107112545Y-125789163D01*
X107026759Y-125620800D01*
X106915690Y-125467927D01*
X106782073Y-125334310D01*
X106629199Y-125223240D01*
X106460836Y-125137454D01*
X106281118Y-125079059D01*
X106094486Y-125049500D01*
X106094481Y-125049500D01*
X105905519Y-125049500D01*
X105905514Y-125049500D01*
X105718881Y-125079059D01*
X105539163Y-125137454D01*
X105370800Y-125223240D01*
X105283579Y-125286610D01*
X105217927Y-125334310D01*
X105217925Y-125334312D01*
X105217924Y-125334312D01*
X105084312Y-125467924D01*
X105084312Y-125467925D01*
X105084310Y-125467927D01*
X105036610Y-125533579D01*
X104973240Y-125620800D01*
X104887451Y-125789170D01*
X104863197Y-125863818D01*
X104823759Y-125921494D01*
X104759401Y-125948692D01*
X104745266Y-125949500D01*
X100754734Y-125949500D01*
X100687695Y-125929815D01*
X100641940Y-125877011D01*
X100636803Y-125863818D01*
X100612548Y-125789170D01*
X100526759Y-125620800D01*
X100415690Y-125467927D01*
X100282073Y-125334310D01*
X100129199Y-125223240D01*
X99960836Y-125137454D01*
X99781118Y-125079059D01*
X99594486Y-125049500D01*
X99594481Y-125049500D01*
X99405519Y-125049500D01*
X99405514Y-125049500D01*
X99218881Y-125079059D01*
X99039163Y-125137454D01*
X98870800Y-125223240D01*
X98783579Y-125286610D01*
X98717927Y-125334310D01*
X98717925Y-125334312D01*
X98717924Y-125334312D01*
X98584312Y-125467924D01*
X98584312Y-125467925D01*
X98584310Y-125467927D01*
X98536610Y-125533579D01*
X98473240Y-125620800D01*
X98387454Y-125789163D01*
X98329059Y-125968881D01*
X98299500Y-126155513D01*
X68800500Y-126155513D01*
X68800500Y-115175833D01*
X68820185Y-115108794D01*
X68836819Y-115088152D01*
X69990863Y-113934108D01*
X124499500Y-113934108D01*
X124499500Y-114065892D01*
X124512923Y-114115989D01*
X124533608Y-114193187D01*
X124566554Y-114250250D01*
X124599500Y-114307314D01*
X124692686Y-114400500D01*
X124806814Y-114466392D01*
X124934108Y-114500500D01*
X124934110Y-114500500D01*
X125065890Y-114500500D01*
X125065892Y-114500500D01*
X125193186Y-114466392D01*
X125307314Y-114400500D01*
X125370995Y-114336819D01*
X125432318Y-114303334D01*
X125458676Y-114300500D01*
X131041324Y-114300500D01*
X131108363Y-114320185D01*
X131129005Y-114336819D01*
X131192686Y-114400500D01*
X131306814Y-114466392D01*
X131434108Y-114500500D01*
X131434110Y-114500500D01*
X131565890Y-114500500D01*
X131565892Y-114500500D01*
X131693186Y-114466392D01*
X131807314Y-114400500D01*
X131900500Y-114307314D01*
X131966392Y-114193186D01*
X132000500Y-114065892D01*
X132000500Y-113934108D01*
X131966392Y-113806814D01*
X131900500Y-113692686D01*
X131807314Y-113599500D01*
X131749102Y-113565891D01*
X131693187Y-113533608D01*
X131629539Y-113516554D01*
X131565892Y-113499500D01*
X131434108Y-113499500D01*
X131306812Y-113533608D01*
X131192686Y-113599500D01*
X131192683Y-113599502D01*
X131129005Y-113663181D01*
X131067682Y-113696666D01*
X131041324Y-113699500D01*
X125458676Y-113699500D01*
X125391637Y-113679815D01*
X125370995Y-113663181D01*
X125307316Y-113599502D01*
X125307314Y-113599500D01*
X125249102Y-113565891D01*
X125193187Y-113533608D01*
X125129539Y-113516554D01*
X125065892Y-113499500D01*
X124934108Y-113499500D01*
X124806812Y-113533608D01*
X124692686Y-113599500D01*
X124692683Y-113599502D01*
X124599502Y-113692683D01*
X124599500Y-113692686D01*
X124533608Y-113806812D01*
X124533473Y-113807316D01*
X124499500Y-113934108D01*
X69990863Y-113934108D01*
X71519458Y-112405513D01*
X84549500Y-112405513D01*
X84549500Y-112594486D01*
X84579059Y-112781118D01*
X84637454Y-112960836D01*
X84723240Y-113129199D01*
X84834310Y-113282073D01*
X84967927Y-113415690D01*
X85120801Y-113526760D01*
X85197600Y-113565891D01*
X85289163Y-113612545D01*
X85289165Y-113612545D01*
X85289168Y-113612547D01*
X85385497Y-113643846D01*
X85468881Y-113670940D01*
X85655514Y-113700500D01*
X85655519Y-113700500D01*
X85844486Y-113700500D01*
X86031118Y-113670940D01*
X86210832Y-113612547D01*
X86379199Y-113526760D01*
X86532073Y-113415690D01*
X86665690Y-113282073D01*
X86776760Y-113129199D01*
X86862547Y-112960832D01*
X86862548Y-112960829D01*
X86886803Y-112886182D01*
X86926241Y-112828506D01*
X86990599Y-112801308D01*
X87004734Y-112800500D01*
X90995266Y-112800500D01*
X91062305Y-112820185D01*
X91108060Y-112872989D01*
X91113197Y-112886182D01*
X91137451Y-112960829D01*
X91161880Y-113008773D01*
X91223240Y-113129199D01*
X91334310Y-113282073D01*
X91467927Y-113415690D01*
X91620801Y-113526760D01*
X91697600Y-113565891D01*
X91789163Y-113612545D01*
X91789165Y-113612545D01*
X91789168Y-113612547D01*
X91885497Y-113643846D01*
X91968881Y-113670940D01*
X92155514Y-113700500D01*
X92155519Y-113700500D01*
X92344486Y-113700500D01*
X92531118Y-113670940D01*
X92710832Y-113612547D01*
X92879199Y-113526760D01*
X93032073Y-113415690D01*
X93165690Y-113282073D01*
X93276760Y-113129199D01*
X93362547Y-112960832D01*
X93420940Y-112781118D01*
X93434867Y-112693186D01*
X93450500Y-112594486D01*
X93450500Y-112405513D01*
X111549500Y-112405513D01*
X111549500Y-112594486D01*
X111579059Y-112781118D01*
X111637454Y-112960836D01*
X111723240Y-113129199D01*
X111834310Y-113282073D01*
X111967927Y-113415690D01*
X112120801Y-113526760D01*
X112197600Y-113565891D01*
X112289163Y-113612545D01*
X112289165Y-113612545D01*
X112289168Y-113612547D01*
X112385497Y-113643846D01*
X112468881Y-113670940D01*
X112655514Y-113700500D01*
X112655519Y-113700500D01*
X112844486Y-113700500D01*
X113031118Y-113670940D01*
X113210832Y-113612547D01*
X113379199Y-113526760D01*
X113532073Y-113415690D01*
X113665690Y-113282073D01*
X113776760Y-113129199D01*
X113862547Y-112960832D01*
X113862548Y-112960829D01*
X113886803Y-112886182D01*
X113926241Y-112828506D01*
X113990599Y-112801308D01*
X114004734Y-112800500D01*
X117995266Y-112800500D01*
X118062305Y-112820185D01*
X118108060Y-112872989D01*
X118113197Y-112886182D01*
X118137451Y-112960829D01*
X118161880Y-113008773D01*
X118223240Y-113129199D01*
X118334310Y-113282073D01*
X118467927Y-113415690D01*
X118620801Y-113526760D01*
X118697600Y-113565891D01*
X118789163Y-113612545D01*
X118789165Y-113612545D01*
X118789168Y-113612547D01*
X118885497Y-113643846D01*
X118968881Y-113670940D01*
X119155514Y-113700500D01*
X119155519Y-113700500D01*
X119344486Y-113700500D01*
X119531118Y-113670940D01*
X119710832Y-113612547D01*
X119879199Y-113526760D01*
X120032073Y-113415690D01*
X120165690Y-113282073D01*
X120276760Y-113129199D01*
X120362547Y-112960832D01*
X120420940Y-112781118D01*
X120434867Y-112693186D01*
X120450500Y-112594486D01*
X120450500Y-112405513D01*
X120420940Y-112218881D01*
X120386802Y-112113818D01*
X120362547Y-112039168D01*
X120362545Y-112039165D01*
X120362545Y-112039163D01*
X120291892Y-111900500D01*
X120276760Y-111870801D01*
X120165690Y-111717927D01*
X120032073Y-111584310D01*
X119879199Y-111473240D01*
X119868481Y-111467779D01*
X119710836Y-111387454D01*
X119531118Y-111329059D01*
X119344486Y-111299500D01*
X119344481Y-111299500D01*
X119155519Y-111299500D01*
X119155514Y-111299500D01*
X118968881Y-111329059D01*
X118789163Y-111387454D01*
X118620800Y-111473240D01*
X118543914Y-111529102D01*
X118467927Y-111584310D01*
X118467925Y-111584312D01*
X118467924Y-111584312D01*
X118334312Y-111717924D01*
X118334312Y-111717925D01*
X118334310Y-111717927D01*
X118286610Y-111783579D01*
X118223240Y-111870800D01*
X118137451Y-112039170D01*
X118113197Y-112113818D01*
X118073759Y-112171494D01*
X118009401Y-112198692D01*
X117995266Y-112199500D01*
X114004734Y-112199500D01*
X113937695Y-112179815D01*
X113891940Y-112127011D01*
X113886803Y-112113818D01*
X113862548Y-112039170D01*
X113842335Y-111999500D01*
X113776760Y-111870801D01*
X113665690Y-111717927D01*
X113532073Y-111584310D01*
X113379199Y-111473240D01*
X113368481Y-111467779D01*
X113210836Y-111387454D01*
X113031118Y-111329059D01*
X112844486Y-111299500D01*
X112844481Y-111299500D01*
X112655519Y-111299500D01*
X112655514Y-111299500D01*
X112468881Y-111329059D01*
X112289163Y-111387454D01*
X112120800Y-111473240D01*
X112043914Y-111529102D01*
X111967927Y-111584310D01*
X111967925Y-111584312D01*
X111967924Y-111584312D01*
X111834312Y-111717924D01*
X111834312Y-111717925D01*
X111834310Y-111717927D01*
X111786610Y-111783579D01*
X111723240Y-111870800D01*
X111637454Y-112039163D01*
X111579059Y-112218881D01*
X111549500Y-112405513D01*
X93450500Y-112405513D01*
X93420940Y-112218881D01*
X93386802Y-112113818D01*
X93362547Y-112039168D01*
X93362545Y-112039165D01*
X93362545Y-112039163D01*
X93291892Y-111900500D01*
X93276760Y-111870801D01*
X93165690Y-111717927D01*
X93032073Y-111584310D01*
X92879199Y-111473240D01*
X92868481Y-111467779D01*
X92710836Y-111387454D01*
X92531118Y-111329059D01*
X92344486Y-111299500D01*
X92344481Y-111299500D01*
X92155519Y-111299500D01*
X92155514Y-111299500D01*
X91968881Y-111329059D01*
X91789163Y-111387454D01*
X91620800Y-111473240D01*
X91543914Y-111529102D01*
X91467927Y-111584310D01*
X91467925Y-111584312D01*
X91467924Y-111584312D01*
X91334312Y-111717924D01*
X91334312Y-111717925D01*
X91334310Y-111717927D01*
X91286610Y-111783579D01*
X91223240Y-111870800D01*
X91137451Y-112039170D01*
X91113197Y-112113818D01*
X91073759Y-112171494D01*
X91009401Y-112198692D01*
X90995266Y-112199500D01*
X87004734Y-112199500D01*
X86937695Y-112179815D01*
X86891940Y-112127011D01*
X86886803Y-112113818D01*
X86862548Y-112039170D01*
X86842335Y-111999500D01*
X86776760Y-111870801D01*
X86665690Y-111717927D01*
X86532073Y-111584310D01*
X86379199Y-111473240D01*
X86368481Y-111467779D01*
X86210836Y-111387454D01*
X86031118Y-111329059D01*
X85844486Y-111299500D01*
X85844481Y-111299500D01*
X85655519Y-111299500D01*
X85655514Y-111299500D01*
X85468881Y-111329059D01*
X85289163Y-111387454D01*
X85120800Y-111473240D01*
X85043914Y-111529102D01*
X84967927Y-111584310D01*
X84967925Y-111584312D01*
X84967924Y-111584312D01*
X84834312Y-111717924D01*
X84834312Y-111717925D01*
X84834310Y-111717927D01*
X84786610Y-111783579D01*
X84723240Y-111870800D01*
X84637454Y-112039163D01*
X84579059Y-112218881D01*
X84549500Y-112405513D01*
X71519458Y-112405513D01*
X78908441Y-105016530D01*
X125449500Y-105016530D01*
X125449500Y-105223469D01*
X125489868Y-105426412D01*
X125489870Y-105426420D01*
X125569058Y-105617596D01*
X125684024Y-105789657D01*
X125830342Y-105935975D01*
X125830345Y-105935977D01*
X126002402Y-106050941D01*
X126193580Y-106130130D01*
X126396530Y-106170499D01*
X126396534Y-106170500D01*
X126396535Y-106170500D01*
X126603466Y-106170500D01*
X126603467Y-106170499D01*
X126806420Y-106130130D01*
X126997598Y-106050941D01*
X127169655Y-105935977D01*
X127315977Y-105789655D01*
X127430941Y-105617598D01*
X127510130Y-105426420D01*
X127550500Y-105223465D01*
X127550500Y-105016535D01*
X127550499Y-105016530D01*
X127989500Y-105016530D01*
X127989500Y-105223469D01*
X128029868Y-105426412D01*
X128029870Y-105426420D01*
X128109058Y-105617596D01*
X128224024Y-105789657D01*
X128370342Y-105935975D01*
X128370345Y-105935977D01*
X128542402Y-106050941D01*
X128733580Y-106130130D01*
X128936530Y-106170499D01*
X128936534Y-106170500D01*
X128936535Y-106170500D01*
X129143466Y-106170500D01*
X129143467Y-106170499D01*
X129346420Y-106130130D01*
X129537598Y-106050941D01*
X129709655Y-105935977D01*
X129855977Y-105789655D01*
X129970941Y-105617598D01*
X130050130Y-105426420D01*
X130090500Y-105223465D01*
X130090500Y-105016535D01*
X130050130Y-104813580D01*
X129970941Y-104622402D01*
X129855977Y-104450345D01*
X129855975Y-104450342D01*
X129709657Y-104304024D01*
X129623626Y-104246541D01*
X129537598Y-104189059D01*
X129346420Y-104109870D01*
X129346412Y-104109868D01*
X129143469Y-104069500D01*
X129143465Y-104069500D01*
X128936535Y-104069500D01*
X128936530Y-104069500D01*
X128733587Y-104109868D01*
X128733579Y-104109870D01*
X128542403Y-104189058D01*
X128370342Y-104304024D01*
X128224024Y-104450342D01*
X128109058Y-104622403D01*
X128029870Y-104813579D01*
X128029868Y-104813587D01*
X127989500Y-105016530D01*
X127550499Y-105016530D01*
X127510130Y-104813580D01*
X127430941Y-104622402D01*
X127315977Y-104450345D01*
X127315975Y-104450342D01*
X127169657Y-104304024D01*
X127083626Y-104246541D01*
X126997598Y-104189059D01*
X126806420Y-104109870D01*
X126806412Y-104109868D01*
X126603469Y-104069500D01*
X126603465Y-104069500D01*
X126396535Y-104069500D01*
X126396530Y-104069500D01*
X126193587Y-104109868D01*
X126193579Y-104109870D01*
X126002403Y-104189058D01*
X125830342Y-104304024D01*
X125684024Y-104450342D01*
X125569058Y-104622403D01*
X125489870Y-104813579D01*
X125489868Y-104813587D01*
X125449500Y-105016530D01*
X78908441Y-105016530D01*
X81448441Y-102476530D01*
X125449500Y-102476530D01*
X125449500Y-102683469D01*
X125489868Y-102886412D01*
X125489870Y-102886420D01*
X125569058Y-103077596D01*
X125684024Y-103249657D01*
X125830342Y-103395975D01*
X125830345Y-103395977D01*
X126002402Y-103510941D01*
X126193580Y-103590130D01*
X126396530Y-103630499D01*
X126396534Y-103630500D01*
X126396535Y-103630500D01*
X126603466Y-103630500D01*
X126603467Y-103630499D01*
X126806420Y-103590130D01*
X126997598Y-103510941D01*
X127169655Y-103395977D01*
X127315977Y-103249655D01*
X127430941Y-103077598D01*
X127510130Y-102886420D01*
X127550500Y-102683465D01*
X127550500Y-102476535D01*
X127550499Y-102476530D01*
X127989500Y-102476530D01*
X127989500Y-102683469D01*
X128029868Y-102886412D01*
X128029870Y-102886420D01*
X128109058Y-103077596D01*
X128224024Y-103249657D01*
X128370342Y-103395975D01*
X128370345Y-103395977D01*
X128542402Y-103510941D01*
X128733580Y-103590130D01*
X128936530Y-103630499D01*
X128936534Y-103630500D01*
X128936535Y-103630500D01*
X129143466Y-103630500D01*
X129143467Y-103630499D01*
X129346420Y-103590130D01*
X129537598Y-103510941D01*
X129709655Y-103395977D01*
X129855977Y-103249655D01*
X129970941Y-103077598D01*
X130050130Y-102886420D01*
X130090500Y-102683465D01*
X130090500Y-102476535D01*
X130050130Y-102273580D01*
X129970941Y-102082402D01*
X129855977Y-101910345D01*
X129855975Y-101910342D01*
X129709657Y-101764024D01*
X129623626Y-101706541D01*
X129537598Y-101649059D01*
X129346420Y-101569870D01*
X129346412Y-101569868D01*
X129143469Y-101529500D01*
X129143465Y-101529500D01*
X128936535Y-101529500D01*
X128936530Y-101529500D01*
X128733587Y-101569868D01*
X128733579Y-101569870D01*
X128542403Y-101649058D01*
X128370342Y-101764024D01*
X128224024Y-101910342D01*
X128109058Y-102082403D01*
X128029870Y-102273579D01*
X128029868Y-102273587D01*
X127989500Y-102476530D01*
X127550499Y-102476530D01*
X127510130Y-102273580D01*
X127430941Y-102082402D01*
X127315977Y-101910345D01*
X127315975Y-101910342D01*
X127169657Y-101764024D01*
X127083626Y-101706541D01*
X126997598Y-101649059D01*
X126806420Y-101569870D01*
X126806412Y-101569868D01*
X126603469Y-101529500D01*
X126603465Y-101529500D01*
X126396535Y-101529500D01*
X126396530Y-101529500D01*
X126193587Y-101569868D01*
X126193579Y-101569870D01*
X126002403Y-101649058D01*
X125830342Y-101764024D01*
X125684024Y-101910342D01*
X125569058Y-102082403D01*
X125489870Y-102273579D01*
X125489868Y-102273587D01*
X125449500Y-102476530D01*
X81448441Y-102476530D01*
X84769458Y-99155513D01*
X98299500Y-99155513D01*
X98299500Y-99344486D01*
X98329059Y-99531118D01*
X98387454Y-99710836D01*
X98470666Y-99874148D01*
X98473240Y-99879199D01*
X98584310Y-100032073D01*
X98717927Y-100165690D01*
X98870801Y-100276760D01*
X98950347Y-100317290D01*
X99039163Y-100362545D01*
X99039165Y-100362545D01*
X99039168Y-100362547D01*
X99135497Y-100393846D01*
X99218881Y-100420940D01*
X99405514Y-100450500D01*
X99405519Y-100450500D01*
X99594486Y-100450500D01*
X99781118Y-100420940D01*
X99960832Y-100362547D01*
X100129199Y-100276760D01*
X100282073Y-100165690D01*
X100415690Y-100032073D01*
X100526760Y-99879199D01*
X100612547Y-99710832D01*
X100618281Y-99693186D01*
X100636803Y-99636182D01*
X100676241Y-99578506D01*
X100740599Y-99551308D01*
X100754734Y-99550500D01*
X104745266Y-99550500D01*
X104812305Y-99570185D01*
X104858060Y-99622989D01*
X104863197Y-99636182D01*
X104887451Y-99710829D01*
X104899047Y-99733587D01*
X104973240Y-99879199D01*
X105084310Y-100032073D01*
X105217927Y-100165690D01*
X105370801Y-100276760D01*
X105450347Y-100317290D01*
X105539163Y-100362545D01*
X105539165Y-100362545D01*
X105539168Y-100362547D01*
X105635497Y-100393846D01*
X105718881Y-100420940D01*
X105905514Y-100450500D01*
X105905519Y-100450500D01*
X106094486Y-100450500D01*
X106281118Y-100420940D01*
X106460832Y-100362547D01*
X106629199Y-100276760D01*
X106782073Y-100165690D01*
X106915690Y-100032073D01*
X106985106Y-99936530D01*
X125449500Y-99936530D01*
X125449500Y-100143469D01*
X125489868Y-100346412D01*
X125489870Y-100346420D01*
X125569058Y-100537596D01*
X125684024Y-100709657D01*
X125830342Y-100855975D01*
X125830345Y-100855977D01*
X126002402Y-100970941D01*
X126193580Y-101050130D01*
X126396530Y-101090499D01*
X126396534Y-101090500D01*
X126396535Y-101090500D01*
X126603466Y-101090500D01*
X126603467Y-101090499D01*
X126806420Y-101050130D01*
X126997598Y-100970941D01*
X127169655Y-100855977D01*
X127315977Y-100709655D01*
X127430941Y-100537598D01*
X127510130Y-100346420D01*
X127550500Y-100143465D01*
X127550500Y-99936535D01*
X127510130Y-99733580D01*
X127430941Y-99542402D01*
X127315977Y-99370345D01*
X127315975Y-99370342D01*
X127169657Y-99224024D01*
X127067122Y-99155513D01*
X126997598Y-99109059D01*
X126806420Y-99029870D01*
X126806412Y-99029868D01*
X126603469Y-98989500D01*
X126603465Y-98989500D01*
X126396535Y-98989500D01*
X126396530Y-98989500D01*
X126193587Y-99029868D01*
X126193579Y-99029870D01*
X126002403Y-99109058D01*
X125830342Y-99224024D01*
X125684024Y-99370342D01*
X125569058Y-99542403D01*
X125489870Y-99733579D01*
X125489868Y-99733587D01*
X125449500Y-99936530D01*
X106985106Y-99936530D01*
X107026760Y-99879199D01*
X107112547Y-99710832D01*
X107170940Y-99531118D01*
X107183871Y-99449475D01*
X107200500Y-99344486D01*
X107200500Y-99155513D01*
X107170940Y-98968881D01*
X107136802Y-98863818D01*
X107112547Y-98789168D01*
X107112545Y-98789165D01*
X107112545Y-98789163D01*
X107026759Y-98620800D01*
X106915690Y-98467927D01*
X106782073Y-98334310D01*
X106629199Y-98223240D01*
X106460836Y-98137454D01*
X106281118Y-98079059D01*
X106094486Y-98049500D01*
X106094481Y-98049500D01*
X105905519Y-98049500D01*
X105905514Y-98049500D01*
X105718881Y-98079059D01*
X105539163Y-98137454D01*
X105370800Y-98223240D01*
X105283579Y-98286610D01*
X105217927Y-98334310D01*
X105217925Y-98334312D01*
X105217924Y-98334312D01*
X105084312Y-98467924D01*
X105084312Y-98467925D01*
X105084310Y-98467927D01*
X105053648Y-98510129D01*
X104973240Y-98620800D01*
X104887451Y-98789170D01*
X104863197Y-98863818D01*
X104823759Y-98921494D01*
X104759401Y-98948692D01*
X104745266Y-98949500D01*
X100754734Y-98949500D01*
X100687695Y-98929815D01*
X100641940Y-98877011D01*
X100636803Y-98863818D01*
X100612548Y-98789170D01*
X100526759Y-98620800D01*
X100415690Y-98467927D01*
X100282073Y-98334310D01*
X100129199Y-98223240D01*
X99960836Y-98137454D01*
X99781118Y-98079059D01*
X99594486Y-98049500D01*
X99594481Y-98049500D01*
X99405519Y-98049500D01*
X99405514Y-98049500D01*
X99218881Y-98079059D01*
X99039163Y-98137454D01*
X98870800Y-98223240D01*
X98783579Y-98286610D01*
X98717927Y-98334310D01*
X98717925Y-98334312D01*
X98717924Y-98334312D01*
X98584312Y-98467924D01*
X98584312Y-98467925D01*
X98584310Y-98467927D01*
X98553648Y-98510129D01*
X98473240Y-98620800D01*
X98387454Y-98789163D01*
X98329059Y-98968881D01*
X98299500Y-99155513D01*
X84769458Y-99155513D01*
X86528441Y-97396530D01*
X125449500Y-97396530D01*
X125449500Y-97603469D01*
X125489868Y-97806412D01*
X125489870Y-97806420D01*
X125556132Y-97966391D01*
X125569059Y-97997598D01*
X125570998Y-98000500D01*
X125684024Y-98169657D01*
X125830342Y-98315975D01*
X125830345Y-98315977D01*
X126002402Y-98430941D01*
X126193580Y-98510130D01*
X126396530Y-98550499D01*
X126396534Y-98550500D01*
X126396535Y-98550500D01*
X126603466Y-98550500D01*
X126603467Y-98550499D01*
X126806420Y-98510130D01*
X126997598Y-98430941D01*
X127169655Y-98315977D01*
X127315977Y-98169655D01*
X127430941Y-97997598D01*
X127510130Y-97806420D01*
X127550500Y-97603465D01*
X127550500Y-97396535D01*
X127550499Y-97396530D01*
X127989500Y-97396530D01*
X127989500Y-97603469D01*
X128029868Y-97806412D01*
X128029870Y-97806420D01*
X128096132Y-97966391D01*
X128109059Y-97997598D01*
X128110998Y-98000500D01*
X128224024Y-98169657D01*
X128370342Y-98315975D01*
X128370345Y-98315977D01*
X128542402Y-98430941D01*
X128733580Y-98510130D01*
X128936530Y-98550499D01*
X128936534Y-98550500D01*
X128936535Y-98550500D01*
X129143466Y-98550500D01*
X129143467Y-98550499D01*
X129346420Y-98510130D01*
X129537598Y-98430941D01*
X129709655Y-98315977D01*
X129855977Y-98169655D01*
X129970941Y-97997598D01*
X130050130Y-97806420D01*
X130090500Y-97603465D01*
X130090500Y-97396535D01*
X130050130Y-97193580D01*
X129970941Y-97002402D01*
X129855977Y-96830345D01*
X129855975Y-96830342D01*
X129709657Y-96684024D01*
X129623626Y-96626541D01*
X129537598Y-96569059D01*
X129346420Y-96489870D01*
X129346412Y-96489868D01*
X129143469Y-96449500D01*
X129143465Y-96449500D01*
X128936535Y-96449500D01*
X128936530Y-96449500D01*
X128733587Y-96489868D01*
X128733579Y-96489870D01*
X128542403Y-96569058D01*
X128370342Y-96684024D01*
X128224024Y-96830342D01*
X128109058Y-97002403D01*
X128029870Y-97193579D01*
X128029868Y-97193587D01*
X127989500Y-97396530D01*
X127550499Y-97396530D01*
X127510130Y-97193580D01*
X127430941Y-97002402D01*
X127315977Y-96830345D01*
X127315975Y-96830342D01*
X127169657Y-96684024D01*
X127083626Y-96626541D01*
X126997598Y-96569059D01*
X126806420Y-96489870D01*
X126806412Y-96489868D01*
X126603469Y-96449500D01*
X126603465Y-96449500D01*
X126396535Y-96449500D01*
X126396530Y-96449500D01*
X126193587Y-96489868D01*
X126193579Y-96489870D01*
X126002403Y-96569058D01*
X125830342Y-96684024D01*
X125684024Y-96830342D01*
X125569058Y-97002403D01*
X125489870Y-97193579D01*
X125489868Y-97193587D01*
X125449500Y-97396530D01*
X86528441Y-97396530D01*
X89068441Y-94856530D01*
X125449500Y-94856530D01*
X125449500Y-95063469D01*
X125489868Y-95266412D01*
X125489870Y-95266420D01*
X125569058Y-95457596D01*
X125684024Y-95629657D01*
X125830342Y-95775975D01*
X125830345Y-95775977D01*
X126002402Y-95890941D01*
X126193580Y-95970130D01*
X126396530Y-96010499D01*
X126396534Y-96010500D01*
X126396535Y-96010500D01*
X126603466Y-96010500D01*
X126603467Y-96010499D01*
X126806420Y-95970130D01*
X126997598Y-95890941D01*
X127169655Y-95775977D01*
X127315977Y-95629655D01*
X127430941Y-95457598D01*
X127510130Y-95266420D01*
X127550500Y-95063465D01*
X127550500Y-94856535D01*
X127550499Y-94856530D01*
X127989500Y-94856530D01*
X127989500Y-95063469D01*
X128029868Y-95266412D01*
X128029870Y-95266420D01*
X128109058Y-95457596D01*
X128224024Y-95629657D01*
X128370342Y-95775975D01*
X128370345Y-95775977D01*
X128542402Y-95890941D01*
X128733580Y-95970130D01*
X128936530Y-96010499D01*
X128936534Y-96010500D01*
X128936535Y-96010500D01*
X129143466Y-96010500D01*
X129143467Y-96010499D01*
X129346420Y-95970130D01*
X129466974Y-95920194D01*
X129536438Y-95912726D01*
X129598918Y-95944000D01*
X129602104Y-95947075D01*
X137663181Y-104008152D01*
X137696666Y-104069475D01*
X137699500Y-104095833D01*
X137699500Y-106541323D01*
X137679815Y-106608362D01*
X137663182Y-106629004D01*
X137599500Y-106692686D01*
X137533608Y-106806812D01*
X137499500Y-106934108D01*
X137499500Y-107065891D01*
X137533608Y-107193187D01*
X137566554Y-107250250D01*
X137599500Y-107307314D01*
X137692686Y-107400500D01*
X137806814Y-107466392D01*
X137934108Y-107500500D01*
X137934110Y-107500500D01*
X138065890Y-107500500D01*
X138065892Y-107500500D01*
X138193186Y-107466392D01*
X138307314Y-107400500D01*
X138400500Y-107307314D01*
X138466392Y-107193186D01*
X138500500Y-107065892D01*
X138500500Y-106934108D01*
X138466392Y-106806814D01*
X138400500Y-106692686D01*
X138336818Y-106629004D01*
X138303334Y-106567680D01*
X138300500Y-106541323D01*
X138300500Y-103880440D01*
X138300500Y-103880438D01*
X138280022Y-103804012D01*
X138240460Y-103735489D01*
X132674965Y-98169994D01*
X132641480Y-98108671D01*
X132646464Y-98038979D01*
X132688336Y-97983046D01*
X132753800Y-97958629D01*
X132798536Y-97965879D01*
X132798963Y-97964288D01*
X132806812Y-97966391D01*
X132806814Y-97966392D01*
X132934108Y-98000500D01*
X132934110Y-98000500D01*
X133065890Y-98000500D01*
X133065892Y-98000500D01*
X133193186Y-97966392D01*
X133307314Y-97900500D01*
X133370995Y-97836819D01*
X133432318Y-97803334D01*
X133458676Y-97800500D01*
X135824167Y-97800500D01*
X135891206Y-97820185D01*
X135911848Y-97836819D01*
X137463181Y-99388152D01*
X137496666Y-99449475D01*
X137499500Y-99475833D01*
X137499500Y-99565892D01*
X137502880Y-99578506D01*
X137533608Y-99693187D01*
X137566554Y-99750250D01*
X137599500Y-99807314D01*
X137692686Y-99900500D01*
X137806814Y-99966392D01*
X137934108Y-100000500D01*
X137934110Y-100000500D01*
X138065890Y-100000500D01*
X138065892Y-100000500D01*
X138193186Y-99966392D01*
X138307314Y-99900500D01*
X138400500Y-99807314D01*
X138466392Y-99693186D01*
X138500500Y-99565892D01*
X138500500Y-99434108D01*
X138466392Y-99306814D01*
X138400500Y-99192686D01*
X138307314Y-99099500D01*
X138250250Y-99066554D01*
X138193187Y-99033608D01*
X138129539Y-99016554D01*
X138065892Y-98999500D01*
X137975833Y-98999500D01*
X137908794Y-98979815D01*
X137888152Y-98963181D01*
X136184512Y-97259541D01*
X136184507Y-97259537D01*
X136175065Y-97254086D01*
X136175064Y-97254086D01*
X136115991Y-97219980D01*
X136115990Y-97219979D01*
X136090513Y-97213152D01*
X136039562Y-97199500D01*
X136039560Y-97199500D01*
X133458676Y-97199500D01*
X133391637Y-97179815D01*
X133370995Y-97163181D01*
X133307316Y-97099502D01*
X133307314Y-97099500D01*
X133250250Y-97066554D01*
X133193187Y-97033608D01*
X133129539Y-97016554D01*
X133065892Y-96999500D01*
X132934108Y-96999500D01*
X132806812Y-97033608D01*
X132692686Y-97099500D01*
X132692683Y-97099502D01*
X132599502Y-97192683D01*
X132599500Y-97192686D01*
X132533608Y-97306812D01*
X132499500Y-97434108D01*
X132499500Y-97565891D01*
X132535712Y-97701037D01*
X132533508Y-97701627D01*
X132539715Y-97759375D01*
X132508437Y-97821853D01*
X132448347Y-97857503D01*
X132378522Y-97855006D01*
X132330005Y-97825034D01*
X130027075Y-95522104D01*
X129993590Y-95460781D01*
X129998574Y-95391089D01*
X130000163Y-95387049D01*
X130050130Y-95266420D01*
X130090500Y-95063465D01*
X130090500Y-94856535D01*
X130050130Y-94653580D01*
X129970941Y-94462402D01*
X129855977Y-94290345D01*
X129855975Y-94290342D01*
X129709657Y-94144024D01*
X129623626Y-94086541D01*
X129537598Y-94029059D01*
X129346420Y-93949870D01*
X129346412Y-93949868D01*
X129143469Y-93909500D01*
X129143465Y-93909500D01*
X128936535Y-93909500D01*
X128936530Y-93909500D01*
X128733587Y-93949868D01*
X128733579Y-93949870D01*
X128542403Y-94029058D01*
X128370342Y-94144024D01*
X128224024Y-94290342D01*
X128109058Y-94462403D01*
X128029870Y-94653579D01*
X128029868Y-94653587D01*
X127989500Y-94856530D01*
X127550499Y-94856530D01*
X127510130Y-94653580D01*
X127430941Y-94462402D01*
X127315977Y-94290345D01*
X127315975Y-94290342D01*
X127169657Y-94144024D01*
X127083626Y-94086541D01*
X126997598Y-94029059D01*
X126806420Y-93949870D01*
X126806412Y-93949868D01*
X126603469Y-93909500D01*
X126603465Y-93909500D01*
X126396535Y-93909500D01*
X126396530Y-93909500D01*
X126193587Y-93949868D01*
X126193579Y-93949870D01*
X126002403Y-94029058D01*
X125830342Y-94144024D01*
X125684024Y-94290342D01*
X125569058Y-94462403D01*
X125489870Y-94653579D01*
X125489868Y-94653587D01*
X125449500Y-94856530D01*
X89068441Y-94856530D01*
X91608441Y-92316530D01*
X125449500Y-92316530D01*
X125449500Y-92523469D01*
X125489868Y-92726412D01*
X125489870Y-92726420D01*
X125569058Y-92917596D01*
X125684024Y-93089657D01*
X125830342Y-93235975D01*
X125830345Y-93235977D01*
X126002402Y-93350941D01*
X126193580Y-93430130D01*
X126396530Y-93470499D01*
X126396534Y-93470500D01*
X126396535Y-93470500D01*
X126603466Y-93470500D01*
X126603467Y-93470499D01*
X126806420Y-93430130D01*
X126997598Y-93350941D01*
X127169655Y-93235977D01*
X127315977Y-93089655D01*
X127430941Y-92917598D01*
X127510130Y-92726420D01*
X127550500Y-92523465D01*
X127550500Y-92316535D01*
X127550499Y-92316530D01*
X127989500Y-92316530D01*
X127989500Y-92523469D01*
X128029868Y-92726412D01*
X128029870Y-92726420D01*
X128109058Y-92917596D01*
X128224024Y-93089657D01*
X128370342Y-93235975D01*
X128370345Y-93235977D01*
X128542402Y-93350941D01*
X128733580Y-93430130D01*
X128936530Y-93470499D01*
X128936534Y-93470500D01*
X128936535Y-93470500D01*
X129143466Y-93470500D01*
X129143467Y-93470499D01*
X129346420Y-93430130D01*
X129537598Y-93350941D01*
X129709655Y-93235977D01*
X129855977Y-93089655D01*
X129970941Y-92917598D01*
X130050130Y-92726420D01*
X130090500Y-92523465D01*
X130090500Y-92316535D01*
X130050130Y-92113580D01*
X129970941Y-91922402D01*
X129855977Y-91750345D01*
X129855975Y-91750342D01*
X129709657Y-91604024D01*
X129623626Y-91546541D01*
X129537598Y-91489059D01*
X129346420Y-91409870D01*
X129346412Y-91409868D01*
X129143469Y-91369500D01*
X129143465Y-91369500D01*
X128936535Y-91369500D01*
X128936530Y-91369500D01*
X128733587Y-91409868D01*
X128733579Y-91409870D01*
X128542403Y-91489058D01*
X128370342Y-91604024D01*
X128224024Y-91750342D01*
X128109058Y-91922403D01*
X128029870Y-92113579D01*
X128029868Y-92113587D01*
X127989500Y-92316530D01*
X127550499Y-92316530D01*
X127510130Y-92113580D01*
X127430941Y-91922402D01*
X127315977Y-91750345D01*
X127315975Y-91750342D01*
X127169657Y-91604024D01*
X127083626Y-91546541D01*
X126997598Y-91489059D01*
X126806420Y-91409870D01*
X126806412Y-91409868D01*
X126603469Y-91369500D01*
X126603465Y-91369500D01*
X126396535Y-91369500D01*
X126396530Y-91369500D01*
X126193587Y-91409868D01*
X126193579Y-91409870D01*
X126002403Y-91489058D01*
X125830342Y-91604024D01*
X125684024Y-91750342D01*
X125569058Y-91922403D01*
X125489870Y-92113579D01*
X125489868Y-92113587D01*
X125449500Y-92316530D01*
X91608441Y-92316530D01*
X94148441Y-89776530D01*
X125449500Y-89776530D01*
X125449500Y-89983469D01*
X125489868Y-90186412D01*
X125489870Y-90186420D01*
X125569058Y-90377596D01*
X125684024Y-90549657D01*
X125830342Y-90695975D01*
X125830345Y-90695977D01*
X126002402Y-90810941D01*
X126193580Y-90890130D01*
X126396530Y-90930499D01*
X126396534Y-90930500D01*
X126396535Y-90930500D01*
X126603466Y-90930500D01*
X126603467Y-90930499D01*
X126806420Y-90890130D01*
X126997598Y-90810941D01*
X127169655Y-90695977D01*
X127315977Y-90549655D01*
X127430941Y-90377598D01*
X127510130Y-90186420D01*
X127550500Y-89983465D01*
X127550500Y-89776535D01*
X127550499Y-89776530D01*
X127989500Y-89776530D01*
X127989500Y-89983469D01*
X128029868Y-90186412D01*
X128029870Y-90186420D01*
X128109058Y-90377596D01*
X128224024Y-90549657D01*
X128370342Y-90695975D01*
X128370345Y-90695977D01*
X128542402Y-90810941D01*
X128733580Y-90890130D01*
X128936530Y-90930499D01*
X128936534Y-90930500D01*
X128936535Y-90930500D01*
X129143466Y-90930500D01*
X129143467Y-90930499D01*
X129346420Y-90890130D01*
X129537598Y-90810941D01*
X129709655Y-90695977D01*
X129855977Y-90549655D01*
X129970941Y-90377598D01*
X130050130Y-90186420D01*
X130090500Y-89983465D01*
X130090500Y-89776535D01*
X130050130Y-89573580D01*
X129970941Y-89382402D01*
X129855977Y-89210345D01*
X129855975Y-89210342D01*
X129709657Y-89064024D01*
X129623626Y-89006541D01*
X129537598Y-88949059D01*
X129346420Y-88869870D01*
X129346412Y-88869868D01*
X129143469Y-88829500D01*
X129143465Y-88829500D01*
X128936535Y-88829500D01*
X128936530Y-88829500D01*
X128733587Y-88869868D01*
X128733579Y-88869870D01*
X128542403Y-88949058D01*
X128370342Y-89064024D01*
X128224024Y-89210342D01*
X128109058Y-89382403D01*
X128029870Y-89573579D01*
X128029868Y-89573587D01*
X127989500Y-89776530D01*
X127550499Y-89776530D01*
X127510130Y-89573580D01*
X127430941Y-89382402D01*
X127315977Y-89210345D01*
X127315975Y-89210342D01*
X127169657Y-89064024D01*
X127083626Y-89006541D01*
X126997598Y-88949059D01*
X126806420Y-88869870D01*
X126806412Y-88869868D01*
X126603469Y-88829500D01*
X126603465Y-88829500D01*
X126396535Y-88829500D01*
X126396530Y-88829500D01*
X126193587Y-88869868D01*
X126193579Y-88869870D01*
X126002403Y-88949058D01*
X125830342Y-89064024D01*
X125684024Y-89210342D01*
X125569058Y-89382403D01*
X125489870Y-89573579D01*
X125489868Y-89573587D01*
X125449500Y-89776530D01*
X94148441Y-89776530D01*
X96688441Y-87236530D01*
X125449500Y-87236530D01*
X125449500Y-87443469D01*
X125489868Y-87646412D01*
X125489870Y-87646420D01*
X125569058Y-87837596D01*
X125684024Y-88009657D01*
X125830342Y-88155975D01*
X125830345Y-88155977D01*
X126002402Y-88270941D01*
X126193580Y-88350130D01*
X126396530Y-88390499D01*
X126396534Y-88390500D01*
X126396535Y-88390500D01*
X126603466Y-88390500D01*
X126603467Y-88390499D01*
X126806420Y-88350130D01*
X126997598Y-88270941D01*
X127169655Y-88155977D01*
X127315977Y-88009655D01*
X127430941Y-87837598D01*
X127510130Y-87646420D01*
X127550500Y-87443465D01*
X127550500Y-87236535D01*
X127550499Y-87236530D01*
X127989500Y-87236530D01*
X127989500Y-87443469D01*
X128029868Y-87646412D01*
X128029870Y-87646420D01*
X128109058Y-87837596D01*
X128224024Y-88009657D01*
X128370342Y-88155975D01*
X128370345Y-88155977D01*
X128542402Y-88270941D01*
X128733580Y-88350130D01*
X128936530Y-88390499D01*
X128936534Y-88390500D01*
X128936535Y-88390500D01*
X129143466Y-88390500D01*
X129143467Y-88390499D01*
X129346420Y-88350130D01*
X129537598Y-88270941D01*
X129709655Y-88155977D01*
X129855977Y-88009655D01*
X129970941Y-87837598D01*
X130050130Y-87646420D01*
X130090500Y-87443465D01*
X130090500Y-87236535D01*
X130050130Y-87033580D01*
X129970941Y-86842402D01*
X129855977Y-86670345D01*
X129855975Y-86670342D01*
X129709657Y-86524024D01*
X129623626Y-86466541D01*
X129537598Y-86409059D01*
X129346420Y-86329870D01*
X129346412Y-86329868D01*
X129143469Y-86289500D01*
X129143465Y-86289500D01*
X128936535Y-86289500D01*
X128936530Y-86289500D01*
X128733587Y-86329868D01*
X128733579Y-86329870D01*
X128542403Y-86409058D01*
X128370342Y-86524024D01*
X128224024Y-86670342D01*
X128109058Y-86842403D01*
X128029870Y-87033579D01*
X128029868Y-87033587D01*
X127989500Y-87236530D01*
X127550499Y-87236530D01*
X127510130Y-87033580D01*
X127430941Y-86842402D01*
X127315977Y-86670345D01*
X127315975Y-86670342D01*
X127169657Y-86524024D01*
X127083626Y-86466541D01*
X126997598Y-86409059D01*
X126806420Y-86329870D01*
X126806412Y-86329868D01*
X126603469Y-86289500D01*
X126603465Y-86289500D01*
X126396535Y-86289500D01*
X126396530Y-86289500D01*
X126193587Y-86329868D01*
X126193579Y-86329870D01*
X126002403Y-86409058D01*
X125830342Y-86524024D01*
X125684024Y-86670342D01*
X125569058Y-86842403D01*
X125489870Y-87033579D01*
X125489868Y-87033587D01*
X125449500Y-87236530D01*
X96688441Y-87236530D01*
X98990863Y-84934108D01*
X103999500Y-84934108D01*
X103999500Y-85065891D01*
X104033608Y-85193187D01*
X104060902Y-85240460D01*
X104099500Y-85307314D01*
X104192686Y-85400500D01*
X104306814Y-85466392D01*
X104434108Y-85500500D01*
X104434110Y-85500500D01*
X104565890Y-85500500D01*
X104565892Y-85500500D01*
X104693186Y-85466392D01*
X104807314Y-85400500D01*
X104870995Y-85336819D01*
X104932318Y-85303334D01*
X104958676Y-85300500D01*
X111099560Y-85300500D01*
X111099562Y-85300500D01*
X111175989Y-85280021D01*
X111244511Y-85240460D01*
X111300460Y-85184511D01*
X111788441Y-84696530D01*
X125449500Y-84696530D01*
X125449500Y-84903469D01*
X125489868Y-85106412D01*
X125489870Y-85106420D01*
X125545391Y-85240460D01*
X125569059Y-85297598D01*
X125626541Y-85383626D01*
X125684024Y-85469657D01*
X125830342Y-85615975D01*
X125830345Y-85615977D01*
X126002402Y-85730941D01*
X126193580Y-85810130D01*
X126396530Y-85850499D01*
X126396534Y-85850500D01*
X126396535Y-85850500D01*
X126603466Y-85850500D01*
X126603467Y-85850499D01*
X126806420Y-85810130D01*
X126997598Y-85730941D01*
X127169655Y-85615977D01*
X127315977Y-85469655D01*
X127430941Y-85297598D01*
X127510130Y-85106420D01*
X127550500Y-84903465D01*
X127550500Y-84696535D01*
X127550499Y-84696530D01*
X127989500Y-84696530D01*
X127989500Y-84903469D01*
X128029868Y-85106412D01*
X128029870Y-85106420D01*
X128085391Y-85240460D01*
X128109059Y-85297598D01*
X128166541Y-85383626D01*
X128224024Y-85469657D01*
X128370342Y-85615975D01*
X128370345Y-85615977D01*
X128542402Y-85730941D01*
X128733580Y-85810130D01*
X128936530Y-85850499D01*
X128936534Y-85850500D01*
X128936535Y-85850500D01*
X129143466Y-85850500D01*
X129143467Y-85850499D01*
X129346420Y-85810130D01*
X129537598Y-85730941D01*
X129709655Y-85615977D01*
X129855977Y-85469655D01*
X129970941Y-85297598D01*
X130050130Y-85106420D01*
X130090500Y-84903465D01*
X130090500Y-84696535D01*
X130050130Y-84493580D01*
X129970941Y-84302402D01*
X129855977Y-84130345D01*
X129855975Y-84130342D01*
X129709657Y-83984024D01*
X129623626Y-83926541D01*
X129537598Y-83869059D01*
X129346420Y-83789870D01*
X129346412Y-83789868D01*
X129143469Y-83749500D01*
X129143465Y-83749500D01*
X128936535Y-83749500D01*
X128936530Y-83749500D01*
X128733587Y-83789868D01*
X128733579Y-83789870D01*
X128542403Y-83869058D01*
X128370342Y-83984024D01*
X128224024Y-84130342D01*
X128109058Y-84302403D01*
X128029870Y-84493579D01*
X128029868Y-84493587D01*
X127989500Y-84696530D01*
X127550499Y-84696530D01*
X127510130Y-84493580D01*
X127430941Y-84302402D01*
X127315977Y-84130345D01*
X127315975Y-84130342D01*
X127169657Y-83984024D01*
X127083626Y-83926541D01*
X126997598Y-83869059D01*
X126806420Y-83789870D01*
X126806412Y-83789868D01*
X126603469Y-83749500D01*
X126603465Y-83749500D01*
X126396535Y-83749500D01*
X126396530Y-83749500D01*
X126193587Y-83789868D01*
X126193579Y-83789870D01*
X126002403Y-83869058D01*
X125830342Y-83984024D01*
X125684024Y-84130342D01*
X125569058Y-84302403D01*
X125489870Y-84493579D01*
X125489868Y-84493587D01*
X125449500Y-84696530D01*
X111788441Y-84696530D01*
X114328440Y-82156530D01*
X125449500Y-82156530D01*
X125449500Y-82363469D01*
X125489868Y-82566412D01*
X125489870Y-82566420D01*
X125569058Y-82757596D01*
X125684024Y-82929657D01*
X125830342Y-83075975D01*
X125830345Y-83075977D01*
X126002402Y-83190941D01*
X126193580Y-83270130D01*
X126396530Y-83310499D01*
X126396534Y-83310500D01*
X126396535Y-83310500D01*
X126603466Y-83310500D01*
X126603467Y-83310499D01*
X126806420Y-83270130D01*
X126997598Y-83190941D01*
X127169655Y-83075977D01*
X127315977Y-82929655D01*
X127430941Y-82757598D01*
X127510130Y-82566420D01*
X127550500Y-82363465D01*
X127550500Y-82156535D01*
X127550499Y-82156530D01*
X127989500Y-82156530D01*
X127989500Y-82363469D01*
X128029868Y-82566412D01*
X128029870Y-82566420D01*
X128109058Y-82757596D01*
X128224024Y-82929657D01*
X128370342Y-83075975D01*
X128370345Y-83075977D01*
X128542402Y-83190941D01*
X128733580Y-83270130D01*
X128936530Y-83310499D01*
X128936534Y-83310500D01*
X128936535Y-83310500D01*
X129143466Y-83310500D01*
X129143467Y-83310499D01*
X129346420Y-83270130D01*
X129537598Y-83190941D01*
X129709655Y-83075977D01*
X129855977Y-82929655D01*
X129970941Y-82757598D01*
X130050130Y-82566420D01*
X130090500Y-82363465D01*
X130090500Y-82156535D01*
X130050130Y-81953580D01*
X129970941Y-81762402D01*
X129855977Y-81590345D01*
X129855975Y-81590342D01*
X129709657Y-81444024D01*
X129623626Y-81386541D01*
X129537598Y-81329059D01*
X129346420Y-81249870D01*
X129346412Y-81249868D01*
X129143469Y-81209500D01*
X129143465Y-81209500D01*
X128936535Y-81209500D01*
X128936530Y-81209500D01*
X128733587Y-81249868D01*
X128733579Y-81249870D01*
X128542403Y-81329058D01*
X128370342Y-81444024D01*
X128224024Y-81590342D01*
X128109058Y-81762403D01*
X128029870Y-81953579D01*
X128029868Y-81953587D01*
X127989500Y-82156530D01*
X127550499Y-82156530D01*
X127510130Y-81953580D01*
X127430941Y-81762402D01*
X127315977Y-81590345D01*
X127315975Y-81590342D01*
X127169657Y-81444024D01*
X127083626Y-81386541D01*
X126997598Y-81329059D01*
X126806420Y-81249870D01*
X126806412Y-81249868D01*
X126603469Y-81209500D01*
X126603465Y-81209500D01*
X126396535Y-81209500D01*
X126396530Y-81209500D01*
X126193587Y-81249868D01*
X126193579Y-81249870D01*
X126002403Y-81329058D01*
X125830342Y-81444024D01*
X125684024Y-81590342D01*
X125569058Y-81762403D01*
X125489870Y-81953579D01*
X125489868Y-81953587D01*
X125449500Y-82156530D01*
X114328440Y-82156530D01*
X116868440Y-79616530D01*
X125449500Y-79616530D01*
X125449500Y-79823469D01*
X125489868Y-80026412D01*
X125489870Y-80026420D01*
X125569058Y-80217596D01*
X125684024Y-80389657D01*
X125830342Y-80535975D01*
X125830345Y-80535977D01*
X126002402Y-80650941D01*
X126193580Y-80730130D01*
X126396530Y-80770499D01*
X126396534Y-80770500D01*
X126396535Y-80770500D01*
X126603466Y-80770500D01*
X126603467Y-80770499D01*
X126806420Y-80730130D01*
X126997598Y-80650941D01*
X127169655Y-80535977D01*
X127315977Y-80389655D01*
X127430941Y-80217598D01*
X127510130Y-80026420D01*
X127550500Y-79823465D01*
X127550500Y-79616535D01*
X127550499Y-79616530D01*
X127989500Y-79616530D01*
X127989500Y-79823469D01*
X128029868Y-80026412D01*
X128029870Y-80026420D01*
X128109058Y-80217596D01*
X128224024Y-80389657D01*
X128370342Y-80535975D01*
X128370345Y-80535977D01*
X128542402Y-80650941D01*
X128733580Y-80730130D01*
X128936530Y-80770499D01*
X128936534Y-80770500D01*
X128936535Y-80770500D01*
X129143466Y-80770500D01*
X129143467Y-80770499D01*
X129346420Y-80730130D01*
X129537598Y-80650941D01*
X129709655Y-80535977D01*
X129855977Y-80389655D01*
X129970941Y-80217598D01*
X130050130Y-80026420D01*
X130090500Y-79823465D01*
X130090500Y-79616535D01*
X130050130Y-79413580D01*
X129970941Y-79222402D01*
X129855977Y-79050345D01*
X129855975Y-79050342D01*
X129709657Y-78904024D01*
X129623626Y-78846541D01*
X129537598Y-78789059D01*
X129346420Y-78709870D01*
X129346412Y-78709868D01*
X129143469Y-78669500D01*
X129143465Y-78669500D01*
X128936535Y-78669500D01*
X128936530Y-78669500D01*
X128733587Y-78709868D01*
X128733579Y-78709870D01*
X128542403Y-78789058D01*
X128370342Y-78904024D01*
X128224024Y-79050342D01*
X128109058Y-79222403D01*
X128029870Y-79413579D01*
X128029868Y-79413587D01*
X127989500Y-79616530D01*
X127550499Y-79616530D01*
X127510130Y-79413580D01*
X127430941Y-79222402D01*
X127315977Y-79050345D01*
X127315975Y-79050342D01*
X127169657Y-78904024D01*
X127083626Y-78846541D01*
X126997598Y-78789059D01*
X126806420Y-78709870D01*
X126806412Y-78709868D01*
X126603469Y-78669500D01*
X126603465Y-78669500D01*
X126396535Y-78669500D01*
X126396530Y-78669500D01*
X126193587Y-78709868D01*
X126193579Y-78709870D01*
X126002403Y-78789058D01*
X125830342Y-78904024D01*
X125684024Y-79050342D01*
X125569058Y-79222403D01*
X125489870Y-79413579D01*
X125489868Y-79413587D01*
X125449500Y-79616530D01*
X116868440Y-79616530D01*
X119408439Y-77076530D01*
X125449500Y-77076530D01*
X125449500Y-77283469D01*
X125489868Y-77486412D01*
X125489870Y-77486420D01*
X125569058Y-77677596D01*
X125684024Y-77849657D01*
X125830342Y-77995975D01*
X125830345Y-77995977D01*
X126002402Y-78110941D01*
X126193580Y-78190130D01*
X126396530Y-78230499D01*
X126396534Y-78230500D01*
X126396535Y-78230500D01*
X126603466Y-78230500D01*
X126603467Y-78230499D01*
X126806420Y-78190130D01*
X126997598Y-78110941D01*
X127169655Y-77995977D01*
X127315977Y-77849655D01*
X127430941Y-77677598D01*
X127510130Y-77486420D01*
X127550500Y-77283465D01*
X127550500Y-77076535D01*
X127550499Y-77076530D01*
X127989500Y-77076530D01*
X127989500Y-77283469D01*
X128029868Y-77486412D01*
X128029870Y-77486420D01*
X128109058Y-77677596D01*
X128224024Y-77849657D01*
X128370342Y-77995975D01*
X128370345Y-77995977D01*
X128542402Y-78110941D01*
X128733580Y-78190130D01*
X128936530Y-78230499D01*
X128936534Y-78230500D01*
X128936535Y-78230500D01*
X129143466Y-78230500D01*
X129143467Y-78230499D01*
X129346420Y-78190130D01*
X129537598Y-78110941D01*
X129709655Y-77995977D01*
X129855977Y-77849655D01*
X129970941Y-77677598D01*
X130050130Y-77486420D01*
X130090500Y-77283465D01*
X130090500Y-77076535D01*
X130050130Y-76873580D01*
X129970941Y-76682402D01*
X129855977Y-76510345D01*
X129855975Y-76510342D01*
X129709657Y-76364024D01*
X129623626Y-76306541D01*
X129537598Y-76249059D01*
X129346420Y-76169870D01*
X129346412Y-76169868D01*
X129143469Y-76129500D01*
X129143465Y-76129500D01*
X128936535Y-76129500D01*
X128936530Y-76129500D01*
X128733587Y-76169868D01*
X128733579Y-76169870D01*
X128542403Y-76249058D01*
X128370342Y-76364024D01*
X128224024Y-76510342D01*
X128109058Y-76682403D01*
X128029870Y-76873579D01*
X128029868Y-76873587D01*
X127989500Y-77076530D01*
X127550499Y-77076530D01*
X127510130Y-76873580D01*
X127430941Y-76682402D01*
X127315977Y-76510345D01*
X127315975Y-76510342D01*
X127169657Y-76364024D01*
X127083626Y-76306541D01*
X126997598Y-76249059D01*
X126806420Y-76169870D01*
X126806412Y-76169868D01*
X126603469Y-76129500D01*
X126603465Y-76129500D01*
X126396535Y-76129500D01*
X126396530Y-76129500D01*
X126193587Y-76169868D01*
X126193579Y-76169870D01*
X126002403Y-76249058D01*
X125830342Y-76364024D01*
X125684024Y-76510342D01*
X125569058Y-76682403D01*
X125489870Y-76873579D01*
X125489868Y-76873587D01*
X125449500Y-77076530D01*
X119408439Y-77076530D01*
X121948439Y-74536530D01*
X125449500Y-74536530D01*
X125449500Y-74743469D01*
X125489868Y-74946412D01*
X125489870Y-74946420D01*
X125569058Y-75137596D01*
X125684024Y-75309657D01*
X125830342Y-75455975D01*
X125830345Y-75455977D01*
X126002402Y-75570941D01*
X126193580Y-75650130D01*
X126396530Y-75690499D01*
X126396534Y-75690500D01*
X126396535Y-75690500D01*
X126603466Y-75690500D01*
X126603467Y-75690499D01*
X126806420Y-75650130D01*
X126997598Y-75570941D01*
X127169655Y-75455977D01*
X127315977Y-75309655D01*
X127430941Y-75137598D01*
X127510130Y-74946420D01*
X127550500Y-74743465D01*
X127550500Y-74536535D01*
X127550499Y-74536530D01*
X127989500Y-74536530D01*
X127989500Y-74743469D01*
X128029868Y-74946412D01*
X128029870Y-74946420D01*
X128109058Y-75137596D01*
X128224024Y-75309657D01*
X128370342Y-75455975D01*
X128370345Y-75455977D01*
X128542402Y-75570941D01*
X128733580Y-75650130D01*
X128936530Y-75690499D01*
X128936534Y-75690500D01*
X128936535Y-75690500D01*
X129143466Y-75690500D01*
X129143467Y-75690499D01*
X129346420Y-75650130D01*
X129537598Y-75570941D01*
X129709655Y-75455977D01*
X129855977Y-75309655D01*
X129970941Y-75137598D01*
X130050130Y-74946420D01*
X130090500Y-74743465D01*
X130090500Y-74536535D01*
X130050130Y-74333580D01*
X129970941Y-74142402D01*
X129855977Y-73970345D01*
X129855975Y-73970342D01*
X129709657Y-73824024D01*
X129623626Y-73766541D01*
X129537598Y-73709059D01*
X129346420Y-73629870D01*
X129346412Y-73629868D01*
X129143469Y-73589500D01*
X129143465Y-73589500D01*
X128936535Y-73589500D01*
X128936530Y-73589500D01*
X128733587Y-73629868D01*
X128733579Y-73629870D01*
X128542403Y-73709058D01*
X128370342Y-73824024D01*
X128224024Y-73970342D01*
X128109058Y-74142403D01*
X128029870Y-74333579D01*
X128029868Y-74333587D01*
X127989500Y-74536530D01*
X127550499Y-74536530D01*
X127510130Y-74333580D01*
X127430941Y-74142402D01*
X127315977Y-73970345D01*
X127315975Y-73970342D01*
X127169657Y-73824024D01*
X127083626Y-73766541D01*
X126997598Y-73709059D01*
X126806420Y-73629870D01*
X126806412Y-73629868D01*
X126603469Y-73589500D01*
X126603465Y-73589500D01*
X126396535Y-73589500D01*
X126396530Y-73589500D01*
X126193587Y-73629868D01*
X126193579Y-73629870D01*
X126002403Y-73709058D01*
X125830342Y-73824024D01*
X125684024Y-73970342D01*
X125569058Y-74142403D01*
X125489870Y-74333579D01*
X125489868Y-74333587D01*
X125449500Y-74536530D01*
X121948439Y-74536530D01*
X124488439Y-71996530D01*
X125449500Y-71996530D01*
X125449500Y-72203469D01*
X125489868Y-72406412D01*
X125489870Y-72406420D01*
X125569058Y-72597596D01*
X125684024Y-72769657D01*
X125830342Y-72915975D01*
X125830345Y-72915977D01*
X126002402Y-73030941D01*
X126193580Y-73110130D01*
X126396530Y-73150499D01*
X126396534Y-73150500D01*
X126396535Y-73150500D01*
X126603466Y-73150500D01*
X126603467Y-73150499D01*
X126806420Y-73110130D01*
X126997598Y-73030941D01*
X127169655Y-72915977D01*
X127315977Y-72769655D01*
X127430941Y-72597598D01*
X127510130Y-72406420D01*
X127550500Y-72203465D01*
X127550500Y-71996535D01*
X127550499Y-71996530D01*
X127989500Y-71996530D01*
X127989500Y-72203469D01*
X128029868Y-72406412D01*
X128029870Y-72406420D01*
X128109058Y-72597596D01*
X128224024Y-72769657D01*
X128370342Y-72915975D01*
X128370345Y-72915977D01*
X128542402Y-73030941D01*
X128733580Y-73110130D01*
X128936530Y-73150499D01*
X128936534Y-73150500D01*
X128936535Y-73150500D01*
X129143466Y-73150500D01*
X129143467Y-73150499D01*
X129346420Y-73110130D01*
X129537598Y-73030941D01*
X129709655Y-72915977D01*
X129855977Y-72769655D01*
X129970941Y-72597598D01*
X130050130Y-72406420D01*
X130090500Y-72203465D01*
X130090500Y-71996535D01*
X130050130Y-71793580D01*
X129970941Y-71602402D01*
X129855977Y-71430345D01*
X129855975Y-71430342D01*
X129709657Y-71284024D01*
X129623626Y-71226541D01*
X129537598Y-71169059D01*
X129346420Y-71089870D01*
X129346412Y-71089868D01*
X129143469Y-71049500D01*
X129143465Y-71049500D01*
X128936535Y-71049500D01*
X128936530Y-71049500D01*
X128733587Y-71089868D01*
X128733579Y-71089870D01*
X128542403Y-71169058D01*
X128370342Y-71284024D01*
X128224024Y-71430342D01*
X128109058Y-71602403D01*
X128029870Y-71793579D01*
X128029868Y-71793587D01*
X127989500Y-71996530D01*
X127550499Y-71996530D01*
X127510130Y-71793580D01*
X127430941Y-71602402D01*
X127315977Y-71430345D01*
X127315975Y-71430342D01*
X127169657Y-71284024D01*
X127083626Y-71226541D01*
X126997598Y-71169059D01*
X126806420Y-71089870D01*
X126806412Y-71089868D01*
X126603469Y-71049500D01*
X126603465Y-71049500D01*
X126396535Y-71049500D01*
X126396530Y-71049500D01*
X126193587Y-71089868D01*
X126193579Y-71089870D01*
X126002403Y-71169058D01*
X125830342Y-71284024D01*
X125684024Y-71430342D01*
X125569058Y-71602403D01*
X125489870Y-71793579D01*
X125489868Y-71793587D01*
X125449500Y-71996530D01*
X124488439Y-71996530D01*
X125937896Y-70547073D01*
X125999217Y-70513590D01*
X126068909Y-70518574D01*
X126073007Y-70520186D01*
X126193580Y-70570130D01*
X126396530Y-70610499D01*
X126396534Y-70610500D01*
X126396535Y-70610500D01*
X126603466Y-70610500D01*
X126603467Y-70610499D01*
X126806420Y-70570130D01*
X126997598Y-70490941D01*
X127169655Y-70375977D01*
X127315977Y-70229655D01*
X127430941Y-70057598D01*
X127510130Y-69866420D01*
X127550500Y-69663465D01*
X127550500Y-69456535D01*
X127550499Y-69456530D01*
X127989500Y-69456530D01*
X127989500Y-69663469D01*
X128029868Y-69866412D01*
X128029870Y-69866420D01*
X128109058Y-70057596D01*
X128224024Y-70229657D01*
X128370342Y-70375975D01*
X128370345Y-70375977D01*
X128542402Y-70490941D01*
X128733580Y-70570130D01*
X128936530Y-70610499D01*
X128936534Y-70610500D01*
X128936535Y-70610500D01*
X129143466Y-70610500D01*
X129143467Y-70610499D01*
X129346420Y-70570130D01*
X129537598Y-70490941D01*
X129709655Y-70375977D01*
X129855977Y-70229655D01*
X129970941Y-70057598D01*
X130050130Y-69866420D01*
X130090500Y-69663465D01*
X130090500Y-69456535D01*
X130050130Y-69253580D01*
X129970941Y-69062402D01*
X129855977Y-68890345D01*
X129855975Y-68890342D01*
X129709657Y-68744024D01*
X129623626Y-68686541D01*
X129537598Y-68629059D01*
X129346420Y-68549870D01*
X129346412Y-68549868D01*
X129143469Y-68509500D01*
X129143465Y-68509500D01*
X128936535Y-68509500D01*
X128936530Y-68509500D01*
X128733587Y-68549868D01*
X128733579Y-68549870D01*
X128542403Y-68629058D01*
X128370342Y-68744024D01*
X128224024Y-68890342D01*
X128109058Y-69062403D01*
X128029870Y-69253579D01*
X128029868Y-69253587D01*
X127989500Y-69456530D01*
X127550499Y-69456530D01*
X127510130Y-69253580D01*
X127430941Y-69062402D01*
X127315977Y-68890345D01*
X127315975Y-68890342D01*
X127169657Y-68744024D01*
X127083626Y-68686541D01*
X126997598Y-68629059D01*
X126806420Y-68549870D01*
X126806412Y-68549868D01*
X126603469Y-68509500D01*
X126603465Y-68509500D01*
X126396535Y-68509500D01*
X126396530Y-68509500D01*
X126193587Y-68549868D01*
X126193579Y-68549870D01*
X126002403Y-68629058D01*
X125830342Y-68744024D01*
X125684024Y-68890342D01*
X125569058Y-69062403D01*
X125489870Y-69253579D01*
X125489868Y-69253587D01*
X125449500Y-69456530D01*
X125449500Y-69663469D01*
X125489868Y-69866412D01*
X125489871Y-69866424D01*
X125539803Y-69986971D01*
X125547272Y-70056440D01*
X125515997Y-70118919D01*
X125512923Y-70122104D01*
X110971848Y-84663181D01*
X110910525Y-84696666D01*
X110884167Y-84699500D01*
X104958676Y-84699500D01*
X104891637Y-84679815D01*
X104870995Y-84663181D01*
X104807316Y-84599502D01*
X104807314Y-84599500D01*
X104750250Y-84566554D01*
X104693187Y-84533608D01*
X104629539Y-84516554D01*
X104565892Y-84499500D01*
X104434108Y-84499500D01*
X104306812Y-84533608D01*
X104192686Y-84599500D01*
X104192683Y-84599502D01*
X104099502Y-84692683D01*
X104099500Y-84692686D01*
X104033608Y-84806812D01*
X103999500Y-84934108D01*
X98990863Y-84934108D01*
X99086671Y-84838300D01*
X117008442Y-66916530D01*
X125449500Y-66916530D01*
X125449500Y-67123469D01*
X125489868Y-67326412D01*
X125489870Y-67326420D01*
X125569058Y-67517596D01*
X125684024Y-67689657D01*
X125830342Y-67835975D01*
X125830345Y-67835977D01*
X126002402Y-67950941D01*
X126193580Y-68030130D01*
X126396530Y-68070499D01*
X126396534Y-68070500D01*
X126396535Y-68070500D01*
X126603466Y-68070500D01*
X126603467Y-68070499D01*
X126806420Y-68030130D01*
X126997598Y-67950941D01*
X127169655Y-67835977D01*
X127315977Y-67689655D01*
X127430941Y-67517598D01*
X127510130Y-67326420D01*
X127550500Y-67123465D01*
X127550500Y-66916535D01*
X127550499Y-66916530D01*
X127989500Y-66916530D01*
X127989500Y-67123469D01*
X128029868Y-67326412D01*
X128029870Y-67326420D01*
X128109058Y-67517596D01*
X128224024Y-67689657D01*
X128370342Y-67835975D01*
X128370345Y-67835977D01*
X128542402Y-67950941D01*
X128733580Y-68030130D01*
X128936530Y-68070499D01*
X128936534Y-68070500D01*
X128936535Y-68070500D01*
X129143466Y-68070500D01*
X129143467Y-68070499D01*
X129346420Y-68030130D01*
X129537598Y-67950941D01*
X129709655Y-67835977D01*
X129855977Y-67689655D01*
X129970941Y-67517598D01*
X130050130Y-67326420D01*
X130090500Y-67123465D01*
X130090500Y-66916535D01*
X130050130Y-66713580D01*
X129970941Y-66522402D01*
X129855977Y-66350345D01*
X129855975Y-66350342D01*
X129709657Y-66204024D01*
X129623626Y-66146541D01*
X129537598Y-66089059D01*
X129346420Y-66009870D01*
X129346412Y-66009868D01*
X129143469Y-65969500D01*
X129143465Y-65969500D01*
X128936535Y-65969500D01*
X128936530Y-65969500D01*
X128733587Y-66009868D01*
X128733579Y-66009870D01*
X128542403Y-66089058D01*
X128370342Y-66204024D01*
X128224024Y-66350342D01*
X128109058Y-66522403D01*
X128029870Y-66713579D01*
X128029868Y-66713587D01*
X127989500Y-66916530D01*
X127550499Y-66916530D01*
X127510130Y-66713580D01*
X127430941Y-66522402D01*
X127315977Y-66350345D01*
X127315975Y-66350342D01*
X127169657Y-66204024D01*
X127083626Y-66146541D01*
X126997598Y-66089059D01*
X126806420Y-66009870D01*
X126806412Y-66009868D01*
X126603469Y-65969500D01*
X126603465Y-65969500D01*
X126396535Y-65969500D01*
X126396530Y-65969500D01*
X126193587Y-66009868D01*
X126193579Y-66009870D01*
X126002403Y-66089058D01*
X125830342Y-66204024D01*
X125684024Y-66350342D01*
X125569058Y-66522403D01*
X125489870Y-66713579D01*
X125489868Y-66713587D01*
X125449500Y-66916530D01*
X117008442Y-66916530D01*
X117102210Y-66822762D01*
X119548442Y-64376530D01*
X125449500Y-64376530D01*
X125449500Y-64583469D01*
X125489868Y-64786412D01*
X125489870Y-64786420D01*
X125569058Y-64977596D01*
X125684024Y-65149657D01*
X125830342Y-65295975D01*
X125830345Y-65295977D01*
X126002402Y-65410941D01*
X126193580Y-65490130D01*
X126396530Y-65530499D01*
X126396534Y-65530500D01*
X126396535Y-65530500D01*
X126603466Y-65530500D01*
X126603467Y-65530499D01*
X126806420Y-65490130D01*
X126997598Y-65410941D01*
X127169655Y-65295977D01*
X127315977Y-65149655D01*
X127430941Y-64977598D01*
X127510130Y-64786420D01*
X127550500Y-64583465D01*
X127550500Y-64376535D01*
X127550499Y-64376530D01*
X127989500Y-64376530D01*
X127989500Y-64583469D01*
X128029868Y-64786412D01*
X128029870Y-64786420D01*
X128109058Y-64977596D01*
X128224024Y-65149657D01*
X128370342Y-65295975D01*
X128370345Y-65295977D01*
X128542402Y-65410941D01*
X128733580Y-65490130D01*
X128936530Y-65530499D01*
X128936534Y-65530500D01*
X128936535Y-65530500D01*
X129143466Y-65530500D01*
X129143467Y-65530499D01*
X129346420Y-65490130D01*
X129537598Y-65410941D01*
X129709655Y-65295977D01*
X129855977Y-65149655D01*
X129970941Y-64977598D01*
X130050130Y-64786420D01*
X130090500Y-64583465D01*
X130090500Y-64376535D01*
X130050130Y-64173580D01*
X129970941Y-63982402D01*
X129855977Y-63810345D01*
X129855975Y-63810342D01*
X129709658Y-63664025D01*
X129707375Y-63662499D01*
X129537598Y-63549059D01*
X129514670Y-63539562D01*
X129346420Y-63469870D01*
X129346412Y-63469868D01*
X129143469Y-63429500D01*
X129143465Y-63429500D01*
X128936535Y-63429500D01*
X128936530Y-63429500D01*
X128733587Y-63469868D01*
X128733579Y-63469870D01*
X128542403Y-63549058D01*
X128370341Y-63664025D01*
X128224024Y-63810342D01*
X128109058Y-63982403D01*
X128029870Y-64173579D01*
X128029868Y-64173587D01*
X127989500Y-64376530D01*
X127550499Y-64376530D01*
X127510130Y-64173580D01*
X127430941Y-63982402D01*
X127315977Y-63810345D01*
X127315975Y-63810342D01*
X127169658Y-63664025D01*
X127167375Y-63662499D01*
X126997598Y-63549059D01*
X126974670Y-63539562D01*
X126806420Y-63469870D01*
X126806412Y-63469868D01*
X126603469Y-63429500D01*
X126603465Y-63429500D01*
X126396535Y-63429500D01*
X126396530Y-63429500D01*
X126193587Y-63469868D01*
X126193579Y-63469870D01*
X126002403Y-63549058D01*
X125830341Y-63664025D01*
X125684024Y-63810342D01*
X125569058Y-63982403D01*
X125489870Y-64173579D01*
X125489868Y-64173587D01*
X125449500Y-64376530D01*
X119548442Y-64376530D01*
X119642210Y-64282762D01*
X120240457Y-63684514D01*
X120240460Y-63684511D01*
X120252289Y-63664023D01*
X120280021Y-63615989D01*
X120300500Y-63539562D01*
X120300500Y-61836530D01*
X127989500Y-61836530D01*
X127989500Y-62043469D01*
X128029868Y-62246412D01*
X128029870Y-62246420D01*
X128109058Y-62437596D01*
X128224024Y-62609657D01*
X128370342Y-62755975D01*
X128370345Y-62755977D01*
X128542402Y-62870941D01*
X128733580Y-62950130D01*
X128936530Y-62990499D01*
X128936534Y-62990500D01*
X128936535Y-62990500D01*
X129143466Y-62990500D01*
X129143467Y-62990499D01*
X129346420Y-62950130D01*
X129537598Y-62870941D01*
X129709655Y-62755977D01*
X129855977Y-62609655D01*
X129970941Y-62437598D01*
X130050130Y-62246420D01*
X130090500Y-62043465D01*
X130090500Y-61836535D01*
X130050130Y-61633580D01*
X129970941Y-61442402D01*
X129855977Y-61270345D01*
X129855975Y-61270342D01*
X129709657Y-61124024D01*
X129623626Y-61066541D01*
X129537598Y-61009059D01*
X129346420Y-60929870D01*
X129346412Y-60929868D01*
X129143469Y-60889500D01*
X129143465Y-60889500D01*
X128936535Y-60889500D01*
X128936530Y-60889500D01*
X128733587Y-60929868D01*
X128733579Y-60929870D01*
X128542403Y-61009058D01*
X128370342Y-61124024D01*
X128224024Y-61270342D01*
X128109058Y-61442403D01*
X128029870Y-61633579D01*
X128029868Y-61633587D01*
X127989500Y-61836530D01*
X120300500Y-61836530D01*
X120300500Y-59296530D01*
X125449500Y-59296530D01*
X125449500Y-59503469D01*
X125489868Y-59706412D01*
X125489870Y-59706420D01*
X125569058Y-59897596D01*
X125684024Y-60069657D01*
X125830342Y-60215975D01*
X125830345Y-60215977D01*
X126002402Y-60330941D01*
X126193580Y-60410130D01*
X126396530Y-60450499D01*
X126396534Y-60450500D01*
X126396535Y-60450500D01*
X126603466Y-60450500D01*
X126603467Y-60450499D01*
X126806420Y-60410130D01*
X126997598Y-60330941D01*
X127169655Y-60215977D01*
X127315977Y-60069655D01*
X127430941Y-59897598D01*
X127510130Y-59706420D01*
X127550500Y-59503465D01*
X127550500Y-59296535D01*
X127510130Y-59093580D01*
X127430941Y-58902402D01*
X127315977Y-58730345D01*
X127315975Y-58730342D01*
X127169657Y-58584024D01*
X127002616Y-58472412D01*
X126997598Y-58469059D01*
X126806420Y-58389870D01*
X126806412Y-58389868D01*
X126603469Y-58349500D01*
X126603465Y-58349500D01*
X126396535Y-58349500D01*
X126396530Y-58349500D01*
X126193587Y-58389868D01*
X126193579Y-58389870D01*
X126002403Y-58469058D01*
X125830342Y-58584024D01*
X125684024Y-58730342D01*
X125569058Y-58902403D01*
X125489870Y-59093579D01*
X125489868Y-59093587D01*
X125449500Y-59296530D01*
X120300500Y-59296530D01*
X120300500Y-57284500D01*
X120320185Y-57217461D01*
X120372989Y-57171706D01*
X120424500Y-57160500D01*
X125404564Y-57160500D01*
X125471603Y-57180185D01*
X125517358Y-57232989D01*
X125519121Y-57237039D01*
X125569059Y-57357598D01*
X125597725Y-57400500D01*
X125684024Y-57529657D01*
X125830342Y-57675975D01*
X125830345Y-57675977D01*
X126002402Y-57790941D01*
X126193580Y-57870130D01*
X126338052Y-57898867D01*
X126396530Y-57910499D01*
X126396534Y-57910500D01*
X126396535Y-57910500D01*
X126603466Y-57910500D01*
X126603467Y-57910499D01*
X126806420Y-57870130D01*
X126997598Y-57790941D01*
X127169655Y-57675977D01*
X127315977Y-57529655D01*
X127430941Y-57357598D01*
X127510130Y-57166420D01*
X127550500Y-56963465D01*
X127550500Y-56756535D01*
X127510130Y-56553580D01*
X127430941Y-56362402D01*
X127315977Y-56190345D01*
X127315975Y-56190342D01*
X127169657Y-56044024D01*
X127083626Y-55986541D01*
X126997598Y-55929059D01*
X126806420Y-55849870D01*
X126806412Y-55849868D01*
X126603469Y-55809500D01*
X126603465Y-55809500D01*
X126396535Y-55809500D01*
X126396530Y-55809500D01*
X126193587Y-55849868D01*
X126193579Y-55849870D01*
X126002403Y-55929058D01*
X125830342Y-56044024D01*
X125684024Y-56190342D01*
X125569058Y-56362403D01*
X125519125Y-56482953D01*
X125475284Y-56537356D01*
X125408990Y-56559421D01*
X125404564Y-56559500D01*
X120100432Y-56559500D01*
X120089866Y-56562332D01*
X120020017Y-56560668D01*
X119962155Y-56521505D01*
X119934652Y-56457276D01*
X119946239Y-56388374D01*
X119970092Y-56354878D01*
X121718150Y-54606819D01*
X121779471Y-54573336D01*
X121837920Y-54574726D01*
X121934108Y-54600500D01*
X121934110Y-54600500D01*
X122065890Y-54600500D01*
X122065892Y-54600500D01*
X122193186Y-54566392D01*
X122307314Y-54500500D01*
X122400500Y-54407314D01*
X122466392Y-54293186D01*
X122500500Y-54165892D01*
X122500500Y-54034108D01*
X122479730Y-53956592D01*
X122481393Y-53886743D01*
X122520556Y-53828881D01*
X122584784Y-53801377D01*
X122599505Y-53800500D01*
X128324167Y-53800500D01*
X128391206Y-53820185D01*
X128411848Y-53836819D01*
X128703181Y-54128152D01*
X128736666Y-54189475D01*
X128739500Y-54215833D01*
X128739500Y-55685500D01*
X128719815Y-55752539D01*
X128667011Y-55798294D01*
X128615500Y-55809500D01*
X128170247Y-55809500D01*
X128111770Y-55821131D01*
X128111769Y-55821132D01*
X128045447Y-55865447D01*
X128001132Y-55931769D01*
X128001131Y-55931770D01*
X127989500Y-55990247D01*
X127989500Y-57729752D01*
X128001131Y-57788229D01*
X128001132Y-57788230D01*
X128045447Y-57854552D01*
X128111769Y-57898867D01*
X128111770Y-57898868D01*
X128170247Y-57910499D01*
X128170250Y-57910500D01*
X129805166Y-57910500D01*
X129872205Y-57930185D01*
X129917960Y-57982989D01*
X129927904Y-58052147D01*
X129898879Y-58115703D01*
X129892847Y-58122181D01*
X129602104Y-58412923D01*
X129540781Y-58446408D01*
X129471089Y-58441424D01*
X129466971Y-58439803D01*
X129346424Y-58389871D01*
X129346412Y-58389868D01*
X129143469Y-58349500D01*
X129143465Y-58349500D01*
X128936535Y-58349500D01*
X128936530Y-58349500D01*
X128733587Y-58389868D01*
X128733579Y-58389870D01*
X128542403Y-58469058D01*
X128370342Y-58584024D01*
X128224024Y-58730342D01*
X128109058Y-58902403D01*
X128029870Y-59093579D01*
X128029868Y-59093587D01*
X127989500Y-59296530D01*
X127989500Y-59503469D01*
X128029868Y-59706412D01*
X128029870Y-59706420D01*
X128109058Y-59897596D01*
X128224024Y-60069657D01*
X128370342Y-60215975D01*
X128370345Y-60215977D01*
X128542402Y-60330941D01*
X128733580Y-60410130D01*
X128936530Y-60450499D01*
X128936534Y-60450500D01*
X128936535Y-60450500D01*
X129143466Y-60450500D01*
X129143467Y-60450499D01*
X129346420Y-60410130D01*
X129537598Y-60330941D01*
X129709655Y-60215977D01*
X129855977Y-60069655D01*
X129970941Y-59897598D01*
X130050130Y-59706420D01*
X130090500Y-59503465D01*
X130090500Y-59296535D01*
X130050130Y-59093580D01*
X130000194Y-58973026D01*
X129992726Y-58903559D01*
X130024001Y-58841080D01*
X130027046Y-58837923D01*
X132506906Y-56358065D01*
X132546468Y-56289542D01*
X132566946Y-56213116D01*
X132566946Y-56133992D01*
X132546468Y-56057566D01*
X132506906Y-55989043D01*
X132450957Y-55933094D01*
X129919440Y-53401577D01*
X137249500Y-53401577D01*
X137249500Y-53598422D01*
X137280290Y-53792826D01*
X137341117Y-53980029D01*
X137401439Y-54098417D01*
X137430476Y-54155405D01*
X137546172Y-54314646D01*
X137685354Y-54453828D01*
X137844595Y-54569524D01*
X137917795Y-54606821D01*
X138019970Y-54658882D01*
X138019972Y-54658882D01*
X138019975Y-54658884D01*
X138120317Y-54691487D01*
X138207173Y-54719709D01*
X138401578Y-54750500D01*
X138401583Y-54750500D01*
X138598422Y-54750500D01*
X138792826Y-54719709D01*
X138980025Y-54658884D01*
X139155405Y-54569524D01*
X139314646Y-54453828D01*
X139453828Y-54314646D01*
X139569524Y-54155405D01*
X139658884Y-53980025D01*
X139719709Y-53792826D01*
X139733275Y-53707173D01*
X139750500Y-53598422D01*
X139750500Y-53401577D01*
X139719709Y-53207173D01*
X139678842Y-53081399D01*
X139658884Y-53019975D01*
X139658882Y-53019972D01*
X139658882Y-53019970D01*
X139611743Y-52927455D01*
X139569524Y-52844595D01*
X139453828Y-52685354D01*
X139314646Y-52546172D01*
X139155405Y-52430476D01*
X138980029Y-52341117D01*
X138792826Y-52280290D01*
X138598422Y-52249500D01*
X138598417Y-52249500D01*
X138401583Y-52249500D01*
X138401578Y-52249500D01*
X138207173Y-52280290D01*
X138019970Y-52341117D01*
X137844594Y-52430476D01*
X137753741Y-52496485D01*
X137685354Y-52546172D01*
X137685352Y-52546174D01*
X137685351Y-52546174D01*
X137546174Y-52685351D01*
X137546174Y-52685352D01*
X137546172Y-52685354D01*
X137517973Y-52724167D01*
X137430476Y-52844594D01*
X137341117Y-53019970D01*
X137280290Y-53207173D01*
X137249500Y-53401577D01*
X129919440Y-53401577D01*
X129329711Y-52811848D01*
X129296226Y-52750525D01*
X129293392Y-52724167D01*
X129293392Y-52634110D01*
X129293392Y-52634108D01*
X129259284Y-52506814D01*
X129193392Y-52392686D01*
X129100206Y-52299500D01*
X129100204Y-52299499D01*
X129100202Y-52299497D01*
X128982232Y-52231387D01*
X128934016Y-52180820D01*
X128920794Y-52112213D01*
X128946762Y-52047348D01*
X129003676Y-52006820D01*
X129044232Y-52000000D01*
X139876000Y-52000000D01*
X139943039Y-52019685D01*
X139988794Y-52072489D01*
X140000000Y-52124000D01*
X140000000Y-112449159D01*
X139980315Y-112516198D01*
X139964310Y-112536207D01*
X105500000Y-147499999D01*
X105500000Y-147500000D01*
X115139441Y-156709657D01*
X119406372Y-160786343D01*
X119441246Y-160846887D01*
X119437851Y-160916674D01*
X119397266Y-160973547D01*
X119332375Y-160999450D01*
X119320712Y-161000000D01*
X65323066Y-161000000D01*
X65256027Y-160980315D01*
X65210272Y-160927511D01*
X65200328Y-160858353D01*
X65205135Y-160837682D01*
X65219708Y-160792830D01*
X65219708Y-160792829D01*
X65219709Y-160792826D01*
X65235572Y-160692666D01*
X65250500Y-160598422D01*
X65250500Y-160401577D01*
X65219709Y-160207173D01*
X65158882Y-160019970D01*
X65069523Y-159844594D01*
X64953828Y-159685354D01*
X64814646Y-159546172D01*
X64655405Y-159430476D01*
X64480029Y-159341117D01*
X64292826Y-159280290D01*
X64098422Y-159249500D01*
X64098417Y-159249500D01*
X63901583Y-159249500D01*
X63901578Y-159249500D01*
X63707173Y-159280290D01*
X63519970Y-159341117D01*
X63344591Y-159430478D01*
X63192895Y-159540692D01*
X63127089Y-159564172D01*
X63059035Y-159548347D01*
X63010340Y-159498241D01*
X62996010Y-159440694D01*
X62987046Y-155936530D01*
X67449500Y-155936530D01*
X67449500Y-156143469D01*
X67489868Y-156346412D01*
X67489870Y-156346420D01*
X67569058Y-156537596D01*
X67684024Y-156709657D01*
X67830342Y-156855975D01*
X67830345Y-156855977D01*
X68002402Y-156970941D01*
X68193580Y-157050130D01*
X68396530Y-157090499D01*
X68396534Y-157090500D01*
X68396535Y-157090500D01*
X68603466Y-157090500D01*
X68603467Y-157090499D01*
X68806420Y-157050130D01*
X68997598Y-156970941D01*
X69169655Y-156855977D01*
X69315977Y-156709655D01*
X69430941Y-156537598D01*
X69510130Y-156346420D01*
X69550500Y-156143465D01*
X69550500Y-155936535D01*
X69510130Y-155733580D01*
X69430941Y-155542402D01*
X69315977Y-155370345D01*
X69315975Y-155370342D01*
X69169657Y-155224024D01*
X69083626Y-155166541D01*
X68997598Y-155109059D01*
X68806420Y-155029870D01*
X68806412Y-155029868D01*
X68603469Y-154989500D01*
X68603465Y-154989500D01*
X68396535Y-154989500D01*
X68396530Y-154989500D01*
X68193587Y-155029868D01*
X68193579Y-155029870D01*
X68002403Y-155109058D01*
X67830342Y-155224024D01*
X67684024Y-155370342D01*
X67569058Y-155542403D01*
X67489870Y-155733579D01*
X67489868Y-155733587D01*
X67449500Y-155936530D01*
X62987046Y-155936530D01*
X62980548Y-153396530D01*
X67449500Y-153396530D01*
X67449500Y-153603469D01*
X67489868Y-153806412D01*
X67489870Y-153806420D01*
X67569058Y-153997596D01*
X67684024Y-154169657D01*
X67830342Y-154315975D01*
X67830345Y-154315977D01*
X68002402Y-154430941D01*
X68193580Y-154510130D01*
X68396530Y-154550499D01*
X68396534Y-154550500D01*
X68396535Y-154550500D01*
X68603466Y-154550500D01*
X68603467Y-154550499D01*
X68806420Y-154510130D01*
X68997598Y-154430941D01*
X69169655Y-154315977D01*
X69315977Y-154169655D01*
X69430941Y-153997598D01*
X69510130Y-153806420D01*
X69550500Y-153603465D01*
X69550500Y-153396535D01*
X69510130Y-153193580D01*
X69430941Y-153002402D01*
X69315977Y-152830345D01*
X69315975Y-152830342D01*
X69169657Y-152684024D01*
X69083626Y-152626541D01*
X68997598Y-152569059D01*
X68806420Y-152489870D01*
X68806412Y-152489868D01*
X68603469Y-152449500D01*
X68603465Y-152449500D01*
X68396535Y-152449500D01*
X68396530Y-152449500D01*
X68193587Y-152489868D01*
X68193579Y-152489870D01*
X68002403Y-152569058D01*
X67830342Y-152684024D01*
X67684024Y-152830342D01*
X67569058Y-153002403D01*
X67489870Y-153193579D01*
X67489868Y-153193587D01*
X67449500Y-153396530D01*
X62980548Y-153396530D01*
X62974050Y-150856530D01*
X67449500Y-150856530D01*
X67449500Y-151063469D01*
X67489868Y-151266412D01*
X67489870Y-151266420D01*
X67569058Y-151457596D01*
X67684024Y-151629657D01*
X67830342Y-151775975D01*
X67830345Y-151775977D01*
X68002402Y-151890941D01*
X68193580Y-151970130D01*
X68396530Y-152010499D01*
X68396534Y-152010500D01*
X68396535Y-152010500D01*
X68603466Y-152010500D01*
X68603467Y-152010499D01*
X68806420Y-151970130D01*
X68997598Y-151890941D01*
X69169655Y-151775977D01*
X69315977Y-151629655D01*
X69430941Y-151457598D01*
X69510130Y-151266420D01*
X69550500Y-151063465D01*
X69550500Y-150856535D01*
X69510130Y-150653580D01*
X69430941Y-150462402D01*
X69315977Y-150290345D01*
X69315975Y-150290342D01*
X69169657Y-150144024D01*
X69083626Y-150086541D01*
X68997598Y-150029059D01*
X68806420Y-149949870D01*
X68806412Y-149949868D01*
X68603469Y-149909500D01*
X68603465Y-149909500D01*
X68396535Y-149909500D01*
X68396530Y-149909500D01*
X68193587Y-149949868D01*
X68193579Y-149949870D01*
X68002403Y-150029058D01*
X67830342Y-150144024D01*
X67684024Y-150290342D01*
X67569058Y-150462403D01*
X67489870Y-150653579D01*
X67489868Y-150653587D01*
X67449500Y-150856530D01*
X62974050Y-150856530D01*
X62967552Y-148316530D01*
X67449500Y-148316530D01*
X67449500Y-148523469D01*
X67489868Y-148726412D01*
X67489870Y-148726420D01*
X67569058Y-148917596D01*
X67684024Y-149089657D01*
X67830342Y-149235975D01*
X67830345Y-149235977D01*
X68002402Y-149350941D01*
X68193580Y-149430130D01*
X68396530Y-149470499D01*
X68396534Y-149470500D01*
X68396535Y-149470500D01*
X68603466Y-149470500D01*
X68603467Y-149470499D01*
X68806420Y-149430130D01*
X68997598Y-149350941D01*
X69169655Y-149235977D01*
X69315977Y-149089655D01*
X69430941Y-148917598D01*
X69480875Y-148797046D01*
X69524716Y-148742644D01*
X69591010Y-148720579D01*
X69595436Y-148720500D01*
X99119560Y-148720500D01*
X99119562Y-148720500D01*
X99195989Y-148700021D01*
X99264511Y-148660460D01*
X99320460Y-148604511D01*
X133740460Y-114184511D01*
X133780021Y-114115989D01*
X133800500Y-114039562D01*
X133800500Y-104460438D01*
X133780021Y-104384011D01*
X133780017Y-104384004D01*
X133740464Y-104315495D01*
X133740458Y-104315487D01*
X130027075Y-100602104D01*
X129993590Y-100540781D01*
X129998574Y-100471089D01*
X130000163Y-100467049D01*
X130050130Y-100346420D01*
X130090500Y-100143465D01*
X130090500Y-99936535D01*
X130050130Y-99733580D01*
X129970941Y-99542402D01*
X129855977Y-99370345D01*
X129855975Y-99370342D01*
X129709657Y-99224024D01*
X129607122Y-99155513D01*
X129537598Y-99109059D01*
X129346420Y-99029870D01*
X129346412Y-99029868D01*
X129143469Y-98989500D01*
X129143465Y-98989500D01*
X128936535Y-98989500D01*
X128936530Y-98989500D01*
X128733587Y-99029868D01*
X128733579Y-99029870D01*
X128542403Y-99109058D01*
X128370342Y-99224024D01*
X128224024Y-99370342D01*
X128109058Y-99542403D01*
X128029870Y-99733579D01*
X128029868Y-99733587D01*
X127989500Y-99936530D01*
X127989500Y-100143469D01*
X128029868Y-100346412D01*
X128029870Y-100346420D01*
X128109058Y-100537596D01*
X128224024Y-100709657D01*
X128370342Y-100855975D01*
X128370345Y-100855977D01*
X128542402Y-100970941D01*
X128733580Y-101050130D01*
X128936530Y-101090499D01*
X128936534Y-101090500D01*
X128936535Y-101090500D01*
X129143466Y-101090500D01*
X129143467Y-101090499D01*
X129346420Y-101050130D01*
X129466974Y-101000194D01*
X129536438Y-100992726D01*
X129598918Y-101024000D01*
X129602104Y-101027075D01*
X133163181Y-104588152D01*
X133196666Y-104649475D01*
X133199500Y-104675833D01*
X133199500Y-110747793D01*
X133179815Y-110814832D01*
X133127011Y-110860587D01*
X133057853Y-110870531D01*
X132994297Y-110841506D01*
X132968113Y-110809794D01*
X132932316Y-110747793D01*
X132900500Y-110692686D01*
X132807314Y-110599500D01*
X132750250Y-110566554D01*
X132693187Y-110533608D01*
X132629539Y-110516554D01*
X132565892Y-110499500D01*
X132434108Y-110499500D01*
X132306812Y-110533608D01*
X132192686Y-110599500D01*
X132192683Y-110599502D01*
X132129005Y-110663181D01*
X132067682Y-110696666D01*
X132041324Y-110699500D01*
X124175833Y-110699500D01*
X124108794Y-110679815D01*
X124088152Y-110663181D01*
X120036819Y-106611848D01*
X120003334Y-106550525D01*
X120000500Y-106524167D01*
X120000500Y-106434110D01*
X120000500Y-106434108D01*
X119966392Y-106306814D01*
X119900500Y-106192686D01*
X119807314Y-106099500D01*
X119723208Y-106050941D01*
X119693187Y-106033608D01*
X119629539Y-106016554D01*
X119565892Y-105999500D01*
X119434108Y-105999500D01*
X119306812Y-106033608D01*
X119192686Y-106099500D01*
X119192683Y-106099502D01*
X119099502Y-106192683D01*
X119099500Y-106192686D01*
X119033608Y-106306812D01*
X118999500Y-106434108D01*
X118999500Y-106565892D01*
X119007451Y-106595565D01*
X119033608Y-106693187D01*
X119066554Y-106750250D01*
X119099500Y-106807314D01*
X119192686Y-106900500D01*
X119306814Y-106966392D01*
X119434108Y-107000500D01*
X119434110Y-107000500D01*
X119524167Y-107000500D01*
X119591206Y-107020185D01*
X119611848Y-107036819D01*
X123662848Y-111087819D01*
X123696333Y-111149142D01*
X123691349Y-111218834D01*
X123649477Y-111274767D01*
X123584013Y-111299184D01*
X123575167Y-111299500D01*
X122775833Y-111299500D01*
X122708794Y-111279815D01*
X122688152Y-111263181D01*
X121036819Y-109611848D01*
X121003334Y-109550525D01*
X121000500Y-109524167D01*
X121000500Y-109434110D01*
X121000500Y-109434108D01*
X120966392Y-109306814D01*
X120900500Y-109192686D01*
X120807314Y-109099500D01*
X120750250Y-109066554D01*
X120693187Y-109033608D01*
X120629539Y-109016554D01*
X120565892Y-108999500D01*
X120434108Y-108999500D01*
X120306812Y-109033608D01*
X120192686Y-109099500D01*
X120192683Y-109099502D01*
X120099502Y-109192683D01*
X120099500Y-109192686D01*
X120033608Y-109306812D01*
X119999500Y-109434108D01*
X119999500Y-109565892D01*
X120011814Y-109611848D01*
X120033608Y-109693187D01*
X120066554Y-109750250D01*
X120099500Y-109807314D01*
X120192686Y-109900500D01*
X120306814Y-109966392D01*
X120434108Y-110000500D01*
X120434110Y-110000500D01*
X120524167Y-110000500D01*
X120591206Y-110020185D01*
X120611848Y-110036819D01*
X122359540Y-111784511D01*
X122415489Y-111840460D01*
X122415491Y-111840461D01*
X122415495Y-111840464D01*
X122484004Y-111880017D01*
X122484011Y-111880021D01*
X122560438Y-111900500D01*
X123092324Y-111900500D01*
X123159363Y-111920185D01*
X123205118Y-111972989D01*
X123215062Y-112042147D01*
X123186037Y-112105703D01*
X123180005Y-112112181D01*
X123099502Y-112192683D01*
X123099500Y-112192686D01*
X123033608Y-112306812D01*
X122999500Y-112434108D01*
X122999500Y-112565891D01*
X123033608Y-112693187D01*
X123066554Y-112750250D01*
X123099500Y-112807314D01*
X123192686Y-112900500D01*
X123306814Y-112966392D01*
X123434108Y-113000500D01*
X123434110Y-113000500D01*
X123565890Y-113000500D01*
X123565892Y-113000500D01*
X123693186Y-112966392D01*
X123807314Y-112900500D01*
X123870995Y-112836819D01*
X123932318Y-112803334D01*
X123958676Y-112800500D01*
X132041324Y-112800500D01*
X132108363Y-112820185D01*
X132129005Y-112836819D01*
X132192686Y-112900500D01*
X132306814Y-112966392D01*
X132431413Y-112999778D01*
X132491073Y-113036142D01*
X132521602Y-113098989D01*
X132513307Y-113168364D01*
X132503285Y-113185487D01*
X132503564Y-113185648D01*
X132433608Y-113306812D01*
X132399500Y-113434108D01*
X132399500Y-113565891D01*
X132433608Y-113693187D01*
X132466554Y-113750250D01*
X132499500Y-113807314D01*
X132592686Y-113900500D01*
X132706814Y-113966392D01*
X132816268Y-113995719D01*
X132875925Y-114032082D01*
X132906455Y-114094929D01*
X132898161Y-114164305D01*
X132871853Y-114203174D01*
X98991848Y-148083181D01*
X98930525Y-148116666D01*
X98904167Y-148119500D01*
X69595436Y-148119500D01*
X69528397Y-148099815D01*
X69482642Y-148047011D01*
X69480875Y-148042953D01*
X69430941Y-147922403D01*
X69430941Y-147922402D01*
X69315977Y-147750345D01*
X69315975Y-147750342D01*
X69169657Y-147604024D01*
X69013971Y-147499999D01*
X68997598Y-147489059D01*
X68806420Y-147409870D01*
X68806412Y-147409868D01*
X68603469Y-147369500D01*
X68603465Y-147369500D01*
X68396535Y-147369500D01*
X68396530Y-147369500D01*
X68193587Y-147409868D01*
X68193579Y-147409870D01*
X68002403Y-147489058D01*
X67830342Y-147604024D01*
X67684024Y-147750342D01*
X67569058Y-147922403D01*
X67489870Y-148113579D01*
X67489868Y-148113587D01*
X67449500Y-148316530D01*
X62967552Y-148316530D01*
X62726019Y-53901577D01*
X63249500Y-53901577D01*
X63249500Y-54098422D01*
X63280290Y-54292826D01*
X63341117Y-54480029D01*
X63404134Y-54603706D01*
X63430476Y-54655405D01*
X63546172Y-54814646D01*
X63685354Y-54953828D01*
X63844595Y-55069524D01*
X63927455Y-55111743D01*
X64019970Y-55158882D01*
X64019972Y-55158882D01*
X64019975Y-55158884D01*
X64120317Y-55191487D01*
X64207173Y-55219709D01*
X64401578Y-55250500D01*
X64401583Y-55250500D01*
X64598422Y-55250500D01*
X64792826Y-55219709D01*
X64980025Y-55158884D01*
X65155405Y-55069524D01*
X65314646Y-54953828D01*
X65453828Y-54814646D01*
X65569524Y-54655405D01*
X65658884Y-54480025D01*
X65719709Y-54292826D01*
X65724430Y-54263021D01*
X65750500Y-54098422D01*
X65750500Y-53901577D01*
X65719709Y-53707173D01*
X65684373Y-53598422D01*
X65658884Y-53519975D01*
X65658882Y-53519972D01*
X65658882Y-53519970D01*
X65611743Y-53427455D01*
X65569524Y-53344595D01*
X65453828Y-53185354D01*
X65314646Y-53046172D01*
X65155405Y-52930476D01*
X64980029Y-52841117D01*
X64792826Y-52780290D01*
X64598422Y-52749500D01*
X64598417Y-52749500D01*
X64401583Y-52749500D01*
X64401578Y-52749500D01*
X64207173Y-52780290D01*
X64019970Y-52841117D01*
X63844594Y-52930476D01*
X63753741Y-52996485D01*
X63685354Y-53046172D01*
X63685352Y-53046174D01*
X63685351Y-53046174D01*
X63546174Y-53185351D01*
X63546174Y-53185352D01*
X63546172Y-53185354D01*
X63521013Y-53219982D01*
X63430476Y-53344594D01*
X63341117Y-53519970D01*
X63280290Y-53707173D01*
X63249500Y-53901577D01*
X62726019Y-53901577D01*
X62721472Y-52124316D01*
X62740985Y-52057228D01*
X62793672Y-52011338D01*
X62845472Y-52000000D01*
X128541552Y-52000000D01*
X128608591Y-52019685D01*
G37*
%TD.AperFunction*%
%TD*%
M02*
